%TF.GenerationSoftware,KiCad,Pcbnew,8.0.5*%
%TF.CreationDate,2024-11-03T15:39:05-06:00*%
%TF.ProjectId,DataAcq-EnvironmentBoard,44617461-4163-4712-9d45-6e7669726f6e,rev?*%
%TF.SameCoordinates,Original*%
%TF.FileFunction,Paste,Top*%
%TF.FilePolarity,Positive*%
%FSLAX46Y46*%
G04 Gerber Fmt 4.6, Leading zero omitted, Abs format (unit mm)*
G04 Created by KiCad (PCBNEW 8.0.5) date 2024-11-03 15:39:05*
%MOMM*%
%LPD*%
G01*
G04 APERTURE LIST*
G04 Aperture macros list*
%AMRoundRect*
0 Rectangle with rounded corners*
0 $1 Rounding radius*
0 $2 $3 $4 $5 $6 $7 $8 $9 X,Y pos of 4 corners*
0 Add a 4 corners polygon primitive as box body*
4,1,4,$2,$3,$4,$5,$6,$7,$8,$9,$2,$3,0*
0 Add four circle primitives for the rounded corners*
1,1,$1+$1,$2,$3*
1,1,$1+$1,$4,$5*
1,1,$1+$1,$6,$7*
1,1,$1+$1,$8,$9*
0 Add four rect primitives between the rounded corners*
20,1,$1+$1,$2,$3,$4,$5,0*
20,1,$1+$1,$4,$5,$6,$7,0*
20,1,$1+$1,$6,$7,$8,$9,0*
20,1,$1+$1,$8,$9,$2,$3,0*%
G04 Aperture macros list end*
%ADD10RoundRect,0.250000X-0.450000X0.262500X-0.450000X-0.262500X0.450000X-0.262500X0.450000X0.262500X0*%
%ADD11RoundRect,0.250000X0.475000X-0.250000X0.475000X0.250000X-0.475000X0.250000X-0.475000X-0.250000X0*%
%ADD12RoundRect,0.250000X-0.475000X0.250000X-0.475000X-0.250000X0.475000X-0.250000X0.475000X0.250000X0*%
%ADD13RoundRect,0.250000X0.250000X0.475000X-0.250000X0.475000X-0.250000X-0.475000X0.250000X-0.475000X0*%
%ADD14RoundRect,0.250000X-0.250000X-0.475000X0.250000X-0.475000X0.250000X0.475000X-0.250000X0.475000X0*%
%ADD15RoundRect,0.250000X0.262500X0.450000X-0.262500X0.450000X-0.262500X-0.450000X0.262500X-0.450000X0*%
%ADD16R,1.800000X0.550000*%
%ADD17RoundRect,0.243750X0.243750X0.456250X-0.243750X0.456250X-0.243750X-0.456250X0.243750X-0.456250X0*%
G04 APERTURE END LIST*
D10*
%TO.C,R1*%
X168000000Y-97637500D03*
X168000000Y-99462500D03*
%TD*%
D11*
%TO.C,C7*%
X170400000Y-99500000D03*
X170400000Y-97600000D03*
%TD*%
D12*
%TO.C,C6*%
X171550000Y-93850000D03*
X171550000Y-95750000D03*
%TD*%
D13*
%TO.C,C5*%
X177810000Y-84400000D03*
X175910000Y-84400000D03*
%TD*%
D12*
%TO.C,C4*%
X172660000Y-86450000D03*
X172660000Y-88350000D03*
%TD*%
%TO.C,C3*%
X172660000Y-79450000D03*
X172660000Y-81350000D03*
%TD*%
D14*
%TO.C,C2*%
X175910000Y-82200000D03*
X177810000Y-82200000D03*
%TD*%
D11*
%TO.C,C1*%
X185500000Y-85950000D03*
X185500000Y-84050000D03*
%TD*%
D15*
%TO.C,R2*%
X194000000Y-123500000D03*
X192175000Y-123500000D03*
%TD*%
D16*
%TO.C,U4*%
X177637260Y-91837260D03*
X181937260Y-91837260D03*
X177637260Y-92637260D03*
X181937260Y-92637260D03*
X177637260Y-93437260D03*
X181937260Y-93437260D03*
X177637260Y-94237260D03*
X181937260Y-94237260D03*
X177637260Y-95037260D03*
X181937260Y-95037260D03*
X177637260Y-95837260D03*
X181937260Y-95837260D03*
X177637260Y-96637260D03*
X181937260Y-96637260D03*
X177637260Y-97437260D03*
X181937260Y-97437260D03*
X177637260Y-98237260D03*
X181937260Y-98237260D03*
X177637260Y-99037260D03*
X181937260Y-99037260D03*
X177637260Y-99837260D03*
X181937260Y-99837260D03*
X177637260Y-100637260D03*
X181937260Y-100637260D03*
%TD*%
D17*
%TO.C,D2*%
X193937500Y-74750000D03*
X192062500Y-74750000D03*
%TD*%
%TO.C,D1*%
X194025000Y-121500000D03*
X192150000Y-121500000D03*
%TD*%
D15*
%TO.C,R3*%
X193912500Y-77000000D03*
X192087500Y-77000000D03*
%TD*%
M02*
