M48
; DRILL file {KiCad 8.0.5} date 2024-11-03T15:39:15-0600
; FORMAT={-:-/ absolute / inch / decimal}
; #@! TF.CreationDate,2024-11-03T15:39:15-06:00
; #@! TF.GenerationSoftware,Kicad,Pcbnew,8.0.5
; #@! TF.FileFunction,Plated,1,2,PTH
FMAT,2
INCH
; #@! TA.AperFunction,Plated,PTH,ViaDrill
T1C0.0118
; #@! TA.AperFunction,Plated,PTH,ComponentDrill
T2C0.0402
; #@! TA.AperFunction,Plated,PTH,ComponentDrill
T3C0.0472
%
G90
G05
T1
X6.6142Y-3.844
X6.7087Y-3.8425
X6.7087Y-3.9173
X6.7539Y-3.6949
X6.7539Y-3.7697
X6.7976Y-3.128
X6.7976Y-3.2028
X6.7976Y-3.4035
X6.7976Y-3.4783
X6.8602Y-3.7126
X6.9256Y-3.2362
X6.9256Y-3.3228
X7.0004Y-3.2362
X7.0004Y-3.3228
X7.0209Y-3.4016
X7.0484Y-3.7876
X7.0493Y-3.9158
X7.0709Y-3.4016
X7.0866Y-3.7416
X7.1629Y-3.6471
X7.1629Y-3.7101
X7.1629Y-3.8361
X7.1629Y-4.0025
X7.2101Y-3.8043
X7.2185Y-3.685
X7.2205Y-3.6535
X7.2539Y-3.8189
X7.2781Y-3.6882
X7.2843Y-3.8091
X7.2933Y-3.061
X7.2976Y-4.8591
X7.3031Y-3.3091
X7.3031Y-3.3839
X7.3917Y-3.748
X7.3934Y-3.6594
X7.4493Y-4.1181
X7.4724Y-3.4567
X7.5039Y-3.4567
X7.6353Y-2.9429
X7.6388Y-4.7835
T2
X5.8602Y-4.9606
X5.9783Y-4.9606
X6.0965Y-4.9606
X6.2146Y-4.9606
X6.6083Y-4.9606
X6.7264Y-4.9606
X6.8445Y-4.9606
X6.9626Y-4.9606
T3
X7.4252Y-3.6063
X7.4252Y-3.7047
X7.4252Y-3.8031
X7.4252Y-3.9016
X7.4252Y-4.0
X7.5236Y-3.6063
X7.5236Y-3.7047
X7.5236Y-3.8031
X7.5236Y-3.9016
X7.5236Y-4.0
M30
