M48
; DRILL file {KiCad 8.0.5} date 2024-10-30T11:13:24-0500
; FORMAT={-:-/ absolute / inch / decimal}
; #@! TF.CreationDate,2024-10-30T11:13:24-05:00
; #@! TF.GenerationSoftware,Kicad,Pcbnew,8.0.5
; #@! TF.FileFunction,Plated,1,2,PTH
FMAT,2
INCH
; #@! TA.AperFunction,Plated,PTH,ViaDrill
T1C0.0118
; #@! TA.AperFunction,Plated,PTH,ComponentDrill
T2C0.0394
; #@! TA.AperFunction,Plated,PTH,ComponentDrill
T3C0.0402
%
G90
G05
T1
X5.5807Y-3.0949
X5.5807Y-3.1718
X5.5807Y-3.3145
X5.5807Y-4.723
X5.5807Y-4.7958
X5.5807Y-4.9409
X5.6142Y-4.2854
X6.9291Y-3.7795
X7.1496Y-4.0157
X7.1604Y-3.6761
X7.1629Y-3.7101
X7.1629Y-3.8361
X7.1629Y-3.8991
X7.2283Y-4.813
X7.2318Y-3.8465
X7.2835Y-3.6299
X7.315Y-3.7697
X7.3228Y-3.9926
X7.3425Y-3.6713
X7.3425Y-3.7205
X7.3425Y-3.8484
X7.3917Y-4.7406
T2
X7.3031Y-2.9626
X7.3031Y-3.1201
X7.3031Y-4.1634
X7.3031Y-4.3701
X7.3031Y-4.5768
T3
X5.8602Y-4.9606
X5.9783Y-4.9606
X6.0965Y-4.9606
X6.2146Y-4.9606
X6.6083Y-4.9606
X6.7264Y-4.9606
X6.8445Y-4.9606
X6.9626Y-4.9606
X7.5295Y-3.0472
X7.5295Y-3.1654
X7.5295Y-3.2835
X7.5295Y-3.4016
X7.5295Y-3.8189
X7.5295Y-3.937
X7.5295Y-4.0551
X7.5295Y-4.4488
X7.5295Y-4.5669
X7.5295Y-4.685
X7.5295Y-4.8031
M30
