%TF.GenerationSoftware,KiCad,Pcbnew,8.0.5*%
%TF.CreationDate,2024-10-30T11:13:14-05:00*%
%TF.ProjectId,DataAcq-EnvironmentBoard,44617461-4163-4712-9d45-6e7669726f6e,rev?*%
%TF.SameCoordinates,Original*%
%TF.FileFunction,Copper,L2,Bot*%
%TF.FilePolarity,Positive*%
%FSLAX46Y46*%
G04 Gerber Fmt 4.6, Leading zero omitted, Abs format (unit mm)*
G04 Created by KiCad (PCBNEW 8.0.5) date 2024-10-30 11:13:14*
%MOMM*%
%LPD*%
G01*
G04 APERTURE LIST*
G04 Aperture macros list*
%AMRoundRect*
0 Rectangle with rounded corners*
0 $1 Rounding radius*
0 $2 $3 $4 $5 $6 $7 $8 $9 X,Y pos of 4 corners*
0 Add a 4 corners polygon primitive as box body*
4,1,4,$2,$3,$4,$5,$6,$7,$8,$9,$2,$3,0*
0 Add four circle primitives for the rounded corners*
1,1,$1+$1,$2,$3*
1,1,$1+$1,$4,$5*
1,1,$1+$1,$6,$7*
1,1,$1+$1,$8,$9*
0 Add four rect primitives between the rounded corners*
20,1,$1+$1,$2,$3,$4,$5,0*
20,1,$1+$1,$4,$5,$6,$7,0*
20,1,$1+$1,$6,$7,$8,$9,0*
20,1,$1+$1,$8,$9,$2,$3,0*%
G04 Aperture macros list end*
%TA.AperFunction,ComponentPad*%
%ADD10C,1.700000*%
%TD*%
%TA.AperFunction,ComponentPad*%
%ADD11R,1.700000X1.700000*%
%TD*%
%TA.AperFunction,SMDPad,CuDef*%
%ADD12RoundRect,0.250000X-0.450000X0.262500X-0.450000X-0.262500X0.450000X-0.262500X0.450000X0.262500X0*%
%TD*%
%TA.AperFunction,SMDPad,CuDef*%
%ADD13RoundRect,0.218750X-0.256250X0.218750X-0.256250X-0.218750X0.256250X-0.218750X0.256250X0.218750X0*%
%TD*%
%TA.AperFunction,ViaPad*%
%ADD14C,0.600000*%
%TD*%
%TA.AperFunction,ViaPad*%
%ADD15C,0.500000*%
%TD*%
%TA.AperFunction,Conductor*%
%ADD16C,0.200000*%
%TD*%
G04 APERTURE END LIST*
D10*
%TO.P,J1,1,Pin_1*%
%TO.N,Net-(J1-Pin_1)*%
X191250000Y-86400000D03*
%TO.P,J1,2,Pin_2*%
%TO.N,/I2C2_SCL*%
X191250000Y-83400000D03*
%TO.P,J1,3,Pin_3*%
%TO.N,/I2C2_SDA*%
X191250000Y-80400000D03*
%TO.P,J1,4,Pin_4*%
%TO.N,GND*%
X191250000Y-77400000D03*
%TD*%
D11*
%TO.P,TP3,1,1*%
%TO.N,/PA1(ADC)*%
X185500000Y-105750000D03*
%TD*%
%TO.P,TP8,1,1*%
%TO.N,/I2C2_SDA*%
X185500000Y-75250000D03*
%TD*%
%TO.P,TP9,1,1*%
%TO.N,/I2C2_SCL*%
X185500000Y-79250000D03*
%TD*%
D10*
%TO.P,J4,1,Pin_1*%
%TO.N,Net-(J4-Pin_1)*%
X191250000Y-122000000D03*
%TO.P,J4,2,Pin_2*%
%TO.N,/I2C1_SDA*%
X191250000Y-119000000D03*
%TO.P,J4,3,Pin_3*%
%TO.N,/I2C1_SCL*%
X191250000Y-116000000D03*
%TO.P,J4,4,Pin_4*%
%TO.N,GND*%
X191250000Y-113000000D03*
%TD*%
D11*
%TO.P,TP6,1,1*%
%TO.N,/I2C1_SDA*%
X185500000Y-116250000D03*
%TD*%
%TO.P,TP7,1,1*%
%TO.N,/I2C1_SCL*%
X185500000Y-111000000D03*
%TD*%
D10*
%TO.P,J5,1,Pin_1*%
%TO.N,Net-(J5-Pin_1)*%
X191250000Y-103000000D03*
%TO.P,J5,2,Pin_2*%
%TO.N,/PA1(ADC)*%
X191250000Y-100000000D03*
%TO.P,J5,3,Pin_3*%
%TO.N,GNDA*%
X191250000Y-97000000D03*
%TD*%
%TO.P,J2,1,12V*%
%TO.N,+12V_In*%
X167850000Y-126000000D03*
%TO.P,J2,2,GNDPWR*%
%TO.N,GNDPWR*%
X170850000Y-126000000D03*
%TO.P,J2,3,CAN_H*%
%TO.N,/CAN_H*%
X173850000Y-126000000D03*
%TO.P,J2,4,CAN_L*%
%TO.N,/CAN_L*%
X176850000Y-126000000D03*
%TD*%
%TO.P,J3,1,12V*%
%TO.N,+12V_In*%
X148850000Y-126000000D03*
%TO.P,J3,2,GNDPWR*%
%TO.N,GNDPWR*%
X151850000Y-126000000D03*
%TO.P,J3,3,CAN_H*%
%TO.N,/CAN_H*%
X154850000Y-126000000D03*
%TO.P,J3,4,CAN_L*%
%TO.N,/CAN_L*%
X157850000Y-126000000D03*
%TD*%
D12*
%TO.P,R2,1*%
%TO.N,+12V_In*%
X141750000Y-119963870D03*
%TO.P,R2,2*%
%TO.N,Net-(D1-A)*%
X141750000Y-121788870D03*
%TD*%
%TO.P,R3,1*%
%TO.N,+3.3V*%
X141750000Y-78611370D03*
%TO.P,R3,2*%
%TO.N,Net-(D2-A)*%
X141750000Y-80436370D03*
%TD*%
D13*
%TO.P,F3,1*%
%TO.N,VDDA*%
X186000000Y-101412500D03*
%TO.P,F3,2*%
%TO.N,Net-(J5-Pin_1)*%
X186000000Y-102987500D03*
%TD*%
%TO.P,F1,1*%
%TO.N,+3.3V*%
X187750000Y-120412500D03*
%TO.P,F1,2*%
%TO.N,Net-(J4-Pin_1)*%
X187750000Y-121987500D03*
%TD*%
D14*
%TO.N,+3.3V*%
X141750000Y-78611370D03*
X187750000Y-120412500D03*
D15*
%TO.N,/I2C1_SDA*%
X181937260Y-97437260D03*
X183687260Y-97700000D03*
D14*
%TO.N,GND*%
X186500000Y-97750000D03*
X142600000Y-108850000D03*
X186500000Y-93250000D03*
X185000000Y-92200000D03*
X176000000Y-96000000D03*
X141750000Y-84187500D03*
X186500000Y-94500000D03*
D15*
%TO.N,/I2C2_SCL*%
X181937260Y-94237260D03*
%TO.N,/I2C2_SDA*%
X181872918Y-93372918D03*
D14*
%TO.N,VDDA*%
X186000000Y-101412500D03*
%TO.N,GNDA*%
X185800000Y-95750000D03*
%TO.N,GNDPWR*%
X141750000Y-125500000D03*
X181600000Y-102000000D03*
X183600000Y-122250000D03*
D15*
%TO.N,/PA1(ADC)*%
X181937260Y-99037260D03*
D14*
%TO.N,+12V_In*%
X141750000Y-119963870D03*
%TO.N,Net-(D1-A)*%
X141750000Y-121812500D03*
%TO.N,Net-(D2-A)*%
X141750000Y-80562500D03*
%TD*%
D16*
%TO.N,/I2C1_SCL*%
X185500000Y-113900000D02*
X185500000Y-111000000D01*
X187600000Y-116000000D02*
X185500000Y-113900000D01*
X191250000Y-116000000D02*
X187600000Y-116000000D01*
%TO.N,/I2C1_SDA*%
X181387260Y-99326169D02*
X181387260Y-97987260D01*
X191250000Y-118050000D02*
X189800000Y-116600000D01*
X183687260Y-97700000D02*
X182200000Y-97700000D01*
X185850000Y-116600000D02*
X185500000Y-116250000D01*
X184200000Y-102138909D02*
X181387260Y-99326169D01*
X184200000Y-114950000D02*
X184200000Y-102138909D01*
X182200000Y-97700000D02*
X181937260Y-97437260D01*
X181387260Y-97987260D02*
X181937260Y-97437260D01*
X185500000Y-116250000D02*
X184200000Y-114950000D01*
X191250000Y-119000000D02*
X191250000Y-118050000D01*
X189800000Y-116600000D02*
X185850000Y-116600000D01*
%TO.N,/I2C2_SCL*%
X182422918Y-93388604D02*
X182422918Y-93751602D01*
X182422918Y-93751602D02*
X181937260Y-94237260D01*
X190561522Y-85250000D02*
X182422918Y-93388604D01*
X190561522Y-85238478D02*
X190561522Y-85250000D01*
X191250000Y-83400000D02*
X191250000Y-84550000D01*
X191250000Y-84550000D02*
X190561522Y-85238478D01*
%TO.N,/I2C2_SDA*%
X181872918Y-93372918D02*
X189800000Y-85445836D01*
X191250000Y-81350000D02*
X191250000Y-80400000D01*
X189800000Y-85445836D02*
X189800000Y-82800000D01*
X189800000Y-82800000D02*
X191250000Y-81350000D01*
%TO.N,GNDA*%
X185800000Y-95750000D02*
X190000000Y-95750000D01*
X190000000Y-95750000D02*
X191250000Y-97000000D01*
%TO.N,/PA1(ADC)*%
X182900000Y-100000000D02*
X191250000Y-100000000D01*
X183000000Y-100000000D02*
X182900000Y-100000000D01*
X185225000Y-102225000D02*
X183000000Y-100000000D01*
X181937260Y-99037260D02*
X182900000Y-100000000D01*
X185500000Y-105750000D02*
X185225000Y-105475000D01*
X185225000Y-105475000D02*
X185225000Y-102225000D01*
%TO.N,/CAN_L*%
X174600000Y-128250000D02*
X160100000Y-128250000D01*
X176850000Y-126000000D02*
X174600000Y-128250000D01*
X160100000Y-128250000D02*
X157850000Y-126000000D01*
%TO.N,Net-(J4-Pin_1)*%
X187762500Y-122000000D02*
X187750000Y-121987500D01*
X191250000Y-122000000D02*
X187762500Y-122000000D01*
%TO.N,Net-(J5-Pin_1)*%
X186012500Y-103000000D02*
X191250000Y-103000000D01*
X186000000Y-102987500D02*
X186012500Y-103000000D01*
%TD*%
%TA.AperFunction,Conductor*%
%TO.N,GND*%
G36*
X190075965Y-118322169D02*
G01*
X190075964Y-118322171D01*
X189976098Y-118536335D01*
X189976094Y-118536344D01*
X189914938Y-118764586D01*
X189914936Y-118764596D01*
X189894341Y-118999999D01*
X189894341Y-119000000D01*
X189914936Y-119235403D01*
X189914938Y-119235413D01*
X189976094Y-119463655D01*
X189976096Y-119463659D01*
X189976097Y-119463663D01*
X190010505Y-119537450D01*
X190075965Y-119677830D01*
X190075967Y-119677834D01*
X190122724Y-119744609D01*
X190211505Y-119871401D01*
X190378599Y-120038495D01*
X190391197Y-120047316D01*
X190572165Y-120174032D01*
X190572167Y-120174033D01*
X190572170Y-120174035D01*
X190786337Y-120273903D01*
X191014592Y-120335063D01*
X191202918Y-120351539D01*
X191249999Y-120355659D01*
X191250000Y-120355659D01*
X191250001Y-120355659D01*
X191289234Y-120352226D01*
X191485408Y-120335063D01*
X191713663Y-120273903D01*
X191927830Y-120174035D01*
X192121401Y-120038495D01*
X192288495Y-119871401D01*
X192424035Y-119677830D01*
X192523903Y-119463663D01*
X192585063Y-119235408D01*
X192605659Y-119000000D01*
X192585063Y-118764592D01*
X192523903Y-118536337D01*
X192424035Y-118322171D01*
X192373501Y-118250000D01*
X195449500Y-118250000D01*
X195449500Y-127246519D01*
X195449305Y-127253472D01*
X195432916Y-127545296D01*
X195431359Y-127559114D01*
X195382984Y-127843827D01*
X195379890Y-127857384D01*
X195299939Y-128134899D01*
X195295346Y-128148024D01*
X195184830Y-128414834D01*
X195178797Y-128427362D01*
X195039100Y-128680125D01*
X195031702Y-128691899D01*
X194864584Y-128927430D01*
X194855914Y-128938302D01*
X194663475Y-129153642D01*
X194653642Y-129163475D01*
X194438302Y-129355914D01*
X194427430Y-129364584D01*
X194191899Y-129531702D01*
X194180125Y-129539100D01*
X193927362Y-129678797D01*
X193914834Y-129684830D01*
X193648024Y-129795346D01*
X193634899Y-129799939D01*
X193357384Y-129879890D01*
X193343827Y-129882984D01*
X193059114Y-129931359D01*
X193045296Y-129932916D01*
X192753472Y-129949305D01*
X192746519Y-129949500D01*
X186250000Y-129949500D01*
X186250000Y-124912387D01*
X188400500Y-124912387D01*
X188400500Y-125087612D01*
X188434681Y-125259450D01*
X188434684Y-125259462D01*
X188501731Y-125421329D01*
X188501738Y-125421342D01*
X188599079Y-125567022D01*
X188599082Y-125567026D01*
X188722973Y-125690917D01*
X188722977Y-125690920D01*
X188868657Y-125788261D01*
X188868670Y-125788268D01*
X189030537Y-125855315D01*
X189030542Y-125855317D01*
X189202387Y-125889499D01*
X189202391Y-125889500D01*
X189202392Y-125889500D01*
X189377609Y-125889500D01*
X189377610Y-125889499D01*
X189549458Y-125855317D01*
X189711336Y-125788265D01*
X189857023Y-125690920D01*
X189980920Y-125567023D01*
X190078265Y-125421336D01*
X190145317Y-125259458D01*
X190179500Y-125087608D01*
X190179500Y-124912392D01*
X190145317Y-124740542D01*
X190145315Y-124740537D01*
X190078268Y-124578670D01*
X190078261Y-124578657D01*
X189980920Y-124432977D01*
X189980917Y-124432973D01*
X189857026Y-124309082D01*
X189857022Y-124309079D01*
X189711342Y-124211738D01*
X189711329Y-124211731D01*
X189549462Y-124144684D01*
X189549450Y-124144681D01*
X189377612Y-124110500D01*
X189377608Y-124110500D01*
X189202392Y-124110500D01*
X189202387Y-124110500D01*
X189030549Y-124144681D01*
X189030537Y-124144684D01*
X188868670Y-124211731D01*
X188868657Y-124211738D01*
X188722977Y-124309079D01*
X188722973Y-124309082D01*
X188599082Y-124432973D01*
X188599079Y-124432977D01*
X188501738Y-124578657D01*
X188501731Y-124578670D01*
X188434684Y-124740537D01*
X188434681Y-124740549D01*
X188400500Y-124912387D01*
X186250000Y-124912387D01*
X186250000Y-120145818D01*
X186774500Y-120145818D01*
X186774500Y-120679181D01*
X186784563Y-120777683D01*
X186837450Y-120937284D01*
X186837455Y-120937295D01*
X186925716Y-121080387D01*
X186925719Y-121080391D01*
X186957647Y-121112319D01*
X186991132Y-121173642D01*
X186986148Y-121243334D01*
X186957647Y-121287681D01*
X186925719Y-121319608D01*
X186925716Y-121319612D01*
X186837455Y-121462704D01*
X186837451Y-121462713D01*
X186784564Y-121622315D01*
X186784564Y-121622316D01*
X186784563Y-121622316D01*
X186774500Y-121720818D01*
X186774500Y-122254181D01*
X186784563Y-122352683D01*
X186837450Y-122512284D01*
X186837455Y-122512295D01*
X186925716Y-122655387D01*
X186925719Y-122655391D01*
X187044608Y-122774280D01*
X187044612Y-122774283D01*
X187187704Y-122862544D01*
X187187707Y-122862545D01*
X187187713Y-122862549D01*
X187347315Y-122915436D01*
X187445826Y-122925500D01*
X187445831Y-122925500D01*
X188054169Y-122925500D01*
X188054174Y-122925500D01*
X188152685Y-122915436D01*
X188312287Y-122862549D01*
X188455391Y-122774281D01*
X188574281Y-122655391D01*
X188574284Y-122655385D01*
X188578762Y-122649724D01*
X188580786Y-122651324D01*
X188623759Y-122612676D01*
X188677345Y-122600500D01*
X189960909Y-122600500D01*
X190027948Y-122620185D01*
X190073292Y-122672097D01*
X190075965Y-122677830D01*
X190211505Y-122871401D01*
X190378599Y-123038495D01*
X190475384Y-123106265D01*
X190572165Y-123174032D01*
X190572167Y-123174033D01*
X190572170Y-123174035D01*
X190786337Y-123273903D01*
X191014592Y-123335063D01*
X191202918Y-123351539D01*
X191249999Y-123355659D01*
X191250000Y-123355659D01*
X191250001Y-123355659D01*
X191289234Y-123352226D01*
X191485408Y-123335063D01*
X191713663Y-123273903D01*
X191927830Y-123174035D01*
X192121401Y-123038495D01*
X192288495Y-122871401D01*
X192424035Y-122677830D01*
X192523903Y-122463663D01*
X192585063Y-122235408D01*
X192605659Y-122000000D01*
X192585063Y-121764592D01*
X192523903Y-121536337D01*
X192424035Y-121322171D01*
X192424034Y-121322169D01*
X192288494Y-121128597D01*
X192121402Y-120961506D01*
X192121395Y-120961501D01*
X191927834Y-120825967D01*
X191927830Y-120825965D01*
X191927828Y-120825964D01*
X191713663Y-120726097D01*
X191713659Y-120726096D01*
X191713655Y-120726094D01*
X191485413Y-120664938D01*
X191485403Y-120664936D01*
X191250001Y-120644341D01*
X191249999Y-120644341D01*
X191014596Y-120664936D01*
X191014586Y-120664938D01*
X190786344Y-120726094D01*
X190786335Y-120726098D01*
X190572171Y-120825964D01*
X190572169Y-120825965D01*
X190378597Y-120961505D01*
X190211506Y-121128596D01*
X190075965Y-121322170D01*
X190075962Y-121322175D01*
X190073289Y-121327909D01*
X190027115Y-121380346D01*
X189960909Y-121399500D01*
X188692765Y-121399500D01*
X188625726Y-121379815D01*
X188587227Y-121340598D01*
X188574281Y-121319609D01*
X188542353Y-121287681D01*
X188508868Y-121226358D01*
X188513852Y-121156666D01*
X188542353Y-121112319D01*
X188574281Y-121080391D01*
X188662549Y-120937287D01*
X188715436Y-120777685D01*
X188725500Y-120679174D01*
X188725500Y-120145826D01*
X188715436Y-120047315D01*
X188662549Y-119887713D01*
X188662545Y-119887707D01*
X188662544Y-119887704D01*
X188574283Y-119744612D01*
X188574280Y-119744608D01*
X188455391Y-119625719D01*
X188455387Y-119625716D01*
X188312295Y-119537455D01*
X188312289Y-119537452D01*
X188312287Y-119537451D01*
X188152685Y-119484564D01*
X188152683Y-119484563D01*
X188054181Y-119474500D01*
X188054174Y-119474500D01*
X187445826Y-119474500D01*
X187445818Y-119474500D01*
X187347316Y-119484563D01*
X187347315Y-119484564D01*
X187268219Y-119510773D01*
X187187715Y-119537450D01*
X187187704Y-119537455D01*
X187044612Y-119625716D01*
X187044608Y-119625719D01*
X186925719Y-119744608D01*
X186925716Y-119744612D01*
X186837455Y-119887704D01*
X186837451Y-119887713D01*
X186784564Y-120047315D01*
X186784564Y-120047316D01*
X186784563Y-120047316D01*
X186774500Y-120145818D01*
X186250000Y-120145818D01*
X186250000Y-118250000D01*
X190126499Y-118250000D01*
X190075965Y-118322169D01*
G37*
%TD.AperFunction*%
%TD*%
%TA.AperFunction,Conductor*%
%TO.N,GND*%
G36*
X189566942Y-117220185D02*
G01*
X189587584Y-117236819D01*
X190257752Y-117906987D01*
X190291237Y-117968310D01*
X190286253Y-118038002D01*
X190257754Y-118082347D01*
X190211506Y-118128596D01*
X190126498Y-118250000D01*
X186255500Y-118250000D01*
X186255500Y-117724499D01*
X186275185Y-117657460D01*
X186327989Y-117611705D01*
X186379500Y-117600499D01*
X186397871Y-117600499D01*
X186397872Y-117600499D01*
X186457483Y-117594091D01*
X186592331Y-117543796D01*
X186707546Y-117457546D01*
X186793796Y-117342331D01*
X186801621Y-117321350D01*
X186816609Y-117281167D01*
X186858480Y-117225233D01*
X186923944Y-117200816D01*
X186932791Y-117200500D01*
X189499903Y-117200500D01*
X189566942Y-117220185D01*
G37*
%TD.AperFunction*%
%TA.AperFunction,Conductor*%
G36*
X142648193Y-71550526D02*
G01*
X142691347Y-71551423D01*
X142691348Y-71551422D01*
X142692631Y-71551449D01*
X142706541Y-71550500D01*
X192692948Y-71550500D01*
X192707241Y-71551326D01*
X192714933Y-71552218D01*
X192714935Y-71552219D01*
X192714936Y-71552218D01*
X192714937Y-71552219D01*
X192753670Y-71550607D01*
X192758826Y-71550500D01*
X192776203Y-71550500D01*
X192778372Y-71550518D01*
X193060000Y-71555447D01*
X193074575Y-71556566D01*
X193362147Y-71595812D01*
X193376483Y-71598639D01*
X193657410Y-71671502D01*
X193671336Y-71676007D01*
X193700483Y-71687376D01*
X193941727Y-71781477D01*
X193955005Y-71787582D01*
X194211077Y-71924185D01*
X194223558Y-71931823D01*
X194461741Y-72097652D01*
X194473232Y-72106705D01*
X194561719Y-72185311D01*
X194690201Y-72299446D01*
X194700553Y-72309798D01*
X194832453Y-72458278D01*
X194891200Y-72524410D01*
X194893290Y-72526762D01*
X194902351Y-72538263D01*
X195068176Y-72776441D01*
X195075816Y-72788927D01*
X195212413Y-73044986D01*
X195218526Y-73058281D01*
X195323992Y-73328663D01*
X195328497Y-73342592D01*
X195372047Y-73510500D01*
X195401056Y-73622345D01*
X195401356Y-73623499D01*
X195404189Y-73637864D01*
X195443432Y-73925413D01*
X195444552Y-73940010D01*
X195449481Y-74221627D01*
X195449500Y-74223797D01*
X195449500Y-74241173D01*
X195449393Y-74246329D01*
X195447780Y-74285067D01*
X195448673Y-74292757D01*
X195449500Y-74307051D01*
X195449500Y-118250000D01*
X192373501Y-118250000D01*
X192288495Y-118128599D01*
X192288494Y-118128597D01*
X192121402Y-117961506D01*
X192121395Y-117961501D01*
X191927831Y-117825965D01*
X191927829Y-117825964D01*
X191807567Y-117769885D01*
X191755128Y-117723713D01*
X191752584Y-117719501D01*
X191730522Y-117681287D01*
X191730518Y-117681282D01*
X191557534Y-117508298D01*
X191524049Y-117446975D01*
X191529033Y-117377283D01*
X191570905Y-117321350D01*
X191613121Y-117300842D01*
X191660400Y-117288174D01*
X191713653Y-117273906D01*
X191713654Y-117273905D01*
X191713663Y-117273903D01*
X191927830Y-117174035D01*
X192121401Y-117038495D01*
X192288495Y-116871401D01*
X192424035Y-116677830D01*
X192523903Y-116463663D01*
X192585063Y-116235408D01*
X192605659Y-116000000D01*
X192585063Y-115764592D01*
X192523903Y-115536337D01*
X192424035Y-115322171D01*
X192424034Y-115322169D01*
X192288494Y-115128597D01*
X192121402Y-114961506D01*
X192121395Y-114961501D01*
X191927834Y-114825967D01*
X191927830Y-114825965D01*
X191927828Y-114825964D01*
X191713663Y-114726097D01*
X191713659Y-114726096D01*
X191713655Y-114726094D01*
X191485413Y-114664938D01*
X191485403Y-114664936D01*
X191250001Y-114644341D01*
X191249999Y-114644341D01*
X191014596Y-114664936D01*
X191014586Y-114664938D01*
X190786344Y-114726094D01*
X190786335Y-114726098D01*
X190572171Y-114825964D01*
X190572169Y-114825965D01*
X190378597Y-114961505D01*
X190211506Y-115128596D01*
X190075965Y-115322170D01*
X190075962Y-115322175D01*
X190073289Y-115327909D01*
X190027115Y-115380346D01*
X189960909Y-115399500D01*
X187900097Y-115399500D01*
X187833058Y-115379815D01*
X187812416Y-115363181D01*
X186136819Y-113687584D01*
X186103334Y-113626261D01*
X186100500Y-113599903D01*
X186100500Y-112999998D01*
X189894843Y-112999998D01*
X189894843Y-113000001D01*
X189915430Y-113235315D01*
X189915432Y-113235326D01*
X189976566Y-113463483D01*
X189976570Y-113463492D01*
X190076400Y-113677579D01*
X190076402Y-113677583D01*
X190135072Y-113761373D01*
X190135073Y-113761373D01*
X190758871Y-113137574D01*
X190774755Y-113196853D01*
X190841898Y-113313147D01*
X190936853Y-113408102D01*
X191053147Y-113475245D01*
X191112424Y-113491128D01*
X190488625Y-114114925D01*
X190572421Y-114173599D01*
X190786507Y-114273429D01*
X190786516Y-114273433D01*
X191014673Y-114334567D01*
X191014684Y-114334569D01*
X191249998Y-114355157D01*
X191250002Y-114355157D01*
X191485315Y-114334569D01*
X191485326Y-114334567D01*
X191713483Y-114273433D01*
X191713492Y-114273429D01*
X191927578Y-114173600D01*
X191927582Y-114173598D01*
X192011373Y-114114926D01*
X192011373Y-114114925D01*
X191387575Y-113491128D01*
X191446853Y-113475245D01*
X191563147Y-113408102D01*
X191658102Y-113313147D01*
X191725245Y-113196853D01*
X191741127Y-113137575D01*
X192364925Y-113761373D01*
X192364926Y-113761373D01*
X192423598Y-113677582D01*
X192423600Y-113677578D01*
X192523429Y-113463492D01*
X192523433Y-113463483D01*
X192584567Y-113235326D01*
X192584569Y-113235315D01*
X192605157Y-113000001D01*
X192605157Y-112999998D01*
X192584569Y-112764684D01*
X192584567Y-112764673D01*
X192523433Y-112536516D01*
X192523429Y-112536507D01*
X192423600Y-112322423D01*
X192423599Y-112322421D01*
X192364925Y-112238626D01*
X192364925Y-112238625D01*
X191741127Y-112862423D01*
X191725245Y-112803147D01*
X191658102Y-112686853D01*
X191563147Y-112591898D01*
X191446853Y-112524755D01*
X191387575Y-112508871D01*
X192011373Y-111885073D01*
X192011373Y-111885072D01*
X191927583Y-111826402D01*
X191927579Y-111826400D01*
X191713492Y-111726570D01*
X191713483Y-111726566D01*
X191485326Y-111665432D01*
X191485315Y-111665430D01*
X191250002Y-111644843D01*
X191249998Y-111644843D01*
X191014684Y-111665430D01*
X191014673Y-111665432D01*
X190786516Y-111726566D01*
X190786507Y-111726570D01*
X190572419Y-111826401D01*
X190488625Y-111885072D01*
X191112424Y-112508871D01*
X191053147Y-112524755D01*
X190936853Y-112591898D01*
X190841898Y-112686853D01*
X190774755Y-112803147D01*
X190758871Y-112862424D01*
X190135072Y-112238625D01*
X190076401Y-112322419D01*
X189976570Y-112536507D01*
X189976566Y-112536516D01*
X189915432Y-112764673D01*
X189915430Y-112764684D01*
X189894843Y-112999998D01*
X186100500Y-112999998D01*
X186100500Y-112474499D01*
X186120185Y-112407460D01*
X186172989Y-112361705D01*
X186224500Y-112350499D01*
X186397871Y-112350499D01*
X186397872Y-112350499D01*
X186457483Y-112344091D01*
X186592331Y-112293796D01*
X186707546Y-112207546D01*
X186793796Y-112092331D01*
X186844091Y-111957483D01*
X186850500Y-111897873D01*
X186850499Y-110102128D01*
X186844091Y-110042517D01*
X186795556Y-109912387D01*
X188400500Y-109912387D01*
X188400500Y-110087612D01*
X188434681Y-110259450D01*
X188434684Y-110259462D01*
X188501731Y-110421329D01*
X188501738Y-110421342D01*
X188599079Y-110567022D01*
X188599082Y-110567026D01*
X188722973Y-110690917D01*
X188722977Y-110690920D01*
X188868657Y-110788261D01*
X188868670Y-110788268D01*
X189030537Y-110855315D01*
X189030542Y-110855317D01*
X189202387Y-110889499D01*
X189202391Y-110889500D01*
X189202392Y-110889500D01*
X189377609Y-110889500D01*
X189377610Y-110889499D01*
X189549458Y-110855317D01*
X189711336Y-110788265D01*
X189857023Y-110690920D01*
X189980920Y-110567023D01*
X190078265Y-110421336D01*
X190145317Y-110259458D01*
X190179500Y-110087608D01*
X190179500Y-109912392D01*
X190145317Y-109740542D01*
X190110261Y-109655909D01*
X190078268Y-109578670D01*
X190078261Y-109578657D01*
X189980920Y-109432977D01*
X189980917Y-109432973D01*
X189857026Y-109309082D01*
X189857022Y-109309079D01*
X189711342Y-109211738D01*
X189711329Y-109211731D01*
X189549462Y-109144684D01*
X189549450Y-109144681D01*
X189377612Y-109110500D01*
X189377608Y-109110500D01*
X189202392Y-109110500D01*
X189202387Y-109110500D01*
X189030549Y-109144681D01*
X189030537Y-109144684D01*
X188868670Y-109211731D01*
X188868657Y-109211738D01*
X188722977Y-109309079D01*
X188722973Y-109309082D01*
X188599082Y-109432973D01*
X188599079Y-109432977D01*
X188501738Y-109578657D01*
X188501731Y-109578670D01*
X188434684Y-109740537D01*
X188434681Y-109740549D01*
X188400500Y-109912387D01*
X186795556Y-109912387D01*
X186793796Y-109907669D01*
X186793795Y-109907668D01*
X186793793Y-109907664D01*
X186707547Y-109792455D01*
X186707544Y-109792452D01*
X186592335Y-109706206D01*
X186592328Y-109706202D01*
X186457482Y-109655908D01*
X186457483Y-109655908D01*
X186397883Y-109649501D01*
X186397881Y-109649500D01*
X186397873Y-109649500D01*
X186397865Y-109649500D01*
X186379500Y-109649500D01*
X186312461Y-109629815D01*
X186266706Y-109577011D01*
X186255500Y-109525500D01*
X186255500Y-107224499D01*
X186275185Y-107157460D01*
X186327989Y-107111705D01*
X186379500Y-107100499D01*
X186397871Y-107100499D01*
X186397872Y-107100499D01*
X186457483Y-107094091D01*
X186592331Y-107043796D01*
X186707546Y-106957546D01*
X186793796Y-106842331D01*
X186844091Y-106707483D01*
X186850500Y-106647873D01*
X186850500Y-105912387D01*
X188400500Y-105912387D01*
X188400500Y-106087612D01*
X188434681Y-106259450D01*
X188434684Y-106259462D01*
X188501731Y-106421329D01*
X188501738Y-106421342D01*
X188599079Y-106567022D01*
X188599082Y-106567026D01*
X188722973Y-106690917D01*
X188722977Y-106690920D01*
X188868657Y-106788261D01*
X188868670Y-106788268D01*
X189030537Y-106855315D01*
X189030542Y-106855317D01*
X189202387Y-106889499D01*
X189202391Y-106889500D01*
X189202392Y-106889500D01*
X189377609Y-106889500D01*
X189377610Y-106889499D01*
X189549458Y-106855317D01*
X189711336Y-106788265D01*
X189857023Y-106690920D01*
X189980920Y-106567023D01*
X190078265Y-106421336D01*
X190145317Y-106259458D01*
X190179500Y-106087608D01*
X190179500Y-105912392D01*
X190145317Y-105740542D01*
X190145315Y-105740537D01*
X190078268Y-105578670D01*
X190078261Y-105578657D01*
X189980920Y-105432977D01*
X189980917Y-105432973D01*
X189857026Y-105309082D01*
X189857022Y-105309079D01*
X189711342Y-105211738D01*
X189711329Y-105211731D01*
X189549462Y-105144684D01*
X189549450Y-105144681D01*
X189377612Y-105110500D01*
X189377608Y-105110500D01*
X189202392Y-105110500D01*
X189202387Y-105110500D01*
X189030549Y-105144681D01*
X189030537Y-105144684D01*
X188868670Y-105211731D01*
X188868657Y-105211738D01*
X188722977Y-105309079D01*
X188722973Y-105309082D01*
X188599082Y-105432973D01*
X188599079Y-105432977D01*
X188501738Y-105578657D01*
X188501731Y-105578670D01*
X188434684Y-105740537D01*
X188434681Y-105740549D01*
X188400500Y-105912387D01*
X186850500Y-105912387D01*
X186850499Y-104852128D01*
X186844091Y-104792517D01*
X186793796Y-104657669D01*
X186793795Y-104657668D01*
X186793793Y-104657664D01*
X186707547Y-104542455D01*
X186707544Y-104542452D01*
X186592335Y-104456206D01*
X186592328Y-104456202D01*
X186457482Y-104405908D01*
X186457483Y-104405908D01*
X186397883Y-104399501D01*
X186397881Y-104399500D01*
X186397873Y-104399500D01*
X186397865Y-104399500D01*
X185949500Y-104399500D01*
X185882461Y-104379815D01*
X185836706Y-104327011D01*
X185825500Y-104275500D01*
X185825500Y-104049500D01*
X185845185Y-103982461D01*
X185897989Y-103936706D01*
X185949500Y-103925500D01*
X186304169Y-103925500D01*
X186304174Y-103925500D01*
X186402685Y-103915436D01*
X186562287Y-103862549D01*
X186705391Y-103774281D01*
X186824281Y-103655391D01*
X186824284Y-103655385D01*
X186828762Y-103649724D01*
X186830786Y-103651324D01*
X186873759Y-103612676D01*
X186927345Y-103600500D01*
X189960909Y-103600500D01*
X190027948Y-103620185D01*
X190073292Y-103672097D01*
X190075965Y-103677830D01*
X190211505Y-103871401D01*
X190378599Y-104038495D01*
X190394316Y-104049500D01*
X190572165Y-104174032D01*
X190572167Y-104174033D01*
X190572170Y-104174035D01*
X190786337Y-104273903D01*
X191014592Y-104335063D01*
X191202918Y-104351539D01*
X191249999Y-104355659D01*
X191250000Y-104355659D01*
X191250001Y-104355659D01*
X191289234Y-104352226D01*
X191485408Y-104335063D01*
X191713663Y-104273903D01*
X191927830Y-104174035D01*
X192121401Y-104038495D01*
X192288495Y-103871401D01*
X192424035Y-103677830D01*
X192523903Y-103463663D01*
X192585063Y-103235408D01*
X192605659Y-103000000D01*
X192585063Y-102764592D01*
X192523903Y-102536337D01*
X192424035Y-102322171D01*
X192424034Y-102322169D01*
X192288494Y-102128597D01*
X192121402Y-101961506D01*
X192121395Y-101961501D01*
X191927834Y-101825967D01*
X191927830Y-101825965D01*
X191927828Y-101825964D01*
X191713663Y-101726097D01*
X191713659Y-101726096D01*
X191713655Y-101726094D01*
X191485413Y-101664938D01*
X191485403Y-101664936D01*
X191250001Y-101644341D01*
X191249999Y-101644341D01*
X191014596Y-101664936D01*
X191014586Y-101664938D01*
X190786344Y-101726094D01*
X190786335Y-101726098D01*
X190572171Y-101825964D01*
X190572169Y-101825965D01*
X190378597Y-101961505D01*
X190211506Y-102128596D01*
X190075965Y-102322170D01*
X190075962Y-102322175D01*
X190073289Y-102327909D01*
X190027115Y-102380346D01*
X189960909Y-102399500D01*
X186942765Y-102399500D01*
X186875726Y-102379815D01*
X186837227Y-102340598D01*
X186824281Y-102319609D01*
X186792353Y-102287681D01*
X186758868Y-102226358D01*
X186763852Y-102156666D01*
X186792353Y-102112319D01*
X186824281Y-102080391D01*
X186912549Y-101937287D01*
X186965436Y-101777685D01*
X186975500Y-101679174D01*
X186975500Y-101145826D01*
X186965436Y-101047315D01*
X186912549Y-100887713D01*
X186852029Y-100789596D01*
X186833590Y-100722204D01*
X186854513Y-100655541D01*
X186908154Y-100610771D01*
X186957569Y-100600500D01*
X189960909Y-100600500D01*
X190027948Y-100620185D01*
X190073292Y-100672097D01*
X190075965Y-100677830D01*
X190211505Y-100871401D01*
X190378599Y-101038495D01*
X190391197Y-101047316D01*
X190572165Y-101174032D01*
X190572167Y-101174033D01*
X190572170Y-101174035D01*
X190786337Y-101273903D01*
X191014592Y-101335063D01*
X191202918Y-101351539D01*
X191249999Y-101355659D01*
X191250000Y-101355659D01*
X191250001Y-101355659D01*
X191289234Y-101352226D01*
X191485408Y-101335063D01*
X191713663Y-101273903D01*
X191927830Y-101174035D01*
X192121401Y-101038495D01*
X192288495Y-100871401D01*
X192424035Y-100677830D01*
X192523903Y-100463663D01*
X192585063Y-100235408D01*
X192605659Y-100000000D01*
X192585063Y-99764592D01*
X192523903Y-99536337D01*
X192424035Y-99322171D01*
X192424034Y-99322169D01*
X192288494Y-99128597D01*
X192121402Y-98961506D01*
X192121395Y-98961501D01*
X191927834Y-98825967D01*
X191927830Y-98825965D01*
X191875114Y-98801383D01*
X191713663Y-98726097D01*
X191713659Y-98726096D01*
X191713655Y-98726094D01*
X191485413Y-98664938D01*
X191485403Y-98664936D01*
X191250001Y-98644341D01*
X191249999Y-98644341D01*
X191014596Y-98664936D01*
X191014586Y-98664938D01*
X190786344Y-98726094D01*
X190786335Y-98726098D01*
X190572171Y-98825964D01*
X190572169Y-98825965D01*
X190378597Y-98961505D01*
X190211506Y-99128596D01*
X190075965Y-99322170D01*
X190075962Y-99322175D01*
X190073289Y-99327909D01*
X190027115Y-99380346D01*
X189960909Y-99399500D01*
X183200097Y-99399500D01*
X183133058Y-99379815D01*
X183112416Y-99363181D01*
X182711255Y-98962020D01*
X182677770Y-98900697D01*
X182675717Y-98888233D01*
X182673573Y-98869201D01*
X182617716Y-98709570D01*
X182617715Y-98709568D01*
X182617712Y-98709562D01*
X182527741Y-98566375D01*
X182527736Y-98566369D01*
X182473548Y-98512181D01*
X182440063Y-98450858D01*
X182445047Y-98381166D01*
X182486919Y-98325233D01*
X182552383Y-98300816D01*
X182561229Y-98300500D01*
X183196597Y-98300500D01*
X183262568Y-98319505D01*
X183359570Y-98380456D01*
X183480881Y-98422904D01*
X183519203Y-98436314D01*
X183687257Y-98455249D01*
X183687260Y-98455249D01*
X183687263Y-98455249D01*
X183855316Y-98436314D01*
X183855319Y-98436313D01*
X184014950Y-98380456D01*
X184014952Y-98380454D01*
X184014954Y-98380454D01*
X184014957Y-98380452D01*
X184158144Y-98290481D01*
X184158145Y-98290480D01*
X184158150Y-98290477D01*
X184277737Y-98170890D01*
X184277741Y-98170884D01*
X184367712Y-98027697D01*
X184367714Y-98027694D01*
X184367714Y-98027692D01*
X184367716Y-98027690D01*
X184423573Y-97868059D01*
X184423573Y-97868058D01*
X184423574Y-97868056D01*
X184442509Y-97700002D01*
X184442509Y-97699997D01*
X184423574Y-97531943D01*
X184367714Y-97372305D01*
X184367712Y-97372302D01*
X184277741Y-97229115D01*
X184277736Y-97229109D01*
X184158150Y-97109523D01*
X184158144Y-97109518D01*
X184014957Y-97019547D01*
X184014954Y-97019545D01*
X183855316Y-96963685D01*
X183687263Y-96944751D01*
X183687257Y-96944751D01*
X183519203Y-96963685D01*
X183359567Y-97019545D01*
X183273696Y-97073501D01*
X183263650Y-97079815D01*
X183262569Y-97080494D01*
X183196597Y-97099500D01*
X182679921Y-97099500D01*
X182612882Y-97079815D01*
X182574927Y-97041472D01*
X182527737Y-96966370D01*
X182408150Y-96846783D01*
X182408144Y-96846778D01*
X182264957Y-96756807D01*
X182264954Y-96756805D01*
X182105316Y-96700945D01*
X181937263Y-96682011D01*
X181937257Y-96682011D01*
X181769203Y-96700945D01*
X181609565Y-96756805D01*
X181609562Y-96756807D01*
X181466375Y-96846778D01*
X181466369Y-96846783D01*
X181346783Y-96966369D01*
X181346778Y-96966375D01*
X181256807Y-97109562D01*
X181256804Y-97109567D01*
X181200947Y-97269200D01*
X181200947Y-97269203D01*
X181198803Y-97288226D01*
X181171733Y-97352639D01*
X181163265Y-97362019D01*
X181018546Y-97506738D01*
X180906741Y-97618542D01*
X180906739Y-97618545D01*
X180877585Y-97669043D01*
X180877584Y-97669045D01*
X180827683Y-97755474D01*
X180827683Y-97755475D01*
X180786759Y-97908203D01*
X180786759Y-97908205D01*
X180786759Y-98076306D01*
X180786760Y-98076319D01*
X180786760Y-98620500D01*
X180767075Y-98687539D01*
X180714271Y-98733294D01*
X180662760Y-98744500D01*
X180662759Y-98744500D01*
X175124000Y-98744500D01*
X175123991Y-98744500D01*
X175123990Y-98744501D01*
X175016549Y-98756052D01*
X175016537Y-98756054D01*
X174965027Y-98767260D01*
X174862502Y-98801383D01*
X174862496Y-98801386D01*
X174741462Y-98879171D01*
X174741451Y-98879179D01*
X174688659Y-98924923D01*
X174594433Y-99033664D01*
X174594430Y-99033668D01*
X174534664Y-99164534D01*
X174514976Y-99231582D01*
X174494500Y-99374001D01*
X174494500Y-117620500D01*
X174474815Y-117687539D01*
X174422011Y-117733294D01*
X174370500Y-117744500D01*
X147743080Y-117744500D01*
X147676041Y-117724815D01*
X147630286Y-117672011D01*
X147623305Y-117652594D01*
X147607629Y-117594091D01*
X147564954Y-117434824D01*
X147476940Y-117222339D01*
X147475696Y-117220185D01*
X147361944Y-117023160D01*
X147221935Y-116840696D01*
X147221929Y-116840689D01*
X147059310Y-116678070D01*
X147059303Y-116678064D01*
X146876839Y-116538055D01*
X146677664Y-116423061D01*
X146677654Y-116423057D01*
X146465185Y-116335049D01*
X146465178Y-116335047D01*
X146465176Y-116335046D01*
X146243020Y-116275520D01*
X146243014Y-116275519D01*
X146243009Y-116275518D01*
X146015005Y-116245501D01*
X146015002Y-116245500D01*
X146014996Y-116245500D01*
X145785004Y-116245500D01*
X145784998Y-116245500D01*
X145784994Y-116245501D01*
X145556990Y-116275518D01*
X145556983Y-116275519D01*
X145556980Y-116275520D01*
X145334824Y-116335046D01*
X145334814Y-116335049D01*
X145122345Y-116423057D01*
X145122335Y-116423061D01*
X144923160Y-116538055D01*
X144740696Y-116678064D01*
X144740689Y-116678070D01*
X144578070Y-116840689D01*
X144578064Y-116840696D01*
X144438055Y-117023160D01*
X144323061Y-117222335D01*
X144323057Y-117222345D01*
X144235049Y-117434814D01*
X144235047Y-117434821D01*
X144235046Y-117434824D01*
X144176695Y-117652594D01*
X144140331Y-117712254D01*
X144077484Y-117742783D01*
X144056921Y-117744500D01*
X140074500Y-117744500D01*
X140007461Y-117724815D01*
X139961706Y-117672011D01*
X139950500Y-117620500D01*
X139950500Y-95749996D01*
X184994435Y-95749996D01*
X184994435Y-95750003D01*
X185014630Y-95929249D01*
X185014631Y-95929254D01*
X185074211Y-96099523D01*
X185092480Y-96128597D01*
X185170184Y-96252262D01*
X185297738Y-96379816D01*
X185450478Y-96475789D01*
X185566732Y-96516468D01*
X185620745Y-96535368D01*
X185620750Y-96535369D01*
X185799996Y-96555565D01*
X185800000Y-96555565D01*
X185800004Y-96555565D01*
X185979249Y-96535369D01*
X185979252Y-96535368D01*
X185979255Y-96535368D01*
X186149522Y-96475789D01*
X186302262Y-96379816D01*
X186302267Y-96379810D01*
X186305097Y-96377555D01*
X186307275Y-96376665D01*
X186308158Y-96376111D01*
X186308255Y-96376265D01*
X186369783Y-96351145D01*
X186382412Y-96350500D01*
X189699903Y-96350500D01*
X189766942Y-96370185D01*
X189787584Y-96386819D01*
X189917233Y-96516468D01*
X189950718Y-96577791D01*
X189949327Y-96636241D01*
X189914939Y-96764583D01*
X189914936Y-96764596D01*
X189894341Y-96999999D01*
X189894341Y-97000000D01*
X189914936Y-97235403D01*
X189914938Y-97235413D01*
X189976094Y-97463655D01*
X189976096Y-97463659D01*
X189976097Y-97463663D01*
X190048320Y-97618545D01*
X190075965Y-97677830D01*
X190075967Y-97677834D01*
X190184281Y-97832521D01*
X190211505Y-97871401D01*
X190378599Y-98038495D01*
X190475384Y-98106265D01*
X190572165Y-98174032D01*
X190572167Y-98174033D01*
X190572170Y-98174035D01*
X190786337Y-98273903D01*
X191014592Y-98335063D01*
X191202918Y-98351539D01*
X191249999Y-98355659D01*
X191250000Y-98355659D01*
X191250001Y-98355659D01*
X191289234Y-98352226D01*
X191485408Y-98335063D01*
X191713663Y-98273903D01*
X191927830Y-98174035D01*
X192121401Y-98038495D01*
X192288495Y-97871401D01*
X192424035Y-97677830D01*
X192523903Y-97463663D01*
X192585063Y-97235408D01*
X192605659Y-97000000D01*
X192585063Y-96764592D01*
X192523903Y-96536337D01*
X192424035Y-96322171D01*
X192375085Y-96252262D01*
X192288494Y-96128597D01*
X192121402Y-95961506D01*
X192121395Y-95961501D01*
X191927834Y-95825967D01*
X191927830Y-95825965D01*
X191764929Y-95750003D01*
X191713663Y-95726097D01*
X191713659Y-95726096D01*
X191713655Y-95726094D01*
X191485413Y-95664938D01*
X191485403Y-95664936D01*
X191250001Y-95644341D01*
X191249999Y-95644341D01*
X191014596Y-95664936D01*
X191014583Y-95664939D01*
X190886241Y-95699327D01*
X190816392Y-95697664D01*
X190766468Y-95667233D01*
X190487590Y-95388355D01*
X190487588Y-95388352D01*
X190368717Y-95269481D01*
X190368709Y-95269475D01*
X190266936Y-95210717D01*
X190266934Y-95210716D01*
X190231790Y-95190425D01*
X190231789Y-95190424D01*
X190219263Y-95187067D01*
X190079057Y-95149499D01*
X189920943Y-95149499D01*
X189913347Y-95149499D01*
X189913331Y-95149500D01*
X186382412Y-95149500D01*
X186315373Y-95129815D01*
X186305097Y-95122445D01*
X186302263Y-95120185D01*
X186302262Y-95120184D01*
X186245496Y-95084515D01*
X186149523Y-95024211D01*
X185979254Y-94964631D01*
X185979249Y-94964630D01*
X185800004Y-94944435D01*
X185799996Y-94944435D01*
X185620750Y-94964630D01*
X185620745Y-94964631D01*
X185450476Y-95024211D01*
X185297737Y-95120184D01*
X185170184Y-95247737D01*
X185074211Y-95400476D01*
X185014631Y-95570745D01*
X185014630Y-95570750D01*
X184994435Y-95749996D01*
X139950500Y-95749996D01*
X139950500Y-93372915D01*
X181117669Y-93372915D01*
X181117669Y-93372920D01*
X181136603Y-93540974D01*
X181192463Y-93700611D01*
X181249393Y-93791213D01*
X181268394Y-93858450D01*
X181258074Y-93902637D01*
X181259104Y-93902998D01*
X181256804Y-93909568D01*
X181256804Y-93909570D01*
X181255817Y-93912391D01*
X181200945Y-94069203D01*
X181182011Y-94237257D01*
X181182011Y-94237262D01*
X181200945Y-94405316D01*
X181256805Y-94564954D01*
X181256807Y-94564957D01*
X181346778Y-94708144D01*
X181346783Y-94708150D01*
X181466369Y-94827736D01*
X181466375Y-94827741D01*
X181609562Y-94917712D01*
X181609565Y-94917714D01*
X181609569Y-94917715D01*
X181609570Y-94917716D01*
X181682173Y-94943120D01*
X181769203Y-94973574D01*
X181937257Y-94992509D01*
X181937260Y-94992509D01*
X181937263Y-94992509D01*
X182105316Y-94973574D01*
X182130874Y-94964631D01*
X182264950Y-94917716D01*
X182264952Y-94917714D01*
X182264954Y-94917714D01*
X182264957Y-94917712D01*
X182408144Y-94827741D01*
X182408145Y-94827740D01*
X182408150Y-94827737D01*
X182527737Y-94708150D01*
X182527741Y-94708144D01*
X182617712Y-94564957D01*
X182617715Y-94564951D01*
X182617716Y-94564950D01*
X182673573Y-94405319D01*
X182675716Y-94386297D01*
X182702779Y-94321885D01*
X182711245Y-94312508D01*
X182781424Y-94242330D01*
X182781429Y-94242326D01*
X182791632Y-94232122D01*
X182791634Y-94232122D01*
X182903438Y-94120318D01*
X182922321Y-94087612D01*
X182969741Y-94005478D01*
X182969742Y-94005476D01*
X182974916Y-93996512D01*
X182982495Y-93983387D01*
X183001519Y-93912387D01*
X188400500Y-93912387D01*
X188400500Y-94087612D01*
X188434681Y-94259450D01*
X188434684Y-94259462D01*
X188501731Y-94421329D01*
X188501738Y-94421342D01*
X188599079Y-94567022D01*
X188599082Y-94567026D01*
X188722973Y-94690917D01*
X188722977Y-94690920D01*
X188868657Y-94788261D01*
X188868670Y-94788268D01*
X189030537Y-94855315D01*
X189030542Y-94855317D01*
X189202387Y-94889499D01*
X189202391Y-94889500D01*
X189202392Y-94889500D01*
X189377609Y-94889500D01*
X189377610Y-94889499D01*
X189549458Y-94855317D01*
X189711336Y-94788265D01*
X189857023Y-94690920D01*
X189980920Y-94567023D01*
X190078265Y-94421336D01*
X190084900Y-94405319D01*
X190145315Y-94259462D01*
X190145317Y-94259458D01*
X190179500Y-94087608D01*
X190179500Y-93912392D01*
X190145317Y-93740542D01*
X190128776Y-93700608D01*
X190078268Y-93578670D01*
X190078261Y-93578657D01*
X189980920Y-93432977D01*
X189980917Y-93432973D01*
X189857026Y-93309082D01*
X189857022Y-93309079D01*
X189711342Y-93211738D01*
X189711329Y-93211731D01*
X189549462Y-93144684D01*
X189549450Y-93144681D01*
X189377612Y-93110500D01*
X189377608Y-93110500D01*
X189202392Y-93110500D01*
X189202387Y-93110500D01*
X189030549Y-93144681D01*
X189030537Y-93144684D01*
X188868670Y-93211731D01*
X188868657Y-93211738D01*
X188722977Y-93309079D01*
X188722973Y-93309082D01*
X188599082Y-93432973D01*
X188599079Y-93432977D01*
X188501738Y-93578657D01*
X188501731Y-93578670D01*
X188434684Y-93740537D01*
X188434681Y-93740549D01*
X188400500Y-93912387D01*
X183001519Y-93912387D01*
X183023418Y-93830659D01*
X183023418Y-93688700D01*
X183043103Y-93621661D01*
X183059732Y-93601024D01*
X187348368Y-89312387D01*
X188400500Y-89312387D01*
X188400500Y-89487612D01*
X188434681Y-89659450D01*
X188434684Y-89659462D01*
X188501731Y-89821329D01*
X188501738Y-89821342D01*
X188599079Y-89967022D01*
X188599082Y-89967026D01*
X188722973Y-90090917D01*
X188722977Y-90090920D01*
X188868657Y-90188261D01*
X188868670Y-90188268D01*
X189030537Y-90255315D01*
X189030542Y-90255317D01*
X189202387Y-90289499D01*
X189202391Y-90289500D01*
X189202392Y-90289500D01*
X189377609Y-90289500D01*
X189377610Y-90289499D01*
X189549458Y-90255317D01*
X189711336Y-90188265D01*
X189857023Y-90090920D01*
X189980920Y-89967023D01*
X190078265Y-89821336D01*
X190145317Y-89659458D01*
X190179500Y-89487608D01*
X190179500Y-89312392D01*
X190145317Y-89140542D01*
X190145315Y-89140537D01*
X190078268Y-88978670D01*
X190078261Y-88978657D01*
X189980920Y-88832977D01*
X189980917Y-88832973D01*
X189857026Y-88709082D01*
X189857022Y-88709079D01*
X189711342Y-88611738D01*
X189711329Y-88611731D01*
X189549462Y-88544684D01*
X189549450Y-88544681D01*
X189377612Y-88510500D01*
X189377608Y-88510500D01*
X189202392Y-88510500D01*
X189202387Y-88510500D01*
X189030549Y-88544681D01*
X189030537Y-88544684D01*
X188868670Y-88611731D01*
X188868657Y-88611738D01*
X188722977Y-88709079D01*
X188722973Y-88709082D01*
X188599082Y-88832973D01*
X188599079Y-88832977D01*
X188501738Y-88978657D01*
X188501731Y-88978670D01*
X188434684Y-89140537D01*
X188434681Y-89140549D01*
X188400500Y-89312387D01*
X187348368Y-89312387D01*
X189793951Y-86866804D01*
X189855272Y-86833321D01*
X189924964Y-86838305D01*
X189980897Y-86880177D01*
X189994012Y-86902082D01*
X190075965Y-87077830D01*
X190075967Y-87077834D01*
X190184281Y-87232521D01*
X190211505Y-87271401D01*
X190378599Y-87438495D01*
X190475384Y-87506265D01*
X190572165Y-87574032D01*
X190572167Y-87574033D01*
X190572170Y-87574035D01*
X190786337Y-87673903D01*
X191014592Y-87735063D01*
X191202918Y-87751539D01*
X191249999Y-87755659D01*
X191250000Y-87755659D01*
X191250001Y-87755659D01*
X191289234Y-87752226D01*
X191485408Y-87735063D01*
X191713663Y-87673903D01*
X191927830Y-87574035D01*
X192121401Y-87438495D01*
X192288495Y-87271401D01*
X192424035Y-87077830D01*
X192523903Y-86863663D01*
X192585063Y-86635408D01*
X192605659Y-86400000D01*
X192585063Y-86164592D01*
X192523903Y-85936337D01*
X192424035Y-85722171D01*
X192288495Y-85528599D01*
X192288494Y-85528597D01*
X192121402Y-85361506D01*
X192121395Y-85361501D01*
X191927834Y-85225967D01*
X191927830Y-85225965D01*
X191744226Y-85140349D01*
X191691787Y-85094177D01*
X191672635Y-85026983D01*
X191692851Y-84960102D01*
X191708946Y-84940289D01*
X191730520Y-84918716D01*
X191780639Y-84831904D01*
X191809577Y-84781785D01*
X191841342Y-84663234D01*
X191877706Y-84603577D01*
X191908707Y-84582951D01*
X191927830Y-84574035D01*
X192121401Y-84438495D01*
X192288495Y-84271401D01*
X192424035Y-84077830D01*
X192523903Y-83863663D01*
X192585063Y-83635408D01*
X192605659Y-83400000D01*
X192585063Y-83164592D01*
X192523903Y-82936337D01*
X192424035Y-82722171D01*
X192423176Y-82720943D01*
X192288494Y-82528597D01*
X192121402Y-82361506D01*
X192121395Y-82361501D01*
X191927834Y-82225967D01*
X191927830Y-82225965D01*
X191713663Y-82126097D01*
X191713659Y-82126096D01*
X191713655Y-82126094D01*
X191613122Y-82099157D01*
X191553461Y-82062792D01*
X191522932Y-81999945D01*
X191531227Y-81930570D01*
X191557534Y-81891701D01*
X191730520Y-81718716D01*
X191752585Y-81680496D01*
X191803151Y-81632281D01*
X191807550Y-81630121D01*
X191927830Y-81574035D01*
X192121401Y-81438495D01*
X192288495Y-81271401D01*
X192424035Y-81077830D01*
X192523903Y-80863663D01*
X192585063Y-80635408D01*
X192605659Y-80400000D01*
X192585063Y-80164592D01*
X192523903Y-79936337D01*
X192424035Y-79722171D01*
X192412161Y-79705212D01*
X192288494Y-79528597D01*
X192121402Y-79361506D01*
X192121395Y-79361501D01*
X191927834Y-79225967D01*
X191927830Y-79225965D01*
X191857574Y-79193204D01*
X191713663Y-79126097D01*
X191713659Y-79126096D01*
X191713655Y-79126094D01*
X191485413Y-79064938D01*
X191485403Y-79064936D01*
X191250001Y-79044341D01*
X191249999Y-79044341D01*
X191014596Y-79064936D01*
X191014586Y-79064938D01*
X190786344Y-79126094D01*
X190786335Y-79126098D01*
X190572171Y-79225964D01*
X190572169Y-79225965D01*
X190378597Y-79361505D01*
X190211505Y-79528597D01*
X190075965Y-79722169D01*
X190075964Y-79722171D01*
X189976098Y-79936335D01*
X189976094Y-79936344D01*
X189914938Y-80164586D01*
X189914936Y-80164596D01*
X189894341Y-80399999D01*
X189894341Y-80400000D01*
X189914936Y-80635403D01*
X189914938Y-80635413D01*
X189976094Y-80863655D01*
X189976096Y-80863659D01*
X189976097Y-80863663D01*
X190048161Y-81018204D01*
X190075965Y-81077830D01*
X190075967Y-81077834D01*
X190211501Y-81271395D01*
X190211506Y-81271402D01*
X190257753Y-81317649D01*
X190291238Y-81378972D01*
X190286254Y-81448664D01*
X190257753Y-81493011D01*
X189319481Y-82431282D01*
X189319480Y-82431284D01*
X189277205Y-82504507D01*
X189240423Y-82568215D01*
X189199499Y-82720943D01*
X189199499Y-82720945D01*
X189199499Y-82889046D01*
X189199500Y-82889059D01*
X189199500Y-85145738D01*
X189179815Y-85212777D01*
X189163181Y-85233419D01*
X181797677Y-92598922D01*
X181736354Y-92632407D01*
X181723884Y-92634461D01*
X181715591Y-92635395D01*
X181704859Y-92636605D01*
X181704858Y-92636605D01*
X181545225Y-92692462D01*
X181545220Y-92692465D01*
X181402033Y-92782436D01*
X181402027Y-92782441D01*
X181282441Y-92902027D01*
X181282436Y-92902033D01*
X181192465Y-93045220D01*
X181192463Y-93045223D01*
X181136603Y-93204861D01*
X181117669Y-93372915D01*
X139950500Y-93372915D01*
X139950500Y-78298853D01*
X140549500Y-78298853D01*
X140549500Y-78923871D01*
X140549501Y-78923889D01*
X140560000Y-79026666D01*
X140560001Y-79026669D01*
X140615185Y-79193201D01*
X140615187Y-79193206D01*
X140707289Y-79342527D01*
X140800951Y-79436189D01*
X140834436Y-79497512D01*
X140829452Y-79567204D01*
X140800951Y-79611551D01*
X140707289Y-79705212D01*
X140615187Y-79854533D01*
X140615186Y-79854536D01*
X140560001Y-80021073D01*
X140560001Y-80021074D01*
X140560000Y-80021074D01*
X140549500Y-80123853D01*
X140549500Y-80748871D01*
X140549501Y-80748889D01*
X140560000Y-80851666D01*
X140560001Y-80851669D01*
X140563976Y-80863664D01*
X140615186Y-81018204D01*
X140707288Y-81167526D01*
X140831344Y-81291582D01*
X140980666Y-81383684D01*
X141147203Y-81438869D01*
X141249991Y-81449370D01*
X142250008Y-81449369D01*
X142250016Y-81449368D01*
X142250019Y-81449368D01*
X142306302Y-81443618D01*
X142352797Y-81438869D01*
X142519334Y-81383684D01*
X142668656Y-81291582D01*
X142792712Y-81167526D01*
X142884814Y-81018204D01*
X142939999Y-80851667D01*
X142950500Y-80748879D01*
X142950499Y-80123862D01*
X142939999Y-80021073D01*
X142884814Y-79854536D01*
X142792712Y-79705214D01*
X142699049Y-79611551D01*
X142665564Y-79550228D01*
X142670548Y-79480536D01*
X142699049Y-79436189D01*
X142792712Y-79342526D01*
X142884814Y-79193204D01*
X142939999Y-79026667D01*
X142950500Y-78923879D01*
X142950499Y-78352135D01*
X184149500Y-78352135D01*
X184149500Y-80147870D01*
X184149501Y-80147876D01*
X184155908Y-80207483D01*
X184206202Y-80342328D01*
X184206206Y-80342335D01*
X184292452Y-80457544D01*
X184292455Y-80457547D01*
X184407664Y-80543793D01*
X184407671Y-80543797D01*
X184542517Y-80594091D01*
X184542516Y-80594091D01*
X184549444Y-80594835D01*
X184602127Y-80600500D01*
X186397872Y-80600499D01*
X186457483Y-80594091D01*
X186592331Y-80543796D01*
X186707546Y-80457546D01*
X186793796Y-80342331D01*
X186844091Y-80207483D01*
X186850500Y-80147873D01*
X186850499Y-78352128D01*
X186844091Y-78292517D01*
X186793796Y-78157669D01*
X186793795Y-78157668D01*
X186793793Y-78157664D01*
X186707547Y-78042455D01*
X186707544Y-78042452D01*
X186592335Y-77956206D01*
X186592328Y-77956202D01*
X186457482Y-77905908D01*
X186457483Y-77905908D01*
X186397883Y-77899501D01*
X186397881Y-77899500D01*
X186397873Y-77899500D01*
X186397864Y-77899500D01*
X184602129Y-77899500D01*
X184602123Y-77899501D01*
X184542516Y-77905908D01*
X184407671Y-77956202D01*
X184407664Y-77956206D01*
X184292455Y-78042452D01*
X184292452Y-78042455D01*
X184206206Y-78157664D01*
X184206202Y-78157671D01*
X184155908Y-78292517D01*
X184149501Y-78352116D01*
X184149501Y-78352123D01*
X184149500Y-78352135D01*
X142950499Y-78352135D01*
X142950499Y-78298862D01*
X142939999Y-78196073D01*
X142884814Y-78029536D01*
X142792712Y-77880214D01*
X142668656Y-77756158D01*
X142519334Y-77664056D01*
X142352797Y-77608871D01*
X142352795Y-77608870D01*
X142250010Y-77598370D01*
X141249998Y-77598370D01*
X141249980Y-77598371D01*
X141147203Y-77608870D01*
X141147200Y-77608871D01*
X140980668Y-77664055D01*
X140980663Y-77664057D01*
X140831342Y-77756159D01*
X140707289Y-77880212D01*
X140615187Y-78029533D01*
X140615186Y-78029536D01*
X140560001Y-78196073D01*
X140560001Y-78196074D01*
X140560000Y-78196074D01*
X140549500Y-78298853D01*
X139950500Y-78298853D01*
X139950500Y-77399998D01*
X189894843Y-77399998D01*
X189894843Y-77400001D01*
X189915430Y-77635315D01*
X189915432Y-77635326D01*
X189976566Y-77863483D01*
X189976570Y-77863492D01*
X190076400Y-78077579D01*
X190076402Y-78077583D01*
X190135072Y-78161373D01*
X190135073Y-78161373D01*
X190758871Y-77537574D01*
X190774755Y-77596853D01*
X190841898Y-77713147D01*
X190936853Y-77808102D01*
X191053147Y-77875245D01*
X191112424Y-77891128D01*
X190488625Y-78514925D01*
X190572421Y-78573599D01*
X190786507Y-78673429D01*
X190786516Y-78673433D01*
X191014673Y-78734567D01*
X191014684Y-78734569D01*
X191249998Y-78755157D01*
X191250002Y-78755157D01*
X191485315Y-78734569D01*
X191485326Y-78734567D01*
X191713483Y-78673433D01*
X191713492Y-78673429D01*
X191927578Y-78573600D01*
X191927582Y-78573598D01*
X192011373Y-78514926D01*
X192011373Y-78514925D01*
X191387575Y-77891128D01*
X191446853Y-77875245D01*
X191563147Y-77808102D01*
X191658102Y-77713147D01*
X191725245Y-77596853D01*
X191741127Y-77537575D01*
X192364925Y-78161373D01*
X192364926Y-78161373D01*
X192423598Y-78077582D01*
X192423600Y-78077578D01*
X192523429Y-77863492D01*
X192523433Y-77863483D01*
X192584567Y-77635326D01*
X192584569Y-77635315D01*
X192605157Y-77400001D01*
X192605157Y-77399998D01*
X192584569Y-77164684D01*
X192584567Y-77164673D01*
X192523433Y-76936516D01*
X192523429Y-76936507D01*
X192423600Y-76722423D01*
X192423599Y-76722421D01*
X192364925Y-76638626D01*
X192364925Y-76638625D01*
X191741127Y-77262423D01*
X191725245Y-77203147D01*
X191658102Y-77086853D01*
X191563147Y-76991898D01*
X191446853Y-76924755D01*
X191387575Y-76908871D01*
X192011373Y-76285073D01*
X192011373Y-76285072D01*
X191927583Y-76226402D01*
X191927579Y-76226400D01*
X191713492Y-76126570D01*
X191713483Y-76126566D01*
X191485326Y-76065432D01*
X191485315Y-76065430D01*
X191250002Y-76044843D01*
X191249998Y-76044843D01*
X191014684Y-76065430D01*
X191014673Y-76065432D01*
X190786516Y-76126566D01*
X190786507Y-76126570D01*
X190572419Y-76226401D01*
X190488625Y-76285072D01*
X191112424Y-76908871D01*
X191053147Y-76924755D01*
X190936853Y-76991898D01*
X190841898Y-77086853D01*
X190774755Y-77203147D01*
X190758871Y-77262424D01*
X190135072Y-76638625D01*
X190076401Y-76722419D01*
X189976570Y-76936507D01*
X189976566Y-76936516D01*
X189915432Y-77164673D01*
X189915430Y-77164684D01*
X189894843Y-77399998D01*
X139950500Y-77399998D01*
X139950500Y-74285010D01*
X144145500Y-74285010D01*
X144145500Y-74514989D01*
X144145501Y-74515005D01*
X144175518Y-74743009D01*
X144175519Y-74743014D01*
X144175520Y-74743020D01*
X144235046Y-74965175D01*
X144235049Y-74965185D01*
X144323057Y-75177654D01*
X144323061Y-75177664D01*
X144438055Y-75376839D01*
X144578064Y-75559303D01*
X144578070Y-75559310D01*
X144740689Y-75721929D01*
X144740696Y-75721935D01*
X144923160Y-75861944D01*
X145122335Y-75976938D01*
X145122336Y-75976938D01*
X145122339Y-75976940D01*
X145334824Y-76064954D01*
X145556980Y-76124480D01*
X145785004Y-76154500D01*
X145785011Y-76154500D01*
X146014989Y-76154500D01*
X146014996Y-76154500D01*
X146243020Y-76124480D01*
X146465176Y-76064954D01*
X146677661Y-75976940D01*
X146876840Y-75861944D01*
X147059305Y-75721934D01*
X147221934Y-75559305D01*
X147361944Y-75376840D01*
X147476940Y-75177661D01*
X147564954Y-74965176D01*
X147624480Y-74743020D01*
X147654500Y-74514996D01*
X147654500Y-74285010D01*
X177745500Y-74285010D01*
X177745500Y-74514989D01*
X177745501Y-74515005D01*
X177775518Y-74743009D01*
X177775519Y-74743014D01*
X177775520Y-74743020D01*
X177835046Y-74965175D01*
X177835049Y-74965185D01*
X177923057Y-75177654D01*
X177923061Y-75177664D01*
X178038055Y-75376839D01*
X178178064Y-75559303D01*
X178178070Y-75559310D01*
X178340689Y-75721929D01*
X178340696Y-75721935D01*
X178523160Y-75861944D01*
X178722335Y-75976938D01*
X178722336Y-75976938D01*
X178722339Y-75976940D01*
X178934824Y-76064954D01*
X179156980Y-76124480D01*
X179385004Y-76154500D01*
X179385011Y-76154500D01*
X179614989Y-76154500D01*
X179614996Y-76154500D01*
X179843020Y-76124480D01*
X180065176Y-76064954D01*
X180277661Y-75976940D01*
X180476840Y-75861944D01*
X180659305Y-75721934D01*
X180821934Y-75559305D01*
X180961944Y-75376840D01*
X181076940Y-75177661D01*
X181164954Y-74965176D01*
X181224480Y-74743020D01*
X181254500Y-74514996D01*
X181254500Y-74352135D01*
X184149500Y-74352135D01*
X184149500Y-76147870D01*
X184149501Y-76147876D01*
X184155908Y-76207483D01*
X184206202Y-76342328D01*
X184206206Y-76342335D01*
X184292452Y-76457544D01*
X184292455Y-76457547D01*
X184407664Y-76543793D01*
X184407671Y-76543797D01*
X184542517Y-76594091D01*
X184542516Y-76594091D01*
X184549444Y-76594835D01*
X184602127Y-76600500D01*
X186397872Y-76600499D01*
X186457483Y-76594091D01*
X186592331Y-76543796D01*
X186707546Y-76457546D01*
X186793796Y-76342331D01*
X186844091Y-76207483D01*
X186850500Y-76147873D01*
X186850499Y-74352128D01*
X186846227Y-74312387D01*
X188400500Y-74312387D01*
X188400500Y-74487612D01*
X188434681Y-74659450D01*
X188434684Y-74659462D01*
X188501731Y-74821329D01*
X188501738Y-74821342D01*
X188599079Y-74967022D01*
X188599082Y-74967026D01*
X188722973Y-75090917D01*
X188722977Y-75090920D01*
X188868657Y-75188261D01*
X188868670Y-75188268D01*
X189030537Y-75255315D01*
X189030542Y-75255317D01*
X189202387Y-75289499D01*
X189202391Y-75289500D01*
X189202392Y-75289500D01*
X189377609Y-75289500D01*
X189377610Y-75289499D01*
X189549458Y-75255317D01*
X189711336Y-75188265D01*
X189857023Y-75090920D01*
X189980920Y-74967023D01*
X190078265Y-74821336D01*
X190145317Y-74659458D01*
X190179500Y-74487608D01*
X190179500Y-74312392D01*
X190145317Y-74140542D01*
X190110705Y-74056980D01*
X190078268Y-73978670D01*
X190078261Y-73978657D01*
X189980920Y-73832977D01*
X189980917Y-73832973D01*
X189857026Y-73709082D01*
X189857022Y-73709079D01*
X189711342Y-73611738D01*
X189711329Y-73611731D01*
X189549462Y-73544684D01*
X189549450Y-73544681D01*
X189377612Y-73510500D01*
X189377608Y-73510500D01*
X189202392Y-73510500D01*
X189202387Y-73510500D01*
X189030549Y-73544681D01*
X189030537Y-73544684D01*
X188868670Y-73611731D01*
X188868657Y-73611738D01*
X188722977Y-73709079D01*
X188722973Y-73709082D01*
X188599082Y-73832973D01*
X188599079Y-73832977D01*
X188501738Y-73978657D01*
X188501731Y-73978670D01*
X188434684Y-74140537D01*
X188434681Y-74140549D01*
X188400500Y-74312387D01*
X186846227Y-74312387D01*
X186844091Y-74292517D01*
X186841312Y-74285067D01*
X186793797Y-74157671D01*
X186793793Y-74157664D01*
X186707547Y-74042455D01*
X186707544Y-74042452D01*
X186592335Y-73956206D01*
X186592328Y-73956202D01*
X186457482Y-73905908D01*
X186457483Y-73905908D01*
X186397883Y-73899501D01*
X186397881Y-73899500D01*
X186397873Y-73899500D01*
X186397864Y-73899500D01*
X184602129Y-73899500D01*
X184602123Y-73899501D01*
X184542516Y-73905908D01*
X184407671Y-73956202D01*
X184407664Y-73956206D01*
X184292455Y-74042452D01*
X184292452Y-74042455D01*
X184206206Y-74157664D01*
X184206202Y-74157671D01*
X184155908Y-74292517D01*
X184149501Y-74352116D01*
X184149501Y-74352123D01*
X184149500Y-74352135D01*
X181254500Y-74352135D01*
X181254500Y-74285004D01*
X181224480Y-74056980D01*
X181164954Y-73834824D01*
X181076940Y-73622339D01*
X181070815Y-73611731D01*
X180961944Y-73423160D01*
X180821935Y-73240696D01*
X180821929Y-73240689D01*
X180659310Y-73078070D01*
X180659303Y-73078064D01*
X180476839Y-72938055D01*
X180277664Y-72823061D01*
X180277654Y-72823057D01*
X180065185Y-72735049D01*
X180065178Y-72735047D01*
X180065176Y-72735046D01*
X179843020Y-72675520D01*
X179843014Y-72675519D01*
X179843009Y-72675518D01*
X179615005Y-72645501D01*
X179615002Y-72645500D01*
X179614996Y-72645500D01*
X179385004Y-72645500D01*
X179384998Y-72645500D01*
X179384994Y-72645501D01*
X179156990Y-72675518D01*
X179156983Y-72675519D01*
X179156980Y-72675520D01*
X179044734Y-72705596D01*
X178934824Y-72735046D01*
X178934814Y-72735049D01*
X178722345Y-72823057D01*
X178722335Y-72823061D01*
X178523160Y-72938055D01*
X178340696Y-73078064D01*
X178340689Y-73078070D01*
X178178070Y-73240689D01*
X178178064Y-73240696D01*
X178038055Y-73423160D01*
X177923061Y-73622335D01*
X177923057Y-73622345D01*
X177835049Y-73834814D01*
X177835046Y-73834824D01*
X177796507Y-73978657D01*
X177775521Y-74056977D01*
X177775518Y-74056990D01*
X177745501Y-74284994D01*
X177745500Y-74285010D01*
X147654500Y-74285010D01*
X147654500Y-74285004D01*
X147624480Y-74056980D01*
X147564954Y-73834824D01*
X147476940Y-73622339D01*
X147470815Y-73611731D01*
X147361944Y-73423160D01*
X147221935Y-73240696D01*
X147221929Y-73240689D01*
X147059310Y-73078070D01*
X147059303Y-73078064D01*
X146876839Y-72938055D01*
X146677664Y-72823061D01*
X146677654Y-72823057D01*
X146465185Y-72735049D01*
X146465178Y-72735047D01*
X146465176Y-72735046D01*
X146243020Y-72675520D01*
X146243014Y-72675519D01*
X146243009Y-72675518D01*
X146015005Y-72645501D01*
X146015002Y-72645500D01*
X146014996Y-72645500D01*
X145785004Y-72645500D01*
X145784998Y-72645500D01*
X145784994Y-72645501D01*
X145556990Y-72675518D01*
X145556983Y-72675519D01*
X145556980Y-72675520D01*
X145444734Y-72705596D01*
X145334824Y-72735046D01*
X145334814Y-72735049D01*
X145122345Y-72823057D01*
X145122335Y-72823061D01*
X144923160Y-72938055D01*
X144740696Y-73078064D01*
X144740689Y-73078070D01*
X144578070Y-73240689D01*
X144578064Y-73240696D01*
X144438055Y-73423160D01*
X144323061Y-73622335D01*
X144323057Y-73622345D01*
X144235049Y-73834814D01*
X144235046Y-73834824D01*
X144196507Y-73978657D01*
X144175521Y-74056977D01*
X144175518Y-74056990D01*
X144145501Y-74284994D01*
X144145500Y-74285010D01*
X139950500Y-74285010D01*
X139950500Y-74257131D01*
X139950717Y-74254298D01*
X139950675Y-74243759D01*
X139950512Y-74202370D01*
X139950685Y-74195308D01*
X139953592Y-74140542D01*
X139966055Y-73905759D01*
X139967606Y-73891724D01*
X139977200Y-73834814D01*
X140015210Y-73609319D01*
X140018347Y-73595552D01*
X140033028Y-73544684D01*
X140097759Y-73320387D01*
X140102441Y-73307067D01*
X140212631Y-73042712D01*
X140218788Y-73030029D01*
X140358328Y-72779914D01*
X140365883Y-72768019D01*
X140532971Y-72535381D01*
X140541841Y-72524410D01*
X140734283Y-72312299D01*
X140744341Y-72302409D01*
X140959665Y-72113551D01*
X140970779Y-72104872D01*
X141206174Y-71941731D01*
X141218212Y-71934367D01*
X141328469Y-71875262D01*
X141470630Y-71799054D01*
X141483416Y-71793110D01*
X141749606Y-71687370D01*
X141762977Y-71682923D01*
X142039459Y-71608142D01*
X142053254Y-71605242D01*
X142336444Y-71562387D01*
X142350473Y-71561075D01*
X142640038Y-71550580D01*
X142644529Y-71550500D01*
X142645620Y-71550500D01*
X142648193Y-71550526D01*
G37*
%TD.AperFunction*%
%TD*%
%TA.AperFunction,Conductor*%
%TO.N,GNDPWR*%
G36*
X144122485Y-118269685D02*
G01*
X144168240Y-118322489D01*
X144175221Y-118341906D01*
X144235047Y-118565178D01*
X144235049Y-118565185D01*
X144323057Y-118777654D01*
X144323061Y-118777664D01*
X144438055Y-118976839D01*
X144578064Y-119159303D01*
X144578070Y-119159310D01*
X144740689Y-119321929D01*
X144740696Y-119321935D01*
X144923160Y-119461944D01*
X145122335Y-119576938D01*
X145122336Y-119576938D01*
X145122339Y-119576940D01*
X145286682Y-119645013D01*
X145302007Y-119651361D01*
X145334824Y-119664954D01*
X145556980Y-119724480D01*
X145785004Y-119754500D01*
X145785011Y-119754500D01*
X146014989Y-119754500D01*
X146014996Y-119754500D01*
X146243020Y-119724480D01*
X146465176Y-119664954D01*
X146677661Y-119576940D01*
X146876840Y-119461944D01*
X147059305Y-119321934D01*
X147221934Y-119159305D01*
X147361944Y-118976840D01*
X147476940Y-118777661D01*
X147564954Y-118565176D01*
X147616179Y-118374000D01*
X147624779Y-118341906D01*
X147661144Y-118282246D01*
X147723991Y-118251717D01*
X147744554Y-118250000D01*
X175000000Y-118250000D01*
X175000000Y-124750000D01*
X176335077Y-124750000D01*
X176172171Y-124825964D01*
X176172169Y-124825965D01*
X175978597Y-124961505D01*
X175811505Y-125128597D01*
X175675965Y-125322169D01*
X175675964Y-125322171D01*
X175576098Y-125536335D01*
X175576094Y-125536344D01*
X175514938Y-125764586D01*
X175514936Y-125764596D01*
X175494341Y-125999999D01*
X175494341Y-126000000D01*
X175514936Y-126235403D01*
X175514938Y-126235413D01*
X175549327Y-126363756D01*
X175547664Y-126433606D01*
X175517233Y-126483530D01*
X175260139Y-126740625D01*
X175198816Y-126774110D01*
X175129125Y-126769126D01*
X175073191Y-126727255D01*
X175048774Y-126661790D01*
X175060076Y-126600539D01*
X175123903Y-126463663D01*
X175185063Y-126235408D01*
X175205659Y-126000000D01*
X175185063Y-125764592D01*
X175123903Y-125536337D01*
X175024035Y-125322171D01*
X174965537Y-125238626D01*
X174888494Y-125128597D01*
X174721402Y-124961506D01*
X174721395Y-124961501D01*
X174527834Y-124825967D01*
X174527830Y-124825965D01*
X174527828Y-124825964D01*
X174313663Y-124726097D01*
X174313659Y-124726096D01*
X174313655Y-124726094D01*
X174085413Y-124664938D01*
X174085403Y-124664936D01*
X173850001Y-124644341D01*
X173849999Y-124644341D01*
X173614596Y-124664936D01*
X173614586Y-124664938D01*
X173386344Y-124726094D01*
X173386335Y-124726098D01*
X173172171Y-124825964D01*
X173172169Y-124825965D01*
X172978597Y-124961505D01*
X172811505Y-125128597D01*
X172675965Y-125322169D01*
X172675964Y-125322171D01*
X172576098Y-125536335D01*
X172576094Y-125536344D01*
X172514938Y-125764586D01*
X172514936Y-125764596D01*
X172494341Y-125999999D01*
X172494341Y-126000000D01*
X172514936Y-126235403D01*
X172514938Y-126235413D01*
X172576094Y-126463655D01*
X172576096Y-126463659D01*
X172576097Y-126463663D01*
X172639924Y-126600539D01*
X172675965Y-126677830D01*
X172675967Y-126677834D01*
X172734462Y-126761373D01*
X172811505Y-126871401D01*
X172978599Y-127038495D01*
X173075384Y-127106265D01*
X173172165Y-127174032D01*
X173172167Y-127174033D01*
X173172170Y-127174035D01*
X173386337Y-127273903D01*
X173614592Y-127335063D01*
X173802918Y-127351539D01*
X173849999Y-127355659D01*
X173850000Y-127355659D01*
X173850001Y-127355659D01*
X173889234Y-127352226D01*
X174085408Y-127335063D01*
X174313663Y-127273903D01*
X174450543Y-127210074D01*
X174519617Y-127199583D01*
X174583401Y-127228102D01*
X174621641Y-127286579D01*
X174622196Y-127356446D01*
X174590626Y-127410138D01*
X174387584Y-127613181D01*
X174326261Y-127646666D01*
X174299903Y-127649500D01*
X160400098Y-127649500D01*
X160333059Y-127629815D01*
X160312417Y-127613181D01*
X159182766Y-126483531D01*
X159149281Y-126422208D01*
X159150672Y-126363757D01*
X159164233Y-126313147D01*
X159185063Y-126235408D01*
X159205659Y-126000000D01*
X159205659Y-125999999D01*
X166494341Y-125999999D01*
X166494341Y-126000000D01*
X166514936Y-126235403D01*
X166514938Y-126235413D01*
X166576094Y-126463655D01*
X166576096Y-126463659D01*
X166576097Y-126463663D01*
X166639924Y-126600539D01*
X166675965Y-126677830D01*
X166675967Y-126677834D01*
X166734462Y-126761373D01*
X166811505Y-126871401D01*
X166978599Y-127038495D01*
X167075384Y-127106265D01*
X167172165Y-127174032D01*
X167172167Y-127174033D01*
X167172170Y-127174035D01*
X167386337Y-127273903D01*
X167614592Y-127335063D01*
X167802918Y-127351539D01*
X167849999Y-127355659D01*
X167850000Y-127355659D01*
X167850001Y-127355659D01*
X167889234Y-127352226D01*
X168085408Y-127335063D01*
X168313663Y-127273903D01*
X168527830Y-127174035D01*
X168721401Y-127038495D01*
X168888495Y-126871401D01*
X169024035Y-126677830D01*
X169123903Y-126463663D01*
X169185063Y-126235408D01*
X169205659Y-126000000D01*
X169205659Y-125999998D01*
X169494843Y-125999998D01*
X169494843Y-126000001D01*
X169515430Y-126235315D01*
X169515432Y-126235326D01*
X169576566Y-126463483D01*
X169576570Y-126463492D01*
X169676400Y-126677579D01*
X169676402Y-126677583D01*
X169735072Y-126761373D01*
X169735073Y-126761373D01*
X170358871Y-126137574D01*
X170374755Y-126196853D01*
X170441898Y-126313147D01*
X170536853Y-126408102D01*
X170653147Y-126475245D01*
X170712424Y-126491128D01*
X170088625Y-127114925D01*
X170172421Y-127173599D01*
X170386507Y-127273429D01*
X170386516Y-127273433D01*
X170614673Y-127334567D01*
X170614684Y-127334569D01*
X170849998Y-127355157D01*
X170850002Y-127355157D01*
X171085315Y-127334569D01*
X171085326Y-127334567D01*
X171313483Y-127273433D01*
X171313492Y-127273429D01*
X171527578Y-127173600D01*
X171527582Y-127173598D01*
X171611373Y-127114926D01*
X171611373Y-127114925D01*
X170987575Y-126491128D01*
X171046853Y-126475245D01*
X171163147Y-126408102D01*
X171258102Y-126313147D01*
X171325245Y-126196853D01*
X171341127Y-126137575D01*
X171964925Y-126761373D01*
X171964926Y-126761373D01*
X172023598Y-126677582D01*
X172023600Y-126677578D01*
X172123429Y-126463492D01*
X172123433Y-126463483D01*
X172184567Y-126235326D01*
X172184569Y-126235315D01*
X172205157Y-126000001D01*
X172205157Y-125999998D01*
X172184569Y-125764684D01*
X172184567Y-125764673D01*
X172123433Y-125536516D01*
X172123429Y-125536507D01*
X172023600Y-125322423D01*
X172023599Y-125322421D01*
X171964925Y-125238626D01*
X171964925Y-125238625D01*
X171341127Y-125862423D01*
X171325245Y-125803147D01*
X171258102Y-125686853D01*
X171163147Y-125591898D01*
X171046853Y-125524755D01*
X170987575Y-125508871D01*
X171611373Y-124885073D01*
X171611373Y-124885072D01*
X171527583Y-124826402D01*
X171527579Y-124826400D01*
X171313492Y-124726570D01*
X171313483Y-124726566D01*
X171085326Y-124665432D01*
X171085315Y-124665430D01*
X170850002Y-124644843D01*
X170849998Y-124644843D01*
X170614684Y-124665430D01*
X170614673Y-124665432D01*
X170386516Y-124726566D01*
X170386507Y-124726570D01*
X170172419Y-124826401D01*
X170088625Y-124885072D01*
X170712424Y-125508871D01*
X170653147Y-125524755D01*
X170536853Y-125591898D01*
X170441898Y-125686853D01*
X170374755Y-125803147D01*
X170358872Y-125862424D01*
X169735073Y-125238625D01*
X169735072Y-125238625D01*
X169676401Y-125322419D01*
X169576570Y-125536507D01*
X169576566Y-125536516D01*
X169515432Y-125764673D01*
X169515430Y-125764684D01*
X169494843Y-125999998D01*
X169205659Y-125999998D01*
X169185063Y-125764592D01*
X169123903Y-125536337D01*
X169024035Y-125322171D01*
X168965537Y-125238626D01*
X168888494Y-125128597D01*
X168721402Y-124961506D01*
X168721395Y-124961501D01*
X168527834Y-124825967D01*
X168527830Y-124825965D01*
X168527828Y-124825964D01*
X168313663Y-124726097D01*
X168313659Y-124726096D01*
X168313655Y-124726094D01*
X168085413Y-124664938D01*
X168085403Y-124664936D01*
X167850001Y-124644341D01*
X167849999Y-124644341D01*
X167614596Y-124664936D01*
X167614586Y-124664938D01*
X167386344Y-124726094D01*
X167386335Y-124726098D01*
X167172171Y-124825964D01*
X167172169Y-124825965D01*
X166978597Y-124961505D01*
X166811505Y-125128597D01*
X166675965Y-125322169D01*
X166675964Y-125322171D01*
X166576098Y-125536335D01*
X166576094Y-125536344D01*
X166514938Y-125764586D01*
X166514936Y-125764596D01*
X166494341Y-125999999D01*
X159205659Y-125999999D01*
X159185063Y-125764592D01*
X159123903Y-125536337D01*
X159024035Y-125322171D01*
X158965537Y-125238626D01*
X158888494Y-125128597D01*
X158721402Y-124961506D01*
X158721395Y-124961501D01*
X158527834Y-124825967D01*
X158527830Y-124825965D01*
X158527828Y-124825964D01*
X158313663Y-124726097D01*
X158313659Y-124726096D01*
X158313655Y-124726094D01*
X158085413Y-124664938D01*
X158085403Y-124664936D01*
X157850001Y-124644341D01*
X157849999Y-124644341D01*
X157614596Y-124664936D01*
X157614586Y-124664938D01*
X157386344Y-124726094D01*
X157386335Y-124726098D01*
X157172171Y-124825964D01*
X157172169Y-124825965D01*
X156978597Y-124961505D01*
X156811505Y-125128597D01*
X156675965Y-125322169D01*
X156675964Y-125322171D01*
X156576098Y-125536335D01*
X156576094Y-125536344D01*
X156514938Y-125764586D01*
X156514936Y-125764596D01*
X156494341Y-125999999D01*
X156494341Y-126000000D01*
X156514936Y-126235403D01*
X156514938Y-126235413D01*
X156576094Y-126463655D01*
X156576096Y-126463659D01*
X156576097Y-126463663D01*
X156639924Y-126600539D01*
X156675965Y-126677830D01*
X156675967Y-126677834D01*
X156734462Y-126761373D01*
X156811505Y-126871401D01*
X156978599Y-127038495D01*
X157075384Y-127106265D01*
X157172165Y-127174032D01*
X157172167Y-127174033D01*
X157172170Y-127174035D01*
X157386337Y-127273903D01*
X157614592Y-127335063D01*
X157802918Y-127351539D01*
X157849999Y-127355659D01*
X157850000Y-127355659D01*
X157850001Y-127355659D01*
X157889234Y-127352226D01*
X158085408Y-127335063D01*
X158213757Y-127300672D01*
X158283606Y-127302335D01*
X158333530Y-127332765D01*
X159731284Y-128730520D01*
X159731286Y-128730521D01*
X159731290Y-128730524D01*
X159868209Y-128809573D01*
X159868216Y-128809577D01*
X160020943Y-128850501D01*
X160020945Y-128850501D01*
X160186654Y-128850501D01*
X160186670Y-128850500D01*
X174513331Y-128850500D01*
X174513347Y-128850501D01*
X174520943Y-128850501D01*
X174679054Y-128850501D01*
X174679057Y-128850501D01*
X174831785Y-128809577D01*
X174881904Y-128780639D01*
X174968716Y-128730520D01*
X175080520Y-128618716D01*
X175080520Y-128618714D01*
X175090728Y-128608507D01*
X175090730Y-128608504D01*
X176366470Y-127332763D01*
X176427791Y-127299280D01*
X176486238Y-127300670D01*
X176614592Y-127335063D01*
X176802918Y-127351539D01*
X176849999Y-127355659D01*
X176850000Y-127355659D01*
X176850001Y-127355659D01*
X176889234Y-127352226D01*
X177085408Y-127335063D01*
X177313663Y-127273903D01*
X177527830Y-127174035D01*
X177721401Y-127038495D01*
X177888495Y-126871401D01*
X178024035Y-126677830D01*
X178123903Y-126463663D01*
X178185063Y-126235408D01*
X178205659Y-126000000D01*
X178185063Y-125764592D01*
X178123903Y-125536337D01*
X178024035Y-125322171D01*
X177965537Y-125238626D01*
X177888494Y-125128597D01*
X177721402Y-124961506D01*
X177721395Y-124961501D01*
X177527834Y-124825967D01*
X177527830Y-124825965D01*
X177527828Y-124825964D01*
X177364923Y-124750000D01*
X179311532Y-124750000D01*
X179428657Y-124828261D01*
X179428670Y-124828268D01*
X179590537Y-124895315D01*
X179590542Y-124895317D01*
X179762387Y-124929499D01*
X179762391Y-124929500D01*
X179762392Y-124929500D01*
X179937609Y-124929500D01*
X179937610Y-124929499D01*
X180109458Y-124895317D01*
X180271336Y-124828265D01*
X180388468Y-124750000D01*
X185744500Y-124750000D01*
X185744500Y-129825500D01*
X185724815Y-129892539D01*
X185672011Y-129938294D01*
X185620500Y-129949500D01*
X142653481Y-129949500D01*
X142646528Y-129949305D01*
X142354703Y-129932916D01*
X142340885Y-129931359D01*
X142056172Y-129882984D01*
X142042615Y-129879890D01*
X141765100Y-129799939D01*
X141751975Y-129795346D01*
X141485165Y-129684830D01*
X141472637Y-129678797D01*
X141219874Y-129539100D01*
X141208100Y-129531702D01*
X140972569Y-129364584D01*
X140961697Y-129355914D01*
X140746357Y-129163475D01*
X140736524Y-129153642D01*
X140544085Y-128938302D01*
X140535415Y-128927430D01*
X140368297Y-128691899D01*
X140360899Y-128680125D01*
X140331836Y-128627541D01*
X140221198Y-128427355D01*
X140215172Y-128414841D01*
X140104653Y-128148024D01*
X140100060Y-128134899D01*
X140020109Y-127857384D01*
X140017015Y-127843827D01*
X140003965Y-127767020D01*
X139968638Y-127559103D01*
X139967084Y-127545306D01*
X139950695Y-127253472D01*
X139950500Y-127246519D01*
X139950500Y-125999999D01*
X147494341Y-125999999D01*
X147494341Y-126000000D01*
X147514936Y-126235403D01*
X147514938Y-126235413D01*
X147576094Y-126463655D01*
X147576096Y-126463659D01*
X147576097Y-126463663D01*
X147639924Y-126600539D01*
X147675965Y-126677830D01*
X147675967Y-126677834D01*
X147734462Y-126761373D01*
X147811505Y-126871401D01*
X147978599Y-127038495D01*
X148075384Y-127106265D01*
X148172165Y-127174032D01*
X148172167Y-127174033D01*
X148172170Y-127174035D01*
X148386337Y-127273903D01*
X148614592Y-127335063D01*
X148802918Y-127351539D01*
X148849999Y-127355659D01*
X148850000Y-127355659D01*
X148850001Y-127355659D01*
X148889234Y-127352226D01*
X149085408Y-127335063D01*
X149313663Y-127273903D01*
X149527830Y-127174035D01*
X149721401Y-127038495D01*
X149888495Y-126871401D01*
X150024035Y-126677830D01*
X150123903Y-126463663D01*
X150185063Y-126235408D01*
X150205659Y-126000000D01*
X150205659Y-125999998D01*
X150494843Y-125999998D01*
X150494843Y-126000001D01*
X150515430Y-126235315D01*
X150515432Y-126235326D01*
X150576566Y-126463483D01*
X150576570Y-126463492D01*
X150676400Y-126677579D01*
X150676402Y-126677583D01*
X150735072Y-126761373D01*
X150735073Y-126761373D01*
X151358871Y-126137574D01*
X151374755Y-126196853D01*
X151441898Y-126313147D01*
X151536853Y-126408102D01*
X151653147Y-126475245D01*
X151712424Y-126491128D01*
X151088625Y-127114925D01*
X151172421Y-127173599D01*
X151386507Y-127273429D01*
X151386516Y-127273433D01*
X151614673Y-127334567D01*
X151614684Y-127334569D01*
X151849998Y-127355157D01*
X151850002Y-127355157D01*
X152085315Y-127334569D01*
X152085326Y-127334567D01*
X152313483Y-127273433D01*
X152313492Y-127273429D01*
X152527578Y-127173600D01*
X152527582Y-127173598D01*
X152611373Y-127114926D01*
X152611373Y-127114925D01*
X151987575Y-126491128D01*
X152046853Y-126475245D01*
X152163147Y-126408102D01*
X152258102Y-126313147D01*
X152325245Y-126196853D01*
X152341127Y-126137575D01*
X152964925Y-126761373D01*
X152964926Y-126761373D01*
X153023598Y-126677582D01*
X153023600Y-126677578D01*
X153123429Y-126463492D01*
X153123433Y-126463483D01*
X153184567Y-126235326D01*
X153184569Y-126235315D01*
X153205157Y-126000001D01*
X153205157Y-125999999D01*
X153494341Y-125999999D01*
X153494341Y-126000000D01*
X153514936Y-126235403D01*
X153514938Y-126235413D01*
X153576094Y-126463655D01*
X153576096Y-126463659D01*
X153576097Y-126463663D01*
X153639924Y-126600539D01*
X153675965Y-126677830D01*
X153675967Y-126677834D01*
X153734462Y-126761373D01*
X153811505Y-126871401D01*
X153978599Y-127038495D01*
X154075384Y-127106265D01*
X154172165Y-127174032D01*
X154172167Y-127174033D01*
X154172170Y-127174035D01*
X154386337Y-127273903D01*
X154614592Y-127335063D01*
X154802918Y-127351539D01*
X154849999Y-127355659D01*
X154850000Y-127355659D01*
X154850001Y-127355659D01*
X154889234Y-127352226D01*
X155085408Y-127335063D01*
X155313663Y-127273903D01*
X155527830Y-127174035D01*
X155721401Y-127038495D01*
X155888495Y-126871401D01*
X156024035Y-126677830D01*
X156123903Y-126463663D01*
X156185063Y-126235408D01*
X156205659Y-126000000D01*
X156185063Y-125764592D01*
X156123903Y-125536337D01*
X156024035Y-125322171D01*
X155965537Y-125238626D01*
X155888494Y-125128597D01*
X155721402Y-124961506D01*
X155721395Y-124961501D01*
X155527834Y-124825967D01*
X155527830Y-124825965D01*
X155527828Y-124825964D01*
X155313663Y-124726097D01*
X155313659Y-124726096D01*
X155313655Y-124726094D01*
X155085413Y-124664938D01*
X155085403Y-124664936D01*
X154850001Y-124644341D01*
X154849999Y-124644341D01*
X154614596Y-124664936D01*
X154614586Y-124664938D01*
X154386344Y-124726094D01*
X154386335Y-124726098D01*
X154172171Y-124825964D01*
X154172169Y-124825965D01*
X153978597Y-124961505D01*
X153811505Y-125128597D01*
X153675965Y-125322169D01*
X153675964Y-125322171D01*
X153576098Y-125536335D01*
X153576094Y-125536344D01*
X153514938Y-125764586D01*
X153514936Y-125764596D01*
X153494341Y-125999999D01*
X153205157Y-125999999D01*
X153205157Y-125999998D01*
X153184569Y-125764684D01*
X153184567Y-125764673D01*
X153123433Y-125536516D01*
X153123429Y-125536507D01*
X153023600Y-125322423D01*
X153023599Y-125322421D01*
X152964925Y-125238626D01*
X152964925Y-125238625D01*
X152341127Y-125862423D01*
X152325245Y-125803147D01*
X152258102Y-125686853D01*
X152163147Y-125591898D01*
X152046853Y-125524755D01*
X151987575Y-125508871D01*
X152611373Y-124885073D01*
X152611373Y-124885072D01*
X152527583Y-124826402D01*
X152527579Y-124826400D01*
X152313492Y-124726570D01*
X152313483Y-124726566D01*
X152085326Y-124665432D01*
X152085315Y-124665430D01*
X151850002Y-124644843D01*
X151849998Y-124644843D01*
X151614684Y-124665430D01*
X151614673Y-124665432D01*
X151386516Y-124726566D01*
X151386507Y-124726570D01*
X151172419Y-124826401D01*
X151088625Y-124885072D01*
X151712424Y-125508871D01*
X151653147Y-125524755D01*
X151536853Y-125591898D01*
X151441898Y-125686853D01*
X151374755Y-125803147D01*
X151358871Y-125862424D01*
X150735072Y-125238625D01*
X150676401Y-125322419D01*
X150576570Y-125536507D01*
X150576566Y-125536516D01*
X150515432Y-125764673D01*
X150515430Y-125764684D01*
X150494843Y-125999998D01*
X150205659Y-125999998D01*
X150185063Y-125764592D01*
X150123903Y-125536337D01*
X150024035Y-125322171D01*
X149965537Y-125238626D01*
X149888494Y-125128597D01*
X149721402Y-124961506D01*
X149721395Y-124961501D01*
X149527834Y-124825967D01*
X149527830Y-124825965D01*
X149527828Y-124825964D01*
X149313663Y-124726097D01*
X149313659Y-124726096D01*
X149313655Y-124726094D01*
X149085413Y-124664938D01*
X149085403Y-124664936D01*
X148850001Y-124644341D01*
X148849999Y-124644341D01*
X148614596Y-124664936D01*
X148614586Y-124664938D01*
X148386344Y-124726094D01*
X148386335Y-124726098D01*
X148172171Y-124825964D01*
X148172169Y-124825965D01*
X147978597Y-124961505D01*
X147811505Y-125128597D01*
X147675965Y-125322169D01*
X147675964Y-125322171D01*
X147576098Y-125536335D01*
X147576094Y-125536344D01*
X147514938Y-125764586D01*
X147514936Y-125764596D01*
X147494341Y-125999999D01*
X139950500Y-125999999D01*
X139950500Y-123952387D01*
X144960500Y-123952387D01*
X144960500Y-124127612D01*
X144994681Y-124299450D01*
X144994684Y-124299462D01*
X145061731Y-124461329D01*
X145061738Y-124461342D01*
X145159079Y-124607022D01*
X145159082Y-124607026D01*
X145282973Y-124730917D01*
X145282977Y-124730920D01*
X145428657Y-124828261D01*
X145428670Y-124828268D01*
X145590537Y-124895315D01*
X145590542Y-124895317D01*
X145762387Y-124929499D01*
X145762391Y-124929500D01*
X145762392Y-124929500D01*
X145937609Y-124929500D01*
X145937610Y-124929499D01*
X146109458Y-124895317D01*
X146271336Y-124828265D01*
X146417023Y-124730920D01*
X146540920Y-124607023D01*
X146638265Y-124461336D01*
X146705317Y-124299458D01*
X146739500Y-124127608D01*
X146739500Y-123952392D01*
X146739499Y-123952387D01*
X159960500Y-123952387D01*
X159960500Y-124127612D01*
X159994681Y-124299450D01*
X159994684Y-124299462D01*
X160061731Y-124461329D01*
X160061738Y-124461342D01*
X160159079Y-124607022D01*
X160159082Y-124607026D01*
X160282973Y-124730917D01*
X160282977Y-124730920D01*
X160428657Y-124828261D01*
X160428670Y-124828268D01*
X160590537Y-124895315D01*
X160590542Y-124895317D01*
X160762387Y-124929499D01*
X160762391Y-124929500D01*
X160762392Y-124929500D01*
X160937609Y-124929500D01*
X160937610Y-124929499D01*
X161109458Y-124895317D01*
X161271336Y-124828265D01*
X161417023Y-124730920D01*
X161540920Y-124607023D01*
X161638265Y-124461336D01*
X161705317Y-124299458D01*
X161739500Y-124127608D01*
X161739500Y-123952392D01*
X161739499Y-123952387D01*
X163960500Y-123952387D01*
X163960500Y-124127612D01*
X163994681Y-124299450D01*
X163994684Y-124299462D01*
X164061731Y-124461329D01*
X164061738Y-124461342D01*
X164159079Y-124607022D01*
X164159082Y-124607026D01*
X164282973Y-124730917D01*
X164282977Y-124730920D01*
X164428657Y-124828261D01*
X164428670Y-124828268D01*
X164590537Y-124895315D01*
X164590542Y-124895317D01*
X164762387Y-124929499D01*
X164762391Y-124929500D01*
X164762392Y-124929500D01*
X164937609Y-124929500D01*
X164937610Y-124929499D01*
X165109458Y-124895317D01*
X165271336Y-124828265D01*
X165417023Y-124730920D01*
X165540920Y-124607023D01*
X165638265Y-124461336D01*
X165705317Y-124299458D01*
X165739500Y-124127608D01*
X165739500Y-123952392D01*
X165705317Y-123780542D01*
X165705315Y-123780537D01*
X165638268Y-123618670D01*
X165638261Y-123618657D01*
X165540920Y-123472977D01*
X165540917Y-123472973D01*
X165417026Y-123349082D01*
X165417022Y-123349079D01*
X165271342Y-123251738D01*
X165271329Y-123251731D01*
X165109462Y-123184684D01*
X165109450Y-123184681D01*
X164937612Y-123150500D01*
X164937608Y-123150500D01*
X164762392Y-123150500D01*
X164762387Y-123150500D01*
X164590549Y-123184681D01*
X164590537Y-123184684D01*
X164428670Y-123251731D01*
X164428657Y-123251738D01*
X164282977Y-123349079D01*
X164282973Y-123349082D01*
X164159082Y-123472973D01*
X164159079Y-123472977D01*
X164061738Y-123618657D01*
X164061731Y-123618670D01*
X163994684Y-123780537D01*
X163994681Y-123780549D01*
X163960500Y-123952387D01*
X161739499Y-123952387D01*
X161705317Y-123780542D01*
X161705315Y-123780537D01*
X161638268Y-123618670D01*
X161638261Y-123618657D01*
X161540920Y-123472977D01*
X161540917Y-123472973D01*
X161417026Y-123349082D01*
X161417022Y-123349079D01*
X161271342Y-123251738D01*
X161271329Y-123251731D01*
X161109462Y-123184684D01*
X161109450Y-123184681D01*
X160937612Y-123150500D01*
X160937608Y-123150500D01*
X160762392Y-123150500D01*
X160762387Y-123150500D01*
X160590549Y-123184681D01*
X160590537Y-123184684D01*
X160428670Y-123251731D01*
X160428657Y-123251738D01*
X160282977Y-123349079D01*
X160282973Y-123349082D01*
X160159082Y-123472973D01*
X160159079Y-123472977D01*
X160061738Y-123618657D01*
X160061731Y-123618670D01*
X159994684Y-123780537D01*
X159994681Y-123780549D01*
X159960500Y-123952387D01*
X146739499Y-123952387D01*
X146705317Y-123780542D01*
X146705315Y-123780537D01*
X146638268Y-123618670D01*
X146638261Y-123618657D01*
X146540920Y-123472977D01*
X146540917Y-123472973D01*
X146417026Y-123349082D01*
X146417022Y-123349079D01*
X146271342Y-123251738D01*
X146271329Y-123251731D01*
X146109462Y-123184684D01*
X146109450Y-123184681D01*
X145937612Y-123150500D01*
X145937608Y-123150500D01*
X145762392Y-123150500D01*
X145762387Y-123150500D01*
X145590549Y-123184681D01*
X145590537Y-123184684D01*
X145428670Y-123251731D01*
X145428657Y-123251738D01*
X145282977Y-123349079D01*
X145282973Y-123349082D01*
X145159082Y-123472973D01*
X145159079Y-123472977D01*
X145061738Y-123618657D01*
X145061731Y-123618670D01*
X144994684Y-123780537D01*
X144994681Y-123780549D01*
X144960500Y-123952387D01*
X139950500Y-123952387D01*
X139950500Y-119651353D01*
X140549500Y-119651353D01*
X140549500Y-120276371D01*
X140549501Y-120276389D01*
X140560000Y-120379166D01*
X140560001Y-120379169D01*
X140615185Y-120545701D01*
X140615187Y-120545706D01*
X140707289Y-120695027D01*
X140800951Y-120788689D01*
X140834436Y-120850012D01*
X140829452Y-120919704D01*
X140800951Y-120964051D01*
X140707289Y-121057712D01*
X140615187Y-121207033D01*
X140615186Y-121207036D01*
X140560001Y-121373573D01*
X140560001Y-121373574D01*
X140560000Y-121373574D01*
X140549500Y-121476353D01*
X140549500Y-122101371D01*
X140549501Y-122101389D01*
X140560000Y-122204166D01*
X140560001Y-122204169D01*
X140615185Y-122370701D01*
X140615186Y-122370704D01*
X140707288Y-122520026D01*
X140831344Y-122644082D01*
X140980666Y-122736184D01*
X141147203Y-122791369D01*
X141249991Y-122801870D01*
X142250008Y-122801869D01*
X142250016Y-122801868D01*
X142250019Y-122801868D01*
X142306302Y-122796118D01*
X142352797Y-122791369D01*
X142519334Y-122736184D01*
X142668656Y-122644082D01*
X142792712Y-122520026D01*
X142884814Y-122370704D01*
X142939999Y-122204167D01*
X142950500Y-122101379D01*
X142950499Y-121476362D01*
X142939999Y-121373573D01*
X142884814Y-121207036D01*
X142792712Y-121057714D01*
X142699049Y-120964051D01*
X142665564Y-120902728D01*
X142670548Y-120833036D01*
X142699049Y-120788689D01*
X142792712Y-120695026D01*
X142884814Y-120545704D01*
X142939999Y-120379167D01*
X142950500Y-120276379D01*
X142950499Y-119651362D01*
X142939999Y-119548573D01*
X142884814Y-119382036D01*
X142792712Y-119232714D01*
X142668656Y-119108658D01*
X142519334Y-119016556D01*
X142352797Y-118961371D01*
X142352795Y-118961370D01*
X142250010Y-118950870D01*
X141249998Y-118950870D01*
X141249980Y-118950871D01*
X141147203Y-118961370D01*
X141147200Y-118961371D01*
X140980668Y-119016555D01*
X140980663Y-119016557D01*
X140831342Y-119108659D01*
X140707289Y-119232712D01*
X140615187Y-119382033D01*
X140615186Y-119382036D01*
X140560001Y-119548573D01*
X140560001Y-119548574D01*
X140560000Y-119548574D01*
X140549500Y-119651353D01*
X139950500Y-119651353D01*
X139950500Y-118374000D01*
X139970185Y-118306961D01*
X140022989Y-118261206D01*
X140074500Y-118250000D01*
X144055446Y-118250000D01*
X144122485Y-118269685D01*
G37*
%TD.AperFunction*%
%TD*%
%TA.AperFunction,Conductor*%
%TO.N,GNDPWR*%
G36*
X180729798Y-99269685D02*
G01*
X180775553Y-99322489D01*
X180786759Y-99374000D01*
X180786759Y-99405223D01*
X180786758Y-99405223D01*
X180827683Y-99557954D01*
X180856618Y-99608069D01*
X180856619Y-99608073D01*
X180856620Y-99608073D01*
X180906739Y-99694883D01*
X180906741Y-99694886D01*
X181025609Y-99813754D01*
X181025615Y-99813759D01*
X183563181Y-102351325D01*
X183596666Y-102412648D01*
X183599500Y-102439006D01*
X183599500Y-114863330D01*
X183599499Y-114863348D01*
X183599499Y-115029054D01*
X183599498Y-115029054D01*
X183640423Y-115181785D01*
X183669358Y-115231900D01*
X183669359Y-115231904D01*
X183669360Y-115231904D01*
X183719479Y-115318714D01*
X183719481Y-115318717D01*
X183838349Y-115437585D01*
X183838355Y-115437590D01*
X184113181Y-115712416D01*
X184146666Y-115773739D01*
X184149500Y-115800097D01*
X184149500Y-117147870D01*
X184149501Y-117147876D01*
X184155908Y-117207483D01*
X184206202Y-117342328D01*
X184206206Y-117342335D01*
X184292452Y-117457544D01*
X184292455Y-117457547D01*
X184407664Y-117543793D01*
X184407671Y-117543797D01*
X184542517Y-117594091D01*
X184542516Y-117594091D01*
X184549444Y-117594835D01*
X184602127Y-117600500D01*
X185626001Y-117600499D01*
X185693039Y-117620183D01*
X185738794Y-117672987D01*
X185750000Y-117724499D01*
X185750000Y-124750000D01*
X180388468Y-124750000D01*
X180417023Y-124730920D01*
X180540920Y-124607023D01*
X180638265Y-124461336D01*
X180705317Y-124299458D01*
X180739500Y-124127608D01*
X180739500Y-123952392D01*
X180705317Y-123780542D01*
X180705315Y-123780537D01*
X180638268Y-123618670D01*
X180638261Y-123618657D01*
X180540920Y-123472977D01*
X180540917Y-123472973D01*
X180417026Y-123349082D01*
X180417022Y-123349079D01*
X180271342Y-123251738D01*
X180271329Y-123251731D01*
X180109462Y-123184684D01*
X180109450Y-123184681D01*
X179937612Y-123150500D01*
X179937608Y-123150500D01*
X179762392Y-123150500D01*
X179762387Y-123150500D01*
X179590549Y-123184681D01*
X179590537Y-123184684D01*
X179428670Y-123251731D01*
X179428657Y-123251738D01*
X179282977Y-123349079D01*
X179282973Y-123349082D01*
X179159082Y-123472973D01*
X179159079Y-123472977D01*
X179061738Y-123618657D01*
X179061731Y-123618670D01*
X178994684Y-123780537D01*
X178994681Y-123780549D01*
X178960500Y-123952387D01*
X178960500Y-124127612D01*
X178994681Y-124299450D01*
X178994684Y-124299462D01*
X179061731Y-124461329D01*
X179061738Y-124461342D01*
X179159079Y-124607022D01*
X179159082Y-124607026D01*
X179282973Y-124730917D01*
X179282977Y-124730920D01*
X179311532Y-124750000D01*
X177364923Y-124750000D01*
X177313663Y-124726097D01*
X177313659Y-124726096D01*
X177313655Y-124726094D01*
X177085413Y-124664938D01*
X177085403Y-124664936D01*
X176850001Y-124644341D01*
X176849999Y-124644341D01*
X176614596Y-124664936D01*
X176614586Y-124664938D01*
X176386344Y-124726094D01*
X176386335Y-124726098D01*
X176335077Y-124750000D01*
X175000000Y-124750000D01*
X175000000Y-117885010D01*
X177745500Y-117885010D01*
X177745500Y-118114989D01*
X177745501Y-118115005D01*
X177775518Y-118343009D01*
X177775519Y-118343014D01*
X177775520Y-118343020D01*
X177775521Y-118343022D01*
X177835046Y-118565175D01*
X177835049Y-118565185D01*
X177923057Y-118777654D01*
X177923061Y-118777664D01*
X178038055Y-118976839D01*
X178178064Y-119159303D01*
X178178070Y-119159310D01*
X178340689Y-119321929D01*
X178340696Y-119321935D01*
X178523160Y-119461944D01*
X178722335Y-119576938D01*
X178722336Y-119576938D01*
X178722339Y-119576940D01*
X178934824Y-119664954D01*
X179156980Y-119724480D01*
X179385004Y-119754500D01*
X179385011Y-119754500D01*
X179614989Y-119754500D01*
X179614996Y-119754500D01*
X179843020Y-119724480D01*
X180065176Y-119664954D01*
X180277661Y-119576940D01*
X180476840Y-119461944D01*
X180659305Y-119321934D01*
X180821934Y-119159305D01*
X180961944Y-118976840D01*
X181076940Y-118777661D01*
X181164954Y-118565176D01*
X181224480Y-118343020D01*
X181254500Y-118114996D01*
X181254500Y-117885004D01*
X181224480Y-117656980D01*
X181164954Y-117434824D01*
X181076940Y-117222339D01*
X181064331Y-117200500D01*
X180961944Y-117023160D01*
X180821935Y-116840696D01*
X180821929Y-116840689D01*
X180659310Y-116678070D01*
X180659303Y-116678064D01*
X180476839Y-116538055D01*
X180277664Y-116423061D01*
X180277654Y-116423057D01*
X180065185Y-116335049D01*
X180065178Y-116335047D01*
X180065176Y-116335046D01*
X179843020Y-116275520D01*
X179843014Y-116275519D01*
X179843009Y-116275518D01*
X179615005Y-116245501D01*
X179615002Y-116245500D01*
X179614996Y-116245500D01*
X179385004Y-116245500D01*
X179384998Y-116245500D01*
X179384994Y-116245501D01*
X179156990Y-116275518D01*
X179156983Y-116275519D01*
X179156980Y-116275520D01*
X178934824Y-116335046D01*
X178934814Y-116335049D01*
X178722345Y-116423057D01*
X178722335Y-116423061D01*
X178523160Y-116538055D01*
X178340696Y-116678064D01*
X178340689Y-116678070D01*
X178178070Y-116840689D01*
X178178064Y-116840696D01*
X178038055Y-117023160D01*
X177923061Y-117222335D01*
X177923057Y-117222345D01*
X177835049Y-117434814D01*
X177835046Y-117434824D01*
X177775521Y-117656977D01*
X177775518Y-117656990D01*
X177745501Y-117884994D01*
X177745500Y-117885010D01*
X175000000Y-117885010D01*
X175000000Y-99374000D01*
X175019685Y-99306961D01*
X175072489Y-99261206D01*
X175124000Y-99250000D01*
X180662759Y-99250000D01*
X180729798Y-99269685D01*
G37*
%TD.AperFunction*%
%TD*%
M02*
