%TF.GenerationSoftware,KiCad,Pcbnew,8.0.5*%
%TF.CreationDate,2024-10-30T11:13:14-05:00*%
%TF.ProjectId,DataAcq-EnvironmentBoard,44617461-4163-4712-9d45-6e7669726f6e,rev?*%
%TF.SameCoordinates,Original*%
%TF.FileFunction,Legend,Top*%
%TF.FilePolarity,Positive*%
%FSLAX46Y46*%
G04 Gerber Fmt 4.6, Leading zero omitted, Abs format (unit mm)*
G04 Created by KiCad (PCBNEW 8.0.5) date 2024-10-30 11:13:14*
%MOMM*%
%LPD*%
G01*
G04 APERTURE LIST*
%ADD10C,0.153000*%
%ADD11C,0.100000*%
%ADD12C,0.150000*%
%ADD13C,0.120000*%
G04 APERTURE END LIST*
D10*
G36*
X185204333Y-129557274D02*
G01*
X182354123Y-129557274D01*
X182354123Y-128645809D01*
X182465234Y-128645809D01*
X182467350Y-128675583D01*
X182480698Y-128702280D01*
X182503248Y-128721837D01*
X182531565Y-128731276D01*
X182561339Y-128729160D01*
X182575345Y-128723801D01*
X182670583Y-128676182D01*
X182677009Y-128672136D01*
X182678872Y-128671365D01*
X182680970Y-128669643D01*
X182683274Y-128668193D01*
X182684598Y-128666666D01*
X182690465Y-128661852D01*
X182750347Y-128601970D01*
X182750347Y-129293163D01*
X182541133Y-129293163D01*
X182526209Y-129294633D01*
X182498632Y-129306056D01*
X182477526Y-129327162D01*
X182466103Y-129354739D01*
X182466103Y-129384587D01*
X182477526Y-129412164D01*
X182498632Y-129433270D01*
X182526209Y-129444693D01*
X182541133Y-129446163D01*
X183112561Y-129446163D01*
X183127485Y-129444693D01*
X183155062Y-129433270D01*
X183176168Y-129412164D01*
X183187591Y-129384587D01*
X183187591Y-129354739D01*
X183370865Y-129354739D01*
X183370865Y-129384587D01*
X183382288Y-129412164D01*
X183403394Y-129433270D01*
X183430971Y-129444693D01*
X183445895Y-129446163D01*
X184064942Y-129446163D01*
X184079866Y-129444693D01*
X184107443Y-129433270D01*
X184128549Y-129412164D01*
X184139972Y-129384587D01*
X184139972Y-129354739D01*
X184128549Y-129327162D01*
X184107443Y-129306056D01*
X184079866Y-129294633D01*
X184064942Y-129293163D01*
X183630583Y-129293163D01*
X184071417Y-128852328D01*
X184080930Y-128840735D01*
X184081981Y-128838195D01*
X184083783Y-128836119D01*
X184089897Y-128822425D01*
X184137516Y-128679569D01*
X184139199Y-128672166D01*
X184139972Y-128670301D01*
X184140238Y-128667595D01*
X184140841Y-128664946D01*
X184140697Y-128662931D01*
X184141442Y-128655377D01*
X184141442Y-128560139D01*
X184139972Y-128545215D01*
X184138919Y-128542674D01*
X184138725Y-128539933D01*
X184133366Y-128525927D01*
X184085747Y-128430689D01*
X184081702Y-128424264D01*
X184080930Y-128422399D01*
X184079206Y-128420299D01*
X184077758Y-128417998D01*
X184076231Y-128416673D01*
X184071416Y-128410807D01*
X184039841Y-128379231D01*
X184274758Y-128379231D01*
X184278083Y-128393854D01*
X184611416Y-129393854D01*
X184617530Y-129407547D01*
X184621110Y-129411675D01*
X184623556Y-129416566D01*
X184630803Y-129422851D01*
X184637087Y-129430097D01*
X184641974Y-129432540D01*
X184646105Y-129436123D01*
X184655209Y-129439157D01*
X184663784Y-129443445D01*
X184669233Y-129443832D01*
X184674422Y-129445562D01*
X184683992Y-129444881D01*
X184693558Y-129445562D01*
X184698743Y-129443833D01*
X184704196Y-129443446D01*
X184712775Y-129439156D01*
X184721875Y-129436123D01*
X184726004Y-129432541D01*
X184730893Y-129430097D01*
X184737180Y-129422848D01*
X184744424Y-129416565D01*
X184746867Y-129411679D01*
X184750450Y-129407548D01*
X184756564Y-129393854D01*
X185089897Y-128393855D01*
X185093222Y-128379232D01*
X185091106Y-128349458D01*
X185077757Y-128322761D01*
X185055208Y-128303203D01*
X185026891Y-128293764D01*
X184997117Y-128295881D01*
X184970420Y-128309229D01*
X184950863Y-128331779D01*
X184944749Y-128345472D01*
X184683990Y-129127749D01*
X184423231Y-128345472D01*
X184417117Y-128331778D01*
X184397560Y-128309229D01*
X184370863Y-128295880D01*
X184341089Y-128293764D01*
X184312772Y-128303203D01*
X184290223Y-128322760D01*
X184276874Y-128349457D01*
X184274758Y-128379231D01*
X184039841Y-128379231D01*
X184023798Y-128363188D01*
X184017931Y-128358373D01*
X184016607Y-128356847D01*
X184014303Y-128355396D01*
X184012205Y-128353675D01*
X184010342Y-128352903D01*
X184003916Y-128348858D01*
X183908678Y-128301239D01*
X183894672Y-128295880D01*
X183891930Y-128295685D01*
X183889390Y-128294633D01*
X183874466Y-128293163D01*
X183636371Y-128293163D01*
X183621447Y-128294633D01*
X183618906Y-128295685D01*
X183616165Y-128295880D01*
X183602159Y-128301239D01*
X183506921Y-128348858D01*
X183500496Y-128352902D01*
X183498631Y-128353675D01*
X183496531Y-128355398D01*
X183494230Y-128356847D01*
X183492905Y-128358373D01*
X183487039Y-128363189D01*
X183439420Y-128410807D01*
X183429907Y-128422400D01*
X183418484Y-128449977D01*
X183418484Y-128479825D01*
X183429907Y-128507402D01*
X183451013Y-128528508D01*
X183478590Y-128539931D01*
X183508438Y-128539931D01*
X183536015Y-128528508D01*
X183547608Y-128518995D01*
X183586447Y-128480154D01*
X183654431Y-128446163D01*
X183856406Y-128446163D01*
X183924388Y-128480154D01*
X183954450Y-128510215D01*
X183988442Y-128578199D01*
X183988442Y-128642964D01*
X183950460Y-128756908D01*
X183391801Y-129315569D01*
X183382288Y-129327162D01*
X183370865Y-129354739D01*
X183187591Y-129354739D01*
X183176168Y-129327162D01*
X183155062Y-129306056D01*
X183127485Y-129294633D01*
X183112561Y-129293163D01*
X182903347Y-129293163D01*
X182903347Y-128369663D01*
X182903341Y-128369609D01*
X182903347Y-128369583D01*
X182903331Y-128369505D01*
X182901877Y-128354739D01*
X182898978Y-128347741D01*
X182897493Y-128340314D01*
X182893321Y-128334084D01*
X182890454Y-128327162D01*
X182885100Y-128321808D01*
X182880884Y-128315512D01*
X182874644Y-128311352D01*
X182869348Y-128306056D01*
X182862353Y-128303158D01*
X182856049Y-128298956D01*
X182848695Y-128297501D01*
X182841771Y-128294633D01*
X182834197Y-128294633D01*
X182826767Y-128293163D01*
X182819417Y-128294633D01*
X182811923Y-128294633D01*
X182804925Y-128297531D01*
X182797498Y-128299017D01*
X182791269Y-128303188D01*
X182784346Y-128306056D01*
X182778991Y-128311410D01*
X182772697Y-128315626D01*
X182763290Y-128327111D01*
X182763240Y-128327162D01*
X182763230Y-128327184D01*
X182763195Y-128327228D01*
X182672159Y-128463782D01*
X182591055Y-128544886D01*
X182506921Y-128586953D01*
X182494230Y-128594942D01*
X182474673Y-128617492D01*
X182465234Y-128645809D01*
X182354123Y-128645809D01*
X182354123Y-128182052D01*
X185204333Y-128182052D01*
X185204333Y-129557274D01*
G37*
G36*
X187943940Y-109152512D02*
G01*
X182951141Y-109152512D01*
X182951141Y-108949977D01*
X184254198Y-108949977D01*
X184254198Y-108979825D01*
X184265621Y-109007402D01*
X184286727Y-109028508D01*
X184314304Y-109039931D01*
X184329228Y-109041401D01*
X185091132Y-109041401D01*
X185106056Y-109039931D01*
X185133633Y-109028508D01*
X185154739Y-109007402D01*
X185166162Y-108979825D01*
X185166162Y-108949977D01*
X185154739Y-108922400D01*
X185133633Y-108901294D01*
X185106056Y-108889871D01*
X185091132Y-108888401D01*
X184329228Y-108888401D01*
X184314304Y-108889871D01*
X184286727Y-108901294D01*
X184265621Y-108922400D01*
X184254198Y-108949977D01*
X182951141Y-108949977D01*
X182951141Y-107869663D01*
X183062252Y-107869663D01*
X183062252Y-108869663D01*
X183063722Y-108884587D01*
X183075145Y-108912164D01*
X183096251Y-108933270D01*
X183123828Y-108944693D01*
X183153676Y-108944693D01*
X183181253Y-108933270D01*
X183202359Y-108912164D01*
X183213782Y-108884587D01*
X183215252Y-108869663D01*
X183215252Y-108145809D01*
X183491424Y-108145809D01*
X183493540Y-108175583D01*
X183506888Y-108202280D01*
X183529438Y-108221837D01*
X183557755Y-108231276D01*
X183587529Y-108229160D01*
X183601535Y-108223801D01*
X183696773Y-108176182D01*
X183703199Y-108172136D01*
X183705062Y-108171365D01*
X183707160Y-108169643D01*
X183709464Y-108168193D01*
X183710788Y-108166666D01*
X183716655Y-108161852D01*
X183776537Y-108101970D01*
X183776537Y-108793163D01*
X183567323Y-108793163D01*
X183552399Y-108794633D01*
X183524822Y-108806056D01*
X183503716Y-108827162D01*
X183492293Y-108854739D01*
X183492293Y-108884587D01*
X183503716Y-108912164D01*
X183524822Y-108933270D01*
X183552399Y-108944693D01*
X183567323Y-108946163D01*
X184138751Y-108946163D01*
X184153675Y-108944693D01*
X184181252Y-108933270D01*
X184202358Y-108912164D01*
X184213781Y-108884587D01*
X184213781Y-108854739D01*
X184202358Y-108827162D01*
X184181252Y-108806056D01*
X184153675Y-108794633D01*
X184138751Y-108793163D01*
X183929537Y-108793163D01*
X183929537Y-108060139D01*
X185205109Y-108060139D01*
X185205109Y-108155377D01*
X185206579Y-108170301D01*
X185207631Y-108172841D01*
X185207826Y-108175583D01*
X185213185Y-108189589D01*
X185260804Y-108284827D01*
X185264849Y-108291253D01*
X185265621Y-108293116D01*
X185267342Y-108295214D01*
X185268793Y-108297518D01*
X185270319Y-108298842D01*
X185275134Y-108304709D01*
X185322753Y-108352327D01*
X185328619Y-108357142D01*
X185329944Y-108358669D01*
X185332245Y-108360117D01*
X185334345Y-108361841D01*
X185336210Y-108362613D01*
X185342635Y-108366658D01*
X185437873Y-108414277D01*
X185438967Y-108414695D01*
X185439409Y-108415023D01*
X185445663Y-108417257D01*
X185451879Y-108419636D01*
X185452428Y-108419675D01*
X185453531Y-108420069D01*
X185635859Y-108465651D01*
X185712483Y-108503963D01*
X185742545Y-108534024D01*
X185776537Y-108602008D01*
X185776537Y-108661126D01*
X185742544Y-108729110D01*
X185712484Y-108759171D01*
X185644501Y-108793163D01*
X185436879Y-108793163D01*
X185305800Y-108749470D01*
X185291177Y-108746145D01*
X185261403Y-108748261D01*
X185234706Y-108761610D01*
X185215149Y-108784159D01*
X185205710Y-108812476D01*
X185207826Y-108842250D01*
X185221175Y-108868947D01*
X185243724Y-108888504D01*
X185257418Y-108894618D01*
X185400274Y-108942237D01*
X185407676Y-108943920D01*
X185409542Y-108944693D01*
X185412247Y-108944959D01*
X185414897Y-108945562D01*
X185416911Y-108945418D01*
X185424466Y-108946163D01*
X185662561Y-108946163D01*
X185677485Y-108944693D01*
X185680025Y-108943640D01*
X185682767Y-108943446D01*
X185696773Y-108938087D01*
X185792011Y-108890468D01*
X185798435Y-108886423D01*
X185800301Y-108885651D01*
X185802400Y-108883927D01*
X185804702Y-108882479D01*
X185806026Y-108880952D01*
X185811893Y-108876137D01*
X185859512Y-108828517D01*
X185864324Y-108822652D01*
X185865853Y-108821327D01*
X185867303Y-108819022D01*
X185869025Y-108816925D01*
X185869796Y-108815062D01*
X185873842Y-108808636D01*
X185921461Y-108713398D01*
X185926820Y-108699392D01*
X185927014Y-108696650D01*
X185928067Y-108694110D01*
X185929537Y-108679186D01*
X185929537Y-108583948D01*
X185928067Y-108569024D01*
X185927014Y-108566483D01*
X185926820Y-108563742D01*
X185921461Y-108549736D01*
X185873842Y-108454498D01*
X185869797Y-108448073D01*
X185869025Y-108446208D01*
X185867301Y-108444108D01*
X185865853Y-108441807D01*
X185864326Y-108440482D01*
X185859511Y-108434616D01*
X185811893Y-108386997D01*
X185806026Y-108382182D01*
X185804702Y-108380656D01*
X185802398Y-108379205D01*
X185800300Y-108377484D01*
X185798437Y-108376712D01*
X185792011Y-108372667D01*
X185696773Y-108325048D01*
X185695678Y-108324629D01*
X185695237Y-108324302D01*
X185688982Y-108322067D01*
X185682767Y-108319689D01*
X185682217Y-108319649D01*
X185681115Y-108319256D01*
X185597027Y-108298234D01*
X186157490Y-108298234D01*
X186157490Y-108441091D01*
X186157746Y-108443696D01*
X186157581Y-108444810D01*
X186158406Y-108450391D01*
X186158960Y-108456015D01*
X186159391Y-108457056D01*
X186159774Y-108459645D01*
X186207393Y-108650121D01*
X186207786Y-108651223D01*
X186207826Y-108651773D01*
X186210204Y-108657988D01*
X186212439Y-108664243D01*
X186212766Y-108664684D01*
X186213185Y-108665779D01*
X186260804Y-108761017D01*
X186264849Y-108767443D01*
X186265621Y-108769306D01*
X186267342Y-108771403D01*
X186268793Y-108773708D01*
X186270321Y-108775033D01*
X186275134Y-108780898D01*
X186370372Y-108876138D01*
X186381965Y-108885651D01*
X186384504Y-108886702D01*
X186386581Y-108888504D01*
X186400275Y-108894618D01*
X186543131Y-108942237D01*
X186550533Y-108943920D01*
X186552399Y-108944693D01*
X186555104Y-108944959D01*
X186557754Y-108945562D01*
X186559768Y-108945418D01*
X186567323Y-108946163D01*
X186662561Y-108946163D01*
X186670115Y-108945418D01*
X186672129Y-108945562D01*
X186674778Y-108944959D01*
X186677485Y-108944693D01*
X186679352Y-108943919D01*
X186686752Y-108942237D01*
X186829609Y-108894618D01*
X186843302Y-108888504D01*
X186845377Y-108886704D01*
X186847920Y-108885651D01*
X186859512Y-108876137D01*
X186907131Y-108828517D01*
X186916644Y-108816925D01*
X186928067Y-108789348D01*
X186928066Y-108759499D01*
X186916644Y-108731922D01*
X186895538Y-108710817D01*
X186867960Y-108699394D01*
X186838112Y-108699395D01*
X186810535Y-108710817D01*
X186798943Y-108720331D01*
X186764094Y-108755180D01*
X186650148Y-108793163D01*
X186579736Y-108793163D01*
X186465790Y-108755181D01*
X186392101Y-108681491D01*
X186353788Y-108604865D01*
X186310490Y-108431673D01*
X186310490Y-108307652D01*
X186353788Y-108134460D01*
X186392100Y-108057836D01*
X186465791Y-107984144D01*
X186579736Y-107946163D01*
X186650148Y-107946163D01*
X186764093Y-107984145D01*
X186798943Y-108018994D01*
X186810535Y-108028508D01*
X186838112Y-108039930D01*
X186867961Y-108039930D01*
X186895538Y-108028508D01*
X186916644Y-108007402D01*
X186928066Y-107979825D01*
X186928066Y-107949976D01*
X186916644Y-107922399D01*
X186907130Y-107910807D01*
X186865987Y-107869663D01*
X187205109Y-107869663D01*
X187205109Y-108869663D01*
X187206579Y-108884587D01*
X187218002Y-108912164D01*
X187239108Y-108933270D01*
X187266685Y-108944693D01*
X187281609Y-108946163D01*
X187757799Y-108946163D01*
X187772723Y-108944693D01*
X187800300Y-108933270D01*
X187821406Y-108912164D01*
X187832829Y-108884587D01*
X187832829Y-108854739D01*
X187821406Y-108827162D01*
X187800300Y-108806056D01*
X187772723Y-108794633D01*
X187757799Y-108793163D01*
X187358109Y-108793163D01*
X187358109Y-107869663D01*
X187356639Y-107854739D01*
X187345216Y-107827162D01*
X187324110Y-107806056D01*
X187296533Y-107794633D01*
X187266685Y-107794633D01*
X187239108Y-107806056D01*
X187218002Y-107827162D01*
X187206579Y-107854739D01*
X187205109Y-107869663D01*
X186865987Y-107869663D01*
X186859512Y-107863188D01*
X186847919Y-107853675D01*
X186845378Y-107852622D01*
X186843302Y-107850822D01*
X186829609Y-107844708D01*
X186686752Y-107797089D01*
X186679352Y-107795406D01*
X186677485Y-107794633D01*
X186674778Y-107794366D01*
X186672129Y-107793764D01*
X186670115Y-107793907D01*
X186662561Y-107793163D01*
X186567323Y-107793163D01*
X186559768Y-107793907D01*
X186557754Y-107793764D01*
X186555104Y-107794366D01*
X186552399Y-107794633D01*
X186550533Y-107795405D01*
X186543131Y-107797089D01*
X186400275Y-107844708D01*
X186386581Y-107850822D01*
X186384504Y-107852623D01*
X186381965Y-107853675D01*
X186370372Y-107863188D01*
X186275134Y-107958426D01*
X186270319Y-107964292D01*
X186268793Y-107965617D01*
X186267342Y-107967920D01*
X186265621Y-107970019D01*
X186264849Y-107971881D01*
X186260804Y-107978308D01*
X186213185Y-108073546D01*
X186212766Y-108074640D01*
X186212439Y-108075082D01*
X186210204Y-108081336D01*
X186207826Y-108087552D01*
X186207786Y-108088101D01*
X186207393Y-108089204D01*
X186159774Y-108279680D01*
X186159391Y-108282268D01*
X186158960Y-108283310D01*
X186158406Y-108288933D01*
X186157581Y-108294515D01*
X186157746Y-108295628D01*
X186157490Y-108298234D01*
X185597027Y-108298234D01*
X185498787Y-108273674D01*
X185422161Y-108235361D01*
X185392100Y-108205299D01*
X185358109Y-108137317D01*
X185358109Y-108078199D01*
X185392100Y-108010216D01*
X185422161Y-107980154D01*
X185490145Y-107946163D01*
X185697767Y-107946163D01*
X185828845Y-107989856D01*
X185843468Y-107993181D01*
X185873242Y-107991065D01*
X185899939Y-107977716D01*
X185919497Y-107955167D01*
X185928936Y-107926850D01*
X185926819Y-107897076D01*
X185913471Y-107870379D01*
X185890921Y-107850822D01*
X185877228Y-107844708D01*
X185734371Y-107797089D01*
X185726971Y-107795406D01*
X185725104Y-107794633D01*
X185722397Y-107794366D01*
X185719748Y-107793764D01*
X185717734Y-107793907D01*
X185710180Y-107793163D01*
X185472085Y-107793163D01*
X185457161Y-107794633D01*
X185454620Y-107795685D01*
X185451879Y-107795880D01*
X185437873Y-107801239D01*
X185342635Y-107848858D01*
X185336210Y-107852902D01*
X185334345Y-107853675D01*
X185332245Y-107855398D01*
X185329944Y-107856847D01*
X185328619Y-107858373D01*
X185322753Y-107863189D01*
X185275134Y-107910807D01*
X185270319Y-107916673D01*
X185268793Y-107917998D01*
X185267342Y-107920301D01*
X185265621Y-107922400D01*
X185264849Y-107924262D01*
X185260804Y-107930689D01*
X185213185Y-108025927D01*
X185207826Y-108039933D01*
X185207631Y-108042674D01*
X185206579Y-108045215D01*
X185205109Y-108060139D01*
X183929537Y-108060139D01*
X183929537Y-107869663D01*
X183929531Y-107869609D01*
X183929537Y-107869583D01*
X183929521Y-107869505D01*
X183928067Y-107854739D01*
X183925168Y-107847741D01*
X183923683Y-107840314D01*
X183919511Y-107834084D01*
X183916644Y-107827162D01*
X183911290Y-107821808D01*
X183907074Y-107815512D01*
X183900834Y-107811352D01*
X183895538Y-107806056D01*
X183888543Y-107803158D01*
X183882239Y-107798956D01*
X183874885Y-107797501D01*
X183867961Y-107794633D01*
X183860387Y-107794633D01*
X183852957Y-107793163D01*
X183845607Y-107794633D01*
X183838113Y-107794633D01*
X183831115Y-107797531D01*
X183823688Y-107799017D01*
X183817459Y-107803188D01*
X183810536Y-107806056D01*
X183805181Y-107811410D01*
X183798887Y-107815626D01*
X183789480Y-107827111D01*
X183789430Y-107827162D01*
X183789420Y-107827184D01*
X183789385Y-107827228D01*
X183698349Y-107963782D01*
X183617245Y-108044886D01*
X183533111Y-108086953D01*
X183520420Y-108094942D01*
X183500863Y-108117492D01*
X183491424Y-108145809D01*
X183215252Y-108145809D01*
X183215252Y-107869663D01*
X183213782Y-107854739D01*
X183202359Y-107827162D01*
X183181253Y-107806056D01*
X183153676Y-107794633D01*
X183123828Y-107794633D01*
X183096251Y-107806056D01*
X183075145Y-107827162D01*
X183063722Y-107854739D01*
X183062252Y-107869663D01*
X182951141Y-107869663D01*
X182951141Y-107682052D01*
X187943940Y-107682052D01*
X187943940Y-109152512D01*
G37*
X193704663Y-105500001D02*
X193704663Y-104928573D01*
X194704663Y-105214287D02*
X193704663Y-105214287D01*
X194657044Y-104214287D02*
X194704663Y-104309525D01*
X194704663Y-104309525D02*
X194704663Y-104500001D01*
X194704663Y-104500001D02*
X194657044Y-104595239D01*
X194657044Y-104595239D02*
X194561805Y-104642858D01*
X194561805Y-104642858D02*
X194180853Y-104642858D01*
X194180853Y-104642858D02*
X194085615Y-104595239D01*
X194085615Y-104595239D02*
X194037996Y-104500001D01*
X194037996Y-104500001D02*
X194037996Y-104309525D01*
X194037996Y-104309525D02*
X194085615Y-104214287D01*
X194085615Y-104214287D02*
X194180853Y-104166668D01*
X194180853Y-104166668D02*
X194276091Y-104166668D01*
X194276091Y-104166668D02*
X194371329Y-104642858D01*
X194704663Y-103738096D02*
X194037996Y-103738096D01*
X194133234Y-103738096D02*
X194085615Y-103690477D01*
X194085615Y-103690477D02*
X194037996Y-103595239D01*
X194037996Y-103595239D02*
X194037996Y-103452382D01*
X194037996Y-103452382D02*
X194085615Y-103357144D01*
X194085615Y-103357144D02*
X194180853Y-103309525D01*
X194180853Y-103309525D02*
X194704663Y-103309525D01*
X194180853Y-103309525D02*
X194085615Y-103261906D01*
X194085615Y-103261906D02*
X194037996Y-103166668D01*
X194037996Y-103166668D02*
X194037996Y-103023811D01*
X194037996Y-103023811D02*
X194085615Y-102928572D01*
X194085615Y-102928572D02*
X194180853Y-102880953D01*
X194180853Y-102880953D02*
X194704663Y-102880953D01*
X194037996Y-102404763D02*
X195037996Y-102404763D01*
X194085615Y-102404763D02*
X194037996Y-102309525D01*
X194037996Y-102309525D02*
X194037996Y-102119049D01*
X194037996Y-102119049D02*
X194085615Y-102023811D01*
X194085615Y-102023811D02*
X194133234Y-101976192D01*
X194133234Y-101976192D02*
X194228472Y-101928573D01*
X194228472Y-101928573D02*
X194514186Y-101928573D01*
X194514186Y-101928573D02*
X194609424Y-101976192D01*
X194609424Y-101976192D02*
X194657044Y-102023811D01*
X194657044Y-102023811D02*
X194704663Y-102119049D01*
X194704663Y-102119049D02*
X194704663Y-102309525D01*
X194704663Y-102309525D02*
X194657044Y-102404763D01*
X194180853Y-100404763D02*
X194228472Y-100261906D01*
X194228472Y-100261906D02*
X194276091Y-100214287D01*
X194276091Y-100214287D02*
X194371329Y-100166668D01*
X194371329Y-100166668D02*
X194514186Y-100166668D01*
X194514186Y-100166668D02*
X194609424Y-100214287D01*
X194609424Y-100214287D02*
X194657044Y-100261906D01*
X194657044Y-100261906D02*
X194704663Y-100357144D01*
X194704663Y-100357144D02*
X194704663Y-100738096D01*
X194704663Y-100738096D02*
X193704663Y-100738096D01*
X193704663Y-100738096D02*
X193704663Y-100404763D01*
X193704663Y-100404763D02*
X193752282Y-100309525D01*
X193752282Y-100309525D02*
X193799901Y-100261906D01*
X193799901Y-100261906D02*
X193895139Y-100214287D01*
X193895139Y-100214287D02*
X193990377Y-100214287D01*
X193990377Y-100214287D02*
X194085615Y-100261906D01*
X194085615Y-100261906D02*
X194133234Y-100309525D01*
X194133234Y-100309525D02*
X194180853Y-100404763D01*
X194180853Y-100404763D02*
X194180853Y-100738096D01*
X194704663Y-99738096D02*
X194037996Y-99738096D01*
X194228472Y-99738096D02*
X194133234Y-99690477D01*
X194133234Y-99690477D02*
X194085615Y-99642858D01*
X194085615Y-99642858D02*
X194037996Y-99547620D01*
X194037996Y-99547620D02*
X194037996Y-99452382D01*
X194657044Y-98738096D02*
X194704663Y-98833334D01*
X194704663Y-98833334D02*
X194704663Y-99023810D01*
X194704663Y-99023810D02*
X194657044Y-99119048D01*
X194657044Y-99119048D02*
X194561805Y-99166667D01*
X194561805Y-99166667D02*
X194180853Y-99166667D01*
X194180853Y-99166667D02*
X194085615Y-99119048D01*
X194085615Y-99119048D02*
X194037996Y-99023810D01*
X194037996Y-99023810D02*
X194037996Y-98833334D01*
X194037996Y-98833334D02*
X194085615Y-98738096D01*
X194085615Y-98738096D02*
X194180853Y-98690477D01*
X194180853Y-98690477D02*
X194276091Y-98690477D01*
X194276091Y-98690477D02*
X194371329Y-99166667D01*
X194704663Y-97833334D02*
X194180853Y-97833334D01*
X194180853Y-97833334D02*
X194085615Y-97880953D01*
X194085615Y-97880953D02*
X194037996Y-97976191D01*
X194037996Y-97976191D02*
X194037996Y-98166667D01*
X194037996Y-98166667D02*
X194085615Y-98261905D01*
X194657044Y-97833334D02*
X194704663Y-97928572D01*
X194704663Y-97928572D02*
X194704663Y-98166667D01*
X194704663Y-98166667D02*
X194657044Y-98261905D01*
X194657044Y-98261905D02*
X194561805Y-98309524D01*
X194561805Y-98309524D02*
X194466567Y-98309524D01*
X194466567Y-98309524D02*
X194371329Y-98261905D01*
X194371329Y-98261905D02*
X194323710Y-98166667D01*
X194323710Y-98166667D02*
X194323710Y-97928572D01*
X194323710Y-97928572D02*
X194276091Y-97833334D01*
X194704663Y-97357143D02*
X193704663Y-97357143D01*
X194323710Y-97261905D02*
X194704663Y-96976191D01*
X194037996Y-96976191D02*
X194418948Y-97357143D01*
X194704663Y-96404762D02*
X194657044Y-96500000D01*
X194657044Y-96500000D02*
X194609424Y-96547619D01*
X194609424Y-96547619D02*
X194514186Y-96595238D01*
X194514186Y-96595238D02*
X194228472Y-96595238D01*
X194228472Y-96595238D02*
X194133234Y-96547619D01*
X194133234Y-96547619D02*
X194085615Y-96500000D01*
X194085615Y-96500000D02*
X194037996Y-96404762D01*
X194037996Y-96404762D02*
X194037996Y-96261905D01*
X194037996Y-96261905D02*
X194085615Y-96166667D01*
X194085615Y-96166667D02*
X194133234Y-96119048D01*
X194133234Y-96119048D02*
X194228472Y-96071429D01*
X194228472Y-96071429D02*
X194514186Y-96071429D01*
X194514186Y-96071429D02*
X194609424Y-96119048D01*
X194609424Y-96119048D02*
X194657044Y-96166667D01*
X194657044Y-96166667D02*
X194704663Y-96261905D01*
X194704663Y-96261905D02*
X194704663Y-96404762D01*
X194037996Y-95214286D02*
X194704663Y-95214286D01*
X194037996Y-95642857D02*
X194561805Y-95642857D01*
X194561805Y-95642857D02*
X194657044Y-95595238D01*
X194657044Y-95595238D02*
X194704663Y-95500000D01*
X194704663Y-95500000D02*
X194704663Y-95357143D01*
X194704663Y-95357143D02*
X194657044Y-95261905D01*
X194657044Y-95261905D02*
X194609424Y-95214286D01*
X194037996Y-94880952D02*
X194037996Y-94500000D01*
X193704663Y-94738095D02*
X194561805Y-94738095D01*
X194561805Y-94738095D02*
X194657044Y-94690476D01*
X194657044Y-94690476D02*
X194704663Y-94595238D01*
X194704663Y-94595238D02*
X194704663Y-94500000D01*
G36*
X142167947Y-118330523D02*
G01*
X140792725Y-118330523D01*
X140792725Y-117800612D01*
X140904437Y-117800612D01*
X140905116Y-117810180D01*
X140904437Y-117819748D01*
X140906165Y-117824933D01*
X140906553Y-117830386D01*
X140910842Y-117838965D01*
X140913876Y-117848065D01*
X140917457Y-117852194D01*
X140919902Y-117857083D01*
X140927148Y-117863367D01*
X140933433Y-117870614D01*
X140938321Y-117873058D01*
X140942451Y-117876640D01*
X140956145Y-117882754D01*
X141956144Y-118216087D01*
X141970767Y-118219412D01*
X142000541Y-118217296D01*
X142027238Y-118203947D01*
X142046796Y-118181398D01*
X142056235Y-118153081D01*
X142054118Y-118123307D01*
X142040770Y-118096610D01*
X142018220Y-118077053D01*
X142004527Y-118070939D01*
X141222249Y-117810180D01*
X142004527Y-117549421D01*
X142018220Y-117543307D01*
X142040770Y-117523750D01*
X142054118Y-117497053D01*
X142056235Y-117467279D01*
X142046796Y-117438962D01*
X142027238Y-117416413D01*
X142000541Y-117403064D01*
X141970767Y-117400948D01*
X141956144Y-117404273D01*
X140956145Y-117737606D01*
X140942451Y-117743720D01*
X140938321Y-117747301D01*
X140933433Y-117749746D01*
X140927148Y-117756992D01*
X140919902Y-117763277D01*
X140917457Y-117768165D01*
X140913876Y-117772295D01*
X140910842Y-117781394D01*
X140906553Y-117789974D01*
X140906165Y-117795426D01*
X140904437Y-117800612D01*
X140792725Y-117800612D01*
X140792725Y-116714942D01*
X140903836Y-116714942D01*
X140903836Y-117000656D01*
X140905306Y-117015580D01*
X140906358Y-117018119D01*
X140906553Y-117020863D01*
X140911913Y-117034868D01*
X140959533Y-117130107D01*
X140963576Y-117136530D01*
X140964349Y-117138395D01*
X140966072Y-117140495D01*
X140967522Y-117142798D01*
X140969047Y-117144121D01*
X140973862Y-117149988D01*
X141021481Y-117197606D01*
X141027347Y-117202421D01*
X141028672Y-117203948D01*
X141030973Y-117205396D01*
X141033073Y-117207120D01*
X141034938Y-117207892D01*
X141041363Y-117211937D01*
X141136601Y-117259556D01*
X141150607Y-117264915D01*
X141153348Y-117265109D01*
X141155889Y-117266162D01*
X141170813Y-117267632D01*
X141408908Y-117267632D01*
X141423832Y-117266162D01*
X141426372Y-117265109D01*
X141429114Y-117264915D01*
X141443120Y-117259556D01*
X141538358Y-117211937D01*
X141544784Y-117207891D01*
X141546647Y-117207120D01*
X141548745Y-117205398D01*
X141551049Y-117203948D01*
X141552373Y-117202421D01*
X141558240Y-117197607D01*
X141605858Y-117149988D01*
X141610673Y-117144121D01*
X141612200Y-117142797D01*
X141613648Y-117140495D01*
X141615372Y-117138396D01*
X141616144Y-117136530D01*
X141620189Y-117130106D01*
X141667808Y-117034868D01*
X141672264Y-117023220D01*
X141929960Y-117248704D01*
X141936412Y-117253316D01*
X141937835Y-117254739D01*
X141939184Y-117255297D01*
X141942160Y-117257425D01*
X141953926Y-117261404D01*
X141965412Y-117266162D01*
X141967994Y-117266162D01*
X141970436Y-117266988D01*
X141982829Y-117266162D01*
X141995260Y-117266162D01*
X141997643Y-117265174D01*
X142000218Y-117265003D01*
X142011357Y-117259494D01*
X142022837Y-117254739D01*
X142024661Y-117252914D01*
X142026974Y-117251771D01*
X142035156Y-117242419D01*
X142043943Y-117233633D01*
X142044930Y-117231249D01*
X142046629Y-117229308D01*
X142050608Y-117217541D01*
X142055366Y-117206056D01*
X142055724Y-117202413D01*
X142056192Y-117201032D01*
X142056058Y-117199026D01*
X142056836Y-117191132D01*
X142056836Y-116572085D01*
X142055366Y-116557161D01*
X142043943Y-116529584D01*
X142022837Y-116508478D01*
X141995260Y-116497055D01*
X141965412Y-116497055D01*
X141937835Y-116508478D01*
X141916729Y-116529584D01*
X141905306Y-116557161D01*
X141903836Y-116572085D01*
X141903836Y-117022543D01*
X141649760Y-116800227D01*
X141643307Y-116795614D01*
X141641885Y-116794192D01*
X141640535Y-116793633D01*
X141637560Y-116791506D01*
X141625793Y-116787526D01*
X141614308Y-116782769D01*
X141611726Y-116782769D01*
X141609284Y-116781943D01*
X141596891Y-116782769D01*
X141584460Y-116782769D01*
X141582076Y-116783756D01*
X141579502Y-116783928D01*
X141568362Y-116789436D01*
X141556883Y-116794192D01*
X141555058Y-116796016D01*
X141552746Y-116797160D01*
X141544563Y-116806511D01*
X141535777Y-116815298D01*
X141534789Y-116817681D01*
X141533091Y-116819623D01*
X141529111Y-116831389D01*
X141524354Y-116842875D01*
X141523995Y-116846517D01*
X141523528Y-116847899D01*
X141523661Y-116849904D01*
X141522884Y-116857799D01*
X141522884Y-116982596D01*
X141488892Y-117050579D01*
X141458830Y-117080640D01*
X141390848Y-117114632D01*
X141188873Y-117114632D01*
X141120889Y-117080640D01*
X141090825Y-117050576D01*
X141056836Y-116982597D01*
X141056836Y-116733000D01*
X141090825Y-116665021D01*
X141129668Y-116626179D01*
X141139182Y-116614587D01*
X141150604Y-116587010D01*
X141150604Y-116557161D01*
X141139182Y-116529584D01*
X141118076Y-116508478D01*
X141090499Y-116497056D01*
X141060650Y-116497056D01*
X141033073Y-116508478D01*
X141021481Y-116517992D01*
X140973862Y-116565610D01*
X140969047Y-116571476D01*
X140967522Y-116572800D01*
X140966072Y-116575102D01*
X140964349Y-116577203D01*
X140963576Y-116579067D01*
X140959533Y-116585491D01*
X140911913Y-116680730D01*
X140906553Y-116694735D01*
X140906358Y-116697478D01*
X140905306Y-116700018D01*
X140903836Y-116714942D01*
X140792725Y-116714942D01*
X140792725Y-116176210D01*
X140905306Y-116176210D01*
X140905306Y-116206058D01*
X140911996Y-116222211D01*
X140916728Y-116233634D01*
X140916729Y-116233635D01*
X140926243Y-116245227D01*
X140973863Y-116292846D01*
X140985455Y-116302359D01*
X141013032Y-116313782D01*
X141042880Y-116313782D01*
X141059035Y-116307090D01*
X141070458Y-116302359D01*
X141070462Y-116302354D01*
X141082050Y-116292846D01*
X141129668Y-116245227D01*
X141139182Y-116233635D01*
X141143913Y-116222212D01*
X141150605Y-116206057D01*
X141150605Y-116176209D01*
X141139182Y-116148632D01*
X141139182Y-116148631D01*
X141129668Y-116137039D01*
X141082050Y-116089420D01*
X141070462Y-116079911D01*
X141070458Y-116079907D01*
X141059035Y-116075175D01*
X141042880Y-116068484D01*
X141013032Y-116068484D01*
X140985455Y-116079907D01*
X140973863Y-116089420D01*
X140926243Y-116137039D01*
X140916729Y-116148631D01*
X140916728Y-116148632D01*
X140912667Y-116158438D01*
X140912667Y-116158439D01*
X140905307Y-116176208D01*
X140905306Y-116176210D01*
X140792725Y-116176210D01*
X140792725Y-115286371D01*
X140903836Y-115286371D01*
X140903836Y-115572085D01*
X140905306Y-115587009D01*
X140906358Y-115589548D01*
X140906553Y-115592292D01*
X140911913Y-115606297D01*
X140959533Y-115701536D01*
X140963576Y-115707959D01*
X140964349Y-115709824D01*
X140966072Y-115711924D01*
X140967522Y-115714227D01*
X140969047Y-115715550D01*
X140973862Y-115721417D01*
X141021481Y-115769035D01*
X141027347Y-115773850D01*
X141028672Y-115775377D01*
X141030973Y-115776825D01*
X141033073Y-115778549D01*
X141034938Y-115779321D01*
X141041363Y-115783366D01*
X141136601Y-115830985D01*
X141150607Y-115836344D01*
X141153348Y-115836538D01*
X141155889Y-115837591D01*
X141170813Y-115839061D01*
X141408908Y-115839061D01*
X141423832Y-115837591D01*
X141426372Y-115836538D01*
X141429114Y-115836344D01*
X141443120Y-115830985D01*
X141538358Y-115783366D01*
X141544784Y-115779320D01*
X141546647Y-115778549D01*
X141548745Y-115776827D01*
X141551049Y-115775377D01*
X141552373Y-115773850D01*
X141558240Y-115769036D01*
X141605858Y-115721417D01*
X141610673Y-115715550D01*
X141612200Y-115714226D01*
X141613648Y-115711924D01*
X141615372Y-115709825D01*
X141616144Y-115707959D01*
X141620189Y-115701535D01*
X141667808Y-115606297D01*
X141672264Y-115594649D01*
X141929960Y-115820133D01*
X141936412Y-115824745D01*
X141937835Y-115826168D01*
X141939184Y-115826726D01*
X141942160Y-115828854D01*
X141953926Y-115832833D01*
X141965412Y-115837591D01*
X141967994Y-115837591D01*
X141970436Y-115838417D01*
X141982829Y-115837591D01*
X141995260Y-115837591D01*
X141997643Y-115836603D01*
X142000218Y-115836432D01*
X142011357Y-115830923D01*
X142022837Y-115826168D01*
X142024661Y-115824343D01*
X142026974Y-115823200D01*
X142035156Y-115813848D01*
X142043943Y-115805062D01*
X142044930Y-115802678D01*
X142046629Y-115800737D01*
X142050608Y-115788970D01*
X142055366Y-115777485D01*
X142055724Y-115773842D01*
X142056192Y-115772461D01*
X142056058Y-115770455D01*
X142056836Y-115762561D01*
X142056836Y-115143514D01*
X142055366Y-115128590D01*
X142043943Y-115101013D01*
X142022837Y-115079907D01*
X141995260Y-115068484D01*
X141965412Y-115068484D01*
X141937835Y-115079907D01*
X141916729Y-115101013D01*
X141905306Y-115128590D01*
X141903836Y-115143514D01*
X141903836Y-115593972D01*
X141649760Y-115371656D01*
X141643307Y-115367043D01*
X141641885Y-115365621D01*
X141640535Y-115365062D01*
X141637560Y-115362935D01*
X141625793Y-115358955D01*
X141614308Y-115354198D01*
X141611726Y-115354198D01*
X141609284Y-115353372D01*
X141596891Y-115354198D01*
X141584460Y-115354198D01*
X141582076Y-115355185D01*
X141579502Y-115355357D01*
X141568362Y-115360865D01*
X141556883Y-115365621D01*
X141555058Y-115367445D01*
X141552746Y-115368589D01*
X141544563Y-115377940D01*
X141535777Y-115386727D01*
X141534789Y-115389110D01*
X141533091Y-115391052D01*
X141529111Y-115402818D01*
X141524354Y-115414304D01*
X141523995Y-115417946D01*
X141523528Y-115419328D01*
X141523661Y-115421333D01*
X141522884Y-115429228D01*
X141522884Y-115554025D01*
X141488892Y-115622008D01*
X141458830Y-115652069D01*
X141390848Y-115686061D01*
X141188873Y-115686061D01*
X141120889Y-115652069D01*
X141090825Y-115622005D01*
X141056836Y-115554026D01*
X141056836Y-115304429D01*
X141090825Y-115236450D01*
X141129668Y-115197608D01*
X141139182Y-115186016D01*
X141150604Y-115158439D01*
X141150604Y-115128590D01*
X141139182Y-115101013D01*
X141118076Y-115079907D01*
X141090499Y-115068485D01*
X141060650Y-115068485D01*
X141033073Y-115079907D01*
X141021481Y-115089421D01*
X140973862Y-115137039D01*
X140969047Y-115142905D01*
X140967522Y-115144229D01*
X140966072Y-115146531D01*
X140964349Y-115148632D01*
X140963576Y-115150496D01*
X140959533Y-115156920D01*
X140911913Y-115252159D01*
X140906553Y-115266164D01*
X140906358Y-115268907D01*
X140905306Y-115271447D01*
X140903836Y-115286371D01*
X140792725Y-115286371D01*
X140792725Y-114957373D01*
X142167947Y-114957373D01*
X142167947Y-118330523D01*
G37*
X175454663Y-102557142D02*
X174454663Y-102557142D01*
X174454663Y-102557142D02*
X174454663Y-102176190D01*
X174454663Y-102176190D02*
X174502282Y-102080952D01*
X174502282Y-102080952D02*
X174549901Y-102033333D01*
X174549901Y-102033333D02*
X174645139Y-101985714D01*
X174645139Y-101985714D02*
X174787996Y-101985714D01*
X174787996Y-101985714D02*
X174883234Y-102033333D01*
X174883234Y-102033333D02*
X174930853Y-102080952D01*
X174930853Y-102080952D02*
X174978472Y-102176190D01*
X174978472Y-102176190D02*
X174978472Y-102557142D01*
X175407044Y-101604761D02*
X175454663Y-101461904D01*
X175454663Y-101461904D02*
X175454663Y-101223809D01*
X175454663Y-101223809D02*
X175407044Y-101128571D01*
X175407044Y-101128571D02*
X175359424Y-101080952D01*
X175359424Y-101080952D02*
X175264186Y-101033333D01*
X175264186Y-101033333D02*
X175168948Y-101033333D01*
X175168948Y-101033333D02*
X175073710Y-101080952D01*
X175073710Y-101080952D02*
X175026091Y-101128571D01*
X175026091Y-101128571D02*
X174978472Y-101223809D01*
X174978472Y-101223809D02*
X174930853Y-101414285D01*
X174930853Y-101414285D02*
X174883234Y-101509523D01*
X174883234Y-101509523D02*
X174835615Y-101557142D01*
X174835615Y-101557142D02*
X174740377Y-101604761D01*
X174740377Y-101604761D02*
X174645139Y-101604761D01*
X174645139Y-101604761D02*
X174549901Y-101557142D01*
X174549901Y-101557142D02*
X174502282Y-101509523D01*
X174502282Y-101509523D02*
X174454663Y-101414285D01*
X174454663Y-101414285D02*
X174454663Y-101176190D01*
X174454663Y-101176190D02*
X174502282Y-101033333D01*
X174454663Y-100414285D02*
X174454663Y-100223809D01*
X174454663Y-100223809D02*
X174502282Y-100128571D01*
X174502282Y-100128571D02*
X174597520Y-100033333D01*
X174597520Y-100033333D02*
X174787996Y-99985714D01*
X174787996Y-99985714D02*
X175121329Y-99985714D01*
X175121329Y-99985714D02*
X175311805Y-100033333D01*
X175311805Y-100033333D02*
X175407044Y-100128571D01*
X175407044Y-100128571D02*
X175454663Y-100223809D01*
X175454663Y-100223809D02*
X175454663Y-100414285D01*
X175454663Y-100414285D02*
X175407044Y-100509523D01*
X175407044Y-100509523D02*
X175311805Y-100604761D01*
X175311805Y-100604761D02*
X175121329Y-100652380D01*
X175121329Y-100652380D02*
X174787996Y-100652380D01*
X174787996Y-100652380D02*
X174597520Y-100604761D01*
X174597520Y-100604761D02*
X174502282Y-100509523D01*
X174502282Y-100509523D02*
X174454663Y-100414285D01*
X175454663Y-99557142D02*
X174454663Y-99557142D01*
X174454663Y-99557142D02*
X175168948Y-99223809D01*
X175168948Y-99223809D02*
X174454663Y-98890476D01*
X174454663Y-98890476D02*
X175454663Y-98890476D01*
X175359424Y-97080952D02*
X175407044Y-97128571D01*
X175407044Y-97128571D02*
X175454663Y-97271428D01*
X175454663Y-97271428D02*
X175454663Y-97366666D01*
X175454663Y-97366666D02*
X175407044Y-97509523D01*
X175407044Y-97509523D02*
X175311805Y-97604761D01*
X175311805Y-97604761D02*
X175216567Y-97652380D01*
X175216567Y-97652380D02*
X175026091Y-97699999D01*
X175026091Y-97699999D02*
X174883234Y-97699999D01*
X174883234Y-97699999D02*
X174692758Y-97652380D01*
X174692758Y-97652380D02*
X174597520Y-97604761D01*
X174597520Y-97604761D02*
X174502282Y-97509523D01*
X174502282Y-97509523D02*
X174454663Y-97366666D01*
X174454663Y-97366666D02*
X174454663Y-97271428D01*
X174454663Y-97271428D02*
X174502282Y-97128571D01*
X174502282Y-97128571D02*
X174549901Y-97080952D01*
X175454663Y-96509523D02*
X175407044Y-96604761D01*
X175407044Y-96604761D02*
X175359424Y-96652380D01*
X175359424Y-96652380D02*
X175264186Y-96699999D01*
X175264186Y-96699999D02*
X174978472Y-96699999D01*
X174978472Y-96699999D02*
X174883234Y-96652380D01*
X174883234Y-96652380D02*
X174835615Y-96604761D01*
X174835615Y-96604761D02*
X174787996Y-96509523D01*
X174787996Y-96509523D02*
X174787996Y-96366666D01*
X174787996Y-96366666D02*
X174835615Y-96271428D01*
X174835615Y-96271428D02*
X174883234Y-96223809D01*
X174883234Y-96223809D02*
X174978472Y-96176190D01*
X174978472Y-96176190D02*
X175264186Y-96176190D01*
X175264186Y-96176190D02*
X175359424Y-96223809D01*
X175359424Y-96223809D02*
X175407044Y-96271428D01*
X175407044Y-96271428D02*
X175454663Y-96366666D01*
X175454663Y-96366666D02*
X175454663Y-96509523D01*
X174787996Y-95747618D02*
X175454663Y-95747618D01*
X174883234Y-95747618D02*
X174835615Y-95699999D01*
X174835615Y-95699999D02*
X174787996Y-95604761D01*
X174787996Y-95604761D02*
X174787996Y-95461904D01*
X174787996Y-95461904D02*
X174835615Y-95366666D01*
X174835615Y-95366666D02*
X174930853Y-95319047D01*
X174930853Y-95319047D02*
X175454663Y-95319047D01*
X174787996Y-94842856D02*
X175454663Y-94842856D01*
X174883234Y-94842856D02*
X174835615Y-94795237D01*
X174835615Y-94795237D02*
X174787996Y-94699999D01*
X174787996Y-94699999D02*
X174787996Y-94557142D01*
X174787996Y-94557142D02*
X174835615Y-94461904D01*
X174835615Y-94461904D02*
X174930853Y-94414285D01*
X174930853Y-94414285D02*
X175454663Y-94414285D01*
X175407044Y-93557142D02*
X175454663Y-93652380D01*
X175454663Y-93652380D02*
X175454663Y-93842856D01*
X175454663Y-93842856D02*
X175407044Y-93938094D01*
X175407044Y-93938094D02*
X175311805Y-93985713D01*
X175311805Y-93985713D02*
X174930853Y-93985713D01*
X174930853Y-93985713D02*
X174835615Y-93938094D01*
X174835615Y-93938094D02*
X174787996Y-93842856D01*
X174787996Y-93842856D02*
X174787996Y-93652380D01*
X174787996Y-93652380D02*
X174835615Y-93557142D01*
X174835615Y-93557142D02*
X174930853Y-93509523D01*
X174930853Y-93509523D02*
X175026091Y-93509523D01*
X175026091Y-93509523D02*
X175121329Y-93985713D01*
X175407044Y-92652380D02*
X175454663Y-92747618D01*
X175454663Y-92747618D02*
X175454663Y-92938094D01*
X175454663Y-92938094D02*
X175407044Y-93033332D01*
X175407044Y-93033332D02*
X175359424Y-93080951D01*
X175359424Y-93080951D02*
X175264186Y-93128570D01*
X175264186Y-93128570D02*
X174978472Y-93128570D01*
X174978472Y-93128570D02*
X174883234Y-93080951D01*
X174883234Y-93080951D02*
X174835615Y-93033332D01*
X174835615Y-93033332D02*
X174787996Y-92938094D01*
X174787996Y-92938094D02*
X174787996Y-92747618D01*
X174787996Y-92747618D02*
X174835615Y-92652380D01*
X174787996Y-92366665D02*
X174787996Y-91985713D01*
X174454663Y-92223808D02*
X175311805Y-92223808D01*
X175311805Y-92223808D02*
X175407044Y-92176189D01*
X175407044Y-92176189D02*
X175454663Y-92080951D01*
X175454663Y-92080951D02*
X175454663Y-91985713D01*
X175454663Y-91652379D02*
X174787996Y-91652379D01*
X174454663Y-91652379D02*
X174502282Y-91699998D01*
X174502282Y-91699998D02*
X174549901Y-91652379D01*
X174549901Y-91652379D02*
X174502282Y-91604760D01*
X174502282Y-91604760D02*
X174454663Y-91652379D01*
X174454663Y-91652379D02*
X174549901Y-91652379D01*
X175454663Y-91033332D02*
X175407044Y-91128570D01*
X175407044Y-91128570D02*
X175359424Y-91176189D01*
X175359424Y-91176189D02*
X175264186Y-91223808D01*
X175264186Y-91223808D02*
X174978472Y-91223808D01*
X174978472Y-91223808D02*
X174883234Y-91176189D01*
X174883234Y-91176189D02*
X174835615Y-91128570D01*
X174835615Y-91128570D02*
X174787996Y-91033332D01*
X174787996Y-91033332D02*
X174787996Y-90890475D01*
X174787996Y-90890475D02*
X174835615Y-90795237D01*
X174835615Y-90795237D02*
X174883234Y-90747618D01*
X174883234Y-90747618D02*
X174978472Y-90699999D01*
X174978472Y-90699999D02*
X175264186Y-90699999D01*
X175264186Y-90699999D02*
X175359424Y-90747618D01*
X175359424Y-90747618D02*
X175407044Y-90795237D01*
X175407044Y-90795237D02*
X175454663Y-90890475D01*
X175454663Y-90890475D02*
X175454663Y-91033332D01*
X174787996Y-90271427D02*
X175454663Y-90271427D01*
X174883234Y-90271427D02*
X174835615Y-90223808D01*
X174835615Y-90223808D02*
X174787996Y-90128570D01*
X174787996Y-90128570D02*
X174787996Y-89985713D01*
X174787996Y-89985713D02*
X174835615Y-89890475D01*
X174835615Y-89890475D02*
X174930853Y-89842856D01*
X174930853Y-89842856D02*
X175454663Y-89842856D01*
G36*
X141903836Y-105912053D02*
G01*
X141865854Y-106025997D01*
X141792163Y-106099689D01*
X141715539Y-106138001D01*
X141542347Y-106181299D01*
X141418326Y-106181299D01*
X141245134Y-106138001D01*
X141168510Y-106099689D01*
X141094818Y-106025997D01*
X141056836Y-105912051D01*
X141056836Y-105762871D01*
X141903836Y-105762871D01*
X141903836Y-105912053D01*
G37*
G36*
X142167947Y-106445410D02*
G01*
X140792725Y-106445410D01*
X140792725Y-105686371D01*
X140903836Y-105686371D01*
X140903836Y-105924466D01*
X140904580Y-105932020D01*
X140904437Y-105934035D01*
X140905039Y-105936684D01*
X140905306Y-105939390D01*
X140906078Y-105941255D01*
X140907762Y-105948658D01*
X140955382Y-106091515D01*
X140961496Y-106105208D01*
X140963297Y-106107284D01*
X140964349Y-106109824D01*
X140973862Y-106121417D01*
X141069100Y-106216655D01*
X141074966Y-106221469D01*
X141076291Y-106222996D01*
X141078594Y-106224446D01*
X141080693Y-106226168D01*
X141082555Y-106226939D01*
X141088982Y-106230985D01*
X141184220Y-106278604D01*
X141185314Y-106279022D01*
X141185756Y-106279350D01*
X141192010Y-106281584D01*
X141198226Y-106283963D01*
X141198775Y-106284002D01*
X141199878Y-106284396D01*
X141390354Y-106332015D01*
X141392942Y-106332397D01*
X141393984Y-106332829D01*
X141399607Y-106333382D01*
X141405189Y-106334208D01*
X141406302Y-106334042D01*
X141408908Y-106334299D01*
X141551765Y-106334299D01*
X141554370Y-106334042D01*
X141555484Y-106334208D01*
X141561065Y-106333382D01*
X141566689Y-106332829D01*
X141567730Y-106332397D01*
X141570319Y-106332015D01*
X141760795Y-106284396D01*
X141761897Y-106284002D01*
X141762447Y-106283963D01*
X141768662Y-106281584D01*
X141774917Y-106279350D01*
X141775358Y-106279022D01*
X141776453Y-106278604D01*
X141871691Y-106230985D01*
X141878117Y-106226939D01*
X141879980Y-106226168D01*
X141882078Y-106224446D01*
X141884382Y-106222996D01*
X141885706Y-106221469D01*
X141891573Y-106216655D01*
X141986811Y-106121417D01*
X141996324Y-106109824D01*
X141997375Y-106107284D01*
X141999177Y-106105208D01*
X142005291Y-106091514D01*
X142052910Y-105948658D01*
X142054593Y-105941255D01*
X142055366Y-105939390D01*
X142055632Y-105936684D01*
X142056235Y-105934035D01*
X142056091Y-105932020D01*
X142056836Y-105924466D01*
X142056836Y-105686371D01*
X142055366Y-105671447D01*
X142043943Y-105643870D01*
X142022837Y-105622764D01*
X141995260Y-105611341D01*
X141980336Y-105609871D01*
X140980336Y-105609871D01*
X140965412Y-105611341D01*
X140937835Y-105622764D01*
X140916729Y-105643870D01*
X140905306Y-105671447D01*
X140903836Y-105686371D01*
X140792725Y-105686371D01*
X140792725Y-105204837D01*
X140904023Y-105204837D01*
X140905306Y-105214930D01*
X140905306Y-105225104D01*
X140907171Y-105229608D01*
X140907787Y-105234448D01*
X140912837Y-105243285D01*
X140916729Y-105252681D01*
X140920175Y-105256127D01*
X140922596Y-105260363D01*
X140930641Y-105266593D01*
X140937835Y-105273787D01*
X140942340Y-105275653D01*
X140946196Y-105278639D01*
X140956011Y-105281315D01*
X140965412Y-105285210D01*
X140973045Y-105285961D01*
X140974993Y-105286493D01*
X140976496Y-105286301D01*
X140980336Y-105286680D01*
X141980336Y-105286680D01*
X141995260Y-105285210D01*
X142022837Y-105273787D01*
X142043943Y-105252681D01*
X142055366Y-105225104D01*
X142055366Y-105195256D01*
X142043943Y-105167679D01*
X142022837Y-105146573D01*
X141995260Y-105135150D01*
X141980336Y-105133680D01*
X141268403Y-105133680D01*
X142018291Y-104705173D01*
X142021439Y-104702937D01*
X142022837Y-104702359D01*
X142024261Y-104700934D01*
X142030519Y-104696492D01*
X142036749Y-104688446D01*
X142043943Y-104681253D01*
X142045809Y-104676747D01*
X142048795Y-104672892D01*
X142051471Y-104663076D01*
X142055366Y-104653676D01*
X142055366Y-104648799D01*
X142056649Y-104644095D01*
X142055366Y-104634001D01*
X142055366Y-104623828D01*
X142053500Y-104619323D01*
X142052885Y-104614484D01*
X142047834Y-104605646D01*
X142043943Y-104596251D01*
X142040496Y-104592804D01*
X142038076Y-104588569D01*
X142030030Y-104582338D01*
X142022837Y-104575145D01*
X142018331Y-104573278D01*
X142014476Y-104570293D01*
X142004660Y-104567616D01*
X141995260Y-104563722D01*
X141987626Y-104562970D01*
X141985679Y-104562439D01*
X141984175Y-104562630D01*
X141980336Y-104562252D01*
X140980336Y-104562252D01*
X140965412Y-104563722D01*
X140937835Y-104575145D01*
X140916729Y-104596251D01*
X140905306Y-104623828D01*
X140905306Y-104653676D01*
X140916729Y-104681253D01*
X140937835Y-104702359D01*
X140965412Y-104713782D01*
X140980336Y-104715252D01*
X141692270Y-104715252D01*
X140942381Y-105143759D01*
X140939232Y-105145994D01*
X140937835Y-105146573D01*
X140936410Y-105147997D01*
X140930153Y-105152440D01*
X140923922Y-105160485D01*
X140916729Y-105167679D01*
X140914862Y-105172184D01*
X140911877Y-105176040D01*
X140909200Y-105185855D01*
X140905306Y-105195256D01*
X140905306Y-105200132D01*
X140904023Y-105204837D01*
X140792725Y-105204837D01*
X140792725Y-103924466D01*
X140903836Y-103924466D01*
X140903836Y-104019704D01*
X140904580Y-104027258D01*
X140904437Y-104029273D01*
X140905039Y-104031922D01*
X140905306Y-104034628D01*
X140906078Y-104036493D01*
X140907762Y-104043896D01*
X140955382Y-104186753D01*
X140961496Y-104200446D01*
X140963297Y-104202522D01*
X140964349Y-104205062D01*
X140973862Y-104216655D01*
X141021481Y-104264273D01*
X141033073Y-104273787D01*
X141044496Y-104278518D01*
X141060651Y-104285210D01*
X141075575Y-104286680D01*
X141408908Y-104286680D01*
X141423832Y-104285210D01*
X141451409Y-104273787D01*
X141472515Y-104252681D01*
X141483938Y-104225104D01*
X141485408Y-104210180D01*
X141485408Y-104019704D01*
X141483938Y-104004780D01*
X141472515Y-103977203D01*
X141451409Y-103956097D01*
X141423832Y-103944674D01*
X141393984Y-103944674D01*
X141366407Y-103956097D01*
X141345301Y-103977203D01*
X141333878Y-104004780D01*
X141332408Y-104019704D01*
X141332408Y-104133680D01*
X141107262Y-104133680D01*
X141094818Y-104121236D01*
X141056836Y-104007289D01*
X141056836Y-103936880D01*
X141094818Y-103822934D01*
X141168510Y-103749243D01*
X141245134Y-103710931D01*
X141418326Y-103667633D01*
X141542347Y-103667633D01*
X141715539Y-103710931D01*
X141792163Y-103749243D01*
X141865854Y-103822934D01*
X141903836Y-103936879D01*
X141903836Y-104049263D01*
X141864293Y-104128349D01*
X141858934Y-104142355D01*
X141856818Y-104172129D01*
X141866257Y-104200446D01*
X141885814Y-104222996D01*
X141912511Y-104236344D01*
X141942285Y-104238460D01*
X141970602Y-104229021D01*
X141993152Y-104209464D01*
X142001141Y-104196773D01*
X142048760Y-104101535D01*
X142054119Y-104087529D01*
X142054313Y-104084787D01*
X142055366Y-104082247D01*
X142056836Y-104067323D01*
X142056836Y-103924466D01*
X142056091Y-103916911D01*
X142056235Y-103914897D01*
X142055632Y-103912247D01*
X142055366Y-103909542D01*
X142054593Y-103907676D01*
X142052910Y-103900274D01*
X142005291Y-103757418D01*
X141999177Y-103743724D01*
X141997375Y-103741647D01*
X141996324Y-103739108D01*
X141986811Y-103727515D01*
X141891573Y-103632277D01*
X141885706Y-103627462D01*
X141884382Y-103625936D01*
X141882078Y-103624485D01*
X141879980Y-103622764D01*
X141878117Y-103621992D01*
X141871691Y-103617947D01*
X141776453Y-103570328D01*
X141775358Y-103569909D01*
X141774917Y-103569582D01*
X141768662Y-103567347D01*
X141762447Y-103564969D01*
X141761897Y-103564929D01*
X141760795Y-103564536D01*
X141570319Y-103516917D01*
X141567730Y-103516534D01*
X141566689Y-103516103D01*
X141561065Y-103515549D01*
X141555484Y-103514724D01*
X141554370Y-103514889D01*
X141551765Y-103514633D01*
X141408908Y-103514633D01*
X141406302Y-103514889D01*
X141405189Y-103514724D01*
X141399607Y-103515549D01*
X141393984Y-103516103D01*
X141392942Y-103516534D01*
X141390354Y-103516917D01*
X141199878Y-103564536D01*
X141198775Y-103564929D01*
X141198226Y-103564969D01*
X141192010Y-103567347D01*
X141185756Y-103569582D01*
X141185314Y-103569909D01*
X141184220Y-103570328D01*
X141088982Y-103617947D01*
X141082555Y-103621992D01*
X141080693Y-103622764D01*
X141078594Y-103624485D01*
X141076291Y-103625936D01*
X141074966Y-103627462D01*
X141069100Y-103632277D01*
X140973862Y-103727515D01*
X140964349Y-103739108D01*
X140963297Y-103741647D01*
X140961496Y-103743724D01*
X140955382Y-103757417D01*
X140907762Y-103900274D01*
X140906078Y-103907676D01*
X140905306Y-103909542D01*
X140905039Y-103912247D01*
X140904437Y-103914897D01*
X140904580Y-103916911D01*
X140903836Y-103924466D01*
X140792725Y-103924466D01*
X140792725Y-103403522D01*
X142167947Y-103403522D01*
X142167947Y-106445410D01*
G37*
X194418948Y-87876192D02*
X194418948Y-87400002D01*
X194704663Y-87971430D02*
X193704663Y-87638097D01*
X193704663Y-87638097D02*
X194704663Y-87304764D01*
X194704663Y-86971430D02*
X194037996Y-86971430D01*
X193704663Y-86971430D02*
X193752282Y-87019049D01*
X193752282Y-87019049D02*
X193799901Y-86971430D01*
X193799901Y-86971430D02*
X193752282Y-86923811D01*
X193752282Y-86923811D02*
X193704663Y-86971430D01*
X193704663Y-86971430D02*
X193799901Y-86971430D01*
X194704663Y-86495240D02*
X194037996Y-86495240D01*
X194228472Y-86495240D02*
X194133234Y-86447621D01*
X194133234Y-86447621D02*
X194085615Y-86400002D01*
X194085615Y-86400002D02*
X194037996Y-86304764D01*
X194037996Y-86304764D02*
X194037996Y-86209526D01*
X194037996Y-86019049D02*
X194037996Y-85638097D01*
X194704663Y-85876192D02*
X193847520Y-85876192D01*
X193847520Y-85876192D02*
X193752282Y-85828573D01*
X193752282Y-85828573D02*
X193704663Y-85733335D01*
X193704663Y-85733335D02*
X193704663Y-85638097D01*
X194704663Y-85161906D02*
X194657044Y-85257144D01*
X194657044Y-85257144D02*
X194561805Y-85304763D01*
X194561805Y-85304763D02*
X193704663Y-85304763D01*
X194704663Y-84638096D02*
X194657044Y-84733334D01*
X194657044Y-84733334D02*
X194609424Y-84780953D01*
X194609424Y-84780953D02*
X194514186Y-84828572D01*
X194514186Y-84828572D02*
X194228472Y-84828572D01*
X194228472Y-84828572D02*
X194133234Y-84780953D01*
X194133234Y-84780953D02*
X194085615Y-84733334D01*
X194085615Y-84733334D02*
X194037996Y-84638096D01*
X194037996Y-84638096D02*
X194037996Y-84495239D01*
X194037996Y-84495239D02*
X194085615Y-84400001D01*
X194085615Y-84400001D02*
X194133234Y-84352382D01*
X194133234Y-84352382D02*
X194228472Y-84304763D01*
X194228472Y-84304763D02*
X194514186Y-84304763D01*
X194514186Y-84304763D02*
X194609424Y-84352382D01*
X194609424Y-84352382D02*
X194657044Y-84400001D01*
X194657044Y-84400001D02*
X194704663Y-84495239D01*
X194704663Y-84495239D02*
X194704663Y-84638096D01*
X194037996Y-83971429D02*
X194704663Y-83780953D01*
X194704663Y-83780953D02*
X194228472Y-83590477D01*
X194228472Y-83590477D02*
X194704663Y-83400001D01*
X194704663Y-83400001D02*
X194037996Y-83209525D01*
X194180853Y-81733334D02*
X194228472Y-81590477D01*
X194228472Y-81590477D02*
X194276091Y-81542858D01*
X194276091Y-81542858D02*
X194371329Y-81495239D01*
X194371329Y-81495239D02*
X194514186Y-81495239D01*
X194514186Y-81495239D02*
X194609424Y-81542858D01*
X194609424Y-81542858D02*
X194657044Y-81590477D01*
X194657044Y-81590477D02*
X194704663Y-81685715D01*
X194704663Y-81685715D02*
X194704663Y-82066667D01*
X194704663Y-82066667D02*
X193704663Y-82066667D01*
X193704663Y-82066667D02*
X193704663Y-81733334D01*
X193704663Y-81733334D02*
X193752282Y-81638096D01*
X193752282Y-81638096D02*
X193799901Y-81590477D01*
X193799901Y-81590477D02*
X193895139Y-81542858D01*
X193895139Y-81542858D02*
X193990377Y-81542858D01*
X193990377Y-81542858D02*
X194085615Y-81590477D01*
X194085615Y-81590477D02*
X194133234Y-81638096D01*
X194133234Y-81638096D02*
X194180853Y-81733334D01*
X194180853Y-81733334D02*
X194180853Y-82066667D01*
X194704663Y-81066667D02*
X194037996Y-81066667D01*
X194228472Y-81066667D02*
X194133234Y-81019048D01*
X194133234Y-81019048D02*
X194085615Y-80971429D01*
X194085615Y-80971429D02*
X194037996Y-80876191D01*
X194037996Y-80876191D02*
X194037996Y-80780953D01*
X194657044Y-80066667D02*
X194704663Y-80161905D01*
X194704663Y-80161905D02*
X194704663Y-80352381D01*
X194704663Y-80352381D02*
X194657044Y-80447619D01*
X194657044Y-80447619D02*
X194561805Y-80495238D01*
X194561805Y-80495238D02*
X194180853Y-80495238D01*
X194180853Y-80495238D02*
X194085615Y-80447619D01*
X194085615Y-80447619D02*
X194037996Y-80352381D01*
X194037996Y-80352381D02*
X194037996Y-80161905D01*
X194037996Y-80161905D02*
X194085615Y-80066667D01*
X194085615Y-80066667D02*
X194180853Y-80019048D01*
X194180853Y-80019048D02*
X194276091Y-80019048D01*
X194276091Y-80019048D02*
X194371329Y-80495238D01*
X194704663Y-79161905D02*
X194180853Y-79161905D01*
X194180853Y-79161905D02*
X194085615Y-79209524D01*
X194085615Y-79209524D02*
X194037996Y-79304762D01*
X194037996Y-79304762D02*
X194037996Y-79495238D01*
X194037996Y-79495238D02*
X194085615Y-79590476D01*
X194657044Y-79161905D02*
X194704663Y-79257143D01*
X194704663Y-79257143D02*
X194704663Y-79495238D01*
X194704663Y-79495238D02*
X194657044Y-79590476D01*
X194657044Y-79590476D02*
X194561805Y-79638095D01*
X194561805Y-79638095D02*
X194466567Y-79638095D01*
X194466567Y-79638095D02*
X194371329Y-79590476D01*
X194371329Y-79590476D02*
X194323710Y-79495238D01*
X194323710Y-79495238D02*
X194323710Y-79257143D01*
X194323710Y-79257143D02*
X194276091Y-79161905D01*
X194704663Y-78685714D02*
X193704663Y-78685714D01*
X194323710Y-78590476D02*
X194704663Y-78304762D01*
X194037996Y-78304762D02*
X194418948Y-78685714D01*
X194704663Y-77733333D02*
X194657044Y-77828571D01*
X194657044Y-77828571D02*
X194609424Y-77876190D01*
X194609424Y-77876190D02*
X194514186Y-77923809D01*
X194514186Y-77923809D02*
X194228472Y-77923809D01*
X194228472Y-77923809D02*
X194133234Y-77876190D01*
X194133234Y-77876190D02*
X194085615Y-77828571D01*
X194085615Y-77828571D02*
X194037996Y-77733333D01*
X194037996Y-77733333D02*
X194037996Y-77590476D01*
X194037996Y-77590476D02*
X194085615Y-77495238D01*
X194085615Y-77495238D02*
X194133234Y-77447619D01*
X194133234Y-77447619D02*
X194228472Y-77400000D01*
X194228472Y-77400000D02*
X194514186Y-77400000D01*
X194514186Y-77400000D02*
X194609424Y-77447619D01*
X194609424Y-77447619D02*
X194657044Y-77495238D01*
X194657044Y-77495238D02*
X194704663Y-77590476D01*
X194704663Y-77590476D02*
X194704663Y-77733333D01*
X194037996Y-76542857D02*
X194704663Y-76542857D01*
X194037996Y-76971428D02*
X194561805Y-76971428D01*
X194561805Y-76971428D02*
X194657044Y-76923809D01*
X194657044Y-76923809D02*
X194704663Y-76828571D01*
X194704663Y-76828571D02*
X194704663Y-76685714D01*
X194704663Y-76685714D02*
X194657044Y-76590476D01*
X194657044Y-76590476D02*
X194609424Y-76542857D01*
X194037996Y-76209523D02*
X194037996Y-75828571D01*
X193704663Y-76066666D02*
X194561805Y-76066666D01*
X194561805Y-76066666D02*
X194657044Y-76019047D01*
X194657044Y-76019047D02*
X194704663Y-75923809D01*
X194704663Y-75923809D02*
X194704663Y-75828571D01*
G36*
X187329150Y-102730154D02*
G01*
X187359212Y-102760215D01*
X187393204Y-102828199D01*
X187393204Y-102934936D01*
X187359212Y-103002919D01*
X187329150Y-103032980D01*
X187261168Y-103066972D01*
X186974776Y-103066972D01*
X186974776Y-102696163D01*
X187261168Y-102696163D01*
X187329150Y-102730154D01*
G37*
G36*
X187657315Y-103807274D02*
G01*
X183759754Y-103807274D01*
X183759754Y-102604739D01*
X183870865Y-102604739D01*
X183870865Y-102634587D01*
X183882288Y-102662164D01*
X183903394Y-102683270D01*
X183930971Y-102694693D01*
X183945895Y-102696163D01*
X184155109Y-102696163D01*
X184155109Y-103619663D01*
X184156579Y-103634587D01*
X184168002Y-103662164D01*
X184189108Y-103683270D01*
X184216685Y-103694693D01*
X184246533Y-103694693D01*
X184274110Y-103683270D01*
X184295216Y-103662164D01*
X184306639Y-103634587D01*
X184308109Y-103619663D01*
X184308109Y-102696163D01*
X184517323Y-102696163D01*
X184532247Y-102694693D01*
X184559824Y-102683270D01*
X184580930Y-102662164D01*
X184592353Y-102634587D01*
X184592353Y-102619663D01*
X184774157Y-102619663D01*
X184774157Y-103619663D01*
X184775627Y-103634587D01*
X184787050Y-103662164D01*
X184808156Y-103683270D01*
X184835733Y-103694693D01*
X184850657Y-103696163D01*
X185326847Y-103696163D01*
X185341771Y-103694693D01*
X185369348Y-103683270D01*
X185390454Y-103662164D01*
X185401877Y-103634587D01*
X185401877Y-103604739D01*
X185390454Y-103577162D01*
X185369348Y-103556056D01*
X185341771Y-103544633D01*
X185326847Y-103543163D01*
X184927157Y-103543163D01*
X184927157Y-103172353D01*
X185183990Y-103172353D01*
X185198914Y-103170883D01*
X185226491Y-103159460D01*
X185247597Y-103138354D01*
X185259020Y-103110777D01*
X185259020Y-103080929D01*
X185247597Y-103053352D01*
X185226491Y-103032246D01*
X185198914Y-103020823D01*
X185183990Y-103019353D01*
X184927157Y-103019353D01*
X184927157Y-102696163D01*
X185326847Y-102696163D01*
X185341771Y-102694693D01*
X185369348Y-102683270D01*
X185390454Y-102662164D01*
X185401877Y-102634587D01*
X185401877Y-102619663D01*
X185678919Y-102619663D01*
X185678919Y-103619663D01*
X185680389Y-103634587D01*
X185691812Y-103662164D01*
X185712918Y-103683270D01*
X185740495Y-103694693D01*
X185770343Y-103694693D01*
X185797920Y-103683270D01*
X185819026Y-103662164D01*
X185830449Y-103634587D01*
X185831919Y-103619663D01*
X185831919Y-102964491D01*
X186019429Y-103366299D01*
X186022667Y-103371766D01*
X186023340Y-103373615D01*
X186024537Y-103374922D01*
X186027072Y-103379201D01*
X186035644Y-103387051D01*
X186043499Y-103395628D01*
X186046581Y-103397066D01*
X186049086Y-103399360D01*
X186060007Y-103403331D01*
X186070547Y-103408250D01*
X186073942Y-103408399D01*
X186077137Y-103409561D01*
X186088752Y-103409050D01*
X186100367Y-103409561D01*
X186103561Y-103408399D01*
X186106957Y-103408250D01*
X186117494Y-103403332D01*
X186128419Y-103399360D01*
X186130924Y-103397065D01*
X186134005Y-103395628D01*
X186141857Y-103387053D01*
X186150432Y-103379201D01*
X186152966Y-103374922D01*
X186154164Y-103373615D01*
X186154836Y-103371766D01*
X186158075Y-103366299D01*
X186345585Y-102964491D01*
X186345585Y-103619663D01*
X186347055Y-103634587D01*
X186358478Y-103662164D01*
X186379584Y-103683270D01*
X186407161Y-103694693D01*
X186437009Y-103694693D01*
X186464586Y-103683270D01*
X186485692Y-103662164D01*
X186497115Y-103634587D01*
X186498585Y-103619663D01*
X186498585Y-102619663D01*
X186821776Y-102619663D01*
X186821776Y-103619663D01*
X186823246Y-103634587D01*
X186834669Y-103662164D01*
X186855775Y-103683270D01*
X186883352Y-103694693D01*
X186913200Y-103694693D01*
X186940777Y-103683270D01*
X186961883Y-103662164D01*
X186973306Y-103634587D01*
X186974776Y-103619663D01*
X186974776Y-103219972D01*
X187279228Y-103219972D01*
X187294152Y-103218502D01*
X187296692Y-103217449D01*
X187299434Y-103217255D01*
X187313440Y-103211896D01*
X187408678Y-103164277D01*
X187415104Y-103160231D01*
X187416967Y-103159460D01*
X187419065Y-103157738D01*
X187421369Y-103156288D01*
X187422693Y-103154761D01*
X187428560Y-103149947D01*
X187476178Y-103102328D01*
X187480993Y-103096461D01*
X187482520Y-103095137D01*
X187483968Y-103092835D01*
X187485692Y-103090736D01*
X187486464Y-103088870D01*
X187490509Y-103082446D01*
X187538128Y-102987208D01*
X187543487Y-102973202D01*
X187543681Y-102970460D01*
X187544734Y-102967920D01*
X187546204Y-102952996D01*
X187546204Y-102810139D01*
X187544734Y-102795215D01*
X187543681Y-102792674D01*
X187543487Y-102789933D01*
X187538128Y-102775927D01*
X187490509Y-102680689D01*
X187486464Y-102674264D01*
X187485692Y-102672399D01*
X187483968Y-102670299D01*
X187482520Y-102667998D01*
X187480993Y-102666673D01*
X187476178Y-102660807D01*
X187428560Y-102613188D01*
X187422693Y-102608373D01*
X187421369Y-102606847D01*
X187419065Y-102605396D01*
X187416967Y-102603675D01*
X187415104Y-102602903D01*
X187408678Y-102598858D01*
X187313440Y-102551239D01*
X187299434Y-102545880D01*
X187296692Y-102545685D01*
X187294152Y-102544633D01*
X187279228Y-102543163D01*
X186898276Y-102543163D01*
X186883352Y-102544633D01*
X186855775Y-102556056D01*
X186834669Y-102577162D01*
X186823246Y-102604739D01*
X186821776Y-102619663D01*
X186498585Y-102619663D01*
X186497618Y-102609852D01*
X186497698Y-102608048D01*
X186497345Y-102607078D01*
X186497115Y-102604739D01*
X186492034Y-102592474D01*
X186487497Y-102579996D01*
X186486344Y-102578737D01*
X186485692Y-102577162D01*
X186476308Y-102567778D01*
X186467338Y-102557983D01*
X186465791Y-102557261D01*
X186464586Y-102556056D01*
X186452326Y-102550977D01*
X186440290Y-102545361D01*
X186438585Y-102545286D01*
X186437009Y-102544633D01*
X186423731Y-102544633D01*
X186410470Y-102544050D01*
X186408867Y-102544633D01*
X186407161Y-102544633D01*
X186394892Y-102549715D01*
X186382419Y-102554251D01*
X186381161Y-102555402D01*
X186379584Y-102556056D01*
X186370195Y-102565444D01*
X186360405Y-102574410D01*
X186359206Y-102576433D01*
X186358478Y-102577162D01*
X186357788Y-102578827D01*
X186352762Y-102587312D01*
X186088751Y-103153048D01*
X185824742Y-102587312D01*
X185819715Y-102578827D01*
X185819026Y-102577162D01*
X185818297Y-102576433D01*
X185817099Y-102574410D01*
X185807303Y-102565439D01*
X185797920Y-102556056D01*
X185796344Y-102555403D01*
X185795086Y-102554251D01*
X185782607Y-102549713D01*
X185770343Y-102544633D01*
X185768637Y-102544633D01*
X185767034Y-102544050D01*
X185753773Y-102544633D01*
X185740495Y-102544633D01*
X185738918Y-102545286D01*
X185737214Y-102545361D01*
X185725177Y-102550977D01*
X185712918Y-102556056D01*
X185711712Y-102557261D01*
X185710166Y-102557983D01*
X185701195Y-102567778D01*
X185691812Y-102577162D01*
X185691159Y-102578737D01*
X185690007Y-102579996D01*
X185685469Y-102592474D01*
X185680389Y-102604739D01*
X185680158Y-102607078D01*
X185679806Y-102608048D01*
X185679885Y-102609852D01*
X185678919Y-102619663D01*
X185401877Y-102619663D01*
X185401877Y-102604739D01*
X185390454Y-102577162D01*
X185369348Y-102556056D01*
X185341771Y-102544633D01*
X185326847Y-102543163D01*
X184850657Y-102543163D01*
X184835733Y-102544633D01*
X184808156Y-102556056D01*
X184787050Y-102577162D01*
X184775627Y-102604739D01*
X184774157Y-102619663D01*
X184592353Y-102619663D01*
X184592353Y-102604739D01*
X184580930Y-102577162D01*
X184559824Y-102556056D01*
X184532247Y-102544633D01*
X184517323Y-102543163D01*
X183945895Y-102543163D01*
X183930971Y-102544633D01*
X183903394Y-102556056D01*
X183882288Y-102577162D01*
X183870865Y-102604739D01*
X183759754Y-102604739D01*
X183759754Y-102432052D01*
X187657315Y-102432052D01*
X187657315Y-103807274D01*
G37*
G36*
X188143940Y-82652512D02*
G01*
X183151141Y-82652512D01*
X183151141Y-82449977D01*
X184454198Y-82449977D01*
X184454198Y-82479825D01*
X184465621Y-82507402D01*
X184486727Y-82528508D01*
X184514304Y-82539931D01*
X184529228Y-82541401D01*
X185291132Y-82541401D01*
X185306056Y-82539931D01*
X185333633Y-82528508D01*
X185354739Y-82507402D01*
X185366162Y-82479825D01*
X185366162Y-82449977D01*
X185354739Y-82422400D01*
X185333633Y-82401294D01*
X185306056Y-82389871D01*
X185291132Y-82388401D01*
X184529228Y-82388401D01*
X184514304Y-82389871D01*
X184486727Y-82401294D01*
X184465621Y-82422400D01*
X184454198Y-82449977D01*
X183151141Y-82449977D01*
X183151141Y-81369663D01*
X183262252Y-81369663D01*
X183262252Y-82369663D01*
X183263722Y-82384587D01*
X183275145Y-82412164D01*
X183296251Y-82433270D01*
X183323828Y-82444693D01*
X183353676Y-82444693D01*
X183381253Y-82433270D01*
X183402359Y-82412164D01*
X183413782Y-82384587D01*
X183415252Y-82369663D01*
X183415252Y-82354739D01*
X183644674Y-82354739D01*
X183644674Y-82384587D01*
X183656097Y-82412164D01*
X183677203Y-82433270D01*
X183704780Y-82444693D01*
X183719704Y-82446163D01*
X184338751Y-82446163D01*
X184353675Y-82444693D01*
X184381252Y-82433270D01*
X184402358Y-82412164D01*
X184413781Y-82384587D01*
X184413781Y-82354739D01*
X184402358Y-82327162D01*
X184381252Y-82306056D01*
X184353675Y-82294633D01*
X184338751Y-82293163D01*
X183904392Y-82293163D01*
X184345226Y-81852328D01*
X184354739Y-81840735D01*
X184355790Y-81838195D01*
X184357592Y-81836119D01*
X184363706Y-81822425D01*
X184411325Y-81679569D01*
X184413008Y-81672166D01*
X184413781Y-81670301D01*
X184414047Y-81667595D01*
X184414650Y-81664946D01*
X184414506Y-81662931D01*
X184415251Y-81655377D01*
X184415251Y-81560139D01*
X185405109Y-81560139D01*
X185405109Y-81655377D01*
X185406579Y-81670301D01*
X185407631Y-81672841D01*
X185407826Y-81675583D01*
X185413185Y-81689589D01*
X185460804Y-81784827D01*
X185464849Y-81791253D01*
X185465621Y-81793116D01*
X185467342Y-81795214D01*
X185468793Y-81797518D01*
X185470319Y-81798842D01*
X185475134Y-81804709D01*
X185522753Y-81852327D01*
X185528619Y-81857142D01*
X185529944Y-81858669D01*
X185532245Y-81860117D01*
X185534345Y-81861841D01*
X185536210Y-81862613D01*
X185542635Y-81866658D01*
X185637873Y-81914277D01*
X185638967Y-81914695D01*
X185639409Y-81915023D01*
X185645663Y-81917257D01*
X185651879Y-81919636D01*
X185652428Y-81919675D01*
X185653531Y-81920069D01*
X185835859Y-81965651D01*
X185912483Y-82003963D01*
X185942545Y-82034024D01*
X185976537Y-82102008D01*
X185976537Y-82161126D01*
X185942544Y-82229110D01*
X185912484Y-82259171D01*
X185844501Y-82293163D01*
X185636879Y-82293163D01*
X185505800Y-82249470D01*
X185491177Y-82246145D01*
X185461403Y-82248261D01*
X185434706Y-82261610D01*
X185415149Y-82284159D01*
X185405710Y-82312476D01*
X185407826Y-82342250D01*
X185421175Y-82368947D01*
X185443724Y-82388504D01*
X185457418Y-82394618D01*
X185600274Y-82442237D01*
X185607676Y-82443920D01*
X185609542Y-82444693D01*
X185612247Y-82444959D01*
X185614897Y-82445562D01*
X185616911Y-82445418D01*
X185624466Y-82446163D01*
X185862561Y-82446163D01*
X185877485Y-82444693D01*
X185880025Y-82443640D01*
X185882767Y-82443446D01*
X185896773Y-82438087D01*
X185992011Y-82390468D01*
X185998435Y-82386423D01*
X186000301Y-82385651D01*
X186002400Y-82383927D01*
X186004702Y-82382479D01*
X186006026Y-82380952D01*
X186011893Y-82376137D01*
X186059512Y-82328517D01*
X186064324Y-82322652D01*
X186065853Y-82321327D01*
X186067303Y-82319022D01*
X186069025Y-82316925D01*
X186069796Y-82315062D01*
X186073842Y-82308636D01*
X186121461Y-82213398D01*
X186126820Y-82199392D01*
X186127014Y-82196650D01*
X186128067Y-82194110D01*
X186129537Y-82179186D01*
X186129537Y-82083948D01*
X186128067Y-82069024D01*
X186127014Y-82066483D01*
X186126820Y-82063742D01*
X186121461Y-82049736D01*
X186073842Y-81954498D01*
X186069797Y-81948073D01*
X186069025Y-81946208D01*
X186067301Y-81944108D01*
X186065853Y-81941807D01*
X186064326Y-81940482D01*
X186059511Y-81934616D01*
X186011893Y-81886997D01*
X186006026Y-81882182D01*
X186004702Y-81880656D01*
X186002398Y-81879205D01*
X186000300Y-81877484D01*
X185998437Y-81876712D01*
X185992011Y-81872667D01*
X185896773Y-81825048D01*
X185895678Y-81824629D01*
X185895237Y-81824302D01*
X185888982Y-81822067D01*
X185882767Y-81819689D01*
X185882217Y-81819649D01*
X185881115Y-81819256D01*
X185797027Y-81798234D01*
X186357490Y-81798234D01*
X186357490Y-81941091D01*
X186357746Y-81943696D01*
X186357581Y-81944810D01*
X186358406Y-81950391D01*
X186358960Y-81956015D01*
X186359391Y-81957056D01*
X186359774Y-81959645D01*
X186407393Y-82150121D01*
X186407786Y-82151223D01*
X186407826Y-82151773D01*
X186410204Y-82157988D01*
X186412439Y-82164243D01*
X186412766Y-82164684D01*
X186413185Y-82165779D01*
X186460804Y-82261017D01*
X186464849Y-82267443D01*
X186465621Y-82269306D01*
X186467342Y-82271403D01*
X186468793Y-82273708D01*
X186470321Y-82275033D01*
X186475134Y-82280898D01*
X186570372Y-82376138D01*
X186581965Y-82385651D01*
X186584504Y-82386702D01*
X186586581Y-82388504D01*
X186600275Y-82394618D01*
X186743131Y-82442237D01*
X186750533Y-82443920D01*
X186752399Y-82444693D01*
X186755104Y-82444959D01*
X186757754Y-82445562D01*
X186759768Y-82445418D01*
X186767323Y-82446163D01*
X186862561Y-82446163D01*
X186870115Y-82445418D01*
X186872129Y-82445562D01*
X186874778Y-82444959D01*
X186877485Y-82444693D01*
X186879352Y-82443919D01*
X186886752Y-82442237D01*
X187029609Y-82394618D01*
X187043302Y-82388504D01*
X187045377Y-82386704D01*
X187047920Y-82385651D01*
X187059512Y-82376137D01*
X187107131Y-82328517D01*
X187116644Y-82316925D01*
X187128067Y-82289348D01*
X187128066Y-82259499D01*
X187116644Y-82231922D01*
X187095538Y-82210817D01*
X187067960Y-82199394D01*
X187038112Y-82199395D01*
X187010535Y-82210817D01*
X186998943Y-82220331D01*
X186964094Y-82255180D01*
X186850148Y-82293163D01*
X186779736Y-82293163D01*
X186665790Y-82255181D01*
X186592101Y-82181491D01*
X186553788Y-82104865D01*
X186510490Y-81931673D01*
X186510490Y-81807652D01*
X186553788Y-81634460D01*
X186592100Y-81557836D01*
X186665791Y-81484144D01*
X186779736Y-81446163D01*
X186850148Y-81446163D01*
X186964093Y-81484145D01*
X186998943Y-81518994D01*
X187010535Y-81528508D01*
X187038112Y-81539930D01*
X187067961Y-81539930D01*
X187095538Y-81528508D01*
X187116644Y-81507402D01*
X187128066Y-81479825D01*
X187128066Y-81449976D01*
X187116644Y-81422399D01*
X187107130Y-81410807D01*
X187065987Y-81369663D01*
X187405109Y-81369663D01*
X187405109Y-82369663D01*
X187406579Y-82384587D01*
X187418002Y-82412164D01*
X187439108Y-82433270D01*
X187466685Y-82444693D01*
X187481609Y-82446163D01*
X187957799Y-82446163D01*
X187972723Y-82444693D01*
X188000300Y-82433270D01*
X188021406Y-82412164D01*
X188032829Y-82384587D01*
X188032829Y-82354739D01*
X188021406Y-82327162D01*
X188000300Y-82306056D01*
X187972723Y-82294633D01*
X187957799Y-82293163D01*
X187558109Y-82293163D01*
X187558109Y-81369663D01*
X187556639Y-81354739D01*
X187545216Y-81327162D01*
X187524110Y-81306056D01*
X187496533Y-81294633D01*
X187466685Y-81294633D01*
X187439108Y-81306056D01*
X187418002Y-81327162D01*
X187406579Y-81354739D01*
X187405109Y-81369663D01*
X187065987Y-81369663D01*
X187059512Y-81363188D01*
X187047919Y-81353675D01*
X187045378Y-81352622D01*
X187043302Y-81350822D01*
X187029609Y-81344708D01*
X186886752Y-81297089D01*
X186879352Y-81295406D01*
X186877485Y-81294633D01*
X186874778Y-81294366D01*
X186872129Y-81293764D01*
X186870115Y-81293907D01*
X186862561Y-81293163D01*
X186767323Y-81293163D01*
X186759768Y-81293907D01*
X186757754Y-81293764D01*
X186755104Y-81294366D01*
X186752399Y-81294633D01*
X186750533Y-81295405D01*
X186743131Y-81297089D01*
X186600275Y-81344708D01*
X186586581Y-81350822D01*
X186584504Y-81352623D01*
X186581965Y-81353675D01*
X186570372Y-81363188D01*
X186475134Y-81458426D01*
X186470319Y-81464292D01*
X186468793Y-81465617D01*
X186467342Y-81467920D01*
X186465621Y-81470019D01*
X186464849Y-81471881D01*
X186460804Y-81478308D01*
X186413185Y-81573546D01*
X186412766Y-81574640D01*
X186412439Y-81575082D01*
X186410204Y-81581336D01*
X186407826Y-81587552D01*
X186407786Y-81588101D01*
X186407393Y-81589204D01*
X186359774Y-81779680D01*
X186359391Y-81782268D01*
X186358960Y-81783310D01*
X186358406Y-81788933D01*
X186357581Y-81794515D01*
X186357746Y-81795628D01*
X186357490Y-81798234D01*
X185797027Y-81798234D01*
X185698787Y-81773674D01*
X185622161Y-81735361D01*
X185592100Y-81705299D01*
X185558109Y-81637317D01*
X185558109Y-81578199D01*
X185592100Y-81510216D01*
X185622161Y-81480154D01*
X185690145Y-81446163D01*
X185897767Y-81446163D01*
X186028845Y-81489856D01*
X186043468Y-81493181D01*
X186073242Y-81491065D01*
X186099939Y-81477716D01*
X186119497Y-81455167D01*
X186128936Y-81426850D01*
X186126819Y-81397076D01*
X186113471Y-81370379D01*
X186090921Y-81350822D01*
X186077228Y-81344708D01*
X185934371Y-81297089D01*
X185926971Y-81295406D01*
X185925104Y-81294633D01*
X185922397Y-81294366D01*
X185919748Y-81293764D01*
X185917734Y-81293907D01*
X185910180Y-81293163D01*
X185672085Y-81293163D01*
X185657161Y-81294633D01*
X185654620Y-81295685D01*
X185651879Y-81295880D01*
X185637873Y-81301239D01*
X185542635Y-81348858D01*
X185536210Y-81352902D01*
X185534345Y-81353675D01*
X185532245Y-81355398D01*
X185529944Y-81356847D01*
X185528619Y-81358373D01*
X185522753Y-81363189D01*
X185475134Y-81410807D01*
X185470319Y-81416673D01*
X185468793Y-81417998D01*
X185467342Y-81420301D01*
X185465621Y-81422400D01*
X185464849Y-81424262D01*
X185460804Y-81430689D01*
X185413185Y-81525927D01*
X185407826Y-81539933D01*
X185407631Y-81542674D01*
X185406579Y-81545215D01*
X185405109Y-81560139D01*
X184415251Y-81560139D01*
X184413781Y-81545215D01*
X184412728Y-81542674D01*
X184412534Y-81539933D01*
X184407175Y-81525927D01*
X184359556Y-81430689D01*
X184355511Y-81424264D01*
X184354739Y-81422399D01*
X184353015Y-81420299D01*
X184351567Y-81417998D01*
X184350040Y-81416673D01*
X184345225Y-81410807D01*
X184297607Y-81363188D01*
X184291740Y-81358373D01*
X184290416Y-81356847D01*
X184288112Y-81355396D01*
X184286014Y-81353675D01*
X184284151Y-81352903D01*
X184277725Y-81348858D01*
X184182487Y-81301239D01*
X184168481Y-81295880D01*
X184165739Y-81295685D01*
X184163199Y-81294633D01*
X184148275Y-81293163D01*
X183910180Y-81293163D01*
X183895256Y-81294633D01*
X183892715Y-81295685D01*
X183889974Y-81295880D01*
X183875968Y-81301239D01*
X183780730Y-81348858D01*
X183774305Y-81352902D01*
X183772440Y-81353675D01*
X183770340Y-81355398D01*
X183768039Y-81356847D01*
X183766714Y-81358373D01*
X183760848Y-81363189D01*
X183713229Y-81410807D01*
X183703716Y-81422400D01*
X183692293Y-81449977D01*
X183692293Y-81479825D01*
X183703716Y-81507402D01*
X183724822Y-81528508D01*
X183752399Y-81539931D01*
X183782247Y-81539931D01*
X183809824Y-81528508D01*
X183821417Y-81518995D01*
X183860256Y-81480154D01*
X183928240Y-81446163D01*
X184130215Y-81446163D01*
X184198197Y-81480154D01*
X184228259Y-81510215D01*
X184262251Y-81578199D01*
X184262251Y-81642964D01*
X184224269Y-81756908D01*
X183665610Y-82315569D01*
X183656097Y-82327162D01*
X183644674Y-82354739D01*
X183415252Y-82354739D01*
X183415252Y-81369663D01*
X183413782Y-81354739D01*
X183402359Y-81327162D01*
X183381253Y-81306056D01*
X183353676Y-81294633D01*
X183323828Y-81294633D01*
X183296251Y-81306056D01*
X183275145Y-81327162D01*
X183263722Y-81354739D01*
X183262252Y-81369663D01*
X183151141Y-81369663D01*
X183151141Y-81182052D01*
X188143940Y-81182052D01*
X188143940Y-82652512D01*
G37*
X194704663Y-124166666D02*
X193704663Y-124166666D01*
X194180853Y-124166666D02*
X194180853Y-123595238D01*
X194704663Y-123595238D02*
X193704663Y-123595238D01*
X194037996Y-122690476D02*
X194704663Y-122690476D01*
X194037996Y-123119047D02*
X194561805Y-123119047D01*
X194561805Y-123119047D02*
X194657044Y-123071428D01*
X194657044Y-123071428D02*
X194704663Y-122976190D01*
X194704663Y-122976190D02*
X194704663Y-122833333D01*
X194704663Y-122833333D02*
X194657044Y-122738095D01*
X194657044Y-122738095D02*
X194609424Y-122690476D01*
X194704663Y-122214285D02*
X194037996Y-122214285D01*
X194133234Y-122214285D02*
X194085615Y-122166666D01*
X194085615Y-122166666D02*
X194037996Y-122071428D01*
X194037996Y-122071428D02*
X194037996Y-121928571D01*
X194037996Y-121928571D02*
X194085615Y-121833333D01*
X194085615Y-121833333D02*
X194180853Y-121785714D01*
X194180853Y-121785714D02*
X194704663Y-121785714D01*
X194180853Y-121785714D02*
X194085615Y-121738095D01*
X194085615Y-121738095D02*
X194037996Y-121642857D01*
X194037996Y-121642857D02*
X194037996Y-121500000D01*
X194037996Y-121500000D02*
X194085615Y-121404761D01*
X194085615Y-121404761D02*
X194180853Y-121357142D01*
X194180853Y-121357142D02*
X194704663Y-121357142D01*
X194704663Y-120880952D02*
X194037996Y-120880952D01*
X193704663Y-120880952D02*
X193752282Y-120928571D01*
X193752282Y-120928571D02*
X193799901Y-120880952D01*
X193799901Y-120880952D02*
X193752282Y-120833333D01*
X193752282Y-120833333D02*
X193704663Y-120880952D01*
X193704663Y-120880952D02*
X193799901Y-120880952D01*
X194704663Y-119976191D02*
X193704663Y-119976191D01*
X194657044Y-119976191D02*
X194704663Y-120071429D01*
X194704663Y-120071429D02*
X194704663Y-120261905D01*
X194704663Y-120261905D02*
X194657044Y-120357143D01*
X194657044Y-120357143D02*
X194609424Y-120404762D01*
X194609424Y-120404762D02*
X194514186Y-120452381D01*
X194514186Y-120452381D02*
X194228472Y-120452381D01*
X194228472Y-120452381D02*
X194133234Y-120404762D01*
X194133234Y-120404762D02*
X194085615Y-120357143D01*
X194085615Y-120357143D02*
X194037996Y-120261905D01*
X194037996Y-120261905D02*
X194037996Y-120071429D01*
X194037996Y-120071429D02*
X194085615Y-119976191D01*
X194704663Y-119500000D02*
X194037996Y-119500000D01*
X193704663Y-119500000D02*
X193752282Y-119547619D01*
X193752282Y-119547619D02*
X193799901Y-119500000D01*
X193799901Y-119500000D02*
X193752282Y-119452381D01*
X193752282Y-119452381D02*
X193704663Y-119500000D01*
X193704663Y-119500000D02*
X193799901Y-119500000D01*
X194037996Y-119166667D02*
X194037996Y-118785715D01*
X193704663Y-119023810D02*
X194561805Y-119023810D01*
X194561805Y-119023810D02*
X194657044Y-118976191D01*
X194657044Y-118976191D02*
X194704663Y-118880953D01*
X194704663Y-118880953D02*
X194704663Y-118785715D01*
X194037996Y-118547619D02*
X194704663Y-118309524D01*
X194037996Y-118071429D02*
X194704663Y-118309524D01*
X194704663Y-118309524D02*
X194942758Y-118404762D01*
X194942758Y-118404762D02*
X194990377Y-118452381D01*
X194990377Y-118452381D02*
X195037996Y-118547619D01*
X194180853Y-116595238D02*
X194228472Y-116452381D01*
X194228472Y-116452381D02*
X194276091Y-116404762D01*
X194276091Y-116404762D02*
X194371329Y-116357143D01*
X194371329Y-116357143D02*
X194514186Y-116357143D01*
X194514186Y-116357143D02*
X194609424Y-116404762D01*
X194609424Y-116404762D02*
X194657044Y-116452381D01*
X194657044Y-116452381D02*
X194704663Y-116547619D01*
X194704663Y-116547619D02*
X194704663Y-116928571D01*
X194704663Y-116928571D02*
X193704663Y-116928571D01*
X193704663Y-116928571D02*
X193704663Y-116595238D01*
X193704663Y-116595238D02*
X193752282Y-116500000D01*
X193752282Y-116500000D02*
X193799901Y-116452381D01*
X193799901Y-116452381D02*
X193895139Y-116404762D01*
X193895139Y-116404762D02*
X193990377Y-116404762D01*
X193990377Y-116404762D02*
X194085615Y-116452381D01*
X194085615Y-116452381D02*
X194133234Y-116500000D01*
X194133234Y-116500000D02*
X194180853Y-116595238D01*
X194180853Y-116595238D02*
X194180853Y-116928571D01*
X194704663Y-115928571D02*
X194037996Y-115928571D01*
X194228472Y-115928571D02*
X194133234Y-115880952D01*
X194133234Y-115880952D02*
X194085615Y-115833333D01*
X194085615Y-115833333D02*
X194037996Y-115738095D01*
X194037996Y-115738095D02*
X194037996Y-115642857D01*
X194657044Y-114928571D02*
X194704663Y-115023809D01*
X194704663Y-115023809D02*
X194704663Y-115214285D01*
X194704663Y-115214285D02*
X194657044Y-115309523D01*
X194657044Y-115309523D02*
X194561805Y-115357142D01*
X194561805Y-115357142D02*
X194180853Y-115357142D01*
X194180853Y-115357142D02*
X194085615Y-115309523D01*
X194085615Y-115309523D02*
X194037996Y-115214285D01*
X194037996Y-115214285D02*
X194037996Y-115023809D01*
X194037996Y-115023809D02*
X194085615Y-114928571D01*
X194085615Y-114928571D02*
X194180853Y-114880952D01*
X194180853Y-114880952D02*
X194276091Y-114880952D01*
X194276091Y-114880952D02*
X194371329Y-115357142D01*
X194704663Y-114023809D02*
X194180853Y-114023809D01*
X194180853Y-114023809D02*
X194085615Y-114071428D01*
X194085615Y-114071428D02*
X194037996Y-114166666D01*
X194037996Y-114166666D02*
X194037996Y-114357142D01*
X194037996Y-114357142D02*
X194085615Y-114452380D01*
X194657044Y-114023809D02*
X194704663Y-114119047D01*
X194704663Y-114119047D02*
X194704663Y-114357142D01*
X194704663Y-114357142D02*
X194657044Y-114452380D01*
X194657044Y-114452380D02*
X194561805Y-114499999D01*
X194561805Y-114499999D02*
X194466567Y-114499999D01*
X194466567Y-114499999D02*
X194371329Y-114452380D01*
X194371329Y-114452380D02*
X194323710Y-114357142D01*
X194323710Y-114357142D02*
X194323710Y-114119047D01*
X194323710Y-114119047D02*
X194276091Y-114023809D01*
X194704663Y-113547618D02*
X193704663Y-113547618D01*
X194323710Y-113452380D02*
X194704663Y-113166666D01*
X194037996Y-113166666D02*
X194418948Y-113547618D01*
X194704663Y-112595237D02*
X194657044Y-112690475D01*
X194657044Y-112690475D02*
X194609424Y-112738094D01*
X194609424Y-112738094D02*
X194514186Y-112785713D01*
X194514186Y-112785713D02*
X194228472Y-112785713D01*
X194228472Y-112785713D02*
X194133234Y-112738094D01*
X194133234Y-112738094D02*
X194085615Y-112690475D01*
X194085615Y-112690475D02*
X194037996Y-112595237D01*
X194037996Y-112595237D02*
X194037996Y-112452380D01*
X194037996Y-112452380D02*
X194085615Y-112357142D01*
X194085615Y-112357142D02*
X194133234Y-112309523D01*
X194133234Y-112309523D02*
X194228472Y-112261904D01*
X194228472Y-112261904D02*
X194514186Y-112261904D01*
X194514186Y-112261904D02*
X194609424Y-112309523D01*
X194609424Y-112309523D02*
X194657044Y-112357142D01*
X194657044Y-112357142D02*
X194704663Y-112452380D01*
X194704663Y-112452380D02*
X194704663Y-112595237D01*
X194037996Y-111404761D02*
X194704663Y-111404761D01*
X194037996Y-111833332D02*
X194561805Y-111833332D01*
X194561805Y-111833332D02*
X194657044Y-111785713D01*
X194657044Y-111785713D02*
X194704663Y-111690475D01*
X194704663Y-111690475D02*
X194704663Y-111547618D01*
X194704663Y-111547618D02*
X194657044Y-111452380D01*
X194657044Y-111452380D02*
X194609424Y-111404761D01*
X194037996Y-111071427D02*
X194037996Y-110690475D01*
X193704663Y-110928570D02*
X194561805Y-110928570D01*
X194561805Y-110928570D02*
X194657044Y-110880951D01*
X194657044Y-110880951D02*
X194704663Y-110785713D01*
X194704663Y-110785713D02*
X194704663Y-110690475D01*
G36*
X186821235Y-113234144D02*
G01*
X186894927Y-113307836D01*
X186933239Y-113384460D01*
X186976537Y-113557652D01*
X186976537Y-113681673D01*
X186933239Y-113854865D01*
X186894926Y-113931489D01*
X186821237Y-114005180D01*
X186707291Y-114043163D01*
X186558109Y-114043163D01*
X186558109Y-113196163D01*
X186707291Y-113196163D01*
X186821235Y-113234144D01*
G37*
G36*
X187804042Y-113757448D02*
G01*
X187540128Y-113757448D01*
X187672085Y-113361576D01*
X187804042Y-113757448D01*
G37*
G36*
X188192428Y-114402512D02*
G01*
X183151141Y-114402512D01*
X183151141Y-114199977D01*
X184454198Y-114199977D01*
X184454198Y-114229825D01*
X184465621Y-114257402D01*
X184486727Y-114278508D01*
X184514304Y-114289931D01*
X184529228Y-114291401D01*
X185291132Y-114291401D01*
X185306056Y-114289931D01*
X185333633Y-114278508D01*
X185354739Y-114257402D01*
X185366162Y-114229825D01*
X185366162Y-114199977D01*
X185354739Y-114172400D01*
X185333633Y-114151294D01*
X185306056Y-114139871D01*
X185291132Y-114138401D01*
X184529228Y-114138401D01*
X184514304Y-114139871D01*
X184486727Y-114151294D01*
X184465621Y-114172400D01*
X184454198Y-114199977D01*
X183151141Y-114199977D01*
X183151141Y-113119663D01*
X183262252Y-113119663D01*
X183262252Y-114119663D01*
X183263722Y-114134587D01*
X183275145Y-114162164D01*
X183296251Y-114183270D01*
X183323828Y-114194693D01*
X183353676Y-114194693D01*
X183381253Y-114183270D01*
X183402359Y-114162164D01*
X183413782Y-114134587D01*
X183415252Y-114119663D01*
X183415252Y-113395809D01*
X183691424Y-113395809D01*
X183693540Y-113425583D01*
X183706888Y-113452280D01*
X183729438Y-113471837D01*
X183757755Y-113481276D01*
X183787529Y-113479160D01*
X183801535Y-113473801D01*
X183896773Y-113426182D01*
X183903199Y-113422136D01*
X183905062Y-113421365D01*
X183907160Y-113419643D01*
X183909464Y-113418193D01*
X183910788Y-113416666D01*
X183916655Y-113411852D01*
X183976537Y-113351970D01*
X183976537Y-114043163D01*
X183767323Y-114043163D01*
X183752399Y-114044633D01*
X183724822Y-114056056D01*
X183703716Y-114077162D01*
X183692293Y-114104739D01*
X183692293Y-114134587D01*
X183703716Y-114162164D01*
X183724822Y-114183270D01*
X183752399Y-114194693D01*
X183767323Y-114196163D01*
X184338751Y-114196163D01*
X184353675Y-114194693D01*
X184381252Y-114183270D01*
X184402358Y-114162164D01*
X184413781Y-114134587D01*
X184413781Y-114104739D01*
X184402358Y-114077162D01*
X184381252Y-114056056D01*
X184353675Y-114044633D01*
X184338751Y-114043163D01*
X184129537Y-114043163D01*
X184129537Y-113310139D01*
X185405109Y-113310139D01*
X185405109Y-113405377D01*
X185406579Y-113420301D01*
X185407631Y-113422841D01*
X185407826Y-113425583D01*
X185413185Y-113439589D01*
X185460804Y-113534827D01*
X185464849Y-113541253D01*
X185465621Y-113543116D01*
X185467342Y-113545214D01*
X185468793Y-113547518D01*
X185470319Y-113548842D01*
X185475134Y-113554709D01*
X185522753Y-113602327D01*
X185528619Y-113607142D01*
X185529944Y-113608669D01*
X185532245Y-113610117D01*
X185534345Y-113611841D01*
X185536210Y-113612613D01*
X185542635Y-113616658D01*
X185637873Y-113664277D01*
X185638967Y-113664695D01*
X185639409Y-113665023D01*
X185645663Y-113667257D01*
X185651879Y-113669636D01*
X185652428Y-113669675D01*
X185653531Y-113670069D01*
X185835859Y-113715651D01*
X185912483Y-113753963D01*
X185942545Y-113784024D01*
X185976537Y-113852008D01*
X185976537Y-113911126D01*
X185942544Y-113979110D01*
X185912484Y-114009171D01*
X185844501Y-114043163D01*
X185636879Y-114043163D01*
X185505800Y-113999470D01*
X185491177Y-113996145D01*
X185461403Y-113998261D01*
X185434706Y-114011610D01*
X185415149Y-114034159D01*
X185405710Y-114062476D01*
X185407826Y-114092250D01*
X185421175Y-114118947D01*
X185443724Y-114138504D01*
X185457418Y-114144618D01*
X185600274Y-114192237D01*
X185607676Y-114193920D01*
X185609542Y-114194693D01*
X185612247Y-114194959D01*
X185614897Y-114195562D01*
X185616911Y-114195418D01*
X185624466Y-114196163D01*
X185862561Y-114196163D01*
X185877485Y-114194693D01*
X185880025Y-114193640D01*
X185882767Y-114193446D01*
X185896773Y-114188087D01*
X185992011Y-114140468D01*
X185998435Y-114136423D01*
X186000301Y-114135651D01*
X186002400Y-114133927D01*
X186004702Y-114132479D01*
X186006026Y-114130952D01*
X186011893Y-114126137D01*
X186059512Y-114078517D01*
X186064324Y-114072652D01*
X186065853Y-114071327D01*
X186067303Y-114069022D01*
X186069025Y-114066925D01*
X186069796Y-114065062D01*
X186073842Y-114058636D01*
X186121461Y-113963398D01*
X186126820Y-113949392D01*
X186127014Y-113946650D01*
X186128067Y-113944110D01*
X186129537Y-113929186D01*
X186129537Y-113833948D01*
X186128067Y-113819024D01*
X186127014Y-113816483D01*
X186126820Y-113813742D01*
X186121461Y-113799736D01*
X186073842Y-113704498D01*
X186069797Y-113698073D01*
X186069025Y-113696208D01*
X186067301Y-113694108D01*
X186065853Y-113691807D01*
X186064326Y-113690482D01*
X186059511Y-113684616D01*
X186011893Y-113636997D01*
X186006026Y-113632182D01*
X186004702Y-113630656D01*
X186002398Y-113629205D01*
X186000300Y-113627484D01*
X185998437Y-113626712D01*
X185992011Y-113622667D01*
X185896773Y-113575048D01*
X185895678Y-113574629D01*
X185895237Y-113574302D01*
X185888982Y-113572067D01*
X185882767Y-113569689D01*
X185882217Y-113569649D01*
X185881115Y-113569256D01*
X185698787Y-113523674D01*
X185622161Y-113485361D01*
X185592100Y-113455299D01*
X185558109Y-113387317D01*
X185558109Y-113328199D01*
X185592100Y-113260216D01*
X185622161Y-113230154D01*
X185690145Y-113196163D01*
X185897767Y-113196163D01*
X186028845Y-113239856D01*
X186043468Y-113243181D01*
X186073242Y-113241065D01*
X186099939Y-113227716D01*
X186119497Y-113205167D01*
X186128936Y-113176850D01*
X186126819Y-113147076D01*
X186113471Y-113120379D01*
X186112645Y-113119663D01*
X186405109Y-113119663D01*
X186405109Y-114119663D01*
X186406579Y-114134587D01*
X186418002Y-114162164D01*
X186439108Y-114183270D01*
X186466685Y-114194693D01*
X186481609Y-114196163D01*
X186719704Y-114196163D01*
X186727258Y-114195418D01*
X186729272Y-114195562D01*
X186731921Y-114194959D01*
X186734628Y-114194693D01*
X186736495Y-114193919D01*
X186743895Y-114192237D01*
X186886752Y-114144618D01*
X186900445Y-114138504D01*
X186902520Y-114136704D01*
X186905063Y-114135651D01*
X186916655Y-114126137D01*
X186932697Y-114110095D01*
X187262853Y-114110095D01*
X187264969Y-114139869D01*
X187278318Y-114166566D01*
X187300867Y-114186123D01*
X187329184Y-114195562D01*
X187358958Y-114193446D01*
X187385655Y-114180097D01*
X187405212Y-114157548D01*
X187411326Y-114143854D01*
X187489128Y-113910448D01*
X187855042Y-113910448D01*
X187932844Y-114143854D01*
X187938958Y-114157547D01*
X187958515Y-114180097D01*
X187985212Y-114193445D01*
X188014986Y-114195562D01*
X188043303Y-114186123D01*
X188065852Y-114166565D01*
X188079201Y-114139868D01*
X188081317Y-114110094D01*
X188077992Y-114095471D01*
X187744659Y-113095472D01*
X187738545Y-113081778D01*
X187734962Y-113077646D01*
X187732519Y-113072761D01*
X187725275Y-113066477D01*
X187718988Y-113059229D01*
X187714099Y-113056784D01*
X187709970Y-113053203D01*
X187700870Y-113050169D01*
X187692291Y-113045880D01*
X187686838Y-113045492D01*
X187681653Y-113043764D01*
X187672087Y-113044444D01*
X187662517Y-113043764D01*
X187657328Y-113045493D01*
X187651879Y-113045881D01*
X187643304Y-113050168D01*
X187634200Y-113053203D01*
X187630069Y-113056785D01*
X187625182Y-113059229D01*
X187618898Y-113066474D01*
X187611651Y-113072760D01*
X187609205Y-113077650D01*
X187605625Y-113081779D01*
X187599511Y-113095472D01*
X187266178Y-114095472D01*
X187262853Y-114110095D01*
X186932697Y-114110095D01*
X187011893Y-114030898D01*
X187016707Y-114025031D01*
X187018234Y-114023708D01*
X187019682Y-114021407D01*
X187021407Y-114019306D01*
X187022180Y-114017439D01*
X187026223Y-114011017D01*
X187073842Y-113915779D01*
X187074260Y-113914684D01*
X187074588Y-113914243D01*
X187076822Y-113907988D01*
X187079201Y-113901773D01*
X187079240Y-113901223D01*
X187079634Y-113900121D01*
X187127253Y-113709645D01*
X187127635Y-113707056D01*
X187128067Y-113706015D01*
X187128620Y-113700391D01*
X187129446Y-113694810D01*
X187129280Y-113693696D01*
X187129537Y-113691091D01*
X187129537Y-113548234D01*
X187129280Y-113545628D01*
X187129446Y-113544515D01*
X187128620Y-113538933D01*
X187128067Y-113533310D01*
X187127635Y-113532268D01*
X187127253Y-113529680D01*
X187079634Y-113339204D01*
X187079240Y-113338101D01*
X187079201Y-113337552D01*
X187076822Y-113331336D01*
X187074588Y-113325082D01*
X187074260Y-113324640D01*
X187073842Y-113323546D01*
X187026223Y-113228308D01*
X187022177Y-113221881D01*
X187021406Y-113220019D01*
X187019684Y-113217920D01*
X187018234Y-113215617D01*
X187016707Y-113214292D01*
X187011893Y-113208426D01*
X186916655Y-113113188D01*
X186905062Y-113103675D01*
X186902521Y-113102622D01*
X186900445Y-113100822D01*
X186886752Y-113094708D01*
X186743895Y-113047089D01*
X186736495Y-113045406D01*
X186734628Y-113044633D01*
X186731921Y-113044366D01*
X186729272Y-113043764D01*
X186727258Y-113043907D01*
X186719704Y-113043163D01*
X186481609Y-113043163D01*
X186466685Y-113044633D01*
X186439108Y-113056056D01*
X186418002Y-113077162D01*
X186406579Y-113104739D01*
X186405109Y-113119663D01*
X186112645Y-113119663D01*
X186090921Y-113100822D01*
X186077228Y-113094708D01*
X185934371Y-113047089D01*
X185926971Y-113045406D01*
X185925104Y-113044633D01*
X185922397Y-113044366D01*
X185919748Y-113043764D01*
X185917734Y-113043907D01*
X185910180Y-113043163D01*
X185672085Y-113043163D01*
X185657161Y-113044633D01*
X185654620Y-113045685D01*
X185651879Y-113045880D01*
X185637873Y-113051239D01*
X185542635Y-113098858D01*
X185536210Y-113102902D01*
X185534345Y-113103675D01*
X185532245Y-113105398D01*
X185529944Y-113106847D01*
X185528619Y-113108373D01*
X185522753Y-113113189D01*
X185475134Y-113160807D01*
X185470319Y-113166673D01*
X185468793Y-113167998D01*
X185467342Y-113170301D01*
X185465621Y-113172400D01*
X185464849Y-113174262D01*
X185460804Y-113180689D01*
X185413185Y-113275927D01*
X185407826Y-113289933D01*
X185407631Y-113292674D01*
X185406579Y-113295215D01*
X185405109Y-113310139D01*
X184129537Y-113310139D01*
X184129537Y-113119663D01*
X184129531Y-113119609D01*
X184129537Y-113119583D01*
X184129521Y-113119505D01*
X184128067Y-113104739D01*
X184125168Y-113097741D01*
X184123683Y-113090314D01*
X184119511Y-113084084D01*
X184116644Y-113077162D01*
X184111290Y-113071808D01*
X184107074Y-113065512D01*
X184100834Y-113061352D01*
X184095538Y-113056056D01*
X184088543Y-113053158D01*
X184082239Y-113048956D01*
X184074885Y-113047501D01*
X184067961Y-113044633D01*
X184060387Y-113044633D01*
X184052957Y-113043163D01*
X184045607Y-113044633D01*
X184038113Y-113044633D01*
X184031115Y-113047531D01*
X184023688Y-113049017D01*
X184017459Y-113053188D01*
X184010536Y-113056056D01*
X184005181Y-113061410D01*
X183998887Y-113065626D01*
X183989480Y-113077111D01*
X183989430Y-113077162D01*
X183989420Y-113077184D01*
X183989385Y-113077228D01*
X183898349Y-113213782D01*
X183817245Y-113294886D01*
X183733111Y-113336953D01*
X183720420Y-113344942D01*
X183700863Y-113367492D01*
X183691424Y-113395809D01*
X183415252Y-113395809D01*
X183415252Y-113119663D01*
X183413782Y-113104739D01*
X183402359Y-113077162D01*
X183381253Y-113056056D01*
X183353676Y-113044633D01*
X183323828Y-113044633D01*
X183296251Y-113056056D01*
X183275145Y-113077162D01*
X183263722Y-113104739D01*
X183262252Y-113119663D01*
X183151141Y-113119663D01*
X183151141Y-112932052D01*
X188192428Y-112932052D01*
X188192428Y-114402512D01*
G37*
G36*
X184975997Y-118984144D02*
G01*
X185049689Y-119057836D01*
X185088001Y-119134460D01*
X185131299Y-119307652D01*
X185131299Y-119431673D01*
X185088001Y-119604865D01*
X185049688Y-119681489D01*
X184975999Y-119755180D01*
X184862053Y-119793163D01*
X184712871Y-119793163D01*
X184712871Y-118946163D01*
X184862053Y-118946163D01*
X184975997Y-118984144D01*
G37*
G36*
X188210102Y-118980154D02*
G01*
X188240164Y-119010215D01*
X188274156Y-119078199D01*
X188274156Y-119184936D01*
X188240164Y-119252919D01*
X188210102Y-119282980D01*
X188142120Y-119316972D01*
X187855728Y-119316972D01*
X187855728Y-118946163D01*
X188142120Y-118946163D01*
X188210102Y-118980154D01*
G37*
G36*
X186067245Y-118980154D02*
G01*
X186097307Y-119010215D01*
X186131299Y-119078199D01*
X186131299Y-119184936D01*
X186097307Y-119252919D01*
X186067245Y-119282980D01*
X185999263Y-119316972D01*
X185712871Y-119316972D01*
X185712871Y-118946163D01*
X185999263Y-118946163D01*
X186067245Y-118980154D01*
G37*
G36*
X188538267Y-120057274D02*
G01*
X182353522Y-120057274D01*
X182353522Y-119298234D01*
X182464633Y-119298234D01*
X182464633Y-119441091D01*
X182464889Y-119443696D01*
X182464724Y-119444810D01*
X182465549Y-119450391D01*
X182466103Y-119456015D01*
X182466534Y-119457056D01*
X182466917Y-119459645D01*
X182514536Y-119650121D01*
X182514929Y-119651223D01*
X182514969Y-119651773D01*
X182517347Y-119657988D01*
X182519582Y-119664243D01*
X182519909Y-119664684D01*
X182520328Y-119665779D01*
X182567947Y-119761017D01*
X182571992Y-119767443D01*
X182572764Y-119769306D01*
X182574485Y-119771403D01*
X182575936Y-119773708D01*
X182577464Y-119775033D01*
X182582277Y-119780898D01*
X182677515Y-119876138D01*
X182689108Y-119885651D01*
X182691647Y-119886702D01*
X182693724Y-119888504D01*
X182707418Y-119894618D01*
X182850274Y-119942237D01*
X182857676Y-119943920D01*
X182859542Y-119944693D01*
X182862247Y-119944959D01*
X182864897Y-119945562D01*
X182866911Y-119945418D01*
X182874466Y-119946163D01*
X182969704Y-119946163D01*
X182977258Y-119945418D01*
X182979272Y-119945562D01*
X182981921Y-119944959D01*
X182984628Y-119944693D01*
X182986495Y-119943919D01*
X182993895Y-119942237D01*
X183136752Y-119894618D01*
X183150445Y-119888504D01*
X183152520Y-119886704D01*
X183155063Y-119885651D01*
X183166655Y-119876137D01*
X183214274Y-119828517D01*
X183223787Y-119816925D01*
X183235210Y-119789348D01*
X183236680Y-119774424D01*
X183236680Y-119441091D01*
X183235210Y-119426167D01*
X183223787Y-119398590D01*
X183202681Y-119377484D01*
X183175104Y-119366061D01*
X183160180Y-119364591D01*
X182969704Y-119364591D01*
X182954780Y-119366061D01*
X182927203Y-119377484D01*
X182906097Y-119398590D01*
X182894674Y-119426167D01*
X182894674Y-119456015D01*
X182906097Y-119483592D01*
X182927203Y-119504698D01*
X182954780Y-119516121D01*
X182969704Y-119517591D01*
X183083680Y-119517591D01*
X183083680Y-119742737D01*
X183071237Y-119755180D01*
X182957291Y-119793163D01*
X182886879Y-119793163D01*
X182772933Y-119755181D01*
X182699244Y-119681491D01*
X182660931Y-119604865D01*
X182617633Y-119431673D01*
X182617633Y-119307652D01*
X182660931Y-119134460D01*
X182699243Y-119057836D01*
X182772934Y-118984144D01*
X182886879Y-118946163D01*
X182999263Y-118946163D01*
X183078349Y-118985706D01*
X183092355Y-118991065D01*
X183122129Y-118993181D01*
X183150446Y-118983742D01*
X183172995Y-118964185D01*
X183186344Y-118937488D01*
X183188460Y-118907714D01*
X183179021Y-118879397D01*
X183170579Y-118869663D01*
X183512252Y-118869663D01*
X183512252Y-119869663D01*
X183513722Y-119884587D01*
X183525145Y-119912164D01*
X183546251Y-119933270D01*
X183573828Y-119944693D01*
X183603676Y-119944693D01*
X183631253Y-119933270D01*
X183652359Y-119912164D01*
X183663782Y-119884587D01*
X183665252Y-119869663D01*
X183665252Y-119157730D01*
X184093759Y-119907618D01*
X184095994Y-119910766D01*
X184096573Y-119912164D01*
X184097997Y-119913588D01*
X184102440Y-119919846D01*
X184110485Y-119926076D01*
X184117679Y-119933270D01*
X184122184Y-119935136D01*
X184126040Y-119938122D01*
X184135855Y-119940798D01*
X184145256Y-119944693D01*
X184150133Y-119944693D01*
X184154837Y-119945976D01*
X184164930Y-119944693D01*
X184175104Y-119944693D01*
X184179608Y-119942827D01*
X184184448Y-119942212D01*
X184193285Y-119937161D01*
X184202681Y-119933270D01*
X184206127Y-119929823D01*
X184210363Y-119927403D01*
X184216593Y-119919357D01*
X184223787Y-119912164D01*
X184225653Y-119907658D01*
X184228639Y-119903803D01*
X184231315Y-119893987D01*
X184235210Y-119884587D01*
X184235961Y-119876953D01*
X184236493Y-119875006D01*
X184236301Y-119873502D01*
X184236680Y-119869663D01*
X184236680Y-118869663D01*
X184559871Y-118869663D01*
X184559871Y-119869663D01*
X184561341Y-119884587D01*
X184572764Y-119912164D01*
X184593870Y-119933270D01*
X184621447Y-119944693D01*
X184636371Y-119946163D01*
X184874466Y-119946163D01*
X184882020Y-119945418D01*
X184884034Y-119945562D01*
X184886683Y-119944959D01*
X184889390Y-119944693D01*
X184891257Y-119943919D01*
X184898657Y-119942237D01*
X185041514Y-119894618D01*
X185055207Y-119888504D01*
X185057282Y-119886704D01*
X185059825Y-119885651D01*
X185071417Y-119876137D01*
X185166655Y-119780898D01*
X185171469Y-119775031D01*
X185172996Y-119773708D01*
X185174444Y-119771407D01*
X185176169Y-119769306D01*
X185176942Y-119767439D01*
X185180985Y-119761017D01*
X185228604Y-119665779D01*
X185229022Y-119664684D01*
X185229350Y-119664243D01*
X185231584Y-119657988D01*
X185233963Y-119651773D01*
X185234002Y-119651223D01*
X185234396Y-119650121D01*
X185282015Y-119459645D01*
X185282397Y-119457056D01*
X185282829Y-119456015D01*
X185283382Y-119450391D01*
X185284208Y-119444810D01*
X185284042Y-119443696D01*
X185284299Y-119441091D01*
X185284299Y-119298234D01*
X185284042Y-119295628D01*
X185284208Y-119294515D01*
X185283382Y-119288933D01*
X185282829Y-119283310D01*
X185282397Y-119282268D01*
X185282015Y-119279680D01*
X185234396Y-119089204D01*
X185234002Y-119088101D01*
X185233963Y-119087552D01*
X185231584Y-119081336D01*
X185229350Y-119075082D01*
X185229022Y-119074640D01*
X185228604Y-119073546D01*
X185180985Y-118978308D01*
X185176939Y-118971881D01*
X185176168Y-118970019D01*
X185174446Y-118967920D01*
X185172996Y-118965617D01*
X185171469Y-118964292D01*
X185166655Y-118958426D01*
X185077892Y-118869663D01*
X185559871Y-118869663D01*
X185559871Y-119869663D01*
X185561341Y-119884587D01*
X185572764Y-119912164D01*
X185593870Y-119933270D01*
X185621447Y-119944693D01*
X185651295Y-119944693D01*
X185678872Y-119933270D01*
X185699978Y-119912164D01*
X185711401Y-119884587D01*
X185712871Y-119869663D01*
X185712871Y-119469972D01*
X186017323Y-119469972D01*
X186032247Y-119468502D01*
X186034787Y-119467449D01*
X186037529Y-119467255D01*
X186051535Y-119461896D01*
X186146773Y-119414277D01*
X186153199Y-119410231D01*
X186155062Y-119409460D01*
X186157160Y-119407738D01*
X186159464Y-119406288D01*
X186160788Y-119404761D01*
X186166655Y-119399947D01*
X186214273Y-119352328D01*
X186219088Y-119346461D01*
X186220615Y-119345137D01*
X186222063Y-119342835D01*
X186223787Y-119340736D01*
X186224559Y-119338870D01*
X186228604Y-119332446D01*
X186276223Y-119237208D01*
X186281582Y-119223202D01*
X186281776Y-119220460D01*
X186282829Y-119217920D01*
X186284299Y-119202996D01*
X186284299Y-119060139D01*
X186282829Y-119045215D01*
X186281776Y-119042674D01*
X186281582Y-119039933D01*
X186276223Y-119025927D01*
X186228604Y-118930689D01*
X186224559Y-118924264D01*
X186223787Y-118922399D01*
X186222063Y-118920299D01*
X186220615Y-118917998D01*
X186219088Y-118916673D01*
X186214273Y-118910807D01*
X186175990Y-118872523D01*
X186464687Y-118872523D01*
X186466713Y-118887382D01*
X186704808Y-119887382D01*
X186706574Y-119892506D01*
X186706818Y-119894340D01*
X186707777Y-119895997D01*
X186709695Y-119901560D01*
X186716209Y-119910561D01*
X186721773Y-119920171D01*
X186724891Y-119922557D01*
X186727195Y-119925741D01*
X186736657Y-119931564D01*
X186745476Y-119938314D01*
X186749270Y-119939325D01*
X186752615Y-119941384D01*
X186763579Y-119943141D01*
X186774316Y-119946005D01*
X186778210Y-119945487D01*
X186782088Y-119946109D01*
X186792895Y-119943536D01*
X186803905Y-119942073D01*
X186807302Y-119940106D01*
X186811125Y-119939196D01*
X186820126Y-119932681D01*
X186829736Y-119927118D01*
X186832122Y-119923999D01*
X186835306Y-119921696D01*
X186841129Y-119912233D01*
X186847879Y-119903415D01*
X186849943Y-119897909D01*
X186850949Y-119896276D01*
X186851242Y-119894447D01*
X186853145Y-119889374D01*
X186969703Y-119452277D01*
X187086263Y-119889375D01*
X187088166Y-119894450D01*
X187088459Y-119896275D01*
X187089462Y-119897905D01*
X187091529Y-119903416D01*
X187098282Y-119912238D01*
X187104102Y-119921696D01*
X187107284Y-119923999D01*
X187109672Y-119927118D01*
X187119283Y-119932683D01*
X187128283Y-119939196D01*
X187132103Y-119940105D01*
X187135503Y-119942074D01*
X187146518Y-119943537D01*
X187157320Y-119946109D01*
X187161196Y-119945487D01*
X187165092Y-119946005D01*
X187175834Y-119943140D01*
X187186792Y-119941384D01*
X187190132Y-119939328D01*
X187193933Y-119938315D01*
X187202761Y-119931556D01*
X187212213Y-119925741D01*
X187214514Y-119922560D01*
X187217635Y-119920172D01*
X187223200Y-119910559D01*
X187229713Y-119901560D01*
X187231630Y-119895997D01*
X187232590Y-119894340D01*
X187232833Y-119892506D01*
X187234600Y-119887382D01*
X187472696Y-118887382D01*
X187474722Y-118872524D01*
X187474263Y-118869663D01*
X187702728Y-118869663D01*
X187702728Y-119869663D01*
X187704198Y-119884587D01*
X187715621Y-119912164D01*
X187736727Y-119933270D01*
X187764304Y-119944693D01*
X187794152Y-119944693D01*
X187821729Y-119933270D01*
X187842835Y-119912164D01*
X187854258Y-119884587D01*
X187855728Y-119869663D01*
X187855728Y-119469972D01*
X187977493Y-119469972D01*
X188287985Y-119913533D01*
X188297747Y-119924916D01*
X188322920Y-119940958D01*
X188352314Y-119946145D01*
X188381457Y-119939689D01*
X188405909Y-119922572D01*
X188421950Y-119897399D01*
X188427138Y-119868005D01*
X188420681Y-119838863D01*
X188413327Y-119825793D01*
X188163990Y-119469596D01*
X188175104Y-119468502D01*
X188177644Y-119467449D01*
X188180386Y-119467255D01*
X188194392Y-119461896D01*
X188289630Y-119414277D01*
X188296056Y-119410231D01*
X188297919Y-119409460D01*
X188300017Y-119407738D01*
X188302321Y-119406288D01*
X188303645Y-119404761D01*
X188309512Y-119399947D01*
X188357130Y-119352328D01*
X188361945Y-119346461D01*
X188363472Y-119345137D01*
X188364920Y-119342835D01*
X188366644Y-119340736D01*
X188367416Y-119338870D01*
X188371461Y-119332446D01*
X188419080Y-119237208D01*
X188424439Y-119223202D01*
X188424633Y-119220460D01*
X188425686Y-119217920D01*
X188427156Y-119202996D01*
X188427156Y-119060139D01*
X188425686Y-119045215D01*
X188424633Y-119042674D01*
X188424439Y-119039933D01*
X188419080Y-119025927D01*
X188371461Y-118930689D01*
X188367416Y-118924264D01*
X188366644Y-118922399D01*
X188364920Y-118920299D01*
X188363472Y-118917998D01*
X188361945Y-118916673D01*
X188357130Y-118910807D01*
X188309512Y-118863188D01*
X188303645Y-118858373D01*
X188302321Y-118856847D01*
X188300017Y-118855396D01*
X188297919Y-118853675D01*
X188296056Y-118852903D01*
X188289630Y-118848858D01*
X188194392Y-118801239D01*
X188180386Y-118795880D01*
X188177644Y-118795685D01*
X188175104Y-118794633D01*
X188160180Y-118793163D01*
X187779228Y-118793163D01*
X187764304Y-118794633D01*
X187736727Y-118806056D01*
X187715621Y-118827162D01*
X187704198Y-118854739D01*
X187702728Y-118869663D01*
X187474263Y-118869663D01*
X187469997Y-118843051D01*
X187454354Y-118817630D01*
X187430173Y-118800130D01*
X187401136Y-118793217D01*
X187371663Y-118797942D01*
X187346243Y-118813585D01*
X187328743Y-118837766D01*
X187323856Y-118851944D01*
X187155981Y-119557016D01*
X187043621Y-119135666D01*
X187042309Y-119132167D01*
X187042114Y-119130700D01*
X187041104Y-119128956D01*
X187038355Y-119121625D01*
X187032219Y-119113609D01*
X187027159Y-119104868D01*
X187023221Y-119101854D01*
X187020212Y-119097922D01*
X187011481Y-119092867D01*
X187003457Y-119086725D01*
X186998665Y-119085447D01*
X186994381Y-119082967D01*
X186984376Y-119081637D01*
X186974616Y-119079035D01*
X186969703Y-119079687D01*
X186964792Y-119079035D01*
X186955039Y-119081635D01*
X186945027Y-119082966D01*
X186940736Y-119085449D01*
X186935952Y-119086726D01*
X186927936Y-119092861D01*
X186919196Y-119097922D01*
X186916183Y-119101857D01*
X186912249Y-119104869D01*
X186907191Y-119113605D01*
X186901053Y-119121624D01*
X186898302Y-119128958D01*
X186897294Y-119130700D01*
X186897099Y-119132166D01*
X186895787Y-119135665D01*
X186783427Y-119557015D01*
X186615553Y-118851944D01*
X186610666Y-118837766D01*
X186593166Y-118813585D01*
X186567746Y-118797942D01*
X186538273Y-118793217D01*
X186509236Y-118800130D01*
X186485055Y-118817630D01*
X186469412Y-118843050D01*
X186464687Y-118872523D01*
X186175990Y-118872523D01*
X186166655Y-118863188D01*
X186160788Y-118858373D01*
X186159464Y-118856847D01*
X186157160Y-118855396D01*
X186155062Y-118853675D01*
X186153199Y-118852903D01*
X186146773Y-118848858D01*
X186051535Y-118801239D01*
X186037529Y-118795880D01*
X186034787Y-118795685D01*
X186032247Y-118794633D01*
X186017323Y-118793163D01*
X185636371Y-118793163D01*
X185621447Y-118794633D01*
X185593870Y-118806056D01*
X185572764Y-118827162D01*
X185561341Y-118854739D01*
X185559871Y-118869663D01*
X185077892Y-118869663D01*
X185071417Y-118863188D01*
X185059824Y-118853675D01*
X185057283Y-118852622D01*
X185055207Y-118850822D01*
X185041514Y-118844708D01*
X184898657Y-118797089D01*
X184891257Y-118795406D01*
X184889390Y-118794633D01*
X184886683Y-118794366D01*
X184884034Y-118793764D01*
X184882020Y-118793907D01*
X184874466Y-118793163D01*
X184636371Y-118793163D01*
X184621447Y-118794633D01*
X184593870Y-118806056D01*
X184572764Y-118827162D01*
X184561341Y-118854739D01*
X184559871Y-118869663D01*
X184236680Y-118869663D01*
X184235210Y-118854739D01*
X184223787Y-118827162D01*
X184202681Y-118806056D01*
X184175104Y-118794633D01*
X184145256Y-118794633D01*
X184117679Y-118806056D01*
X184096573Y-118827162D01*
X184085150Y-118854739D01*
X184083680Y-118869663D01*
X184083680Y-119581596D01*
X183655173Y-118831708D01*
X183652937Y-118828559D01*
X183652359Y-118827162D01*
X183650934Y-118825737D01*
X183646492Y-118819480D01*
X183638446Y-118813249D01*
X183631253Y-118806056D01*
X183626747Y-118804189D01*
X183622892Y-118801204D01*
X183613076Y-118798527D01*
X183603676Y-118794633D01*
X183598799Y-118794633D01*
X183594095Y-118793350D01*
X183584002Y-118794633D01*
X183573828Y-118794633D01*
X183569323Y-118796498D01*
X183564484Y-118797114D01*
X183555646Y-118802164D01*
X183546251Y-118806056D01*
X183542804Y-118809502D01*
X183538569Y-118811923D01*
X183532338Y-118819968D01*
X183525145Y-118827162D01*
X183523278Y-118831667D01*
X183520293Y-118835523D01*
X183517616Y-118845338D01*
X183513722Y-118854739D01*
X183512970Y-118862372D01*
X183512439Y-118864320D01*
X183512630Y-118865823D01*
X183512252Y-118869663D01*
X183170579Y-118869663D01*
X183159464Y-118856847D01*
X183146773Y-118848858D01*
X183051535Y-118801239D01*
X183037529Y-118795880D01*
X183034787Y-118795685D01*
X183032247Y-118794633D01*
X183017323Y-118793163D01*
X182874466Y-118793163D01*
X182866911Y-118793907D01*
X182864897Y-118793764D01*
X182862247Y-118794366D01*
X182859542Y-118794633D01*
X182857676Y-118795405D01*
X182850274Y-118797089D01*
X182707418Y-118844708D01*
X182693724Y-118850822D01*
X182691647Y-118852623D01*
X182689108Y-118853675D01*
X182677515Y-118863188D01*
X182582277Y-118958426D01*
X182577462Y-118964292D01*
X182575936Y-118965617D01*
X182574485Y-118967920D01*
X182572764Y-118970019D01*
X182571992Y-118971881D01*
X182567947Y-118978308D01*
X182520328Y-119073546D01*
X182519909Y-119074640D01*
X182519582Y-119075082D01*
X182517347Y-119081336D01*
X182514969Y-119087552D01*
X182514929Y-119088101D01*
X182514536Y-119089204D01*
X182466917Y-119279680D01*
X182466534Y-119282268D01*
X182466103Y-119283310D01*
X182465549Y-119288933D01*
X182464724Y-119294515D01*
X182464889Y-119295628D01*
X182464633Y-119298234D01*
X182353522Y-119298234D01*
X182353522Y-118682052D01*
X188538267Y-118682052D01*
X188538267Y-120057274D01*
G37*
G36*
X186571235Y-72234144D02*
G01*
X186644927Y-72307836D01*
X186683239Y-72384460D01*
X186726537Y-72557652D01*
X186726537Y-72681673D01*
X186683239Y-72854865D01*
X186644926Y-72931489D01*
X186571237Y-73005180D01*
X186457291Y-73043163D01*
X186308109Y-73043163D01*
X186308109Y-72196163D01*
X186457291Y-72196163D01*
X186571235Y-72234144D01*
G37*
G36*
X187554042Y-72757448D02*
G01*
X187290128Y-72757448D01*
X187422085Y-72361576D01*
X187554042Y-72757448D01*
G37*
G36*
X187942428Y-73402512D02*
G01*
X182901141Y-73402512D01*
X182901141Y-73199977D01*
X184204198Y-73199977D01*
X184204198Y-73229825D01*
X184215621Y-73257402D01*
X184236727Y-73278508D01*
X184264304Y-73289931D01*
X184279228Y-73291401D01*
X185041132Y-73291401D01*
X185056056Y-73289931D01*
X185083633Y-73278508D01*
X185104739Y-73257402D01*
X185116162Y-73229825D01*
X185116162Y-73199977D01*
X185104739Y-73172400D01*
X185083633Y-73151294D01*
X185056056Y-73139871D01*
X185041132Y-73138401D01*
X184279228Y-73138401D01*
X184264304Y-73139871D01*
X184236727Y-73151294D01*
X184215621Y-73172400D01*
X184204198Y-73199977D01*
X182901141Y-73199977D01*
X182901141Y-72119663D01*
X183012252Y-72119663D01*
X183012252Y-73119663D01*
X183013722Y-73134587D01*
X183025145Y-73162164D01*
X183046251Y-73183270D01*
X183073828Y-73194693D01*
X183103676Y-73194693D01*
X183131253Y-73183270D01*
X183152359Y-73162164D01*
X183163782Y-73134587D01*
X183165252Y-73119663D01*
X183165252Y-73104739D01*
X183394674Y-73104739D01*
X183394674Y-73134587D01*
X183406097Y-73162164D01*
X183427203Y-73183270D01*
X183454780Y-73194693D01*
X183469704Y-73196163D01*
X184088751Y-73196163D01*
X184103675Y-73194693D01*
X184131252Y-73183270D01*
X184152358Y-73162164D01*
X184163781Y-73134587D01*
X184163781Y-73104739D01*
X184152358Y-73077162D01*
X184131252Y-73056056D01*
X184103675Y-73044633D01*
X184088751Y-73043163D01*
X183654392Y-73043163D01*
X184095226Y-72602328D01*
X184104739Y-72590735D01*
X184105790Y-72588195D01*
X184107592Y-72586119D01*
X184113706Y-72572425D01*
X184161325Y-72429569D01*
X184163008Y-72422166D01*
X184163781Y-72420301D01*
X184164047Y-72417595D01*
X184164650Y-72414946D01*
X184164506Y-72412931D01*
X184165251Y-72405377D01*
X184165251Y-72310139D01*
X185155109Y-72310139D01*
X185155109Y-72405377D01*
X185156579Y-72420301D01*
X185157631Y-72422841D01*
X185157826Y-72425583D01*
X185163185Y-72439589D01*
X185210804Y-72534827D01*
X185214849Y-72541253D01*
X185215621Y-72543116D01*
X185217342Y-72545214D01*
X185218793Y-72547518D01*
X185220319Y-72548842D01*
X185225134Y-72554709D01*
X185272753Y-72602327D01*
X185278619Y-72607142D01*
X185279944Y-72608669D01*
X185282245Y-72610117D01*
X185284345Y-72611841D01*
X185286210Y-72612613D01*
X185292635Y-72616658D01*
X185387873Y-72664277D01*
X185388967Y-72664695D01*
X185389409Y-72665023D01*
X185395663Y-72667257D01*
X185401879Y-72669636D01*
X185402428Y-72669675D01*
X185403531Y-72670069D01*
X185585859Y-72715651D01*
X185662483Y-72753963D01*
X185692545Y-72784024D01*
X185726537Y-72852008D01*
X185726537Y-72911126D01*
X185692544Y-72979110D01*
X185662484Y-73009171D01*
X185594501Y-73043163D01*
X185386879Y-73043163D01*
X185255800Y-72999470D01*
X185241177Y-72996145D01*
X185211403Y-72998261D01*
X185184706Y-73011610D01*
X185165149Y-73034159D01*
X185155710Y-73062476D01*
X185157826Y-73092250D01*
X185171175Y-73118947D01*
X185193724Y-73138504D01*
X185207418Y-73144618D01*
X185350274Y-73192237D01*
X185357676Y-73193920D01*
X185359542Y-73194693D01*
X185362247Y-73194959D01*
X185364897Y-73195562D01*
X185366911Y-73195418D01*
X185374466Y-73196163D01*
X185612561Y-73196163D01*
X185627485Y-73194693D01*
X185630025Y-73193640D01*
X185632767Y-73193446D01*
X185646773Y-73188087D01*
X185742011Y-73140468D01*
X185748435Y-73136423D01*
X185750301Y-73135651D01*
X185752400Y-73133927D01*
X185754702Y-73132479D01*
X185756026Y-73130952D01*
X185761893Y-73126137D01*
X185809512Y-73078517D01*
X185814324Y-73072652D01*
X185815853Y-73071327D01*
X185817303Y-73069022D01*
X185819025Y-73066925D01*
X185819796Y-73065062D01*
X185823842Y-73058636D01*
X185871461Y-72963398D01*
X185876820Y-72949392D01*
X185877014Y-72946650D01*
X185878067Y-72944110D01*
X185879537Y-72929186D01*
X185879537Y-72833948D01*
X185878067Y-72819024D01*
X185877014Y-72816483D01*
X185876820Y-72813742D01*
X185871461Y-72799736D01*
X185823842Y-72704498D01*
X185819797Y-72698073D01*
X185819025Y-72696208D01*
X185817301Y-72694108D01*
X185815853Y-72691807D01*
X185814326Y-72690482D01*
X185809511Y-72684616D01*
X185761893Y-72636997D01*
X185756026Y-72632182D01*
X185754702Y-72630656D01*
X185752398Y-72629205D01*
X185750300Y-72627484D01*
X185748437Y-72626712D01*
X185742011Y-72622667D01*
X185646773Y-72575048D01*
X185645678Y-72574629D01*
X185645237Y-72574302D01*
X185638982Y-72572067D01*
X185632767Y-72569689D01*
X185632217Y-72569649D01*
X185631115Y-72569256D01*
X185448787Y-72523674D01*
X185372161Y-72485361D01*
X185342100Y-72455299D01*
X185308109Y-72387317D01*
X185308109Y-72328199D01*
X185342100Y-72260216D01*
X185372161Y-72230154D01*
X185440145Y-72196163D01*
X185647767Y-72196163D01*
X185778845Y-72239856D01*
X185793468Y-72243181D01*
X185823242Y-72241065D01*
X185849939Y-72227716D01*
X185869497Y-72205167D01*
X185878936Y-72176850D01*
X185876819Y-72147076D01*
X185863471Y-72120379D01*
X185862645Y-72119663D01*
X186155109Y-72119663D01*
X186155109Y-73119663D01*
X186156579Y-73134587D01*
X186168002Y-73162164D01*
X186189108Y-73183270D01*
X186216685Y-73194693D01*
X186231609Y-73196163D01*
X186469704Y-73196163D01*
X186477258Y-73195418D01*
X186479272Y-73195562D01*
X186481921Y-73194959D01*
X186484628Y-73194693D01*
X186486495Y-73193919D01*
X186493895Y-73192237D01*
X186636752Y-73144618D01*
X186650445Y-73138504D01*
X186652520Y-73136704D01*
X186655063Y-73135651D01*
X186666655Y-73126137D01*
X186682697Y-73110095D01*
X187012853Y-73110095D01*
X187014969Y-73139869D01*
X187028318Y-73166566D01*
X187050867Y-73186123D01*
X187079184Y-73195562D01*
X187108958Y-73193446D01*
X187135655Y-73180097D01*
X187155212Y-73157548D01*
X187161326Y-73143854D01*
X187239128Y-72910448D01*
X187605042Y-72910448D01*
X187682844Y-73143854D01*
X187688958Y-73157547D01*
X187708515Y-73180097D01*
X187735212Y-73193445D01*
X187764986Y-73195562D01*
X187793303Y-73186123D01*
X187815852Y-73166565D01*
X187829201Y-73139868D01*
X187831317Y-73110094D01*
X187827992Y-73095471D01*
X187494659Y-72095472D01*
X187488545Y-72081778D01*
X187484962Y-72077646D01*
X187482519Y-72072761D01*
X187475275Y-72066477D01*
X187468988Y-72059229D01*
X187464099Y-72056784D01*
X187459970Y-72053203D01*
X187450870Y-72050169D01*
X187442291Y-72045880D01*
X187436838Y-72045492D01*
X187431653Y-72043764D01*
X187422087Y-72044444D01*
X187412517Y-72043764D01*
X187407328Y-72045493D01*
X187401879Y-72045881D01*
X187393304Y-72050168D01*
X187384200Y-72053203D01*
X187380069Y-72056785D01*
X187375182Y-72059229D01*
X187368898Y-72066474D01*
X187361651Y-72072760D01*
X187359205Y-72077650D01*
X187355625Y-72081779D01*
X187349511Y-72095472D01*
X187016178Y-73095472D01*
X187012853Y-73110095D01*
X186682697Y-73110095D01*
X186761893Y-73030898D01*
X186766707Y-73025031D01*
X186768234Y-73023708D01*
X186769682Y-73021407D01*
X186771407Y-73019306D01*
X186772180Y-73017439D01*
X186776223Y-73011017D01*
X186823842Y-72915779D01*
X186824260Y-72914684D01*
X186824588Y-72914243D01*
X186826822Y-72907988D01*
X186829201Y-72901773D01*
X186829240Y-72901223D01*
X186829634Y-72900121D01*
X186877253Y-72709645D01*
X186877635Y-72707056D01*
X186878067Y-72706015D01*
X186878620Y-72700391D01*
X186879446Y-72694810D01*
X186879280Y-72693696D01*
X186879537Y-72691091D01*
X186879537Y-72548234D01*
X186879280Y-72545628D01*
X186879446Y-72544515D01*
X186878620Y-72538933D01*
X186878067Y-72533310D01*
X186877635Y-72532268D01*
X186877253Y-72529680D01*
X186829634Y-72339204D01*
X186829240Y-72338101D01*
X186829201Y-72337552D01*
X186826822Y-72331336D01*
X186824588Y-72325082D01*
X186824260Y-72324640D01*
X186823842Y-72323546D01*
X186776223Y-72228308D01*
X186772177Y-72221881D01*
X186771406Y-72220019D01*
X186769684Y-72217920D01*
X186768234Y-72215617D01*
X186766707Y-72214292D01*
X186761893Y-72208426D01*
X186666655Y-72113188D01*
X186655062Y-72103675D01*
X186652521Y-72102622D01*
X186650445Y-72100822D01*
X186636752Y-72094708D01*
X186493895Y-72047089D01*
X186486495Y-72045406D01*
X186484628Y-72044633D01*
X186481921Y-72044366D01*
X186479272Y-72043764D01*
X186477258Y-72043907D01*
X186469704Y-72043163D01*
X186231609Y-72043163D01*
X186216685Y-72044633D01*
X186189108Y-72056056D01*
X186168002Y-72077162D01*
X186156579Y-72104739D01*
X186155109Y-72119663D01*
X185862645Y-72119663D01*
X185840921Y-72100822D01*
X185827228Y-72094708D01*
X185684371Y-72047089D01*
X185676971Y-72045406D01*
X185675104Y-72044633D01*
X185672397Y-72044366D01*
X185669748Y-72043764D01*
X185667734Y-72043907D01*
X185660180Y-72043163D01*
X185422085Y-72043163D01*
X185407161Y-72044633D01*
X185404620Y-72045685D01*
X185401879Y-72045880D01*
X185387873Y-72051239D01*
X185292635Y-72098858D01*
X185286210Y-72102902D01*
X185284345Y-72103675D01*
X185282245Y-72105398D01*
X185279944Y-72106847D01*
X185278619Y-72108373D01*
X185272753Y-72113189D01*
X185225134Y-72160807D01*
X185220319Y-72166673D01*
X185218793Y-72167998D01*
X185217342Y-72170301D01*
X185215621Y-72172400D01*
X185214849Y-72174262D01*
X185210804Y-72180689D01*
X185163185Y-72275927D01*
X185157826Y-72289933D01*
X185157631Y-72292674D01*
X185156579Y-72295215D01*
X185155109Y-72310139D01*
X184165251Y-72310139D01*
X184163781Y-72295215D01*
X184162728Y-72292674D01*
X184162534Y-72289933D01*
X184157175Y-72275927D01*
X184109556Y-72180689D01*
X184105511Y-72174264D01*
X184104739Y-72172399D01*
X184103015Y-72170299D01*
X184101567Y-72167998D01*
X184100040Y-72166673D01*
X184095225Y-72160807D01*
X184047607Y-72113188D01*
X184041740Y-72108373D01*
X184040416Y-72106847D01*
X184038112Y-72105396D01*
X184036014Y-72103675D01*
X184034151Y-72102903D01*
X184027725Y-72098858D01*
X183932487Y-72051239D01*
X183918481Y-72045880D01*
X183915739Y-72045685D01*
X183913199Y-72044633D01*
X183898275Y-72043163D01*
X183660180Y-72043163D01*
X183645256Y-72044633D01*
X183642715Y-72045685D01*
X183639974Y-72045880D01*
X183625968Y-72051239D01*
X183530730Y-72098858D01*
X183524305Y-72102902D01*
X183522440Y-72103675D01*
X183520340Y-72105398D01*
X183518039Y-72106847D01*
X183516714Y-72108373D01*
X183510848Y-72113189D01*
X183463229Y-72160807D01*
X183453716Y-72172400D01*
X183442293Y-72199977D01*
X183442293Y-72229825D01*
X183453716Y-72257402D01*
X183474822Y-72278508D01*
X183502399Y-72289931D01*
X183532247Y-72289931D01*
X183559824Y-72278508D01*
X183571417Y-72268995D01*
X183610256Y-72230154D01*
X183678240Y-72196163D01*
X183880215Y-72196163D01*
X183948197Y-72230154D01*
X183978259Y-72260215D01*
X184012251Y-72328199D01*
X184012251Y-72392964D01*
X183974269Y-72506908D01*
X183415610Y-73065569D01*
X183406097Y-73077162D01*
X183394674Y-73104739D01*
X183165252Y-73104739D01*
X183165252Y-72119663D01*
X183163782Y-72104739D01*
X183152359Y-72077162D01*
X183131253Y-72056056D01*
X183103676Y-72044633D01*
X183073828Y-72044633D01*
X183046251Y-72056056D01*
X183025145Y-72077162D01*
X183013722Y-72104739D01*
X183012252Y-72119663D01*
X182901141Y-72119663D01*
X182901141Y-71932052D01*
X187942428Y-71932052D01*
X187942428Y-73402512D01*
G37*
X187454663Y-83833333D02*
X188168948Y-83833333D01*
X188168948Y-83833333D02*
X188311805Y-83880952D01*
X188311805Y-83880952D02*
X188407044Y-83976190D01*
X188407044Y-83976190D02*
X188454663Y-84119047D01*
X188454663Y-84119047D02*
X188454663Y-84214285D01*
X188454663Y-82833333D02*
X188454663Y-83404761D01*
X188454663Y-83119047D02*
X187454663Y-83119047D01*
X187454663Y-83119047D02*
X187597520Y-83214285D01*
X187597520Y-83214285D02*
X187692758Y-83309523D01*
X187692758Y-83309523D02*
X187740377Y-83404761D01*
X186061905Y-96854663D02*
X186061905Y-95854663D01*
X186061905Y-95854663D02*
X186300000Y-95854663D01*
X186300000Y-95854663D02*
X186442857Y-95902282D01*
X186442857Y-95902282D02*
X186538095Y-95997520D01*
X186538095Y-95997520D02*
X186585714Y-96092758D01*
X186585714Y-96092758D02*
X186633333Y-96283234D01*
X186633333Y-96283234D02*
X186633333Y-96426091D01*
X186633333Y-96426091D02*
X186585714Y-96616567D01*
X186585714Y-96616567D02*
X186538095Y-96711805D01*
X186538095Y-96711805D02*
X186442857Y-96807044D01*
X186442857Y-96807044D02*
X186300000Y-96854663D01*
X186300000Y-96854663D02*
X186061905Y-96854663D01*
X186966667Y-95854663D02*
X187585714Y-95854663D01*
X187585714Y-95854663D02*
X187252381Y-96235615D01*
X187252381Y-96235615D02*
X187395238Y-96235615D01*
X187395238Y-96235615D02*
X187490476Y-96283234D01*
X187490476Y-96283234D02*
X187538095Y-96330853D01*
X187538095Y-96330853D02*
X187585714Y-96426091D01*
X187585714Y-96426091D02*
X187585714Y-96664186D01*
X187585714Y-96664186D02*
X187538095Y-96759424D01*
X187538095Y-96759424D02*
X187490476Y-96807044D01*
X187490476Y-96807044D02*
X187395238Y-96854663D01*
X187395238Y-96854663D02*
X187109524Y-96854663D01*
X187109524Y-96854663D02*
X187014286Y-96807044D01*
X187014286Y-96807044D02*
X186966667Y-96759424D01*
X141950821Y-78123810D02*
X141950821Y-78742857D01*
X141950821Y-78742857D02*
X141569869Y-78409524D01*
X141569869Y-78409524D02*
X141569869Y-78552381D01*
X141569869Y-78552381D02*
X141522250Y-78647619D01*
X141522250Y-78647619D02*
X141474631Y-78695238D01*
X141474631Y-78695238D02*
X141379393Y-78742857D01*
X141379393Y-78742857D02*
X141141298Y-78742857D01*
X141141298Y-78742857D02*
X141046060Y-78695238D01*
X141046060Y-78695238D02*
X140998441Y-78647619D01*
X140998441Y-78647619D02*
X140950821Y-78552381D01*
X140950821Y-78552381D02*
X140950821Y-78266667D01*
X140950821Y-78266667D02*
X140998441Y-78171429D01*
X140998441Y-78171429D02*
X141046060Y-78123810D01*
X141046060Y-79171429D02*
X140998441Y-79219048D01*
X140998441Y-79219048D02*
X140950821Y-79171429D01*
X140950821Y-79171429D02*
X140998441Y-79123810D01*
X140998441Y-79123810D02*
X141046060Y-79171429D01*
X141046060Y-79171429D02*
X140950821Y-79171429D01*
X141950821Y-79552381D02*
X141950821Y-80171428D01*
X141950821Y-80171428D02*
X141569869Y-79838095D01*
X141569869Y-79838095D02*
X141569869Y-79980952D01*
X141569869Y-79980952D02*
X141522250Y-80076190D01*
X141522250Y-80076190D02*
X141474631Y-80123809D01*
X141474631Y-80123809D02*
X141379393Y-80171428D01*
X141379393Y-80171428D02*
X141141298Y-80171428D01*
X141141298Y-80171428D02*
X141046060Y-80123809D01*
X141046060Y-80123809D02*
X140998441Y-80076190D01*
X140998441Y-80076190D02*
X140950821Y-79980952D01*
X140950821Y-79980952D02*
X140950821Y-79695238D01*
X140950821Y-79695238D02*
X140998441Y-79600000D01*
X140998441Y-79600000D02*
X141046060Y-79552381D01*
X141950821Y-80457143D02*
X140950821Y-80790476D01*
X140950821Y-80790476D02*
X141950821Y-81123809D01*
X187454663Y-117733333D02*
X188168948Y-117733333D01*
X188168948Y-117733333D02*
X188311805Y-117780952D01*
X188311805Y-117780952D02*
X188407044Y-117876190D01*
X188407044Y-117876190D02*
X188454663Y-118019047D01*
X188454663Y-118019047D02*
X188454663Y-118114285D01*
X187787996Y-116828571D02*
X188454663Y-116828571D01*
X187407044Y-117066666D02*
X188121329Y-117304761D01*
X188121329Y-117304761D02*
X188121329Y-116685714D01*
X186061905Y-98254663D02*
X186061905Y-97254663D01*
X186061905Y-97254663D02*
X186300000Y-97254663D01*
X186300000Y-97254663D02*
X186442857Y-97302282D01*
X186442857Y-97302282D02*
X186538095Y-97397520D01*
X186538095Y-97397520D02*
X186585714Y-97492758D01*
X186585714Y-97492758D02*
X186633333Y-97683234D01*
X186633333Y-97683234D02*
X186633333Y-97826091D01*
X186633333Y-97826091D02*
X186585714Y-98016567D01*
X186585714Y-98016567D02*
X186538095Y-98111805D01*
X186538095Y-98111805D02*
X186442857Y-98207044D01*
X186442857Y-98207044D02*
X186300000Y-98254663D01*
X186300000Y-98254663D02*
X186061905Y-98254663D01*
X187490476Y-97587996D02*
X187490476Y-98254663D01*
X187252381Y-97207044D02*
X187014286Y-97921329D01*
X187014286Y-97921329D02*
X187633333Y-97921329D01*
X185418353Y-85933333D02*
X185418353Y-86266666D01*
X185942163Y-86266666D02*
X184942163Y-86266666D01*
X184942163Y-86266666D02*
X184942163Y-85790476D01*
X185037401Y-85457142D02*
X184989782Y-85409523D01*
X184989782Y-85409523D02*
X184942163Y-85314285D01*
X184942163Y-85314285D02*
X184942163Y-85076190D01*
X184942163Y-85076190D02*
X184989782Y-84980952D01*
X184989782Y-84980952D02*
X185037401Y-84933333D01*
X185037401Y-84933333D02*
X185132639Y-84885714D01*
X185132639Y-84885714D02*
X185227877Y-84885714D01*
X185227877Y-84885714D02*
X185370734Y-84933333D01*
X185370734Y-84933333D02*
X185942163Y-85504761D01*
X185942163Y-85504761D02*
X185942163Y-84885714D01*
X186061905Y-95054663D02*
X186061905Y-94054663D01*
X186061905Y-94054663D02*
X186300000Y-94054663D01*
X186300000Y-94054663D02*
X186442857Y-94102282D01*
X186442857Y-94102282D02*
X186538095Y-94197520D01*
X186538095Y-94197520D02*
X186585714Y-94292758D01*
X186585714Y-94292758D02*
X186633333Y-94483234D01*
X186633333Y-94483234D02*
X186633333Y-94626091D01*
X186633333Y-94626091D02*
X186585714Y-94816567D01*
X186585714Y-94816567D02*
X186538095Y-94911805D01*
X186538095Y-94911805D02*
X186442857Y-95007044D01*
X186442857Y-95007044D02*
X186300000Y-95054663D01*
X186300000Y-95054663D02*
X186061905Y-95054663D01*
X187538095Y-94054663D02*
X187061905Y-94054663D01*
X187061905Y-94054663D02*
X187014286Y-94530853D01*
X187014286Y-94530853D02*
X187061905Y-94483234D01*
X187061905Y-94483234D02*
X187157143Y-94435615D01*
X187157143Y-94435615D02*
X187395238Y-94435615D01*
X187395238Y-94435615D02*
X187490476Y-94483234D01*
X187490476Y-94483234D02*
X187538095Y-94530853D01*
X187538095Y-94530853D02*
X187585714Y-94626091D01*
X187585714Y-94626091D02*
X187585714Y-94864186D01*
X187585714Y-94864186D02*
X187538095Y-94959424D01*
X187538095Y-94959424D02*
X187490476Y-95007044D01*
X187490476Y-95007044D02*
X187395238Y-95054663D01*
X187395238Y-95054663D02*
X187157143Y-95054663D01*
X187157143Y-95054663D02*
X187061905Y-95007044D01*
X187061905Y-95007044D02*
X187014286Y-94959424D01*
X187454663Y-99833333D02*
X188168948Y-99833333D01*
X188168948Y-99833333D02*
X188311805Y-99880952D01*
X188311805Y-99880952D02*
X188407044Y-99976190D01*
X188407044Y-99976190D02*
X188454663Y-100119047D01*
X188454663Y-100119047D02*
X188454663Y-100214285D01*
X187454663Y-98880952D02*
X187454663Y-99357142D01*
X187454663Y-99357142D02*
X187930853Y-99404761D01*
X187930853Y-99404761D02*
X187883234Y-99357142D01*
X187883234Y-99357142D02*
X187835615Y-99261904D01*
X187835615Y-99261904D02*
X187835615Y-99023809D01*
X187835615Y-99023809D02*
X187883234Y-98928571D01*
X187883234Y-98928571D02*
X187930853Y-98880952D01*
X187930853Y-98880952D02*
X188026091Y-98833333D01*
X188026091Y-98833333D02*
X188264186Y-98833333D01*
X188264186Y-98833333D02*
X188359424Y-98880952D01*
X188359424Y-98880952D02*
X188407044Y-98928571D01*
X188407044Y-98928571D02*
X188454663Y-99023809D01*
X188454663Y-99023809D02*
X188454663Y-99261904D01*
X188454663Y-99261904D02*
X188407044Y-99357142D01*
X188407044Y-99357142D02*
X188359424Y-99404761D01*
X172016666Y-121954663D02*
X172016666Y-122668948D01*
X172016666Y-122668948D02*
X171969047Y-122811805D01*
X171969047Y-122811805D02*
X171873809Y-122907044D01*
X171873809Y-122907044D02*
X171730952Y-122954663D01*
X171730952Y-122954663D02*
X171635714Y-122954663D01*
X172445238Y-122049901D02*
X172492857Y-122002282D01*
X172492857Y-122002282D02*
X172588095Y-121954663D01*
X172588095Y-121954663D02*
X172826190Y-121954663D01*
X172826190Y-121954663D02*
X172921428Y-122002282D01*
X172921428Y-122002282D02*
X172969047Y-122049901D01*
X172969047Y-122049901D02*
X173016666Y-122145139D01*
X173016666Y-122145139D02*
X173016666Y-122240377D01*
X173016666Y-122240377D02*
X172969047Y-122383234D01*
X172969047Y-122383234D02*
X172397619Y-122954663D01*
X172397619Y-122954663D02*
X173016666Y-122954663D01*
X168873808Y-129399424D02*
X168826189Y-129447044D01*
X168826189Y-129447044D02*
X168683332Y-129494663D01*
X168683332Y-129494663D02*
X168588094Y-129494663D01*
X168588094Y-129494663D02*
X168445237Y-129447044D01*
X168445237Y-129447044D02*
X168349999Y-129351805D01*
X168349999Y-129351805D02*
X168302380Y-129256567D01*
X168302380Y-129256567D02*
X168254761Y-129066091D01*
X168254761Y-129066091D02*
X168254761Y-128923234D01*
X168254761Y-128923234D02*
X168302380Y-128732758D01*
X168302380Y-128732758D02*
X168349999Y-128637520D01*
X168349999Y-128637520D02*
X168445237Y-128542282D01*
X168445237Y-128542282D02*
X168588094Y-128494663D01*
X168588094Y-128494663D02*
X168683332Y-128494663D01*
X168683332Y-128494663D02*
X168826189Y-128542282D01*
X168826189Y-128542282D02*
X168873808Y-128589901D01*
X169254761Y-129208948D02*
X169730951Y-129208948D01*
X169159523Y-129494663D02*
X169492856Y-128494663D01*
X169492856Y-128494663D02*
X169826189Y-129494663D01*
X170159523Y-129494663D02*
X170159523Y-128494663D01*
X170159523Y-128494663D02*
X170730951Y-129494663D01*
X170730951Y-129494663D02*
X170730951Y-128494663D01*
X172159523Y-128494663D02*
X172349999Y-128494663D01*
X172349999Y-128494663D02*
X172445237Y-128542282D01*
X172445237Y-128542282D02*
X172540475Y-128637520D01*
X172540475Y-128637520D02*
X172588094Y-128827996D01*
X172588094Y-128827996D02*
X172588094Y-129161329D01*
X172588094Y-129161329D02*
X172540475Y-129351805D01*
X172540475Y-129351805D02*
X172445237Y-129447044D01*
X172445237Y-129447044D02*
X172349999Y-129494663D01*
X172349999Y-129494663D02*
X172159523Y-129494663D01*
X172159523Y-129494663D02*
X172064285Y-129447044D01*
X172064285Y-129447044D02*
X171969047Y-129351805D01*
X171969047Y-129351805D02*
X171921428Y-129161329D01*
X171921428Y-129161329D02*
X171921428Y-128827996D01*
X171921428Y-128827996D02*
X171969047Y-128637520D01*
X171969047Y-128637520D02*
X172064285Y-128542282D01*
X172064285Y-128542282D02*
X172159523Y-128494663D01*
X173445237Y-128827996D02*
X173445237Y-129494663D01*
X173016666Y-128827996D02*
X173016666Y-129351805D01*
X173016666Y-129351805D02*
X173064285Y-129447044D01*
X173064285Y-129447044D02*
X173159523Y-129494663D01*
X173159523Y-129494663D02*
X173302380Y-129494663D01*
X173302380Y-129494663D02*
X173397618Y-129447044D01*
X173397618Y-129447044D02*
X173445237Y-129399424D01*
X173778571Y-128827996D02*
X174159523Y-128827996D01*
X173921428Y-128494663D02*
X173921428Y-129351805D01*
X173921428Y-129351805D02*
X173969047Y-129447044D01*
X173969047Y-129447044D02*
X174064285Y-129494663D01*
X174064285Y-129494663D02*
X174159523Y-129494663D01*
X174492857Y-128827996D02*
X174492857Y-129827996D01*
X174492857Y-128875615D02*
X174588095Y-128827996D01*
X174588095Y-128827996D02*
X174778571Y-128827996D01*
X174778571Y-128827996D02*
X174873809Y-128875615D01*
X174873809Y-128875615D02*
X174921428Y-128923234D01*
X174921428Y-128923234D02*
X174969047Y-129018472D01*
X174969047Y-129018472D02*
X174969047Y-129304186D01*
X174969047Y-129304186D02*
X174921428Y-129399424D01*
X174921428Y-129399424D02*
X174873809Y-129447044D01*
X174873809Y-129447044D02*
X174778571Y-129494663D01*
X174778571Y-129494663D02*
X174588095Y-129494663D01*
X174588095Y-129494663D02*
X174492857Y-129447044D01*
X175826190Y-128827996D02*
X175826190Y-129494663D01*
X175397619Y-128827996D02*
X175397619Y-129351805D01*
X175397619Y-129351805D02*
X175445238Y-129447044D01*
X175445238Y-129447044D02*
X175540476Y-129494663D01*
X175540476Y-129494663D02*
X175683333Y-129494663D01*
X175683333Y-129494663D02*
X175778571Y-129447044D01*
X175778571Y-129447044D02*
X175826190Y-129399424D01*
X176159524Y-128827996D02*
X176540476Y-128827996D01*
X176302381Y-128494663D02*
X176302381Y-129351805D01*
X176302381Y-129351805D02*
X176350000Y-129447044D01*
X176350000Y-129447044D02*
X176445238Y-129494663D01*
X176445238Y-129494663D02*
X176540476Y-129494663D01*
X186061905Y-93654663D02*
X186061905Y-92654663D01*
X186061905Y-92654663D02*
X186300000Y-92654663D01*
X186300000Y-92654663D02*
X186442857Y-92702282D01*
X186442857Y-92702282D02*
X186538095Y-92797520D01*
X186538095Y-92797520D02*
X186585714Y-92892758D01*
X186585714Y-92892758D02*
X186633333Y-93083234D01*
X186633333Y-93083234D02*
X186633333Y-93226091D01*
X186633333Y-93226091D02*
X186585714Y-93416567D01*
X186585714Y-93416567D02*
X186538095Y-93511805D01*
X186538095Y-93511805D02*
X186442857Y-93607044D01*
X186442857Y-93607044D02*
X186300000Y-93654663D01*
X186300000Y-93654663D02*
X186061905Y-93654663D01*
X187490476Y-92654663D02*
X187300000Y-92654663D01*
X187300000Y-92654663D02*
X187204762Y-92702282D01*
X187204762Y-92702282D02*
X187157143Y-92749901D01*
X187157143Y-92749901D02*
X187061905Y-92892758D01*
X187061905Y-92892758D02*
X187014286Y-93083234D01*
X187014286Y-93083234D02*
X187014286Y-93464186D01*
X187014286Y-93464186D02*
X187061905Y-93559424D01*
X187061905Y-93559424D02*
X187109524Y-93607044D01*
X187109524Y-93607044D02*
X187204762Y-93654663D01*
X187204762Y-93654663D02*
X187395238Y-93654663D01*
X187395238Y-93654663D02*
X187490476Y-93607044D01*
X187490476Y-93607044D02*
X187538095Y-93559424D01*
X187538095Y-93559424D02*
X187585714Y-93464186D01*
X187585714Y-93464186D02*
X187585714Y-93226091D01*
X187585714Y-93226091D02*
X187538095Y-93130853D01*
X187538095Y-93130853D02*
X187490476Y-93083234D01*
X187490476Y-93083234D02*
X187395238Y-93035615D01*
X187395238Y-93035615D02*
X187204762Y-93035615D01*
X187204762Y-93035615D02*
X187109524Y-93083234D01*
X187109524Y-93083234D02*
X187061905Y-93130853D01*
X187061905Y-93130853D02*
X187014286Y-93226091D01*
X153016666Y-121954663D02*
X153016666Y-122668948D01*
X153016666Y-122668948D02*
X152969047Y-122811805D01*
X152969047Y-122811805D02*
X152873809Y-122907044D01*
X152873809Y-122907044D02*
X152730952Y-122954663D01*
X152730952Y-122954663D02*
X152635714Y-122954663D01*
X153397619Y-121954663D02*
X154016666Y-121954663D01*
X154016666Y-121954663D02*
X153683333Y-122335615D01*
X153683333Y-122335615D02*
X153826190Y-122335615D01*
X153826190Y-122335615D02*
X153921428Y-122383234D01*
X153921428Y-122383234D02*
X153969047Y-122430853D01*
X153969047Y-122430853D02*
X154016666Y-122526091D01*
X154016666Y-122526091D02*
X154016666Y-122764186D01*
X154016666Y-122764186D02*
X153969047Y-122859424D01*
X153969047Y-122859424D02*
X153921428Y-122907044D01*
X153921428Y-122907044D02*
X153826190Y-122954663D01*
X153826190Y-122954663D02*
X153540476Y-122954663D01*
X153540476Y-122954663D02*
X153445238Y-122907044D01*
X153445238Y-122907044D02*
X153397619Y-122859424D01*
X150445237Y-129399424D02*
X150397618Y-129447044D01*
X150397618Y-129447044D02*
X150254761Y-129494663D01*
X150254761Y-129494663D02*
X150159523Y-129494663D01*
X150159523Y-129494663D02*
X150016666Y-129447044D01*
X150016666Y-129447044D02*
X149921428Y-129351805D01*
X149921428Y-129351805D02*
X149873809Y-129256567D01*
X149873809Y-129256567D02*
X149826190Y-129066091D01*
X149826190Y-129066091D02*
X149826190Y-128923234D01*
X149826190Y-128923234D02*
X149873809Y-128732758D01*
X149873809Y-128732758D02*
X149921428Y-128637520D01*
X149921428Y-128637520D02*
X150016666Y-128542282D01*
X150016666Y-128542282D02*
X150159523Y-128494663D01*
X150159523Y-128494663D02*
X150254761Y-128494663D01*
X150254761Y-128494663D02*
X150397618Y-128542282D01*
X150397618Y-128542282D02*
X150445237Y-128589901D01*
X150826190Y-129208948D02*
X151302380Y-129208948D01*
X150730952Y-129494663D02*
X151064285Y-128494663D01*
X151064285Y-128494663D02*
X151397618Y-129494663D01*
X151730952Y-129494663D02*
X151730952Y-128494663D01*
X151730952Y-128494663D02*
X152302380Y-129494663D01*
X152302380Y-129494663D02*
X152302380Y-128494663D01*
X153540476Y-129494663D02*
X153540476Y-128494663D01*
X154016666Y-128827996D02*
X154016666Y-129494663D01*
X154016666Y-128923234D02*
X154064285Y-128875615D01*
X154064285Y-128875615D02*
X154159523Y-128827996D01*
X154159523Y-128827996D02*
X154302380Y-128827996D01*
X154302380Y-128827996D02*
X154397618Y-128875615D01*
X154397618Y-128875615D02*
X154445237Y-128970853D01*
X154445237Y-128970853D02*
X154445237Y-129494663D01*
X154921428Y-128827996D02*
X154921428Y-129827996D01*
X154921428Y-128875615D02*
X155016666Y-128827996D01*
X155016666Y-128827996D02*
X155207142Y-128827996D01*
X155207142Y-128827996D02*
X155302380Y-128875615D01*
X155302380Y-128875615D02*
X155349999Y-128923234D01*
X155349999Y-128923234D02*
X155397618Y-129018472D01*
X155397618Y-129018472D02*
X155397618Y-129304186D01*
X155397618Y-129304186D02*
X155349999Y-129399424D01*
X155349999Y-129399424D02*
X155302380Y-129447044D01*
X155302380Y-129447044D02*
X155207142Y-129494663D01*
X155207142Y-129494663D02*
X155016666Y-129494663D01*
X155016666Y-129494663D02*
X154921428Y-129447044D01*
X156254761Y-128827996D02*
X156254761Y-129494663D01*
X155826190Y-128827996D02*
X155826190Y-129351805D01*
X155826190Y-129351805D02*
X155873809Y-129447044D01*
X155873809Y-129447044D02*
X155969047Y-129494663D01*
X155969047Y-129494663D02*
X156111904Y-129494663D01*
X156111904Y-129494663D02*
X156207142Y-129447044D01*
X156207142Y-129447044D02*
X156254761Y-129399424D01*
X156588095Y-128827996D02*
X156969047Y-128827996D01*
X156730952Y-128494663D02*
X156730952Y-129351805D01*
X156730952Y-129351805D02*
X156778571Y-129447044D01*
X156778571Y-129447044D02*
X156873809Y-129494663D01*
X156873809Y-129494663D02*
X156969047Y-129494663D01*
X141295336Y-127380952D02*
X141295336Y-126809524D01*
X141295336Y-127095238D02*
X142295336Y-127095238D01*
X142295336Y-127095238D02*
X142152479Y-127000000D01*
X142152479Y-127000000D02*
X142057241Y-126904762D01*
X142057241Y-126904762D02*
X142009622Y-126809524D01*
X142200098Y-127761905D02*
X142247717Y-127809524D01*
X142247717Y-127809524D02*
X142295336Y-127904762D01*
X142295336Y-127904762D02*
X142295336Y-128142857D01*
X142295336Y-128142857D02*
X142247717Y-128238095D01*
X142247717Y-128238095D02*
X142200098Y-128285714D01*
X142200098Y-128285714D02*
X142104860Y-128333333D01*
X142104860Y-128333333D02*
X142009622Y-128333333D01*
X142009622Y-128333333D02*
X141866765Y-128285714D01*
X141866765Y-128285714D02*
X141295336Y-127714286D01*
X141295336Y-127714286D02*
X141295336Y-128333333D01*
X142295336Y-128619048D02*
X141295336Y-128952381D01*
X141295336Y-128952381D02*
X142295336Y-129285714D01*
D11*
%TO.C,U4*%
X176187260Y-92037260D02*
X176187260Y-92037260D01*
X176187260Y-92137260D02*
X176187260Y-92137260D01*
X177737260Y-91437260D02*
X177737260Y-90437260D01*
X177737260Y-101037260D02*
X177737260Y-101937260D01*
X177737260Y-101937260D02*
X181937260Y-101937260D01*
X177787260Y-90537260D02*
X181837260Y-90537260D01*
X181837260Y-90537260D02*
X181837260Y-91437260D01*
X176187260Y-92037260D02*
G75*
G02*
X176187260Y-92137260I0J-50000D01*
G01*
X176187260Y-92137260D02*
G75*
G02*
X176187260Y-92037260I0J50000D01*
G01*
D12*
%TO.C,J1*%
X188250000Y-72900000D02*
X193150000Y-72900000D01*
X188250000Y-75900000D02*
X188250000Y-72900000D01*
X188250000Y-87900000D02*
X189250000Y-87900000D01*
X188250000Y-90900000D02*
X188250000Y-87900000D01*
X189250000Y-75900000D02*
X188250000Y-75900000D01*
X189250000Y-87900000D02*
X189250000Y-75900000D01*
X193150000Y-72900000D02*
X193150000Y-90900000D01*
X193150000Y-90900000D02*
X188250000Y-90900000D01*
D13*
%TO.C,D3*%
X184040000Y-96100000D02*
X184040000Y-96900000D01*
X185400000Y-96100000D02*
X184040000Y-96100000D01*
X185400000Y-96900000D02*
X184040000Y-96900000D01*
%TO.C,TP3*%
X184170000Y-107080000D02*
X184170000Y-105750000D01*
X185500000Y-107080000D02*
X184170000Y-107080000D01*
X186770000Y-104420000D02*
X186830000Y-104420000D01*
X186770000Y-107080000D02*
X186770000Y-104420000D01*
X186770000Y-107080000D02*
X186830000Y-107080000D01*
X186830000Y-107080000D02*
X186830000Y-104420000D01*
%TO.C,D2*%
X140790000Y-82250000D02*
X140790000Y-84935000D01*
X140790000Y-84935000D02*
X142710000Y-84935000D01*
X142710000Y-84935000D02*
X142710000Y-82250000D01*
%TO.C,TP8*%
X184170000Y-73920000D02*
X185500000Y-73920000D01*
X184170000Y-75250000D02*
X184170000Y-73920000D01*
X184170000Y-76520000D02*
X184170000Y-76580000D01*
X184170000Y-76520000D02*
X186830000Y-76520000D01*
X184170000Y-76580000D02*
X186830000Y-76580000D01*
X186830000Y-76520000D02*
X186830000Y-76580000D01*
%TO.C,TP9*%
X184170000Y-77920000D02*
X185500000Y-77920000D01*
X184170000Y-79250000D02*
X184170000Y-77920000D01*
X184170000Y-80520000D02*
X184170000Y-80580000D01*
X184170000Y-80520000D02*
X186830000Y-80520000D01*
X184170000Y-80580000D02*
X186830000Y-80580000D01*
X186830000Y-80520000D02*
X186830000Y-80580000D01*
D12*
%TO.C,J4*%
X188250000Y-108500000D02*
X193150000Y-108500000D01*
X188250000Y-111500000D02*
X188250000Y-108500000D01*
X188250000Y-123500000D02*
X189250000Y-123500000D01*
X188250000Y-126500000D02*
X188250000Y-123500000D01*
X189250000Y-111500000D02*
X188250000Y-111500000D01*
X189250000Y-123500000D02*
X189250000Y-111500000D01*
X193150000Y-108500000D02*
X193150000Y-126500000D01*
X193150000Y-126500000D02*
X188250000Y-126500000D01*
D13*
%TO.C,TP6*%
X184170000Y-114920000D02*
X185500000Y-114920000D01*
X184170000Y-116250000D02*
X184170000Y-114920000D01*
X184170000Y-117520000D02*
X184170000Y-117580000D01*
X184170000Y-117520000D02*
X186830000Y-117520000D01*
X184170000Y-117580000D02*
X186830000Y-117580000D01*
X186830000Y-117520000D02*
X186830000Y-117580000D01*
%TO.C,D4*%
X184060000Y-97300000D02*
X184060000Y-98100000D01*
X185420000Y-97300000D02*
X184060000Y-97300000D01*
X185420000Y-98100000D02*
X184060000Y-98100000D01*
%TO.C,F2*%
X186490000Y-85437221D02*
X186490000Y-85762779D01*
X187510000Y-85437221D02*
X187510000Y-85762779D01*
%TO.C,D5*%
X184020000Y-94100000D02*
X184020000Y-94900000D01*
X185380000Y-94100000D02*
X184020000Y-94100000D01*
X185380000Y-94900000D02*
X184020000Y-94900000D01*
%TO.C,TP7*%
X184170000Y-109670000D02*
X185500000Y-109670000D01*
X184170000Y-111000000D02*
X184170000Y-109670000D01*
X184170000Y-112270000D02*
X184170000Y-112330000D01*
X184170000Y-112270000D02*
X186830000Y-112270000D01*
X184170000Y-112330000D02*
X186830000Y-112330000D01*
X186830000Y-112270000D02*
X186830000Y-112330000D01*
D12*
%TO.C,J5*%
X188250000Y-92500000D02*
X193150000Y-92500000D01*
X188250000Y-95500000D02*
X188250000Y-92500000D01*
X188250000Y-104500000D02*
X189250000Y-104500000D01*
X188250000Y-107500000D02*
X188250000Y-104500000D01*
X189250000Y-95500000D02*
X188250000Y-95500000D01*
X189250000Y-104500000D02*
X189250000Y-95500000D01*
X193150000Y-92500000D02*
X193150000Y-107500000D01*
X193150000Y-107500000D02*
X188250000Y-107500000D01*
%TO.C,J2*%
X163350000Y-123000000D02*
X166350000Y-123000000D01*
X163350000Y-127900000D02*
X163350000Y-123000000D01*
X166350000Y-123000000D02*
X166350000Y-124000000D01*
X166350000Y-124000000D02*
X178350000Y-124000000D01*
X178350000Y-123000000D02*
X181350000Y-123000000D01*
X178350000Y-124000000D02*
X178350000Y-123000000D01*
X181350000Y-123000000D02*
X181350000Y-127900000D01*
X181350000Y-127900000D02*
X163350000Y-127900000D01*
D13*
%TO.C,D6*%
X184040000Y-92900000D02*
X184040000Y-93700000D01*
X185400000Y-92900000D02*
X184040000Y-92900000D01*
X185400000Y-93700000D02*
X184040000Y-93700000D01*
D12*
%TO.C,J3*%
X144350000Y-123000000D02*
X147350000Y-123000000D01*
X144350000Y-127900000D02*
X144350000Y-123000000D01*
X147350000Y-123000000D02*
X147350000Y-124000000D01*
X147350000Y-124000000D02*
X159350000Y-124000000D01*
X159350000Y-123000000D02*
X162350000Y-123000000D01*
X159350000Y-124000000D02*
X159350000Y-123000000D01*
X162350000Y-123000000D02*
X162350000Y-127900000D01*
X162350000Y-127900000D02*
X144350000Y-127900000D01*
D13*
%TO.C,D1*%
X140790000Y-123562500D02*
X140790000Y-126247500D01*
X140790000Y-126247500D02*
X142710000Y-126247500D01*
X142710000Y-126247500D02*
X142710000Y-123562500D01*
%TD*%
M02*
