%TF.GenerationSoftware,KiCad,Pcbnew,8.0.5*%
%TF.CreationDate,2024-10-30T11:13:14-05:00*%
%TF.ProjectId,DataAcq-EnvironmentBoard,44617461-4163-4712-9d45-6e7669726f6e,rev?*%
%TF.SameCoordinates,Original*%
%TF.FileFunction,Copper,L1,Top*%
%TF.FilePolarity,Positive*%
%FSLAX46Y46*%
G04 Gerber Fmt 4.6, Leading zero omitted, Abs format (unit mm)*
G04 Created by KiCad (PCBNEW 8.0.5) date 2024-10-30 11:13:14*
%MOMM*%
%LPD*%
G01*
G04 APERTURE LIST*
G04 Aperture macros list*
%AMRoundRect*
0 Rectangle with rounded corners*
0 $1 Rounding radius*
0 $2 $3 $4 $5 $6 $7 $8 $9 X,Y pos of 4 corners*
0 Add a 4 corners polygon primitive as box body*
4,1,4,$2,$3,$4,$5,$6,$7,$8,$9,$2,$3,0*
0 Add four circle primitives for the rounded corners*
1,1,$1+$1,$2,$3*
1,1,$1+$1,$4,$5*
1,1,$1+$1,$6,$7*
1,1,$1+$1,$8,$9*
0 Add four rect primitives between the rounded corners*
20,1,$1+$1,$2,$3,$4,$5,0*
20,1,$1+$1,$4,$5,$6,$7,0*
20,1,$1+$1,$6,$7,$8,$9,0*
20,1,$1+$1,$8,$9,$2,$3,0*%
%AMFreePoly0*
4,1,7,1.500000,0.866025,1.500000,-0.866025,0.000000,-1.732051,-1.500000,-0.866025,-1.500000,0.866025,0.000000,1.732051,1.500000,0.866025,1.500000,0.866025,$1*%
G04 Aperture macros list end*
%TA.AperFunction,SMDPad,CuDef*%
%ADD10R,1.800000X0.550000*%
%TD*%
%TA.AperFunction,ComponentPad*%
%ADD11C,1.700000*%
%TD*%
%TA.AperFunction,SMDPad,CuDef*%
%ADD12RoundRect,0.062500X0.117500X0.062500X-0.117500X0.062500X-0.117500X-0.062500X0.117500X-0.062500X0*%
%TD*%
%TA.AperFunction,ComponentPad*%
%ADD13R,1.700000X1.700000*%
%TD*%
%TA.AperFunction,SMDPad,CuDef*%
%ADD14RoundRect,0.243750X0.456250X-0.243750X0.456250X0.243750X-0.456250X0.243750X-0.456250X-0.243750X0*%
%TD*%
%TA.AperFunction,ConnectorPad*%
%ADD15FreePoly0,270.000000*%
%TD*%
%TA.AperFunction,SMDPad,CuDef*%
%ADD16RoundRect,0.218750X-0.256250X0.218750X-0.256250X-0.218750X0.256250X-0.218750X0.256250X0.218750X0*%
%TD*%
%TA.AperFunction,ConnectorPad*%
%ADD17FreePoly0,90.000000*%
%TD*%
%TA.AperFunction,ViaPad*%
%ADD18C,0.600000*%
%TD*%
%TA.AperFunction,ViaPad*%
%ADD19C,0.500000*%
%TD*%
%TA.AperFunction,Conductor*%
%ADD20C,0.350000*%
%TD*%
%TA.AperFunction,Conductor*%
%ADD21C,0.200000*%
%TD*%
%TA.AperFunction,Conductor*%
%ADD22C,0.500000*%
%TD*%
G04 APERTURE END LIST*
D10*
%TO.P,U4,1,SPI2_MOSI*%
%TO.N,unconnected-(U4-SPI2_MOSI-Pad1)*%
X177637260Y-91837260D03*
%TO.P,U4,2,+3.3V*%
%TO.N,+3.3V*%
X181937260Y-91837260D03*
%TO.P,U4,3,SPI2_MISO*%
%TO.N,unconnected-(U4-SPI2_MISO-Pad3)*%
X177637260Y-92637260D03*
%TO.P,U4,4,GND*%
%TO.N,GND*%
X181937260Y-92637260D03*
%TO.P,U4,5,SPI2_SCK*%
%TO.N,unconnected-(U4-SPI2_SCK-Pad5)*%
X177637260Y-93437260D03*
%TO.P,U4,6,I2C2_SDA*%
%TO.N,/I2C2_SDA*%
X181937260Y-93437260D03*
%TO.P,U4,7,SPI2_NSS*%
%TO.N,unconnected-(U4-SPI2_NSS-Pad7)*%
X177637260Y-94237260D03*
%TO.P,U4,8,I2C2_SCL*%
%TO.N,/I2C2_SCL*%
X181937260Y-94237260D03*
%TO.P,U4,9,+3.3V*%
%TO.N,+3.3V*%
X177637260Y-95037260D03*
%TO.P,U4,10,VDDA(3.3V)*%
%TO.N,VDDA*%
X181937260Y-95037260D03*
%TO.P,U4,11,GND*%
%TO.N,GND*%
X177637260Y-95837260D03*
%TO.P,U4,12,GNDA*%
%TO.N,GNDA*%
X181937260Y-95837260D03*
%TO.P,U4,13,SPI1_SCK*%
%TO.N,unconnected-(U4-SPI1_SCK-Pad13)*%
X177637260Y-96637260D03*
%TO.P,U4,14,I2C1_SCL*%
%TO.N,/I2C1_SCL*%
X181937260Y-96637260D03*
%TO.P,U4,15,SPI1_MISO*%
%TO.N,unconnected-(U4-SPI1_MISO-Pad15)*%
X177637260Y-97437260D03*
%TO.P,U4,16,I2C1_SDA*%
%TO.N,/I2C1_SDA*%
X181937260Y-97437260D03*
%TO.P,U4,17,SPI1_MOSI*%
%TO.N,unconnected-(U4-SPI1_MOSI-Pad17)*%
X177637260Y-98237260D03*
%TO.P,U4,18,PA2(ADC)*%
%TO.N,unconnected-(U4-PA2(ADC)-Pad18)*%
X181937260Y-98237260D03*
%TO.P,U4,19,SPI1_NSS*%
%TO.N,unconnected-(U4-SPI1_NSS-Pad19)*%
X177637260Y-99037260D03*
%TO.P,U4,20,PA1(ADC)*%
%TO.N,/PA1(ADC)*%
X181937260Y-99037260D03*
%TO.P,U4,21,CAN_L*%
%TO.N,/CAN_L*%
X177637260Y-99837260D03*
%TO.P,U4,22,+12V_In*%
%TO.N,+12V_In*%
X181937260Y-99837260D03*
%TO.P,U4,23,CAN_H*%
%TO.N,/CAN_H*%
X177637260Y-100637260D03*
%TO.P,U4,24,GNDPWR*%
%TO.N,GNDPWR*%
X181937260Y-100637260D03*
%TD*%
D11*
%TO.P,J1,1,Pin_1*%
%TO.N,Net-(J1-Pin_1)*%
X191250000Y-86400000D03*
%TO.P,J1,2,Pin_2*%
%TO.N,/I2C2_SCL*%
X191250000Y-83400000D03*
%TO.P,J1,3,Pin_3*%
%TO.N,/I2C2_SDA*%
X191250000Y-80400000D03*
%TO.P,J1,4,Pin_4*%
%TO.N,GND*%
X191250000Y-77400000D03*
%TD*%
D12*
%TO.P,D3,1,A1*%
%TO.N,/I2C1_SCL*%
X184480000Y-96500000D03*
%TO.P,D3,2,A2*%
%TO.N,GND*%
X185320000Y-96500000D03*
%TD*%
D13*
%TO.P,TP3,1,1*%
%TO.N,/PA1(ADC)*%
X185500000Y-105750000D03*
%TD*%
D14*
%TO.P,D2,1,K*%
%TO.N,GND*%
X141750000Y-84187500D03*
%TO.P,D2,2,A*%
%TO.N,Net-(D2-A)*%
X141750000Y-82312500D03*
%TD*%
D15*
%TO.P,TP2,1,1*%
%TO.N,GNDPWR*%
X183600000Y-122250000D03*
%TD*%
D13*
%TO.P,TP8,1,1*%
%TO.N,/I2C2_SDA*%
X185500000Y-75250000D03*
%TD*%
%TO.P,TP9,1,1*%
%TO.N,/I2C2_SCL*%
X185500000Y-79250000D03*
%TD*%
D11*
%TO.P,J4,1,Pin_1*%
%TO.N,Net-(J4-Pin_1)*%
X191250000Y-122000000D03*
%TO.P,J4,2,Pin_2*%
%TO.N,/I2C1_SDA*%
X191250000Y-119000000D03*
%TO.P,J4,3,Pin_3*%
%TO.N,/I2C1_SCL*%
X191250000Y-116000000D03*
%TO.P,J4,4,Pin_4*%
%TO.N,GND*%
X191250000Y-113000000D03*
%TD*%
D13*
%TO.P,TP6,1,1*%
%TO.N,/I2C1_SDA*%
X185500000Y-116250000D03*
%TD*%
D12*
%TO.P,D4,1,A1*%
%TO.N,/I2C1_SDA*%
X184500000Y-97700000D03*
%TO.P,D4,2,A2*%
%TO.N,GND*%
X185340000Y-97700000D03*
%TD*%
D16*
%TO.P,F2,1*%
%TO.N,+3.3V*%
X187000000Y-84812500D03*
%TO.P,F2,2*%
%TO.N,Net-(J1-Pin_1)*%
X187000000Y-86387500D03*
%TD*%
D15*
%TO.P,TP5,1,1*%
%TO.N,GND*%
X142600000Y-108850000D03*
%TD*%
D12*
%TO.P,D5,1,A1*%
%TO.N,/I2C2_SCL*%
X184460000Y-94500000D03*
%TO.P,D5,2,A2*%
%TO.N,GND*%
X185300000Y-94500000D03*
%TD*%
D13*
%TO.P,TP7,1,1*%
%TO.N,/I2C1_SCL*%
X185500000Y-111000000D03*
%TD*%
D11*
%TO.P,J5,1,Pin_1*%
%TO.N,Net-(J5-Pin_1)*%
X191250000Y-103000000D03*
%TO.P,J5,2,Pin_2*%
%TO.N,/PA1(ADC)*%
X191250000Y-100000000D03*
%TO.P,J5,3,Pin_3*%
%TO.N,GNDA*%
X191250000Y-97000000D03*
%TD*%
%TO.P,J2,1,12V*%
%TO.N,+12V_In*%
X167850000Y-126000000D03*
%TO.P,J2,2,GNDPWR*%
%TO.N,GNDPWR*%
X170850000Y-126000000D03*
%TO.P,J2,3,CAN_H*%
%TO.N,/CAN_H*%
X173850000Y-126000000D03*
%TO.P,J2,4,CAN_L*%
%TO.N,/CAN_L*%
X176850000Y-126000000D03*
%TD*%
D15*
%TO.P,TP1,1,1*%
%TO.N,+12V_In*%
X183600000Y-126000000D03*
%TD*%
D12*
%TO.P,D6,1,A1*%
%TO.N,/I2C2_SDA*%
X184480000Y-93300000D03*
%TO.P,D6,2,A2*%
%TO.N,GND*%
X185320000Y-93300000D03*
%TD*%
D11*
%TO.P,J3,1,12V*%
%TO.N,+12V_In*%
X148850000Y-126000000D03*
%TO.P,J3,2,GNDPWR*%
%TO.N,GNDPWR*%
X151850000Y-126000000D03*
%TO.P,J3,3,CAN_H*%
%TO.N,/CAN_H*%
X154850000Y-126000000D03*
%TO.P,J3,4,CAN_L*%
%TO.N,/CAN_L*%
X157850000Y-126000000D03*
%TD*%
D14*
%TO.P,D1,1,K*%
%TO.N,GNDPWR*%
X141750000Y-125500000D03*
%TO.P,D1,2,A*%
%TO.N,Net-(D1-A)*%
X141750000Y-123625000D03*
%TD*%
D17*
%TO.P,TP4,1,1*%
%TO.N,+3.3V*%
X142600000Y-112600000D03*
%TD*%
D18*
%TO.N,+3.3V*%
X141750000Y-78611370D03*
X187750000Y-120412500D03*
D19*
%TO.N,/I2C1_SDA*%
X181937260Y-97437260D03*
X183687260Y-97700000D03*
D18*
%TO.N,GND*%
X186500000Y-97750000D03*
X142600000Y-108850000D03*
X186500000Y-93250000D03*
X185000000Y-92200000D03*
X176000000Y-96000000D03*
X141750000Y-84187500D03*
X186500000Y-94500000D03*
D19*
%TO.N,/I2C2_SCL*%
X181937260Y-94237260D03*
%TO.N,/I2C2_SDA*%
X181872918Y-93372918D03*
D18*
%TO.N,VDDA*%
X186000000Y-101412500D03*
%TO.N,GNDA*%
X185800000Y-95750000D03*
%TO.N,GNDPWR*%
X141750000Y-125500000D03*
X181600000Y-102000000D03*
X183600000Y-122250000D03*
D19*
%TO.N,/PA1(ADC)*%
X181937260Y-99037260D03*
D18*
%TO.N,+12V_In*%
X141750000Y-119963870D03*
%TO.N,Net-(D1-A)*%
X141750000Y-121812500D03*
%TO.N,Net-(D2-A)*%
X141750000Y-80562500D03*
%TD*%
D20*
%TO.N,+3.3V*%
X176275000Y-95025000D02*
X176000000Y-94750000D01*
X177675000Y-95025000D02*
X176275000Y-95025000D01*
D21*
%TO.N,/I2C1_SCL*%
X183137260Y-97927818D02*
X183137260Y-96637260D01*
X182074520Y-96500000D02*
X181937260Y-96637260D01*
X184000000Y-109500000D02*
X184000000Y-98790558D01*
X184480000Y-96500000D02*
X183000000Y-96500000D01*
X185500000Y-111000000D02*
X184000000Y-109500000D01*
X183137260Y-96637260D02*
X183000000Y-96500000D01*
X183000000Y-96500000D02*
X182074520Y-96500000D01*
X184000000Y-98790558D02*
X183137260Y-97927818D01*
%TO.N,/I2C1_SDA*%
X183687260Y-97700000D02*
X184500000Y-97700000D01*
D20*
%TO.N,GND*%
X184575000Y-92625000D02*
X181975000Y-92625000D01*
X177675000Y-95825000D02*
X176175000Y-95825000D01*
X186450000Y-97700000D02*
X186500000Y-97750000D01*
X185320000Y-93300000D02*
X186450000Y-93300000D01*
X185340000Y-97700000D02*
X186450000Y-97700000D01*
X186450000Y-93300000D02*
X186500000Y-93250000D01*
X176175000Y-95825000D02*
X176000000Y-96000000D01*
X185000000Y-92200000D02*
X184575000Y-92625000D01*
X185320000Y-96500000D02*
X185320000Y-97680000D01*
X185320000Y-97680000D02*
X185340000Y-97700000D01*
X185300000Y-94500000D02*
X186500000Y-94500000D01*
D21*
%TO.N,/I2C2_SCL*%
X185500000Y-79250000D02*
X188050000Y-79250000D01*
X184197260Y-94237260D02*
X181937260Y-94237260D01*
X184460000Y-94500000D02*
X184197260Y-94237260D01*
X188050000Y-79250000D02*
X191250000Y-82450000D01*
X191250000Y-82450000D02*
X191250000Y-83400000D01*
%TO.N,/I2C2_SDA*%
X185500000Y-75250000D02*
X185500000Y-76134314D01*
X185500000Y-76134314D02*
X189765686Y-80400000D01*
X184480000Y-93300000D02*
X182074520Y-93300000D01*
X182074520Y-93300000D02*
X181937260Y-93437260D01*
X189765686Y-80400000D02*
X191250000Y-80400000D01*
%TO.N,VDDA*%
X187100000Y-96100000D02*
X186037260Y-95037260D01*
X186000000Y-101412500D02*
X187100000Y-100312500D01*
X187100000Y-100312500D02*
X187100000Y-96100000D01*
X186037260Y-95037260D02*
X181937260Y-95037260D01*
%TO.N,GNDA*%
X182024520Y-95750000D02*
X181937260Y-95837260D01*
X185800000Y-95750000D02*
X182024520Y-95750000D01*
%TO.N,/CAN_H*%
X173850000Y-106084314D02*
X173850000Y-121500000D01*
X157850000Y-123000000D02*
X172350000Y-123000000D01*
X177675000Y-100625000D02*
X177675000Y-102259314D01*
X177675000Y-102259314D02*
X173850000Y-106084314D01*
X173850000Y-121500000D02*
X173850000Y-126000000D01*
X172350000Y-123000000D02*
X173850000Y-121500000D01*
X154850000Y-126000000D02*
X157850000Y-123000000D01*
D22*
%TO.N,GNDPWR*%
X181600000Y-102000000D02*
X181975000Y-101625000D01*
X181975000Y-101625000D02*
X181975000Y-100625000D01*
D21*
%TO.N,/CAN_L*%
X178775000Y-99937260D02*
X178900000Y-100062260D01*
X178900000Y-100062260D02*
X178900000Y-101600000D01*
X177675000Y-99825000D02*
X177787260Y-99937260D01*
X177787260Y-99937260D02*
X178775000Y-99937260D01*
X174250000Y-123400000D02*
X176850000Y-126000000D01*
X174250000Y-106250000D02*
X174250000Y-123400000D01*
X178900000Y-101600000D02*
X174250000Y-106250000D01*
D22*
%TO.N,+12V_In*%
X180674520Y-99825000D02*
X180000000Y-100499520D01*
X180000000Y-100499520D02*
X180000000Y-101200000D01*
X181975000Y-99825000D02*
X180674520Y-99825000D01*
D21*
%TO.N,Net-(D1-A)*%
X141750000Y-121812500D02*
X141750000Y-123625000D01*
%TO.N,Net-(D2-A)*%
X141750000Y-82312500D02*
X141750000Y-80562500D01*
%TO.N,Net-(J1-Pin_1)*%
X187012500Y-86400000D02*
X187000000Y-86387500D01*
X191250000Y-86400000D02*
X187012500Y-86400000D01*
%TD*%
%TA.AperFunction,Conductor*%
%TO.N,+12V_In*%
G36*
X180536760Y-99360129D02*
G01*
X180536761Y-99360136D01*
X180543879Y-99426352D01*
X180543879Y-99452859D01*
X180537260Y-99514429D01*
X180537260Y-99587260D01*
X180555851Y-99587260D01*
X180622890Y-99606945D01*
X180655115Y-99636946D01*
X180679714Y-99669806D01*
X180679715Y-99669806D01*
X180679716Y-99669808D01*
X180770800Y-99737994D01*
X180812671Y-99793928D01*
X180817655Y-99863619D01*
X180784169Y-99924942D01*
X180770800Y-99936526D01*
X180679716Y-100004711D01*
X180679714Y-100004714D01*
X180655116Y-100037572D01*
X180599184Y-100079442D01*
X180555851Y-100087260D01*
X180537260Y-100087260D01*
X180537260Y-100160104D01*
X180543879Y-100221658D01*
X180543880Y-100248169D01*
X180543169Y-100254774D01*
X180543169Y-100254777D01*
X180536760Y-100314387D01*
X180536760Y-100314393D01*
X180536760Y-100314395D01*
X180536760Y-100960130D01*
X180536761Y-100960136D01*
X180543168Y-101019743D01*
X180593462Y-101154588D01*
X180593466Y-101154595D01*
X180679712Y-101269804D01*
X180679715Y-101269807D01*
X180794924Y-101356053D01*
X180794933Y-101356058D01*
X180866352Y-101382695D01*
X180922286Y-101424565D01*
X180946704Y-101490029D01*
X180931853Y-101558302D01*
X180928014Y-101564848D01*
X180874212Y-101650474D01*
X180814631Y-101820745D01*
X180814630Y-101820750D01*
X180794435Y-101999996D01*
X180794435Y-102000003D01*
X180814630Y-102179249D01*
X180814631Y-102179254D01*
X180874211Y-102349523D01*
X180970184Y-102502262D01*
X181097738Y-102629816D01*
X181250478Y-102725789D01*
X181420745Y-102785368D01*
X181420750Y-102785369D01*
X181599996Y-102805565D01*
X181600000Y-102805565D01*
X181600004Y-102805565D01*
X181779249Y-102785369D01*
X181779252Y-102785368D01*
X181779255Y-102785368D01*
X181949522Y-102725789D01*
X182102262Y-102629816D01*
X182229816Y-102502262D01*
X182325789Y-102349522D01*
X182325792Y-102349510D01*
X182328810Y-102343248D01*
X182330650Y-102344134D01*
X182353303Y-102308063D01*
X182557951Y-102103416D01*
X182640084Y-101980495D01*
X182696658Y-101843913D01*
X182725500Y-101698918D01*
X182725500Y-101536759D01*
X182745185Y-101469720D01*
X182797989Y-101423965D01*
X182849500Y-101412759D01*
X182885131Y-101412759D01*
X182885132Y-101412759D01*
X182944743Y-101406351D01*
X183079591Y-101356056D01*
X183194806Y-101269806D01*
X183194805Y-101269806D01*
X183201189Y-101265028D01*
X183266653Y-101240610D01*
X183334926Y-101255461D01*
X183384332Y-101304866D01*
X183399500Y-101364294D01*
X183399500Y-109413330D01*
X183399499Y-109413348D01*
X183399499Y-109579054D01*
X183399498Y-109579054D01*
X183440423Y-109731785D01*
X183469358Y-109781900D01*
X183469359Y-109781904D01*
X183469360Y-109781904D01*
X183519479Y-109868714D01*
X183519481Y-109868717D01*
X183638349Y-109987585D01*
X183638355Y-109987590D01*
X184113181Y-110462416D01*
X184146666Y-110523739D01*
X184149500Y-110550097D01*
X184149500Y-111897870D01*
X184149501Y-111897876D01*
X184155908Y-111957483D01*
X184206202Y-112092328D01*
X184206206Y-112092335D01*
X184292452Y-112207544D01*
X184292455Y-112207547D01*
X184407664Y-112293793D01*
X184407671Y-112293797D01*
X184542517Y-112344091D01*
X184542516Y-112344091D01*
X184549444Y-112344835D01*
X184602127Y-112350500D01*
X185750000Y-112350499D01*
X185750000Y-114899500D01*
X184602129Y-114899500D01*
X184602123Y-114899501D01*
X184542516Y-114905908D01*
X184407671Y-114956202D01*
X184407664Y-114956206D01*
X184292455Y-115042452D01*
X184292452Y-115042455D01*
X184206206Y-115157664D01*
X184206202Y-115157671D01*
X184155908Y-115292517D01*
X184149501Y-115352116D01*
X184149500Y-115352135D01*
X184149500Y-117147870D01*
X184149501Y-117147876D01*
X184155908Y-117207483D01*
X184206202Y-117342328D01*
X184206206Y-117342335D01*
X184292452Y-117457544D01*
X184292455Y-117457547D01*
X184407664Y-117543793D01*
X184407671Y-117543797D01*
X184542517Y-117594091D01*
X184542516Y-117594091D01*
X184549444Y-117594835D01*
X184602127Y-117600500D01*
X185750000Y-117600499D01*
X185750000Y-121962908D01*
X185351503Y-121272694D01*
X185349835Y-121269711D01*
X185304626Y-121186171D01*
X185280051Y-121148559D01*
X185276470Y-121142734D01*
X184903802Y-120497252D01*
X184903800Y-120497249D01*
X184848056Y-120418968D01*
X184739319Y-120324746D01*
X184739315Y-120324744D01*
X184608444Y-120264976D01*
X184608439Y-120264975D01*
X184466025Y-120244500D01*
X183688068Y-120244500D01*
X183677829Y-120244076D01*
X183673596Y-120243725D01*
X183641752Y-120241086D01*
X183641744Y-120241086D01*
X183558256Y-120241086D01*
X183558247Y-120241086D01*
X183525982Y-120243760D01*
X183522170Y-120244076D01*
X183511932Y-120244500D01*
X182733975Y-120244500D01*
X182638308Y-120253635D01*
X182638305Y-120253635D01*
X182638305Y-120253636D01*
X182502340Y-120300694D01*
X182502339Y-120300694D01*
X182385140Y-120384153D01*
X182385138Y-120384155D01*
X182296200Y-120497247D01*
X182296199Y-120497249D01*
X181923525Y-121142739D01*
X181919947Y-121148560D01*
X181895366Y-121186184D01*
X181850171Y-121269699D01*
X181848503Y-121272682D01*
X181430174Y-121997247D01*
X181430172Y-121997250D01*
X181390253Y-122084661D01*
X181390250Y-122084670D01*
X181363022Y-122225943D01*
X181363021Y-122225948D01*
X181376697Y-122369176D01*
X181430171Y-122502746D01*
X181430172Y-122502749D01*
X181848511Y-123227331D01*
X181850158Y-123230277D01*
X181895370Y-123313822D01*
X181895372Y-123313825D01*
X181919948Y-123351440D01*
X181923528Y-123357264D01*
X182161079Y-123768716D01*
X182296199Y-124002750D01*
X182334026Y-124055870D01*
X182356877Y-124121893D01*
X182340406Y-124189794D01*
X182330489Y-124204446D01*
X182296636Y-124247494D01*
X182296628Y-124247504D01*
X182261647Y-124308093D01*
X182261647Y-124308094D01*
X182703553Y-124750000D01*
X180388468Y-124750000D01*
X180417023Y-124730920D01*
X180540920Y-124607023D01*
X180638265Y-124461336D01*
X180705317Y-124299458D01*
X180739500Y-124127608D01*
X180739500Y-123952392D01*
X180705317Y-123780542D01*
X180643700Y-123631785D01*
X180638268Y-123618670D01*
X180638261Y-123618657D01*
X180540920Y-123472977D01*
X180540917Y-123472973D01*
X180417026Y-123349082D01*
X180417022Y-123349079D01*
X180271342Y-123251738D01*
X180271329Y-123251731D01*
X180109462Y-123184684D01*
X180109450Y-123184681D01*
X179937612Y-123150500D01*
X179937608Y-123150500D01*
X179762392Y-123150500D01*
X179762387Y-123150500D01*
X179590549Y-123184681D01*
X179590537Y-123184684D01*
X179428670Y-123251731D01*
X179428657Y-123251738D01*
X179282977Y-123349079D01*
X179282973Y-123349082D01*
X179159082Y-123472973D01*
X179159079Y-123472977D01*
X179061738Y-123618657D01*
X179061731Y-123618670D01*
X178994684Y-123780537D01*
X178994681Y-123780549D01*
X178960500Y-123952387D01*
X178960500Y-124127612D01*
X178994681Y-124299450D01*
X178994684Y-124299462D01*
X179061731Y-124461329D01*
X179061738Y-124461342D01*
X179159079Y-124607022D01*
X179159082Y-124607026D01*
X179282973Y-124730917D01*
X179282977Y-124730920D01*
X179311532Y-124750000D01*
X177364923Y-124750000D01*
X177313663Y-124726097D01*
X177313659Y-124726096D01*
X177313655Y-124726094D01*
X177085413Y-124664938D01*
X177085403Y-124664936D01*
X176850001Y-124644341D01*
X176849999Y-124644341D01*
X176614596Y-124664936D01*
X176614583Y-124664939D01*
X176486241Y-124699327D01*
X176416392Y-124697664D01*
X176366468Y-124667233D01*
X175000000Y-123300765D01*
X175000000Y-117885010D01*
X177745500Y-117885010D01*
X177745500Y-118114989D01*
X177745501Y-118115005D01*
X177775518Y-118343009D01*
X177775519Y-118343014D01*
X177775520Y-118343020D01*
X177775521Y-118343022D01*
X177835046Y-118565175D01*
X177835049Y-118565185D01*
X177923057Y-118777654D01*
X177923061Y-118777664D01*
X178038055Y-118976839D01*
X178178064Y-119159303D01*
X178178070Y-119159310D01*
X178340689Y-119321929D01*
X178340696Y-119321935D01*
X178523160Y-119461944D01*
X178722335Y-119576938D01*
X178722336Y-119576938D01*
X178722339Y-119576940D01*
X178934824Y-119664954D01*
X179156980Y-119724480D01*
X179385004Y-119754500D01*
X179385011Y-119754500D01*
X179614989Y-119754500D01*
X179614996Y-119754500D01*
X179843020Y-119724480D01*
X180065176Y-119664954D01*
X180277661Y-119576940D01*
X180476840Y-119461944D01*
X180659305Y-119321934D01*
X180821934Y-119159305D01*
X180961944Y-118976840D01*
X181076940Y-118777661D01*
X181164954Y-118565176D01*
X181224480Y-118343020D01*
X181254500Y-118114996D01*
X181254500Y-117885004D01*
X181224480Y-117656980D01*
X181164954Y-117434824D01*
X181076940Y-117222339D01*
X181033946Y-117147872D01*
X180961944Y-117023160D01*
X180821935Y-116840696D01*
X180821929Y-116840689D01*
X180659310Y-116678070D01*
X180659303Y-116678064D01*
X180476839Y-116538055D01*
X180277664Y-116423061D01*
X180277654Y-116423057D01*
X180065185Y-116335049D01*
X180065178Y-116335047D01*
X180065176Y-116335046D01*
X179843020Y-116275520D01*
X179843014Y-116275519D01*
X179843009Y-116275518D01*
X179615005Y-116245501D01*
X179615002Y-116245500D01*
X179614996Y-116245500D01*
X179385004Y-116245500D01*
X179384998Y-116245500D01*
X179384994Y-116245501D01*
X179156990Y-116275518D01*
X179156983Y-116275519D01*
X179156980Y-116275520D01*
X178934824Y-116335046D01*
X178934814Y-116335049D01*
X178722345Y-116423057D01*
X178722335Y-116423061D01*
X178523160Y-116538055D01*
X178340696Y-116678064D01*
X178340689Y-116678070D01*
X178178070Y-116840689D01*
X178178064Y-116840696D01*
X178038055Y-117023160D01*
X177923061Y-117222335D01*
X177923057Y-117222345D01*
X177835049Y-117434814D01*
X177835046Y-117434824D01*
X177775521Y-117656977D01*
X177775518Y-117656990D01*
X177745501Y-117884994D01*
X177745500Y-117885010D01*
X175000000Y-117885010D01*
X175000000Y-106349234D01*
X179258506Y-102090727D01*
X179258511Y-102090724D01*
X179268714Y-102080520D01*
X179268716Y-102080520D01*
X179380520Y-101968716D01*
X179450774Y-101847032D01*
X179450775Y-101847031D01*
X179454346Y-101840844D01*
X179459577Y-101831785D01*
X179500500Y-101679057D01*
X179500500Y-101520943D01*
X179500500Y-100151320D01*
X179500501Y-100151307D01*
X179500501Y-99983204D01*
X179489938Y-99943784D01*
X179459577Y-99830476D01*
X179416611Y-99756056D01*
X179380523Y-99693548D01*
X179380520Y-99693544D01*
X179255520Y-99568545D01*
X179255520Y-99568544D01*
X179143717Y-99456741D01*
X179143712Y-99456737D01*
X179099761Y-99431363D01*
X179051544Y-99380797D01*
X179037759Y-99323978D01*
X179037760Y-99250000D01*
X180536760Y-99250000D01*
X180536760Y-99360129D01*
G37*
%TD.AperFunction*%
%TA.AperFunction,Conductor*%
G36*
X185750000Y-124750000D02*
G01*
X184496446Y-124750000D01*
X184938351Y-124308094D01*
X184903370Y-124247505D01*
X184903360Y-124247488D01*
X184865953Y-124194957D01*
X184843101Y-124128930D01*
X184859574Y-124061030D01*
X184869491Y-124046379D01*
X184903799Y-124002752D01*
X184903801Y-124002750D01*
X185276491Y-123357227D01*
X185280035Y-123351463D01*
X185304630Y-123313822D01*
X185349845Y-123230267D01*
X185351457Y-123227383D01*
X185750000Y-122537091D01*
X185750000Y-124750000D01*
G37*
%TD.AperFunction*%
%TD*%
%TA.AperFunction,Conductor*%
%TO.N,+3.3V*%
G36*
X190075965Y-118322169D02*
G01*
X190075964Y-118322171D01*
X189976098Y-118536335D01*
X189976094Y-118536344D01*
X189914938Y-118764586D01*
X189914936Y-118764596D01*
X189894341Y-118999999D01*
X189894341Y-119000000D01*
X189914936Y-119235403D01*
X189914938Y-119235413D01*
X189976094Y-119463655D01*
X189976096Y-119463659D01*
X189976097Y-119463663D01*
X190075965Y-119677830D01*
X190075967Y-119677834D01*
X190184281Y-119832521D01*
X190211505Y-119871401D01*
X190378599Y-120038495D01*
X190475384Y-120106265D01*
X190572165Y-120174032D01*
X190572167Y-120174033D01*
X190572170Y-120174035D01*
X190786337Y-120273903D01*
X191014592Y-120335063D01*
X191202918Y-120351539D01*
X191249999Y-120355659D01*
X191250000Y-120355659D01*
X191250001Y-120355659D01*
X191289234Y-120352226D01*
X191485408Y-120335063D01*
X191713663Y-120273903D01*
X191927830Y-120174035D01*
X192121401Y-120038495D01*
X192288495Y-119871401D01*
X192424035Y-119677830D01*
X192523903Y-119463663D01*
X192585063Y-119235408D01*
X192605659Y-119000000D01*
X192585063Y-118764592D01*
X192523903Y-118536337D01*
X192424035Y-118322171D01*
X192373501Y-118250000D01*
X195449500Y-118250000D01*
X195449500Y-127246519D01*
X195449305Y-127253472D01*
X195432916Y-127545296D01*
X195431359Y-127559114D01*
X195382984Y-127843827D01*
X195379890Y-127857384D01*
X195299939Y-128134899D01*
X195295346Y-128148024D01*
X195184830Y-128414834D01*
X195178797Y-128427362D01*
X195039100Y-128680125D01*
X195031702Y-128691899D01*
X194864584Y-128927430D01*
X194855914Y-128938302D01*
X194663475Y-129153642D01*
X194653642Y-129163475D01*
X194438302Y-129355914D01*
X194427430Y-129364584D01*
X194191899Y-129531702D01*
X194180125Y-129539100D01*
X193927362Y-129678797D01*
X193914834Y-129684830D01*
X193648024Y-129795346D01*
X193634899Y-129799939D01*
X193357384Y-129879890D01*
X193343827Y-129882984D01*
X193059114Y-129931359D01*
X193045296Y-129932916D01*
X192753472Y-129949305D01*
X192746519Y-129949500D01*
X186374000Y-129949500D01*
X186306961Y-129929815D01*
X186261206Y-129877011D01*
X186250000Y-129825500D01*
X186250000Y-124912387D01*
X188400500Y-124912387D01*
X188400500Y-125087612D01*
X188434681Y-125259450D01*
X188434684Y-125259462D01*
X188501731Y-125421329D01*
X188501738Y-125421342D01*
X188599079Y-125567022D01*
X188599082Y-125567026D01*
X188722973Y-125690917D01*
X188722977Y-125690920D01*
X188868657Y-125788261D01*
X188868670Y-125788268D01*
X189030537Y-125855315D01*
X189030542Y-125855317D01*
X189202387Y-125889499D01*
X189202391Y-125889500D01*
X189202392Y-125889500D01*
X189377609Y-125889500D01*
X189377610Y-125889499D01*
X189549458Y-125855317D01*
X189711336Y-125788265D01*
X189857023Y-125690920D01*
X189980920Y-125567023D01*
X190078265Y-125421336D01*
X190145317Y-125259458D01*
X190179500Y-125087608D01*
X190179500Y-124912392D01*
X190145317Y-124740542D01*
X190145315Y-124740537D01*
X190078268Y-124578670D01*
X190078261Y-124578657D01*
X189980920Y-124432977D01*
X189980917Y-124432973D01*
X189857026Y-124309082D01*
X189857022Y-124309079D01*
X189711342Y-124211738D01*
X189711329Y-124211731D01*
X189549462Y-124144684D01*
X189549450Y-124144681D01*
X189377612Y-124110500D01*
X189377608Y-124110500D01*
X189202392Y-124110500D01*
X189202387Y-124110500D01*
X189030549Y-124144681D01*
X189030537Y-124144684D01*
X188868670Y-124211731D01*
X188868657Y-124211738D01*
X188722977Y-124309079D01*
X188722973Y-124309082D01*
X188599082Y-124432973D01*
X188599079Y-124432977D01*
X188501738Y-124578657D01*
X188501731Y-124578670D01*
X188434684Y-124740537D01*
X188434681Y-124740549D01*
X188400500Y-124912387D01*
X186250000Y-124912387D01*
X186250000Y-121999999D01*
X189894341Y-121999999D01*
X189894341Y-122000000D01*
X189914936Y-122235403D01*
X189914938Y-122235413D01*
X189976094Y-122463655D01*
X189976096Y-122463659D01*
X189976097Y-122463663D01*
X190075965Y-122677830D01*
X190075967Y-122677834D01*
X190184281Y-122832521D01*
X190211505Y-122871401D01*
X190378599Y-123038495D01*
X190475384Y-123106265D01*
X190572165Y-123174032D01*
X190572167Y-123174033D01*
X190572170Y-123174035D01*
X190786337Y-123273903D01*
X191014592Y-123335063D01*
X191202918Y-123351539D01*
X191249999Y-123355659D01*
X191250000Y-123355659D01*
X191250001Y-123355659D01*
X191289234Y-123352226D01*
X191485408Y-123335063D01*
X191713663Y-123273903D01*
X191927830Y-123174035D01*
X192121401Y-123038495D01*
X192288495Y-122871401D01*
X192424035Y-122677830D01*
X192523903Y-122463663D01*
X192585063Y-122235408D01*
X192605659Y-122000000D01*
X192585063Y-121764592D01*
X192523903Y-121536337D01*
X192424035Y-121322171D01*
X192288495Y-121128599D01*
X192288494Y-121128597D01*
X192121402Y-120961506D01*
X192121395Y-120961501D01*
X191927834Y-120825967D01*
X191927830Y-120825965D01*
X191927828Y-120825964D01*
X191713663Y-120726097D01*
X191713659Y-120726096D01*
X191713655Y-120726094D01*
X191485413Y-120664938D01*
X191485403Y-120664936D01*
X191250001Y-120644341D01*
X191249999Y-120644341D01*
X191014596Y-120664936D01*
X191014586Y-120664938D01*
X190786344Y-120726094D01*
X190786335Y-120726098D01*
X190572171Y-120825964D01*
X190572169Y-120825965D01*
X190378597Y-120961505D01*
X190211505Y-121128597D01*
X190075965Y-121322169D01*
X190075964Y-121322171D01*
X189976098Y-121536335D01*
X189976094Y-121536344D01*
X189914938Y-121764586D01*
X189914936Y-121764596D01*
X189894341Y-121999999D01*
X186250000Y-121999999D01*
X186250000Y-118250000D01*
X190126499Y-118250000D01*
X190075965Y-118322169D01*
G37*
%TD.AperFunction*%
%TD*%
%TA.AperFunction,Conductor*%
%TO.N,+12V_In*%
G36*
X147614556Y-118728836D02*
G01*
X147623508Y-118731465D01*
X147635624Y-118735023D01*
X147635626Y-118735023D01*
X147635629Y-118735024D01*
X147778045Y-118755500D01*
X147778048Y-118755500D01*
X173125500Y-118755500D01*
X173192539Y-118775185D01*
X173238294Y-118827989D01*
X173249500Y-118879500D01*
X173249500Y-121199903D01*
X173229815Y-121266942D01*
X173213181Y-121287584D01*
X172137584Y-122363181D01*
X172076261Y-122396666D01*
X172049903Y-122399500D01*
X157936670Y-122399500D01*
X157936654Y-122399499D01*
X157929058Y-122399499D01*
X157770943Y-122399499D01*
X157694579Y-122419961D01*
X157618214Y-122440423D01*
X157618209Y-122440426D01*
X157481290Y-122519475D01*
X157481282Y-122519481D01*
X155333530Y-124667233D01*
X155272207Y-124700718D01*
X155213756Y-124699327D01*
X155085413Y-124664938D01*
X155085403Y-124664936D01*
X154850001Y-124644341D01*
X154849999Y-124644341D01*
X154614596Y-124664936D01*
X154614586Y-124664938D01*
X154386344Y-124726094D01*
X154386335Y-124726098D01*
X154172171Y-124825964D01*
X154172169Y-124825965D01*
X153978597Y-124961505D01*
X153811505Y-125128597D01*
X153675965Y-125322169D01*
X153675964Y-125322171D01*
X153576098Y-125536335D01*
X153576094Y-125536344D01*
X153514938Y-125764586D01*
X153514936Y-125764596D01*
X153494341Y-125999999D01*
X153494341Y-126000000D01*
X153514936Y-126235403D01*
X153514938Y-126235413D01*
X153576094Y-126463655D01*
X153576096Y-126463659D01*
X153576097Y-126463663D01*
X153655970Y-126634951D01*
X153675965Y-126677830D01*
X153675967Y-126677834D01*
X153703975Y-126717833D01*
X153811505Y-126871401D01*
X153978599Y-127038495D01*
X154068151Y-127101200D01*
X154172165Y-127174032D01*
X154172167Y-127174033D01*
X154172170Y-127174035D01*
X154386337Y-127273903D01*
X154614592Y-127335063D01*
X154802918Y-127351539D01*
X154849999Y-127355659D01*
X154850000Y-127355659D01*
X154850001Y-127355659D01*
X154889234Y-127352226D01*
X155085408Y-127335063D01*
X155313663Y-127273903D01*
X155527830Y-127174035D01*
X155721401Y-127038495D01*
X155888495Y-126871401D01*
X156024035Y-126677830D01*
X156123903Y-126463663D01*
X156185063Y-126235408D01*
X156205659Y-126000000D01*
X156185063Y-125764592D01*
X156150671Y-125636239D01*
X156152334Y-125566393D01*
X156182763Y-125516470D01*
X156439862Y-125259371D01*
X156501185Y-125225887D01*
X156570877Y-125230871D01*
X156626810Y-125272743D01*
X156651227Y-125338207D01*
X156639925Y-125399458D01*
X156576098Y-125536335D01*
X156576094Y-125536344D01*
X156514938Y-125764586D01*
X156514936Y-125764596D01*
X156494341Y-125999999D01*
X156494341Y-126000000D01*
X156514936Y-126235403D01*
X156514938Y-126235413D01*
X156576094Y-126463655D01*
X156576096Y-126463659D01*
X156576097Y-126463663D01*
X156655970Y-126634951D01*
X156675965Y-126677830D01*
X156675967Y-126677834D01*
X156703975Y-126717833D01*
X156811505Y-126871401D01*
X156978599Y-127038495D01*
X157068151Y-127101200D01*
X157172165Y-127174032D01*
X157172167Y-127174033D01*
X157172170Y-127174035D01*
X157386337Y-127273903D01*
X157614592Y-127335063D01*
X157802918Y-127351539D01*
X157849999Y-127355659D01*
X157850000Y-127355659D01*
X157850001Y-127355659D01*
X157889234Y-127352226D01*
X158085408Y-127335063D01*
X158313663Y-127273903D01*
X158527830Y-127174035D01*
X158721401Y-127038495D01*
X158888495Y-126871401D01*
X159024035Y-126677830D01*
X159123903Y-126463663D01*
X159185063Y-126235408D01*
X159205659Y-126000000D01*
X159205659Y-125999998D01*
X166494843Y-125999998D01*
X166494843Y-126000001D01*
X166515430Y-126235315D01*
X166515432Y-126235326D01*
X166576566Y-126463483D01*
X166576570Y-126463492D01*
X166676400Y-126677579D01*
X166676402Y-126677583D01*
X166735072Y-126761373D01*
X166735073Y-126761373D01*
X167358871Y-126137574D01*
X167374755Y-126196853D01*
X167441898Y-126313147D01*
X167536853Y-126408102D01*
X167653147Y-126475245D01*
X167712424Y-126491128D01*
X167088625Y-127114925D01*
X167172421Y-127173599D01*
X167386507Y-127273429D01*
X167386516Y-127273433D01*
X167614673Y-127334567D01*
X167614684Y-127334569D01*
X167849998Y-127355157D01*
X167850002Y-127355157D01*
X168085315Y-127334569D01*
X168085326Y-127334567D01*
X168313483Y-127273433D01*
X168313492Y-127273429D01*
X168527578Y-127173600D01*
X168527582Y-127173598D01*
X168611373Y-127114926D01*
X168611373Y-127114925D01*
X167987575Y-126491128D01*
X168046853Y-126475245D01*
X168163147Y-126408102D01*
X168258102Y-126313147D01*
X168325245Y-126196853D01*
X168341127Y-126137575D01*
X168964925Y-126761373D01*
X168964926Y-126761373D01*
X169023598Y-126677582D01*
X169023600Y-126677578D01*
X169123429Y-126463492D01*
X169123433Y-126463483D01*
X169184567Y-126235326D01*
X169184569Y-126235315D01*
X169205157Y-126000001D01*
X169205157Y-125999999D01*
X169494341Y-125999999D01*
X169494341Y-126000000D01*
X169514936Y-126235403D01*
X169514938Y-126235413D01*
X169576094Y-126463655D01*
X169576096Y-126463659D01*
X169576097Y-126463663D01*
X169655970Y-126634951D01*
X169675965Y-126677830D01*
X169675967Y-126677834D01*
X169703975Y-126717833D01*
X169811505Y-126871401D01*
X169978599Y-127038495D01*
X170068151Y-127101200D01*
X170172165Y-127174032D01*
X170172167Y-127174033D01*
X170172170Y-127174035D01*
X170386337Y-127273903D01*
X170614592Y-127335063D01*
X170802918Y-127351539D01*
X170849999Y-127355659D01*
X170850000Y-127355659D01*
X170850001Y-127355659D01*
X170889234Y-127352226D01*
X171085408Y-127335063D01*
X171313663Y-127273903D01*
X171527830Y-127174035D01*
X171721401Y-127038495D01*
X171888495Y-126871401D01*
X172024035Y-126677830D01*
X172123903Y-126463663D01*
X172185063Y-126235408D01*
X172205659Y-126000000D01*
X172185063Y-125764592D01*
X172123903Y-125536337D01*
X172024035Y-125322171D01*
X172014567Y-125308648D01*
X171888494Y-125128597D01*
X171721402Y-124961506D01*
X171721395Y-124961501D01*
X171527834Y-124825967D01*
X171527830Y-124825965D01*
X171473040Y-124800416D01*
X171313663Y-124726097D01*
X171313659Y-124726096D01*
X171313655Y-124726094D01*
X171085413Y-124664938D01*
X171085403Y-124664936D01*
X170850001Y-124644341D01*
X170849999Y-124644341D01*
X170614596Y-124664936D01*
X170614586Y-124664938D01*
X170386344Y-124726094D01*
X170386335Y-124726098D01*
X170172171Y-124825964D01*
X170172169Y-124825965D01*
X169978597Y-124961505D01*
X169811505Y-125128597D01*
X169675965Y-125322169D01*
X169675964Y-125322171D01*
X169576098Y-125536335D01*
X169576094Y-125536344D01*
X169514938Y-125764586D01*
X169514936Y-125764596D01*
X169494341Y-125999999D01*
X169205157Y-125999999D01*
X169205157Y-125999998D01*
X169184569Y-125764684D01*
X169184567Y-125764673D01*
X169123433Y-125536516D01*
X169123429Y-125536507D01*
X169023600Y-125322423D01*
X169023599Y-125322421D01*
X168964925Y-125238626D01*
X168964925Y-125238625D01*
X168341127Y-125862423D01*
X168325245Y-125803147D01*
X168258102Y-125686853D01*
X168163147Y-125591898D01*
X168046853Y-125524755D01*
X167987575Y-125508871D01*
X168611373Y-124885073D01*
X168611373Y-124885072D01*
X168527583Y-124826402D01*
X168527579Y-124826400D01*
X168313492Y-124726570D01*
X168313483Y-124726566D01*
X168085326Y-124665432D01*
X168085315Y-124665430D01*
X167850002Y-124644843D01*
X167849998Y-124644843D01*
X167614684Y-124665430D01*
X167614673Y-124665432D01*
X167386516Y-124726566D01*
X167386507Y-124726570D01*
X167172419Y-124826401D01*
X167088625Y-124885072D01*
X167712424Y-125508871D01*
X167653147Y-125524755D01*
X167536853Y-125591898D01*
X167441898Y-125686853D01*
X167374755Y-125803147D01*
X167358872Y-125862424D01*
X166735073Y-125238625D01*
X166735072Y-125238625D01*
X166676401Y-125322419D01*
X166576570Y-125536507D01*
X166576566Y-125536516D01*
X166515432Y-125764673D01*
X166515430Y-125764684D01*
X166494843Y-125999998D01*
X159205659Y-125999998D01*
X159185063Y-125764592D01*
X159123903Y-125536337D01*
X159024035Y-125322171D01*
X159014567Y-125308648D01*
X158888494Y-125128597D01*
X158721402Y-124961506D01*
X158721395Y-124961501D01*
X158527834Y-124825967D01*
X158527830Y-124825965D01*
X158473040Y-124800416D01*
X158313663Y-124726097D01*
X158313659Y-124726096D01*
X158313655Y-124726094D01*
X158085413Y-124664938D01*
X158085403Y-124664936D01*
X157850001Y-124644341D01*
X157849999Y-124644341D01*
X157614596Y-124664936D01*
X157614586Y-124664938D01*
X157386344Y-124726094D01*
X157386330Y-124726099D01*
X157249458Y-124789924D01*
X157180381Y-124800416D01*
X157116597Y-124771896D01*
X157078358Y-124713419D01*
X157077804Y-124643552D01*
X157109371Y-124589863D01*
X158062417Y-123636819D01*
X158123740Y-123603334D01*
X158150098Y-123600500D01*
X159883680Y-123600500D01*
X159950719Y-123620185D01*
X159996474Y-123672989D01*
X160006418Y-123742147D01*
X159998242Y-123771948D01*
X159994685Y-123780537D01*
X159994682Y-123780545D01*
X159994681Y-123780549D01*
X159960500Y-123952387D01*
X159960500Y-124127612D01*
X159994681Y-124299450D01*
X159994684Y-124299462D01*
X160061731Y-124461329D01*
X160061738Y-124461342D01*
X160159079Y-124607022D01*
X160159082Y-124607026D01*
X160282973Y-124730917D01*
X160282977Y-124730920D01*
X160428657Y-124828261D01*
X160428670Y-124828268D01*
X160584866Y-124892966D01*
X160590542Y-124895317D01*
X160762387Y-124929499D01*
X160762391Y-124929500D01*
X160762392Y-124929500D01*
X160937609Y-124929500D01*
X160937610Y-124929499D01*
X161109458Y-124895317D01*
X161271336Y-124828265D01*
X161417023Y-124730920D01*
X161540920Y-124607023D01*
X161638265Y-124461336D01*
X161705317Y-124299458D01*
X161739500Y-124127608D01*
X161739500Y-123952392D01*
X161705317Y-123780542D01*
X161701758Y-123771951D01*
X161694290Y-123702484D01*
X161725564Y-123640005D01*
X161785653Y-123604352D01*
X161816320Y-123600500D01*
X163883680Y-123600500D01*
X163950719Y-123620185D01*
X163996474Y-123672989D01*
X164006418Y-123742147D01*
X163998242Y-123771948D01*
X163994685Y-123780537D01*
X163994682Y-123780545D01*
X163994681Y-123780549D01*
X163960500Y-123952387D01*
X163960500Y-124127612D01*
X163994681Y-124299450D01*
X163994684Y-124299462D01*
X164061731Y-124461329D01*
X164061738Y-124461342D01*
X164159079Y-124607022D01*
X164159082Y-124607026D01*
X164282973Y-124730917D01*
X164282977Y-124730920D01*
X164428657Y-124828261D01*
X164428670Y-124828268D01*
X164584866Y-124892966D01*
X164590542Y-124895317D01*
X164762387Y-124929499D01*
X164762391Y-124929500D01*
X164762392Y-124929500D01*
X164937609Y-124929500D01*
X164937610Y-124929499D01*
X165109458Y-124895317D01*
X165271336Y-124828265D01*
X165417023Y-124730920D01*
X165540920Y-124607023D01*
X165638265Y-124461336D01*
X165705317Y-124299458D01*
X165739500Y-124127608D01*
X165739500Y-123952392D01*
X165705317Y-123780542D01*
X165701758Y-123771951D01*
X165694290Y-123702484D01*
X165725564Y-123640005D01*
X165785653Y-123604352D01*
X165816320Y-123600500D01*
X172263331Y-123600500D01*
X172263347Y-123600501D01*
X172270943Y-123600501D01*
X172429054Y-123600501D01*
X172429057Y-123600501D01*
X172581785Y-123559577D01*
X172631904Y-123530639D01*
X172718716Y-123480520D01*
X172830520Y-123368716D01*
X172830520Y-123368714D01*
X172840728Y-123358507D01*
X172840729Y-123358504D01*
X173037820Y-123161414D01*
X173099142Y-123127930D01*
X173168834Y-123132914D01*
X173224767Y-123174786D01*
X173249184Y-123240250D01*
X173249500Y-123249096D01*
X173249500Y-124710908D01*
X173229815Y-124777947D01*
X173177914Y-124823286D01*
X173172173Y-124825963D01*
X173172169Y-124825965D01*
X172978597Y-124961505D01*
X172811505Y-125128597D01*
X172675965Y-125322169D01*
X172675964Y-125322171D01*
X172576098Y-125536335D01*
X172576094Y-125536344D01*
X172514938Y-125764586D01*
X172514936Y-125764596D01*
X172494341Y-125999999D01*
X172494341Y-126000000D01*
X172514936Y-126235403D01*
X172514938Y-126235413D01*
X172576094Y-126463655D01*
X172576096Y-126463659D01*
X172576097Y-126463663D01*
X172655970Y-126634951D01*
X172675965Y-126677830D01*
X172675967Y-126677834D01*
X172703975Y-126717833D01*
X172811505Y-126871401D01*
X172978599Y-127038495D01*
X173068151Y-127101200D01*
X173172165Y-127174032D01*
X173172167Y-127174033D01*
X173172170Y-127174035D01*
X173386337Y-127273903D01*
X173614592Y-127335063D01*
X173802918Y-127351539D01*
X173849999Y-127355659D01*
X173850000Y-127355659D01*
X173850001Y-127355659D01*
X173889234Y-127352226D01*
X174085408Y-127335063D01*
X174313663Y-127273903D01*
X174527830Y-127174035D01*
X174721401Y-127038495D01*
X174888495Y-126871401D01*
X175024035Y-126677830D01*
X175123903Y-126463663D01*
X175185063Y-126235408D01*
X175205659Y-126000000D01*
X175185063Y-125764592D01*
X175123903Y-125536337D01*
X175060074Y-125399458D01*
X175049583Y-125330382D01*
X175078103Y-125266598D01*
X175136579Y-125228358D01*
X175206446Y-125227803D01*
X175260138Y-125259373D01*
X175517233Y-125516468D01*
X175550718Y-125577791D01*
X175549327Y-125636241D01*
X175514939Y-125764583D01*
X175514936Y-125764596D01*
X175494341Y-125999999D01*
X175494341Y-126000000D01*
X175514936Y-126235403D01*
X175514938Y-126235413D01*
X175576094Y-126463655D01*
X175576096Y-126463659D01*
X175576097Y-126463663D01*
X175655970Y-126634951D01*
X175675965Y-126677830D01*
X175675967Y-126677834D01*
X175703975Y-126717833D01*
X175811505Y-126871401D01*
X175978599Y-127038495D01*
X176068151Y-127101200D01*
X176172165Y-127174032D01*
X176172167Y-127174033D01*
X176172170Y-127174035D01*
X176386337Y-127273903D01*
X176614592Y-127335063D01*
X176802918Y-127351539D01*
X176849999Y-127355659D01*
X176850000Y-127355659D01*
X176850001Y-127355659D01*
X176889234Y-127352226D01*
X177085408Y-127335063D01*
X177313663Y-127273903D01*
X177527830Y-127174035D01*
X177721401Y-127038495D01*
X177888495Y-126871401D01*
X178024035Y-126677830D01*
X178123903Y-126463663D01*
X178185063Y-126235408D01*
X178205659Y-126000000D01*
X178203556Y-125975968D01*
X181363521Y-125975968D01*
X181363521Y-125975972D01*
X181377184Y-126119059D01*
X181430604Y-126252496D01*
X181430605Y-126252499D01*
X181848943Y-126977080D01*
X181850611Y-126980063D01*
X181895806Y-127063578D01*
X181895812Y-127063587D01*
X181920387Y-127101200D01*
X181923967Y-127107024D01*
X182002829Y-127243616D01*
X182002830Y-127243617D01*
X183246447Y-126000000D01*
X183246447Y-125999999D01*
X182002829Y-124756382D01*
X182002828Y-124756382D01*
X181923969Y-124892970D01*
X181920391Y-124898791D01*
X181895812Y-124936411D01*
X181895806Y-124936421D01*
X181850612Y-125019935D01*
X181848944Y-125022918D01*
X181430610Y-125747491D01*
X181430602Y-125747507D01*
X181390724Y-125834827D01*
X181390722Y-125834833D01*
X181363521Y-125975968D01*
X178203556Y-125975968D01*
X178185063Y-125764592D01*
X178123903Y-125536337D01*
X178024035Y-125322171D01*
X178014567Y-125308648D01*
X177888494Y-125128597D01*
X177721402Y-124961506D01*
X177721395Y-124961501D01*
X177527834Y-124825967D01*
X177527830Y-124825965D01*
X177473040Y-124800416D01*
X177364923Y-124750000D01*
X179311532Y-124750000D01*
X179428657Y-124828261D01*
X179428670Y-124828268D01*
X179584866Y-124892966D01*
X179590542Y-124895317D01*
X179762387Y-124929499D01*
X179762391Y-124929500D01*
X179762392Y-124929500D01*
X179937609Y-124929500D01*
X179937610Y-124929499D01*
X180109458Y-124895317D01*
X180271336Y-124828265D01*
X180388468Y-124750000D01*
X182703553Y-124750000D01*
X183600000Y-125646447D01*
X183600001Y-125646447D01*
X184496446Y-124750000D01*
X185744500Y-124750000D01*
X185744500Y-125241609D01*
X185724815Y-125308648D01*
X185672011Y-125354403D01*
X185602853Y-125364347D01*
X185539297Y-125335322D01*
X185513113Y-125303609D01*
X185351062Y-125022931D01*
X185349393Y-125019947D01*
X185304192Y-124936421D01*
X185279606Y-124898791D01*
X185276026Y-124892966D01*
X185197169Y-124756382D01*
X183953553Y-125999999D01*
X183953553Y-126000000D01*
X185197169Y-127243616D01*
X185276028Y-127107029D01*
X185279611Y-127101201D01*
X185304183Y-127063595D01*
X185304186Y-127063589D01*
X185349393Y-126980052D01*
X185351062Y-126977067D01*
X185513113Y-126696389D01*
X185563680Y-126648173D01*
X185632287Y-126634951D01*
X185697152Y-126660919D01*
X185737680Y-126717833D01*
X185744500Y-126758389D01*
X185744500Y-129825500D01*
X185724815Y-129892539D01*
X185672011Y-129938294D01*
X185620500Y-129949500D01*
X142653481Y-129949500D01*
X142646528Y-129949305D01*
X142354703Y-129932916D01*
X142340885Y-129931359D01*
X142056172Y-129882984D01*
X142042615Y-129879890D01*
X141765100Y-129799939D01*
X141751975Y-129795346D01*
X141485165Y-129684830D01*
X141472637Y-129678797D01*
X141219874Y-129539100D01*
X141208100Y-129531702D01*
X140972569Y-129364584D01*
X140961697Y-129355914D01*
X140746357Y-129163475D01*
X140736524Y-129153642D01*
X140544085Y-128938302D01*
X140535415Y-128927430D01*
X140368297Y-128691899D01*
X140360899Y-128680125D01*
X140221202Y-128427362D01*
X140215172Y-128414841D01*
X140104653Y-128148024D01*
X140100060Y-128134899D01*
X140020109Y-127857384D01*
X140017015Y-127843827D01*
X140003965Y-127767020D01*
X139991202Y-127691904D01*
X182261647Y-127691904D01*
X182261647Y-127691905D01*
X182296628Y-127752493D01*
X182296634Y-127752503D01*
X182352319Y-127830703D01*
X182460950Y-127924832D01*
X182460952Y-127924833D01*
X182591696Y-127984543D01*
X182591700Y-127984544D01*
X182733976Y-128004999D01*
X182733978Y-128005000D01*
X183511950Y-128005000D01*
X183522191Y-128005424D01*
X183558289Y-128008415D01*
X183558302Y-128008416D01*
X183641698Y-128008416D01*
X183641710Y-128008415D01*
X183677809Y-128005424D01*
X183688050Y-128005000D01*
X184466030Y-128005000D01*
X184561592Y-127995874D01*
X184561601Y-127995872D01*
X184697430Y-127948862D01*
X184814512Y-127865488D01*
X184814515Y-127865484D01*
X184903368Y-127752499D01*
X184938351Y-127691903D01*
X183600000Y-126353553D01*
X182261647Y-127691904D01*
X139991202Y-127691904D01*
X139968638Y-127559103D01*
X139967084Y-127545306D01*
X139950695Y-127253472D01*
X139950500Y-127246519D01*
X139950500Y-123331644D01*
X140549500Y-123331644D01*
X140549500Y-123918355D01*
X140559913Y-124020276D01*
X140614637Y-124185422D01*
X140614642Y-124185433D01*
X140705971Y-124333499D01*
X140705974Y-124333503D01*
X140828996Y-124456525D01*
X140829000Y-124456528D01*
X140829703Y-124456962D01*
X140830083Y-124457385D01*
X140834664Y-124461007D01*
X140834045Y-124461789D01*
X140876428Y-124508910D01*
X140887649Y-124577872D01*
X140859806Y-124641954D01*
X140834544Y-124663842D01*
X140834664Y-124663993D01*
X140831315Y-124666640D01*
X140829703Y-124668038D01*
X140829000Y-124668471D01*
X140828996Y-124668474D01*
X140705974Y-124791496D01*
X140705971Y-124791500D01*
X140614642Y-124939566D01*
X140614637Y-124939577D01*
X140559913Y-125104723D01*
X140549500Y-125206644D01*
X140549500Y-125793355D01*
X140559913Y-125895276D01*
X140614637Y-126060422D01*
X140614642Y-126060433D01*
X140705971Y-126208499D01*
X140705974Y-126208503D01*
X140828996Y-126331525D01*
X140829000Y-126331528D01*
X140977066Y-126422857D01*
X140977069Y-126422858D01*
X140977075Y-126422862D01*
X141142225Y-126477587D01*
X141244152Y-126488000D01*
X141244157Y-126488000D01*
X142255843Y-126488000D01*
X142255848Y-126488000D01*
X142357775Y-126477587D01*
X142522925Y-126422862D01*
X142671003Y-126331526D01*
X142794026Y-126208503D01*
X142885362Y-126060425D01*
X142905385Y-125999998D01*
X147494843Y-125999998D01*
X147494843Y-126000001D01*
X147515430Y-126235315D01*
X147515432Y-126235326D01*
X147576566Y-126463483D01*
X147576570Y-126463492D01*
X147676400Y-126677579D01*
X147676402Y-126677583D01*
X147735072Y-126761373D01*
X147735073Y-126761373D01*
X148358871Y-126137574D01*
X148374755Y-126196853D01*
X148441898Y-126313147D01*
X148536853Y-126408102D01*
X148653147Y-126475245D01*
X148712424Y-126491128D01*
X148088625Y-127114925D01*
X148172421Y-127173599D01*
X148386507Y-127273429D01*
X148386516Y-127273433D01*
X148614673Y-127334567D01*
X148614684Y-127334569D01*
X148849998Y-127355157D01*
X148850002Y-127355157D01*
X149085315Y-127334569D01*
X149085326Y-127334567D01*
X149313483Y-127273433D01*
X149313492Y-127273429D01*
X149527578Y-127173600D01*
X149527582Y-127173598D01*
X149611373Y-127114926D01*
X149611373Y-127114925D01*
X148987575Y-126491128D01*
X149046853Y-126475245D01*
X149163147Y-126408102D01*
X149258102Y-126313147D01*
X149325245Y-126196853D01*
X149341128Y-126137575D01*
X149964925Y-126761373D01*
X149964926Y-126761373D01*
X150023598Y-126677582D01*
X150023600Y-126677578D01*
X150123429Y-126463492D01*
X150123433Y-126463483D01*
X150184567Y-126235326D01*
X150184569Y-126235315D01*
X150205157Y-126000001D01*
X150205157Y-125999999D01*
X150494341Y-125999999D01*
X150494341Y-126000000D01*
X150514936Y-126235403D01*
X150514938Y-126235413D01*
X150576094Y-126463655D01*
X150576096Y-126463659D01*
X150576097Y-126463663D01*
X150655970Y-126634951D01*
X150675965Y-126677830D01*
X150675967Y-126677834D01*
X150703975Y-126717833D01*
X150811505Y-126871401D01*
X150978599Y-127038495D01*
X151068151Y-127101200D01*
X151172165Y-127174032D01*
X151172167Y-127174033D01*
X151172170Y-127174035D01*
X151386337Y-127273903D01*
X151614592Y-127335063D01*
X151802918Y-127351539D01*
X151849999Y-127355659D01*
X151850000Y-127355659D01*
X151850001Y-127355659D01*
X151889234Y-127352226D01*
X152085408Y-127335063D01*
X152313663Y-127273903D01*
X152527830Y-127174035D01*
X152721401Y-127038495D01*
X152888495Y-126871401D01*
X153024035Y-126677830D01*
X153123903Y-126463663D01*
X153185063Y-126235408D01*
X153205659Y-126000000D01*
X153185063Y-125764592D01*
X153123903Y-125536337D01*
X153024035Y-125322171D01*
X153014567Y-125308648D01*
X152888494Y-125128597D01*
X152721402Y-124961506D01*
X152721395Y-124961501D01*
X152527834Y-124825967D01*
X152527830Y-124825965D01*
X152473040Y-124800416D01*
X152313663Y-124726097D01*
X152313659Y-124726096D01*
X152313655Y-124726094D01*
X152085413Y-124664938D01*
X152085403Y-124664936D01*
X151850001Y-124644341D01*
X151849999Y-124644341D01*
X151614596Y-124664936D01*
X151614586Y-124664938D01*
X151386344Y-124726094D01*
X151386335Y-124726098D01*
X151172171Y-124825964D01*
X151172169Y-124825965D01*
X150978597Y-124961505D01*
X150811505Y-125128597D01*
X150675965Y-125322169D01*
X150675964Y-125322171D01*
X150576098Y-125536335D01*
X150576094Y-125536344D01*
X150514938Y-125764586D01*
X150514936Y-125764596D01*
X150494341Y-125999999D01*
X150205157Y-125999999D01*
X150205157Y-125999998D01*
X150184569Y-125764684D01*
X150184567Y-125764673D01*
X150123433Y-125536516D01*
X150123429Y-125536507D01*
X150023600Y-125322423D01*
X150023599Y-125322421D01*
X149964925Y-125238626D01*
X149964925Y-125238625D01*
X149341127Y-125862423D01*
X149325245Y-125803147D01*
X149258102Y-125686853D01*
X149163147Y-125591898D01*
X149046853Y-125524755D01*
X148987575Y-125508871D01*
X149611373Y-124885073D01*
X149611373Y-124885072D01*
X149527583Y-124826402D01*
X149527579Y-124826400D01*
X149313492Y-124726570D01*
X149313483Y-124726566D01*
X149085326Y-124665432D01*
X149085315Y-124665430D01*
X148850002Y-124644843D01*
X148849998Y-124644843D01*
X148614684Y-124665430D01*
X148614673Y-124665432D01*
X148386516Y-124726566D01*
X148386507Y-124726570D01*
X148172419Y-124826401D01*
X148088625Y-124885072D01*
X148712424Y-125508871D01*
X148653147Y-125524755D01*
X148536853Y-125591898D01*
X148441898Y-125686853D01*
X148374755Y-125803147D01*
X148358871Y-125862424D01*
X147735072Y-125238625D01*
X147676401Y-125322419D01*
X147576570Y-125536507D01*
X147576566Y-125536516D01*
X147515432Y-125764673D01*
X147515430Y-125764684D01*
X147494843Y-125999998D01*
X142905385Y-125999998D01*
X142940087Y-125895275D01*
X142950500Y-125793348D01*
X142950500Y-125206652D01*
X142940087Y-125104725D01*
X142885362Y-124939575D01*
X142885358Y-124939569D01*
X142885357Y-124939566D01*
X142794028Y-124791500D01*
X142794025Y-124791496D01*
X142671004Y-124668475D01*
X142671003Y-124668474D01*
X142670301Y-124668041D01*
X142669921Y-124667618D01*
X142665336Y-124663993D01*
X142665955Y-124663209D01*
X142623575Y-124616098D01*
X142612349Y-124547136D01*
X142640188Y-124483052D01*
X142665455Y-124461157D01*
X142665336Y-124461007D01*
X142668687Y-124458356D01*
X142670299Y-124456959D01*
X142671003Y-124456526D01*
X142794026Y-124333503D01*
X142885362Y-124185425D01*
X142940087Y-124020275D01*
X142947023Y-123952387D01*
X144960500Y-123952387D01*
X144960500Y-124127612D01*
X144994681Y-124299450D01*
X144994684Y-124299462D01*
X145061731Y-124461329D01*
X145061738Y-124461342D01*
X145159079Y-124607022D01*
X145159082Y-124607026D01*
X145282973Y-124730917D01*
X145282977Y-124730920D01*
X145428657Y-124828261D01*
X145428670Y-124828268D01*
X145584866Y-124892966D01*
X145590542Y-124895317D01*
X145762387Y-124929499D01*
X145762391Y-124929500D01*
X145762392Y-124929500D01*
X145937609Y-124929500D01*
X145937610Y-124929499D01*
X146109458Y-124895317D01*
X146271336Y-124828265D01*
X146417023Y-124730920D01*
X146540920Y-124607023D01*
X146638265Y-124461336D01*
X146705317Y-124299458D01*
X146739500Y-124127608D01*
X146739500Y-123952392D01*
X146705317Y-123780542D01*
X146689413Y-123742147D01*
X146638268Y-123618670D01*
X146638261Y-123618657D01*
X146540920Y-123472977D01*
X146540917Y-123472973D01*
X146417026Y-123349082D01*
X146417022Y-123349079D01*
X146271342Y-123251738D01*
X146271329Y-123251731D01*
X146109462Y-123184684D01*
X146109450Y-123184681D01*
X145937612Y-123150500D01*
X145937608Y-123150500D01*
X145762392Y-123150500D01*
X145762387Y-123150500D01*
X145590549Y-123184681D01*
X145590537Y-123184684D01*
X145428670Y-123251731D01*
X145428657Y-123251738D01*
X145282977Y-123349079D01*
X145282973Y-123349082D01*
X145159082Y-123472973D01*
X145159079Y-123472977D01*
X145061738Y-123618657D01*
X145061731Y-123618670D01*
X144994684Y-123780537D01*
X144994681Y-123780549D01*
X144960500Y-123952387D01*
X142947023Y-123952387D01*
X142950500Y-123918348D01*
X142950500Y-123331652D01*
X142940087Y-123229725D01*
X142885362Y-123064575D01*
X142885358Y-123064569D01*
X142885357Y-123064566D01*
X142794028Y-122916500D01*
X142794025Y-122916496D01*
X142671003Y-122793474D01*
X142670999Y-122793471D01*
X142522933Y-122702142D01*
X142522927Y-122702139D01*
X142522925Y-122702138D01*
X142435496Y-122673167D01*
X142378051Y-122633394D01*
X142351228Y-122568878D01*
X142350500Y-122555461D01*
X142350500Y-122394912D01*
X142370185Y-122327873D01*
X142377555Y-122317597D01*
X142379810Y-122314767D01*
X142379816Y-122314762D01*
X142475789Y-122162022D01*
X142535368Y-121991755D01*
X142555565Y-121812500D01*
X142535368Y-121633245D01*
X142475789Y-121462978D01*
X142379816Y-121310238D01*
X142252262Y-121182684D01*
X142197954Y-121148560D01*
X142099523Y-121086711D01*
X141929254Y-121027131D01*
X141929249Y-121027130D01*
X141750004Y-121006935D01*
X141749996Y-121006935D01*
X141570750Y-121027130D01*
X141570745Y-121027131D01*
X141400476Y-121086711D01*
X141247737Y-121182684D01*
X141120184Y-121310237D01*
X141024211Y-121462976D01*
X140964631Y-121633245D01*
X140964630Y-121633250D01*
X140944435Y-121812496D01*
X140944435Y-121812503D01*
X140964630Y-121991749D01*
X140964631Y-121991754D01*
X141024211Y-122162023D01*
X141120185Y-122314763D01*
X141122445Y-122317597D01*
X141123334Y-122319775D01*
X141123889Y-122320658D01*
X141123734Y-122320755D01*
X141148855Y-122382283D01*
X141149500Y-122394912D01*
X141149500Y-122555461D01*
X141129815Y-122622500D01*
X141077011Y-122668255D01*
X141064504Y-122673167D01*
X140977077Y-122702137D01*
X140977066Y-122702142D01*
X140829000Y-122793471D01*
X140828996Y-122793474D01*
X140705974Y-122916496D01*
X140705971Y-122916500D01*
X140614642Y-123064566D01*
X140614637Y-123064577D01*
X140559913Y-123229723D01*
X140549500Y-123331644D01*
X139950500Y-123331644D01*
X139950500Y-118879500D01*
X139970185Y-118812461D01*
X140022989Y-118766706D01*
X140074500Y-118755500D01*
X144021959Y-118755500D01*
X144145493Y-118740171D01*
X144145494Y-118740170D01*
X144145500Y-118740170D01*
X144190761Y-118728762D01*
X144260576Y-118731465D01*
X144317849Y-118771485D01*
X144328452Y-118787002D01*
X144438055Y-118976839D01*
X144578064Y-119159303D01*
X144578070Y-119159310D01*
X144740689Y-119321929D01*
X144740696Y-119321935D01*
X144923160Y-119461944D01*
X145122335Y-119576938D01*
X145122336Y-119576938D01*
X145122339Y-119576940D01*
X145334824Y-119664954D01*
X145556980Y-119724480D01*
X145785004Y-119754500D01*
X145785011Y-119754500D01*
X146014989Y-119754500D01*
X146014996Y-119754500D01*
X146243020Y-119724480D01*
X146465176Y-119664954D01*
X146677661Y-119576940D01*
X146876840Y-119461944D01*
X147059305Y-119321934D01*
X147221934Y-119159305D01*
X147361944Y-118976840D01*
X147472233Y-118785812D01*
X147522800Y-118737598D01*
X147591407Y-118724374D01*
X147614556Y-118728836D01*
G37*
%TD.AperFunction*%
%TA.AperFunction,Conductor*%
G36*
X175000000Y-123300765D02*
G01*
X174886819Y-123187584D01*
X174853334Y-123126261D01*
X174850500Y-123099903D01*
X174850500Y-106550096D01*
X174870185Y-106483057D01*
X174886814Y-106462420D01*
X175000000Y-106349233D01*
X175000000Y-123300765D01*
G37*
%TD.AperFunction*%
%TD*%
%TA.AperFunction,Conductor*%
%TO.N,+3.3V*%
G36*
X142648193Y-71550526D02*
G01*
X142691347Y-71551423D01*
X142691348Y-71551422D01*
X142692631Y-71551449D01*
X142706541Y-71550500D01*
X192692948Y-71550500D01*
X192707241Y-71551326D01*
X192714933Y-71552218D01*
X192714935Y-71552219D01*
X192714936Y-71552218D01*
X192714937Y-71552219D01*
X192753670Y-71550607D01*
X192758826Y-71550500D01*
X192776203Y-71550500D01*
X192778372Y-71550518D01*
X193060000Y-71555447D01*
X193074575Y-71556566D01*
X193362147Y-71595812D01*
X193376483Y-71598639D01*
X193657410Y-71671502D01*
X193671336Y-71676007D01*
X193700483Y-71687376D01*
X193941727Y-71781477D01*
X193955005Y-71787582D01*
X194211077Y-71924185D01*
X194223558Y-71931823D01*
X194461741Y-72097652D01*
X194473232Y-72106705D01*
X194561719Y-72185311D01*
X194690201Y-72299446D01*
X194700553Y-72309798D01*
X194832453Y-72458278D01*
X194891200Y-72524410D01*
X194893290Y-72526762D01*
X194902351Y-72538263D01*
X195068176Y-72776441D01*
X195075816Y-72788927D01*
X195212413Y-73044986D01*
X195218526Y-73058281D01*
X195323992Y-73328663D01*
X195328497Y-73342592D01*
X195372047Y-73510500D01*
X195401056Y-73622345D01*
X195401356Y-73623499D01*
X195404189Y-73637864D01*
X195443432Y-73925413D01*
X195444552Y-73940010D01*
X195449481Y-74221627D01*
X195449500Y-74223797D01*
X195449500Y-74241173D01*
X195449393Y-74246329D01*
X195447780Y-74285067D01*
X195448673Y-74292757D01*
X195449500Y-74307051D01*
X195449500Y-118250000D01*
X192373501Y-118250000D01*
X192288494Y-118128597D01*
X192121402Y-117961506D01*
X192121395Y-117961501D01*
X191927834Y-117825967D01*
X191927830Y-117825965D01*
X191927828Y-117825964D01*
X191713663Y-117726097D01*
X191713659Y-117726096D01*
X191713655Y-117726094D01*
X191485413Y-117664938D01*
X191485403Y-117664936D01*
X191250001Y-117644341D01*
X191249999Y-117644341D01*
X191014596Y-117664936D01*
X191014586Y-117664938D01*
X190786344Y-117726094D01*
X190786335Y-117726098D01*
X190572171Y-117825964D01*
X190572169Y-117825965D01*
X190378597Y-117961505D01*
X190211505Y-118128597D01*
X190126498Y-118250000D01*
X186255500Y-118250000D01*
X186255500Y-117724499D01*
X186275185Y-117657460D01*
X186327989Y-117611705D01*
X186379500Y-117600499D01*
X186397871Y-117600499D01*
X186397872Y-117600499D01*
X186457483Y-117594091D01*
X186592331Y-117543796D01*
X186707546Y-117457546D01*
X186793796Y-117342331D01*
X186844091Y-117207483D01*
X186850500Y-117147873D01*
X186850499Y-115999999D01*
X189894341Y-115999999D01*
X189894341Y-116000000D01*
X189914936Y-116235403D01*
X189914938Y-116235413D01*
X189976094Y-116463655D01*
X189976096Y-116463659D01*
X189976097Y-116463663D01*
X190010787Y-116538055D01*
X190075965Y-116677830D01*
X190075967Y-116677834D01*
X190184281Y-116832521D01*
X190211505Y-116871401D01*
X190378599Y-117038495D01*
X190475384Y-117106265D01*
X190572165Y-117174032D01*
X190572167Y-117174033D01*
X190572170Y-117174035D01*
X190786337Y-117273903D01*
X191014592Y-117335063D01*
X191202918Y-117351539D01*
X191249999Y-117355659D01*
X191250000Y-117355659D01*
X191250001Y-117355659D01*
X191289234Y-117352226D01*
X191485408Y-117335063D01*
X191713663Y-117273903D01*
X191927830Y-117174035D01*
X192121401Y-117038495D01*
X192288495Y-116871401D01*
X192424035Y-116677830D01*
X192523903Y-116463663D01*
X192585063Y-116235408D01*
X192605659Y-116000000D01*
X192585063Y-115764592D01*
X192523903Y-115536337D01*
X192424035Y-115322171D01*
X192403272Y-115292517D01*
X192288494Y-115128597D01*
X192121402Y-114961506D01*
X192121395Y-114961501D01*
X192113827Y-114956202D01*
X192042002Y-114905909D01*
X191927834Y-114825967D01*
X191927830Y-114825965D01*
X191927828Y-114825964D01*
X191713663Y-114726097D01*
X191713659Y-114726096D01*
X191713655Y-114726094D01*
X191485413Y-114664938D01*
X191485403Y-114664936D01*
X191250001Y-114644341D01*
X191249999Y-114644341D01*
X191014596Y-114664936D01*
X191014586Y-114664938D01*
X190786344Y-114726094D01*
X190786335Y-114726098D01*
X190572171Y-114825964D01*
X190572169Y-114825965D01*
X190378597Y-114961505D01*
X190211505Y-115128597D01*
X190075965Y-115322169D01*
X190075964Y-115322171D01*
X189976098Y-115536335D01*
X189976094Y-115536344D01*
X189914938Y-115764586D01*
X189914936Y-115764596D01*
X189894341Y-115999999D01*
X186850499Y-115999999D01*
X186850499Y-115352128D01*
X186844091Y-115292517D01*
X186793796Y-115157669D01*
X186793795Y-115157668D01*
X186793793Y-115157664D01*
X186707547Y-115042455D01*
X186707544Y-115042452D01*
X186592335Y-114956206D01*
X186592328Y-114956202D01*
X186457482Y-114905908D01*
X186457483Y-114905908D01*
X186397883Y-114899501D01*
X186397881Y-114899500D01*
X186397873Y-114899500D01*
X186397865Y-114899500D01*
X186379500Y-114899500D01*
X186312461Y-114879815D01*
X186266706Y-114827011D01*
X186255500Y-114775500D01*
X186255500Y-112999999D01*
X189894341Y-112999999D01*
X189894341Y-113000000D01*
X189914936Y-113235403D01*
X189914938Y-113235413D01*
X189976094Y-113463655D01*
X189976096Y-113463659D01*
X189976097Y-113463663D01*
X190069319Y-113663578D01*
X190075965Y-113677830D01*
X190075967Y-113677834D01*
X190096410Y-113707029D01*
X190211505Y-113871401D01*
X190378599Y-114038495D01*
X190475384Y-114106265D01*
X190572165Y-114174032D01*
X190572167Y-114174033D01*
X190572170Y-114174035D01*
X190786337Y-114273903D01*
X191014592Y-114335063D01*
X191202918Y-114351539D01*
X191249999Y-114355659D01*
X191250000Y-114355659D01*
X191250001Y-114355659D01*
X191289234Y-114352226D01*
X191485408Y-114335063D01*
X191713663Y-114273903D01*
X191927830Y-114174035D01*
X192121401Y-114038495D01*
X192288495Y-113871401D01*
X192424035Y-113677830D01*
X192523903Y-113463663D01*
X192585063Y-113235408D01*
X192605659Y-113000000D01*
X192585063Y-112764592D01*
X192523903Y-112536337D01*
X192424035Y-112322171D01*
X192404168Y-112293797D01*
X192288494Y-112128597D01*
X192121402Y-111961506D01*
X192121395Y-111961501D01*
X192115655Y-111957482D01*
X192082521Y-111934281D01*
X191927834Y-111825967D01*
X191927830Y-111825965D01*
X191927828Y-111825964D01*
X191713663Y-111726097D01*
X191713659Y-111726096D01*
X191713655Y-111726094D01*
X191485413Y-111664938D01*
X191485403Y-111664936D01*
X191250001Y-111644341D01*
X191249999Y-111644341D01*
X191014596Y-111664936D01*
X191014586Y-111664938D01*
X190786344Y-111726094D01*
X190786335Y-111726098D01*
X190572171Y-111825964D01*
X190572169Y-111825965D01*
X190378597Y-111961505D01*
X190211505Y-112128597D01*
X190075965Y-112322169D01*
X190075964Y-112322171D01*
X189976098Y-112536335D01*
X189976094Y-112536344D01*
X189914938Y-112764586D01*
X189914936Y-112764596D01*
X189894341Y-112999999D01*
X186255500Y-112999999D01*
X186255500Y-112474499D01*
X186275185Y-112407460D01*
X186327989Y-112361705D01*
X186379500Y-112350499D01*
X186397871Y-112350499D01*
X186397872Y-112350499D01*
X186457483Y-112344091D01*
X186592331Y-112293796D01*
X186707546Y-112207546D01*
X186793796Y-112092331D01*
X186844091Y-111957483D01*
X186850500Y-111897873D01*
X186850499Y-110102128D01*
X186844091Y-110042517D01*
X186812292Y-109957260D01*
X186795556Y-109912387D01*
X188400500Y-109912387D01*
X188400500Y-110087612D01*
X188434681Y-110259450D01*
X188434684Y-110259462D01*
X188501731Y-110421329D01*
X188501738Y-110421342D01*
X188599079Y-110567022D01*
X188599082Y-110567026D01*
X188722973Y-110690917D01*
X188722977Y-110690920D01*
X188868657Y-110788261D01*
X188868670Y-110788268D01*
X189011682Y-110847505D01*
X189030542Y-110855317D01*
X189202387Y-110889499D01*
X189202391Y-110889500D01*
X189202392Y-110889500D01*
X189377609Y-110889500D01*
X189377610Y-110889499D01*
X189549458Y-110855317D01*
X189711336Y-110788265D01*
X189857023Y-110690920D01*
X189980920Y-110567023D01*
X190078265Y-110421336D01*
X190145317Y-110259458D01*
X190179500Y-110087608D01*
X190179500Y-109912392D01*
X190145317Y-109740542D01*
X190110261Y-109655909D01*
X190078268Y-109578670D01*
X190078261Y-109578657D01*
X189980920Y-109432977D01*
X189980917Y-109432973D01*
X189857026Y-109309082D01*
X189857022Y-109309079D01*
X189711342Y-109211738D01*
X189711329Y-109211731D01*
X189549462Y-109144684D01*
X189549450Y-109144681D01*
X189377612Y-109110500D01*
X189377608Y-109110500D01*
X189202392Y-109110500D01*
X189202387Y-109110500D01*
X189030549Y-109144681D01*
X189030537Y-109144684D01*
X188868670Y-109211731D01*
X188868657Y-109211738D01*
X188722977Y-109309079D01*
X188722973Y-109309082D01*
X188599082Y-109432973D01*
X188599079Y-109432977D01*
X188501738Y-109578657D01*
X188501731Y-109578670D01*
X188434684Y-109740537D01*
X188434681Y-109740549D01*
X188400500Y-109912387D01*
X186795556Y-109912387D01*
X186793797Y-109907671D01*
X186793793Y-109907664D01*
X186707547Y-109792455D01*
X186707544Y-109792452D01*
X186592335Y-109706206D01*
X186592328Y-109706202D01*
X186457482Y-109655908D01*
X186457483Y-109655908D01*
X186397883Y-109649501D01*
X186397881Y-109649500D01*
X186397873Y-109649500D01*
X186397865Y-109649500D01*
X186379500Y-109649500D01*
X186312461Y-109629815D01*
X186266706Y-109577011D01*
X186255500Y-109525500D01*
X186255500Y-107224499D01*
X186275185Y-107157460D01*
X186327989Y-107111705D01*
X186379500Y-107100499D01*
X186397871Y-107100499D01*
X186397872Y-107100499D01*
X186457483Y-107094091D01*
X186592331Y-107043796D01*
X186707546Y-106957546D01*
X186793796Y-106842331D01*
X186844091Y-106707483D01*
X186850500Y-106647873D01*
X186850500Y-105912387D01*
X188400500Y-105912387D01*
X188400500Y-106087612D01*
X188434681Y-106259450D01*
X188434684Y-106259462D01*
X188501731Y-106421329D01*
X188501738Y-106421342D01*
X188599079Y-106567022D01*
X188599082Y-106567026D01*
X188722973Y-106690917D01*
X188722977Y-106690920D01*
X188868657Y-106788261D01*
X188868670Y-106788268D01*
X189004427Y-106844500D01*
X189030542Y-106855317D01*
X189202387Y-106889499D01*
X189202391Y-106889500D01*
X189202392Y-106889500D01*
X189377609Y-106889500D01*
X189377610Y-106889499D01*
X189549458Y-106855317D01*
X189711336Y-106788265D01*
X189857023Y-106690920D01*
X189980920Y-106567023D01*
X190078265Y-106421336D01*
X190145317Y-106259458D01*
X190179500Y-106087608D01*
X190179500Y-105912392D01*
X190145317Y-105740542D01*
X190134984Y-105715596D01*
X190078268Y-105578670D01*
X190078261Y-105578657D01*
X189980920Y-105432977D01*
X189980917Y-105432973D01*
X189857026Y-105309082D01*
X189857022Y-105309079D01*
X189711342Y-105211738D01*
X189711329Y-105211731D01*
X189549462Y-105144684D01*
X189549450Y-105144681D01*
X189377612Y-105110500D01*
X189377608Y-105110500D01*
X189202392Y-105110500D01*
X189202387Y-105110500D01*
X189030549Y-105144681D01*
X189030537Y-105144684D01*
X188868670Y-105211731D01*
X188868657Y-105211738D01*
X188722977Y-105309079D01*
X188722973Y-105309082D01*
X188599082Y-105432973D01*
X188599079Y-105432977D01*
X188501738Y-105578657D01*
X188501731Y-105578670D01*
X188434684Y-105740537D01*
X188434681Y-105740549D01*
X188400500Y-105912387D01*
X186850500Y-105912387D01*
X186850499Y-104852128D01*
X186844091Y-104792517D01*
X186793796Y-104657669D01*
X186793795Y-104657668D01*
X186793793Y-104657664D01*
X186707547Y-104542455D01*
X186707544Y-104542452D01*
X186592335Y-104456206D01*
X186592328Y-104456202D01*
X186457482Y-104405908D01*
X186457483Y-104405908D01*
X186397883Y-104399501D01*
X186397881Y-104399500D01*
X186397873Y-104399500D01*
X186397865Y-104399500D01*
X186379500Y-104399500D01*
X186312461Y-104379815D01*
X186266706Y-104327011D01*
X186255500Y-104275500D01*
X186255500Y-102999999D01*
X189894341Y-102999999D01*
X189894341Y-103000000D01*
X189914936Y-103235403D01*
X189914938Y-103235413D01*
X189976094Y-103463655D01*
X189976096Y-103463659D01*
X189976097Y-103463663D01*
X190075965Y-103677830D01*
X190075967Y-103677834D01*
X190184281Y-103832521D01*
X190211505Y-103871401D01*
X190378599Y-104038495D01*
X190445125Y-104085077D01*
X190572165Y-104174032D01*
X190572167Y-104174033D01*
X190572170Y-104174035D01*
X190786337Y-104273903D01*
X191014592Y-104335063D01*
X191202918Y-104351539D01*
X191249999Y-104355659D01*
X191250000Y-104355659D01*
X191250001Y-104355659D01*
X191289234Y-104352226D01*
X191485408Y-104335063D01*
X191713663Y-104273903D01*
X191927830Y-104174035D01*
X192121401Y-104038495D01*
X192288495Y-103871401D01*
X192424035Y-103677830D01*
X192523903Y-103463663D01*
X192585063Y-103235408D01*
X192605659Y-103000000D01*
X192585063Y-102764592D01*
X192523903Y-102536337D01*
X192424035Y-102322171D01*
X192379923Y-102259171D01*
X192288494Y-102128597D01*
X192121402Y-101961506D01*
X192121395Y-101961501D01*
X191927834Y-101825967D01*
X191927830Y-101825965D01*
X191927828Y-101825964D01*
X191713663Y-101726097D01*
X191713659Y-101726096D01*
X191713655Y-101726094D01*
X191485413Y-101664938D01*
X191485403Y-101664936D01*
X191250001Y-101644341D01*
X191249999Y-101644341D01*
X191014596Y-101664936D01*
X191014586Y-101664938D01*
X190786344Y-101726094D01*
X190786335Y-101726098D01*
X190572171Y-101825964D01*
X190572169Y-101825965D01*
X190378597Y-101961505D01*
X190211505Y-102128597D01*
X190075965Y-102322169D01*
X190075964Y-102322171D01*
X189976098Y-102536335D01*
X189976094Y-102536344D01*
X189914938Y-102764586D01*
X189914936Y-102764596D01*
X189894341Y-102999999D01*
X186255500Y-102999999D01*
X186255500Y-102259171D01*
X186275185Y-102192132D01*
X186327989Y-102146377D01*
X186338538Y-102142132D01*
X186349522Y-102138289D01*
X186502262Y-102042316D01*
X186629816Y-101914762D01*
X186725789Y-101762022D01*
X186785368Y-101591755D01*
X186795161Y-101504829D01*
X186822226Y-101440418D01*
X186830690Y-101431043D01*
X187458506Y-100803228D01*
X187458511Y-100803224D01*
X187468714Y-100793020D01*
X187468716Y-100793020D01*
X187580520Y-100681216D01*
X187642746Y-100573437D01*
X187659577Y-100544285D01*
X187700501Y-100391557D01*
X187700501Y-100233443D01*
X187700501Y-100225848D01*
X187700500Y-100225830D01*
X187700500Y-99999999D01*
X189894341Y-99999999D01*
X189894341Y-100000000D01*
X189914936Y-100235403D01*
X189914938Y-100235413D01*
X189976094Y-100463655D01*
X189976096Y-100463659D01*
X189976097Y-100463663D01*
X190013692Y-100544285D01*
X190075965Y-100677830D01*
X190075967Y-100677834D01*
X190184281Y-100832521D01*
X190211505Y-100871401D01*
X190378599Y-101038495D01*
X190475384Y-101106265D01*
X190572165Y-101174032D01*
X190572167Y-101174033D01*
X190572170Y-101174035D01*
X190786337Y-101273903D01*
X191014592Y-101335063D01*
X191202918Y-101351539D01*
X191249999Y-101355659D01*
X191250000Y-101355659D01*
X191250001Y-101355659D01*
X191289234Y-101352226D01*
X191485408Y-101335063D01*
X191713663Y-101273903D01*
X191927830Y-101174035D01*
X192121401Y-101038495D01*
X192288495Y-100871401D01*
X192424035Y-100677830D01*
X192523903Y-100463663D01*
X192585063Y-100235408D01*
X192605659Y-100000000D01*
X192585063Y-99764592D01*
X192523903Y-99536337D01*
X192424035Y-99322171D01*
X192396856Y-99283354D01*
X192288494Y-99128597D01*
X192121402Y-98961506D01*
X192121395Y-98961501D01*
X191927834Y-98825967D01*
X191927830Y-98825965D01*
X191851091Y-98790181D01*
X191713663Y-98726097D01*
X191713659Y-98726096D01*
X191713655Y-98726094D01*
X191485413Y-98664938D01*
X191485403Y-98664936D01*
X191250001Y-98644341D01*
X191249999Y-98644341D01*
X191014596Y-98664936D01*
X191014586Y-98664938D01*
X190786344Y-98726094D01*
X190786335Y-98726098D01*
X190572171Y-98825964D01*
X190572169Y-98825965D01*
X190378597Y-98961505D01*
X190211505Y-99128597D01*
X190075965Y-99322169D01*
X190075964Y-99322171D01*
X189976098Y-99536335D01*
X189976094Y-99536344D01*
X189914938Y-99764586D01*
X189914936Y-99764596D01*
X189894341Y-99999999D01*
X187700500Y-99999999D01*
X187700500Y-96999999D01*
X189894341Y-96999999D01*
X189894341Y-97000000D01*
X189914936Y-97235403D01*
X189914938Y-97235413D01*
X189976094Y-97463655D01*
X189976096Y-97463659D01*
X189976097Y-97463663D01*
X190075965Y-97677830D01*
X190075967Y-97677834D01*
X190133594Y-97760133D01*
X190211505Y-97871401D01*
X190378599Y-98038495D01*
X190475384Y-98106265D01*
X190572165Y-98174032D01*
X190572167Y-98174033D01*
X190572170Y-98174035D01*
X190786337Y-98273903D01*
X191014592Y-98335063D01*
X191180073Y-98349541D01*
X191249999Y-98355659D01*
X191250000Y-98355659D01*
X191250001Y-98355659D01*
X191319927Y-98349541D01*
X191485408Y-98335063D01*
X191713663Y-98273903D01*
X191927830Y-98174035D01*
X192121401Y-98038495D01*
X192288495Y-97871401D01*
X192424035Y-97677830D01*
X192523903Y-97463663D01*
X192585063Y-97235408D01*
X192605659Y-97000000D01*
X192585063Y-96764592D01*
X192523903Y-96536337D01*
X192424035Y-96322171D01*
X192418586Y-96314388D01*
X192288494Y-96128597D01*
X192121402Y-95961506D01*
X192121395Y-95961501D01*
X191927834Y-95825967D01*
X191927830Y-95825965D01*
X191899510Y-95812759D01*
X191713663Y-95726097D01*
X191713659Y-95726096D01*
X191713655Y-95726094D01*
X191485413Y-95664938D01*
X191485403Y-95664936D01*
X191250001Y-95644341D01*
X191249999Y-95644341D01*
X191014596Y-95664936D01*
X191014586Y-95664938D01*
X190786344Y-95726094D01*
X190786335Y-95726098D01*
X190572171Y-95825964D01*
X190572169Y-95825965D01*
X190378597Y-95961505D01*
X190211505Y-96128597D01*
X190075965Y-96322169D01*
X190075964Y-96322171D01*
X189976098Y-96536335D01*
X189976094Y-96536344D01*
X189914938Y-96764586D01*
X189914936Y-96764596D01*
X189894341Y-96999999D01*
X187700500Y-96999999D01*
X187700500Y-96020944D01*
X187700500Y-96020943D01*
X187700109Y-96019481D01*
X187659577Y-95868215D01*
X187627559Y-95812759D01*
X187627559Y-95812758D01*
X187580522Y-95731287D01*
X187580521Y-95731286D01*
X187580520Y-95731284D01*
X187468716Y-95619480D01*
X187468715Y-95619479D01*
X187464385Y-95615149D01*
X187464374Y-95615139D01*
X187078337Y-95229102D01*
X187044852Y-95167779D01*
X187049836Y-95098087D01*
X187078336Y-95053741D01*
X187129816Y-95002262D01*
X187225789Y-94849522D01*
X187285368Y-94679255D01*
X187291329Y-94626350D01*
X187305565Y-94500003D01*
X187305565Y-94499996D01*
X187285369Y-94320750D01*
X187285368Y-94320745D01*
X187225788Y-94150476D01*
X187129815Y-93997737D01*
X187094759Y-93962681D01*
X187067296Y-93912387D01*
X188400500Y-93912387D01*
X188400500Y-94087612D01*
X188434681Y-94259450D01*
X188434684Y-94259462D01*
X188501731Y-94421329D01*
X188501738Y-94421342D01*
X188599079Y-94567022D01*
X188599082Y-94567026D01*
X188722973Y-94690917D01*
X188722977Y-94690920D01*
X188868657Y-94788261D01*
X188868670Y-94788268D01*
X189016554Y-94849523D01*
X189030542Y-94855317D01*
X189202387Y-94889499D01*
X189202391Y-94889500D01*
X189202392Y-94889500D01*
X189377609Y-94889500D01*
X189377610Y-94889499D01*
X189549458Y-94855317D01*
X189711336Y-94788265D01*
X189857023Y-94690920D01*
X189980920Y-94567023D01*
X190078265Y-94421336D01*
X190145317Y-94259458D01*
X190179500Y-94087608D01*
X190179500Y-93912392D01*
X190145317Y-93740542D01*
X190145315Y-93740537D01*
X190078268Y-93578670D01*
X190078261Y-93578657D01*
X189980920Y-93432977D01*
X189980917Y-93432973D01*
X189857026Y-93309082D01*
X189857022Y-93309079D01*
X189711342Y-93211738D01*
X189711329Y-93211731D01*
X189549462Y-93144684D01*
X189549450Y-93144681D01*
X189377612Y-93110500D01*
X189377608Y-93110500D01*
X189202392Y-93110500D01*
X189202387Y-93110500D01*
X189030549Y-93144681D01*
X189030537Y-93144684D01*
X188868670Y-93211731D01*
X188868657Y-93211738D01*
X188722977Y-93309079D01*
X188722973Y-93309082D01*
X188599082Y-93432973D01*
X188599079Y-93432977D01*
X188501738Y-93578657D01*
X188501731Y-93578670D01*
X188434684Y-93740537D01*
X188434681Y-93740549D01*
X188400500Y-93912387D01*
X187067296Y-93912387D01*
X187061274Y-93901358D01*
X187066258Y-93831666D01*
X187094759Y-93787319D01*
X187129816Y-93752262D01*
X187225789Y-93599522D01*
X187285368Y-93429255D01*
X187298908Y-93309082D01*
X187305565Y-93250003D01*
X187305565Y-93249996D01*
X187285369Y-93070750D01*
X187285368Y-93070745D01*
X187225788Y-92900476D01*
X187129815Y-92747737D01*
X187002262Y-92620184D01*
X186849523Y-92524211D01*
X186679254Y-92464631D01*
X186679249Y-92464630D01*
X186500004Y-92444435D01*
X186499996Y-92444435D01*
X186320750Y-92464630D01*
X186320745Y-92464631D01*
X186150476Y-92524211D01*
X186021117Y-92605494D01*
X185955145Y-92624500D01*
X185874315Y-92624500D01*
X185807276Y-92604815D01*
X185761521Y-92552011D01*
X185751577Y-92482853D01*
X185757274Y-92459545D01*
X185785366Y-92379262D01*
X185785369Y-92379249D01*
X185805565Y-92200003D01*
X185805565Y-92199996D01*
X185785369Y-92020750D01*
X185785368Y-92020745D01*
X185725789Y-91850478D01*
X185629816Y-91697738D01*
X185502262Y-91570184D01*
X185349523Y-91474211D01*
X185179254Y-91414631D01*
X185179249Y-91414630D01*
X185000004Y-91394435D01*
X184999996Y-91394435D01*
X184820750Y-91414630D01*
X184820745Y-91414631D01*
X184650476Y-91474211D01*
X184497737Y-91570184D01*
X184370184Y-91697737D01*
X184274211Y-91850476D01*
X184268621Y-91866454D01*
X184227900Y-91923230D01*
X184162947Y-91948978D01*
X184151579Y-91949500D01*
X183162322Y-91949500D01*
X183095283Y-91929815D01*
X183088012Y-91924768D01*
X183079590Y-91918463D01*
X183079588Y-91918462D01*
X182944742Y-91868168D01*
X182944743Y-91868168D01*
X182885143Y-91861761D01*
X182885141Y-91861760D01*
X182885133Y-91861760D01*
X182885124Y-91861760D01*
X180989389Y-91861760D01*
X180989383Y-91861761D01*
X180929776Y-91868168D01*
X180794931Y-91918462D01*
X180794924Y-91918466D01*
X180679716Y-92004712D01*
X180679715Y-92004713D01*
X180679714Y-92004714D01*
X180655116Y-92037572D01*
X180599184Y-92079442D01*
X180555851Y-92087260D01*
X180537260Y-92087260D01*
X180537260Y-92160104D01*
X180543879Y-92221658D01*
X180543880Y-92248169D01*
X180543169Y-92254774D01*
X180543169Y-92254777D01*
X180536760Y-92314387D01*
X180536760Y-92314393D01*
X180536760Y-92314395D01*
X180536760Y-92960130D01*
X180536761Y-92960139D01*
X180543627Y-93024011D01*
X180543627Y-93050517D01*
X180543169Y-93054776D01*
X180543169Y-93054777D01*
X180536760Y-93114387D01*
X180536760Y-93114389D01*
X180536760Y-93114393D01*
X180536760Y-93760130D01*
X180536761Y-93760139D01*
X180543627Y-93824011D01*
X180543627Y-93850517D01*
X180543169Y-93854776D01*
X180543169Y-93854777D01*
X180536760Y-93914387D01*
X180536760Y-93914389D01*
X180536760Y-93914393D01*
X180536760Y-94560130D01*
X180536761Y-94560139D01*
X180543627Y-94624011D01*
X180543627Y-94650517D01*
X180543169Y-94654776D01*
X180543169Y-94654777D01*
X180536760Y-94714387D01*
X180536760Y-94714392D01*
X180536760Y-94714393D01*
X180536760Y-95360130D01*
X180536761Y-95360139D01*
X180543627Y-95424011D01*
X180543627Y-95450517D01*
X180543169Y-95454776D01*
X180543169Y-95454777D01*
X180536760Y-95514387D01*
X180536760Y-95514389D01*
X180536760Y-95514393D01*
X180536760Y-96160130D01*
X180536761Y-96160139D01*
X180543627Y-96224011D01*
X180543627Y-96250517D01*
X180543169Y-96254776D01*
X180543169Y-96254777D01*
X180536760Y-96314387D01*
X180536760Y-96314389D01*
X180536760Y-96314393D01*
X180536760Y-96960130D01*
X180536761Y-96960139D01*
X180543627Y-97024011D01*
X180543627Y-97050517D01*
X180543169Y-97054776D01*
X180543169Y-97054777D01*
X180536760Y-97114387D01*
X180536760Y-97114389D01*
X180536760Y-97114393D01*
X180536760Y-97760130D01*
X180536761Y-97760139D01*
X180543627Y-97824011D01*
X180543627Y-97850517D01*
X180543169Y-97854776D01*
X180543169Y-97854777D01*
X180536760Y-97914387D01*
X180536760Y-97914389D01*
X180536760Y-97914393D01*
X180536760Y-98560130D01*
X180536761Y-98560134D01*
X180541826Y-98607246D01*
X180529420Y-98676005D01*
X180481809Y-98727142D01*
X180418536Y-98744500D01*
X179155984Y-98744500D01*
X179088945Y-98724815D01*
X179043190Y-98672011D01*
X179032694Y-98607247D01*
X179037760Y-98560133D01*
X179037759Y-97914388D01*
X179031351Y-97854777D01*
X179031349Y-97854773D01*
X179030892Y-97850515D01*
X179030892Y-97824005D01*
X179031349Y-97819746D01*
X179031351Y-97819743D01*
X179037760Y-97760133D01*
X179037759Y-97114388D01*
X179031351Y-97054777D01*
X179031349Y-97054773D01*
X179030892Y-97050515D01*
X179030892Y-97024005D01*
X179031349Y-97019746D01*
X179031351Y-97019743D01*
X179037760Y-96960133D01*
X179037759Y-96314388D01*
X179031351Y-96254777D01*
X179031349Y-96254773D01*
X179030892Y-96250515D01*
X179030892Y-96224005D01*
X179031349Y-96219746D01*
X179031351Y-96219743D01*
X179037760Y-96160133D01*
X179037759Y-95514388D01*
X179031351Y-95454777D01*
X179031350Y-95454776D01*
X179030640Y-95448164D01*
X179030641Y-95421653D01*
X179037259Y-95360102D01*
X179037260Y-95360087D01*
X179037260Y-95287260D01*
X179018669Y-95287260D01*
X178951630Y-95267575D01*
X178919404Y-95237573D01*
X178894806Y-95204714D01*
X178803717Y-95136525D01*
X178761848Y-95080593D01*
X178756864Y-95010901D01*
X178790349Y-94949578D01*
X178803712Y-94937998D01*
X178894806Y-94869806D01*
X178919403Y-94836947D01*
X178975336Y-94795078D01*
X179018669Y-94787260D01*
X179037260Y-94787260D01*
X179037260Y-94714432D01*
X179037259Y-94714420D01*
X179030640Y-94652864D01*
X179030640Y-94626350D01*
X179031350Y-94619745D01*
X179031351Y-94619743D01*
X179037760Y-94560133D01*
X179037759Y-93914388D01*
X179031351Y-93854777D01*
X179031349Y-93854773D01*
X179030892Y-93850515D01*
X179030892Y-93824005D01*
X179031349Y-93819746D01*
X179031351Y-93819743D01*
X179037760Y-93760133D01*
X179037759Y-93114388D01*
X179031351Y-93054777D01*
X179031349Y-93054773D01*
X179030892Y-93050515D01*
X179030892Y-93024005D01*
X179031349Y-93019746D01*
X179031351Y-93019743D01*
X179037760Y-92960133D01*
X179037759Y-92314388D01*
X179031351Y-92254777D01*
X179031349Y-92254773D01*
X179030892Y-92250515D01*
X179030892Y-92224005D01*
X179031349Y-92219746D01*
X179031351Y-92219743D01*
X179037760Y-92160133D01*
X179037759Y-91514415D01*
X180537260Y-91514415D01*
X180537260Y-91587260D01*
X181687260Y-91587260D01*
X182187260Y-91587260D01*
X183337260Y-91587260D01*
X183337260Y-91514432D01*
X183337259Y-91514415D01*
X183330858Y-91454887D01*
X183330856Y-91454880D01*
X183280614Y-91320173D01*
X183280610Y-91320166D01*
X183194450Y-91205072D01*
X183194447Y-91205069D01*
X183079353Y-91118909D01*
X183079346Y-91118905D01*
X182944639Y-91068663D01*
X182944632Y-91068661D01*
X182885104Y-91062260D01*
X182187260Y-91062260D01*
X182187260Y-91587260D01*
X181687260Y-91587260D01*
X181687260Y-91062260D01*
X180989415Y-91062260D01*
X180929887Y-91068661D01*
X180929880Y-91068663D01*
X180795173Y-91118905D01*
X180795166Y-91118909D01*
X180680072Y-91205069D01*
X180680069Y-91205072D01*
X180593909Y-91320166D01*
X180593905Y-91320173D01*
X180543663Y-91454880D01*
X180543661Y-91454887D01*
X180537260Y-91514415D01*
X179037759Y-91514415D01*
X179037759Y-91514388D01*
X179031351Y-91454777D01*
X178981144Y-91320166D01*
X178981057Y-91319931D01*
X178981053Y-91319924D01*
X178894807Y-91204715D01*
X178894804Y-91204712D01*
X178779595Y-91118466D01*
X178779588Y-91118462D01*
X178644742Y-91068168D01*
X178644743Y-91068168D01*
X178585143Y-91061761D01*
X178585141Y-91061760D01*
X178585133Y-91061760D01*
X178585124Y-91061760D01*
X176689389Y-91061760D01*
X176689383Y-91061761D01*
X176629776Y-91068168D01*
X176494931Y-91118462D01*
X176494924Y-91118466D01*
X176379715Y-91204712D01*
X176379712Y-91204715D01*
X176293466Y-91319924D01*
X176293462Y-91319931D01*
X176243170Y-91454773D01*
X176243169Y-91454777D01*
X176236760Y-91514387D01*
X176236760Y-91514394D01*
X176236760Y-91514395D01*
X176236760Y-92160130D01*
X176236761Y-92160139D01*
X176243627Y-92224011D01*
X176243627Y-92250517D01*
X176243169Y-92254776D01*
X176243169Y-92254777D01*
X176236760Y-92314387D01*
X176236760Y-92314389D01*
X176236760Y-92314393D01*
X176236760Y-92960130D01*
X176236761Y-92960139D01*
X176243627Y-93024011D01*
X176243627Y-93050517D01*
X176243169Y-93054776D01*
X176243169Y-93054777D01*
X176236760Y-93114387D01*
X176236760Y-93114389D01*
X176236760Y-93114393D01*
X176236760Y-93760130D01*
X176236761Y-93760139D01*
X176243627Y-93824011D01*
X176243627Y-93850517D01*
X176243169Y-93854776D01*
X176243169Y-93854777D01*
X176236760Y-93914387D01*
X176236760Y-93914389D01*
X176236760Y-93914393D01*
X176236760Y-94560130D01*
X176236761Y-94560136D01*
X176243879Y-94626352D01*
X176243879Y-94652859D01*
X176237260Y-94714429D01*
X176237260Y-94787260D01*
X176255851Y-94787260D01*
X176322890Y-94806945D01*
X176355115Y-94836946D01*
X176379714Y-94869806D01*
X176406022Y-94889500D01*
X176455091Y-94926234D01*
X176496962Y-94982168D01*
X176501946Y-95051859D01*
X176468460Y-95113182D01*
X176407137Y-95146666D01*
X176380780Y-95149500D01*
X176108467Y-95149500D01*
X175977965Y-95175459D01*
X175977962Y-95175460D01*
X175922972Y-95198237D01*
X175889406Y-95206895D01*
X175845415Y-95211852D01*
X175820745Y-95214632D01*
X175779392Y-95229102D01*
X175650478Y-95274210D01*
X175497737Y-95370184D01*
X175370184Y-95497737D01*
X175274211Y-95650476D01*
X175214631Y-95820745D01*
X175214630Y-95820750D01*
X175194435Y-95999996D01*
X175194435Y-96000003D01*
X175214630Y-96179249D01*
X175214631Y-96179254D01*
X175274211Y-96349523D01*
X175316774Y-96417261D01*
X175370184Y-96502262D01*
X175497738Y-96629816D01*
X175650478Y-96725789D01*
X175761371Y-96764592D01*
X175820745Y-96785368D01*
X175820750Y-96785369D01*
X175999996Y-96805565D01*
X176000000Y-96805565D01*
X176000002Y-96805565D01*
X176032798Y-96801869D01*
X176098877Y-96794424D01*
X176167698Y-96806478D01*
X176219077Y-96853827D01*
X176236760Y-96917641D01*
X176236760Y-96960128D01*
X176236761Y-96960139D01*
X176243627Y-97024011D01*
X176243627Y-97050517D01*
X176243169Y-97054776D01*
X176243169Y-97054777D01*
X176236760Y-97114387D01*
X176236760Y-97114389D01*
X176236760Y-97114393D01*
X176236760Y-97760130D01*
X176236761Y-97760139D01*
X176243627Y-97824011D01*
X176243627Y-97850517D01*
X176243169Y-97854776D01*
X176243169Y-97854777D01*
X176236760Y-97914387D01*
X176236760Y-97914389D01*
X176236760Y-97914393D01*
X176236760Y-98560130D01*
X176236761Y-98560134D01*
X176241826Y-98607246D01*
X176229420Y-98676005D01*
X176181809Y-98727142D01*
X176118536Y-98744500D01*
X174999997Y-98744500D01*
X174928059Y-98749644D01*
X174790005Y-98790182D01*
X174668969Y-98867967D01*
X174668965Y-98867971D01*
X174574750Y-98976700D01*
X174574744Y-98976709D01*
X174514976Y-99107580D01*
X174514975Y-99107585D01*
X174494500Y-99249999D01*
X174494500Y-104085077D01*
X174495788Y-104121143D01*
X174526372Y-104261733D01*
X174526372Y-104261734D01*
X174586772Y-104372348D01*
X174601624Y-104440621D01*
X174577207Y-104506085D01*
X174565621Y-104519456D01*
X173481286Y-105603792D01*
X173369481Y-105715596D01*
X173369479Y-105715599D01*
X173319361Y-105802408D01*
X173319359Y-105802410D01*
X173290425Y-105852523D01*
X173290424Y-105852524D01*
X173290423Y-105852529D01*
X173249499Y-106005257D01*
X173249499Y-106005259D01*
X173249499Y-106173360D01*
X173249500Y-106173373D01*
X173249500Y-118126000D01*
X173229815Y-118193039D01*
X173177011Y-118238794D01*
X173125500Y-118250000D01*
X147778045Y-118250000D01*
X147711006Y-118230315D01*
X147665251Y-118177511D01*
X147654523Y-118119055D01*
X147654500Y-118119055D01*
X147654500Y-118118929D01*
X147654310Y-118117894D01*
X147654500Y-118114993D01*
X147654500Y-117885010D01*
X147654500Y-117885004D01*
X147624480Y-117656980D01*
X147564954Y-117434824D01*
X147476940Y-117222339D01*
X147468362Y-117207482D01*
X147361944Y-117023160D01*
X147221935Y-116840696D01*
X147221929Y-116840689D01*
X147059310Y-116678070D01*
X147059303Y-116678064D01*
X146876839Y-116538055D01*
X146677664Y-116423061D01*
X146677654Y-116423057D01*
X146465185Y-116335049D01*
X146465178Y-116335047D01*
X146465176Y-116335046D01*
X146243020Y-116275520D01*
X146243014Y-116275519D01*
X146243009Y-116275518D01*
X146015005Y-116245501D01*
X146015002Y-116245500D01*
X146014996Y-116245500D01*
X145785004Y-116245500D01*
X145784998Y-116245500D01*
X145784994Y-116245501D01*
X145556990Y-116275518D01*
X145556983Y-116275519D01*
X145556980Y-116275520D01*
X145334824Y-116335046D01*
X145334814Y-116335049D01*
X145122345Y-116423057D01*
X145122335Y-116423061D01*
X144923160Y-116538055D01*
X144740696Y-116678064D01*
X144740689Y-116678070D01*
X144578070Y-116840689D01*
X144578064Y-116840696D01*
X144438055Y-117023160D01*
X144323061Y-117222335D01*
X144323057Y-117222345D01*
X144235049Y-117434814D01*
X144235046Y-117434824D01*
X144175521Y-117656977D01*
X144175518Y-117656990D01*
X144145501Y-117884994D01*
X144145500Y-117885010D01*
X144145500Y-118114993D01*
X144145690Y-118117894D01*
X144145500Y-118118742D01*
X144145500Y-118119055D01*
X144145430Y-118119055D01*
X144130430Y-118186076D01*
X144080730Y-118235186D01*
X144021955Y-118250000D01*
X140074500Y-118250000D01*
X140007461Y-118230315D01*
X139961706Y-118177511D01*
X139950500Y-118126000D01*
X139950500Y-114291904D01*
X141261647Y-114291904D01*
X141261647Y-114291905D01*
X141296628Y-114352493D01*
X141296634Y-114352503D01*
X141352319Y-114430703D01*
X141460950Y-114524832D01*
X141460952Y-114524833D01*
X141591696Y-114584543D01*
X141591700Y-114584544D01*
X141733976Y-114604999D01*
X141733978Y-114605000D01*
X142511950Y-114605000D01*
X142522191Y-114605424D01*
X142558289Y-114608415D01*
X142558302Y-114608416D01*
X142641698Y-114608416D01*
X142641710Y-114608415D01*
X142677809Y-114605424D01*
X142688050Y-114605000D01*
X143466030Y-114605000D01*
X143561592Y-114595874D01*
X143561601Y-114595872D01*
X143697430Y-114548862D01*
X143814512Y-114465488D01*
X143814515Y-114465484D01*
X143903368Y-114352499D01*
X143938351Y-114291903D01*
X142600000Y-112953553D01*
X141261647Y-114291904D01*
X139950500Y-114291904D01*
X139950500Y-112575968D01*
X140363521Y-112575968D01*
X140363521Y-112575972D01*
X140377184Y-112719059D01*
X140430604Y-112852496D01*
X140430605Y-112852499D01*
X140848943Y-113577080D01*
X140850611Y-113580063D01*
X140895806Y-113663578D01*
X140895812Y-113663587D01*
X140920387Y-113701200D01*
X140923967Y-113707024D01*
X141002829Y-113843616D01*
X141002830Y-113843617D01*
X142246447Y-112600000D01*
X142246447Y-112599999D01*
X142953553Y-112599999D01*
X142953553Y-112600001D01*
X144197169Y-113843617D01*
X144197169Y-113843616D01*
X144276028Y-113707029D01*
X144279611Y-113701201D01*
X144304183Y-113663595D01*
X144304186Y-113663589D01*
X144349393Y-113580052D01*
X144351062Y-113577067D01*
X144769389Y-112852508D01*
X144769397Y-112852492D01*
X144809275Y-112765172D01*
X144809277Y-112765166D01*
X144836478Y-112624031D01*
X144836478Y-112624027D01*
X144822815Y-112480940D01*
X144769395Y-112347503D01*
X144769394Y-112347500D01*
X144351062Y-111622931D01*
X144349393Y-111619947D01*
X144304192Y-111536421D01*
X144279606Y-111498791D01*
X144276026Y-111492966D01*
X144197169Y-111356382D01*
X142953553Y-112599999D01*
X142246447Y-112599999D01*
X141002829Y-111356382D01*
X141002828Y-111356382D01*
X140923969Y-111492970D01*
X140920391Y-111498791D01*
X140895812Y-111536411D01*
X140895806Y-111536421D01*
X140850612Y-111619935D01*
X140848944Y-111622918D01*
X140430610Y-112347491D01*
X140430602Y-112347507D01*
X140390724Y-112434827D01*
X140390722Y-112434833D01*
X140363521Y-112575968D01*
X139950500Y-112575968D01*
X139950500Y-108825948D01*
X140363021Y-108825948D01*
X140376697Y-108969176D01*
X140430171Y-109102746D01*
X140430172Y-109102749D01*
X140848511Y-109827331D01*
X140850158Y-109830277D01*
X140895370Y-109913822D01*
X140895372Y-109913825D01*
X140919948Y-109951440D01*
X140923528Y-109957264D01*
X141191455Y-110421329D01*
X141296199Y-110602750D01*
X141334026Y-110655870D01*
X141356877Y-110721893D01*
X141340406Y-110789794D01*
X141330489Y-110804446D01*
X141296636Y-110847494D01*
X141296628Y-110847504D01*
X141261647Y-110908093D01*
X141261647Y-110908094D01*
X142600000Y-112246447D01*
X142600001Y-112246447D01*
X143938351Y-110908094D01*
X143903370Y-110847505D01*
X143903360Y-110847488D01*
X143865953Y-110794957D01*
X143843101Y-110728930D01*
X143859574Y-110661030D01*
X143869491Y-110646379D01*
X143903799Y-110602752D01*
X143903801Y-110602750D01*
X144276491Y-109957227D01*
X144280035Y-109951463D01*
X144304630Y-109913822D01*
X144349845Y-109830267D01*
X144351457Y-109827383D01*
X144769827Y-109102750D01*
X144809749Y-109015332D01*
X144836978Y-108874052D01*
X144823302Y-108730823D01*
X144769827Y-108597250D01*
X144351496Y-107872682D01*
X144349835Y-107869711D01*
X144304626Y-107786171D01*
X144280051Y-107748559D01*
X144276470Y-107742734D01*
X143912146Y-107111705D01*
X143903801Y-107097250D01*
X143848056Y-107018968D01*
X143739319Y-106924746D01*
X143739315Y-106924744D01*
X143608444Y-106864976D01*
X143608439Y-106864975D01*
X143466025Y-106844500D01*
X142688068Y-106844500D01*
X142677829Y-106844076D01*
X142673596Y-106843725D01*
X142641752Y-106841086D01*
X142641744Y-106841086D01*
X142558256Y-106841086D01*
X142558247Y-106841086D01*
X142525982Y-106843760D01*
X142522170Y-106844076D01*
X142511932Y-106844500D01*
X141733975Y-106844500D01*
X141638308Y-106853635D01*
X141638305Y-106853635D01*
X141638305Y-106853636D01*
X141502340Y-106900694D01*
X141502339Y-106900694D01*
X141385140Y-106984153D01*
X141385138Y-106984155D01*
X141296200Y-107097247D01*
X141296199Y-107097249D01*
X140923525Y-107742739D01*
X140919947Y-107748560D01*
X140895366Y-107786184D01*
X140850171Y-107869699D01*
X140848503Y-107872682D01*
X140430174Y-108597247D01*
X140430172Y-108597250D01*
X140390253Y-108684661D01*
X140390250Y-108684670D01*
X140363022Y-108825943D01*
X140363021Y-108825948D01*
X139950500Y-108825948D01*
X139950500Y-89312387D01*
X188400500Y-89312387D01*
X188400500Y-89487612D01*
X188434681Y-89659450D01*
X188434684Y-89659462D01*
X188501731Y-89821329D01*
X188501738Y-89821342D01*
X188599079Y-89967022D01*
X188599082Y-89967026D01*
X188722973Y-90090917D01*
X188722977Y-90090920D01*
X188868657Y-90188261D01*
X188868670Y-90188268D01*
X189030537Y-90255315D01*
X189030542Y-90255317D01*
X189202387Y-90289499D01*
X189202391Y-90289500D01*
X189202392Y-90289500D01*
X189377609Y-90289500D01*
X189377610Y-90289499D01*
X189549458Y-90255317D01*
X189711336Y-90188265D01*
X189857023Y-90090920D01*
X189980920Y-89967023D01*
X190078265Y-89821336D01*
X190145317Y-89659458D01*
X190179500Y-89487608D01*
X190179500Y-89312392D01*
X190145317Y-89140542D01*
X190145315Y-89140537D01*
X190078268Y-88978670D01*
X190078261Y-88978657D01*
X189980920Y-88832977D01*
X189980917Y-88832973D01*
X189857026Y-88709082D01*
X189857022Y-88709079D01*
X189711342Y-88611738D01*
X189711329Y-88611731D01*
X189549462Y-88544684D01*
X189549450Y-88544681D01*
X189377612Y-88510500D01*
X189377608Y-88510500D01*
X189202392Y-88510500D01*
X189202387Y-88510500D01*
X189030549Y-88544681D01*
X189030537Y-88544684D01*
X188868670Y-88611731D01*
X188868657Y-88611738D01*
X188722977Y-88709079D01*
X188722973Y-88709082D01*
X188599082Y-88832973D01*
X188599079Y-88832977D01*
X188501738Y-88978657D01*
X188501731Y-88978670D01*
X188434684Y-89140537D01*
X188434681Y-89140549D01*
X188400500Y-89312387D01*
X139950500Y-89312387D01*
X139950500Y-86120818D01*
X186024500Y-86120818D01*
X186024500Y-86654181D01*
X186034563Y-86752683D01*
X186087450Y-86912284D01*
X186087455Y-86912295D01*
X186175716Y-87055387D01*
X186175719Y-87055391D01*
X186294608Y-87174280D01*
X186294612Y-87174283D01*
X186437704Y-87262544D01*
X186437707Y-87262545D01*
X186437713Y-87262549D01*
X186597315Y-87315436D01*
X186695826Y-87325500D01*
X186695831Y-87325500D01*
X187304169Y-87325500D01*
X187304174Y-87325500D01*
X187402685Y-87315436D01*
X187562287Y-87262549D01*
X187705391Y-87174281D01*
X187824281Y-87055391D01*
X187824284Y-87055385D01*
X187828762Y-87049724D01*
X187830786Y-87051324D01*
X187873759Y-87012676D01*
X187927345Y-87000500D01*
X189960909Y-87000500D01*
X190027948Y-87020185D01*
X190073292Y-87072097D01*
X190075965Y-87077830D01*
X190211505Y-87271401D01*
X190378599Y-87438495D01*
X190475384Y-87506265D01*
X190572165Y-87574032D01*
X190572167Y-87574033D01*
X190572170Y-87574035D01*
X190786337Y-87673903D01*
X191014592Y-87735063D01*
X191202918Y-87751539D01*
X191249999Y-87755659D01*
X191250000Y-87755659D01*
X191250001Y-87755659D01*
X191289234Y-87752226D01*
X191485408Y-87735063D01*
X191713663Y-87673903D01*
X191927830Y-87574035D01*
X192121401Y-87438495D01*
X192288495Y-87271401D01*
X192424035Y-87077830D01*
X192523903Y-86863663D01*
X192585063Y-86635408D01*
X192605659Y-86400000D01*
X192585063Y-86164592D01*
X192523903Y-85936337D01*
X192424035Y-85722171D01*
X192424034Y-85722169D01*
X192288494Y-85528597D01*
X192121402Y-85361506D01*
X192121395Y-85361501D01*
X191927834Y-85225967D01*
X191927830Y-85225965D01*
X191927828Y-85225964D01*
X191713663Y-85126097D01*
X191713659Y-85126096D01*
X191713655Y-85126094D01*
X191485413Y-85064938D01*
X191485403Y-85064936D01*
X191250001Y-85044341D01*
X191249999Y-85044341D01*
X191014596Y-85064936D01*
X191014586Y-85064938D01*
X190786344Y-85126094D01*
X190786335Y-85126098D01*
X190572171Y-85225964D01*
X190572169Y-85225965D01*
X190378597Y-85361505D01*
X190211506Y-85528596D01*
X190075965Y-85722170D01*
X190075962Y-85722175D01*
X190073289Y-85727909D01*
X190027115Y-85780346D01*
X189960909Y-85799500D01*
X187942765Y-85799500D01*
X187875726Y-85779815D01*
X187837227Y-85740598D01*
X187824281Y-85719609D01*
X187791999Y-85687327D01*
X187758515Y-85626005D01*
X187763499Y-85556313D01*
X187792000Y-85511966D01*
X187823885Y-85480080D01*
X187912091Y-85337077D01*
X187912093Y-85337072D01*
X187964942Y-85177583D01*
X187974999Y-85079150D01*
X187975000Y-85079137D01*
X187975000Y-85062500D01*
X186025001Y-85062500D01*
X186025001Y-85079152D01*
X186035056Y-85177583D01*
X186087906Y-85337072D01*
X186087908Y-85337077D01*
X186176114Y-85480080D01*
X186208000Y-85511967D01*
X186241485Y-85573291D01*
X186236499Y-85642982D01*
X186208000Y-85687327D01*
X186175719Y-85719607D01*
X186175716Y-85719612D01*
X186087455Y-85862704D01*
X186087451Y-85862713D01*
X186034564Y-86022315D01*
X186034564Y-86022316D01*
X186034563Y-86022316D01*
X186024500Y-86120818D01*
X139950500Y-86120818D01*
X139950500Y-82019144D01*
X140549500Y-82019144D01*
X140549500Y-82605855D01*
X140559913Y-82707776D01*
X140614637Y-82872922D01*
X140614642Y-82872933D01*
X140705971Y-83020999D01*
X140705974Y-83021003D01*
X140828996Y-83144025D01*
X140829000Y-83144028D01*
X140829703Y-83144462D01*
X140830083Y-83144885D01*
X140834664Y-83148507D01*
X140834045Y-83149289D01*
X140876428Y-83196410D01*
X140887649Y-83265372D01*
X140859806Y-83329454D01*
X140834544Y-83351342D01*
X140834664Y-83351493D01*
X140831315Y-83354140D01*
X140829703Y-83355538D01*
X140829000Y-83355971D01*
X140828996Y-83355974D01*
X140705974Y-83478996D01*
X140705971Y-83479000D01*
X140614642Y-83627066D01*
X140614637Y-83627077D01*
X140559913Y-83792223D01*
X140549500Y-83894144D01*
X140549500Y-84480855D01*
X140559913Y-84582776D01*
X140614637Y-84747922D01*
X140614642Y-84747933D01*
X140705971Y-84895999D01*
X140705974Y-84896003D01*
X140828996Y-85019025D01*
X140829000Y-85019028D01*
X140977066Y-85110357D01*
X140977069Y-85110358D01*
X140977075Y-85110362D01*
X141142225Y-85165087D01*
X141244152Y-85175500D01*
X141244157Y-85175500D01*
X142255843Y-85175500D01*
X142255848Y-85175500D01*
X142357775Y-85165087D01*
X142522925Y-85110362D01*
X142671003Y-85019026D01*
X142794026Y-84896003D01*
X142885362Y-84747925D01*
X142940087Y-84582775D01*
X142943859Y-84545849D01*
X186025000Y-84545849D01*
X186025000Y-84562500D01*
X186750000Y-84562500D01*
X187250000Y-84562500D01*
X187974999Y-84562500D01*
X187974999Y-84545864D01*
X187974998Y-84545847D01*
X187964943Y-84447416D01*
X187912093Y-84287927D01*
X187912091Y-84287922D01*
X187823885Y-84144919D01*
X187705080Y-84026114D01*
X187562077Y-83937908D01*
X187562072Y-83937906D01*
X187402583Y-83885057D01*
X187304150Y-83875000D01*
X187250000Y-83875000D01*
X187250000Y-84562500D01*
X186750000Y-84562500D01*
X186750000Y-83875000D01*
X186749999Y-83874999D01*
X186695864Y-83875000D01*
X186695847Y-83875001D01*
X186597415Y-83885057D01*
X186437927Y-83937906D01*
X186437922Y-83937908D01*
X186294919Y-84026114D01*
X186176114Y-84144919D01*
X186087908Y-84287922D01*
X186087906Y-84287927D01*
X186035057Y-84447416D01*
X186025000Y-84545849D01*
X142943859Y-84545849D01*
X142950500Y-84480848D01*
X142950500Y-83894152D01*
X142940087Y-83792225D01*
X142885362Y-83627075D01*
X142885358Y-83627069D01*
X142885357Y-83627066D01*
X142794028Y-83479000D01*
X142794025Y-83478996D01*
X142671004Y-83355975D01*
X142671003Y-83355974D01*
X142670301Y-83355541D01*
X142669921Y-83355118D01*
X142665336Y-83351493D01*
X142665955Y-83350709D01*
X142623575Y-83303598D01*
X142612349Y-83234636D01*
X142640188Y-83170552D01*
X142665455Y-83148657D01*
X142665336Y-83148507D01*
X142668687Y-83145856D01*
X142670299Y-83144459D01*
X142671003Y-83144026D01*
X142794026Y-83021003D01*
X142885362Y-82872925D01*
X142940087Y-82707775D01*
X142950500Y-82605848D01*
X142950500Y-82019152D01*
X142940087Y-81917225D01*
X142885362Y-81752075D01*
X142885358Y-81752069D01*
X142885357Y-81752066D01*
X142794028Y-81604000D01*
X142794025Y-81603996D01*
X142671003Y-81480974D01*
X142670999Y-81480971D01*
X142522933Y-81389642D01*
X142522927Y-81389639D01*
X142522925Y-81389638D01*
X142435496Y-81360667D01*
X142378051Y-81320894D01*
X142351228Y-81256378D01*
X142350500Y-81242961D01*
X142350500Y-81144912D01*
X142370185Y-81077873D01*
X142377555Y-81067597D01*
X142379810Y-81064767D01*
X142379816Y-81064762D01*
X142475789Y-80912022D01*
X142535368Y-80741755D01*
X142547350Y-80635413D01*
X142555565Y-80562503D01*
X142555565Y-80562496D01*
X142535369Y-80383250D01*
X142535368Y-80383245D01*
X142521052Y-80342331D01*
X142475789Y-80212978D01*
X142379816Y-80060238D01*
X142252262Y-79932684D01*
X142212120Y-79907461D01*
X142099523Y-79836711D01*
X141929254Y-79777131D01*
X141929249Y-79777130D01*
X141750004Y-79756935D01*
X141749996Y-79756935D01*
X141570750Y-79777130D01*
X141570745Y-79777131D01*
X141400476Y-79836711D01*
X141247737Y-79932684D01*
X141120184Y-80060237D01*
X141024211Y-80212976D01*
X140964631Y-80383245D01*
X140964630Y-80383250D01*
X140944435Y-80562496D01*
X140944435Y-80562503D01*
X140964630Y-80741749D01*
X140964631Y-80741754D01*
X141024211Y-80912023D01*
X141120185Y-81064763D01*
X141122445Y-81067597D01*
X141123334Y-81069775D01*
X141123889Y-81070658D01*
X141123734Y-81070755D01*
X141148855Y-81132283D01*
X141149500Y-81144912D01*
X141149500Y-81242961D01*
X141129815Y-81310000D01*
X141077011Y-81355755D01*
X141064504Y-81360667D01*
X140977077Y-81389637D01*
X140977066Y-81389642D01*
X140829000Y-81480971D01*
X140828996Y-81480974D01*
X140705974Y-81603996D01*
X140705971Y-81604000D01*
X140614642Y-81752066D01*
X140614637Y-81752077D01*
X140559913Y-81917223D01*
X140549500Y-82019144D01*
X139950500Y-82019144D01*
X139950500Y-74285010D01*
X144145500Y-74285010D01*
X144145500Y-74514989D01*
X144145501Y-74515005D01*
X144175518Y-74743009D01*
X144175519Y-74743014D01*
X144175520Y-74743020D01*
X144235046Y-74965175D01*
X144235049Y-74965185D01*
X144323057Y-75177654D01*
X144323061Y-75177664D01*
X144438055Y-75376839D01*
X144578064Y-75559303D01*
X144578070Y-75559310D01*
X144740689Y-75721929D01*
X144740696Y-75721935D01*
X144923160Y-75861944D01*
X145122335Y-75976938D01*
X145122336Y-75976938D01*
X145122339Y-75976940D01*
X145285060Y-76044341D01*
X145334780Y-76064936D01*
X145334824Y-76064954D01*
X145556980Y-76124480D01*
X145785004Y-76154500D01*
X145785011Y-76154500D01*
X146014989Y-76154500D01*
X146014996Y-76154500D01*
X146243020Y-76124480D01*
X146465176Y-76064954D01*
X146677661Y-75976940D01*
X146876840Y-75861944D01*
X147059305Y-75721934D01*
X147221934Y-75559305D01*
X147361944Y-75376840D01*
X147476940Y-75177661D01*
X147564954Y-74965176D01*
X147624480Y-74743020D01*
X147654500Y-74514996D01*
X147654500Y-74285010D01*
X177745500Y-74285010D01*
X177745500Y-74514989D01*
X177745501Y-74515005D01*
X177775518Y-74743009D01*
X177775519Y-74743014D01*
X177775520Y-74743020D01*
X177835046Y-74965175D01*
X177835049Y-74965185D01*
X177923057Y-75177654D01*
X177923061Y-75177664D01*
X178038055Y-75376839D01*
X178178064Y-75559303D01*
X178178070Y-75559310D01*
X178340689Y-75721929D01*
X178340696Y-75721935D01*
X178523160Y-75861944D01*
X178722335Y-75976938D01*
X178722336Y-75976938D01*
X178722339Y-75976940D01*
X178885060Y-76044341D01*
X178934780Y-76064936D01*
X178934824Y-76064954D01*
X179156980Y-76124480D01*
X179385004Y-76154500D01*
X179385011Y-76154500D01*
X179614989Y-76154500D01*
X179614996Y-76154500D01*
X179843020Y-76124480D01*
X180065176Y-76064954D01*
X180277661Y-75976940D01*
X180476840Y-75861944D01*
X180659305Y-75721934D01*
X180821934Y-75559305D01*
X180961944Y-75376840D01*
X181076940Y-75177661D01*
X181164954Y-74965176D01*
X181224480Y-74743020D01*
X181254500Y-74514996D01*
X181254500Y-74352135D01*
X184149500Y-74352135D01*
X184149500Y-76147870D01*
X184149501Y-76147876D01*
X184155908Y-76207483D01*
X184206202Y-76342328D01*
X184206206Y-76342335D01*
X184292452Y-76457544D01*
X184292455Y-76457547D01*
X184407664Y-76543793D01*
X184407671Y-76543797D01*
X184433912Y-76553584D01*
X184542517Y-76594091D01*
X184602127Y-76600500D01*
X185065588Y-76600499D01*
X185132627Y-76620183D01*
X185153269Y-76636818D01*
X186204270Y-77687819D01*
X186237755Y-77749142D01*
X186232771Y-77818834D01*
X186190899Y-77874767D01*
X186125435Y-77899184D01*
X186116589Y-77899500D01*
X184602129Y-77899500D01*
X184602123Y-77899501D01*
X184542516Y-77905908D01*
X184407671Y-77956202D01*
X184407664Y-77956206D01*
X184292455Y-78042452D01*
X184292452Y-78042455D01*
X184206206Y-78157664D01*
X184206202Y-78157671D01*
X184155908Y-78292517D01*
X184149501Y-78352116D01*
X184149500Y-78352135D01*
X184149500Y-80147870D01*
X184149501Y-80147876D01*
X184155908Y-80207483D01*
X184206202Y-80342328D01*
X184206206Y-80342335D01*
X184292452Y-80457544D01*
X184292455Y-80457547D01*
X184407664Y-80543793D01*
X184407671Y-80543797D01*
X184542517Y-80594091D01*
X184542516Y-80594091D01*
X184549444Y-80594835D01*
X184602127Y-80600500D01*
X186397872Y-80600499D01*
X186457483Y-80594091D01*
X186592331Y-80543796D01*
X186707546Y-80457546D01*
X186793796Y-80342331D01*
X186844091Y-80207483D01*
X186850500Y-80147873D01*
X186850500Y-79974500D01*
X186870185Y-79907461D01*
X186922989Y-79861706D01*
X186974500Y-79850500D01*
X187749903Y-79850500D01*
X187816942Y-79870185D01*
X187837584Y-79886819D01*
X190257752Y-82306987D01*
X190291237Y-82368310D01*
X190286253Y-82438002D01*
X190257754Y-82482347D01*
X190211506Y-82528596D01*
X190075965Y-82722169D01*
X190075964Y-82722171D01*
X189976098Y-82936335D01*
X189976094Y-82936344D01*
X189914938Y-83164586D01*
X189914936Y-83164596D01*
X189894341Y-83399999D01*
X189894341Y-83400000D01*
X189914936Y-83635403D01*
X189914938Y-83635413D01*
X189976094Y-83863655D01*
X189976096Y-83863659D01*
X189976097Y-83863663D01*
X190010718Y-83937908D01*
X190075965Y-84077830D01*
X190075967Y-84077834D01*
X190122941Y-84144919D01*
X190211505Y-84271401D01*
X190378599Y-84438495D01*
X190475384Y-84506265D01*
X190572165Y-84574032D01*
X190572167Y-84574033D01*
X190572170Y-84574035D01*
X190786337Y-84673903D01*
X191014592Y-84735063D01*
X191202918Y-84751539D01*
X191249999Y-84755659D01*
X191250000Y-84755659D01*
X191250001Y-84755659D01*
X191289234Y-84752226D01*
X191485408Y-84735063D01*
X191713663Y-84673903D01*
X191927830Y-84574035D01*
X192121401Y-84438495D01*
X192288495Y-84271401D01*
X192424035Y-84077830D01*
X192523903Y-83863663D01*
X192585063Y-83635408D01*
X192605659Y-83400000D01*
X192585063Y-83164592D01*
X192523903Y-82936337D01*
X192424035Y-82722171D01*
X192342586Y-82605848D01*
X192288494Y-82528597D01*
X192121402Y-82361506D01*
X192121395Y-82361501D01*
X191927831Y-82225965D01*
X191927829Y-82225964D01*
X191807567Y-82169885D01*
X191755128Y-82123713D01*
X191752584Y-82119501D01*
X191730522Y-82081287D01*
X191730521Y-82081286D01*
X191730520Y-82081284D01*
X191618716Y-81969480D01*
X191618715Y-81969479D01*
X191614385Y-81965149D01*
X191614374Y-81965139D01*
X191557533Y-81908298D01*
X191524048Y-81846975D01*
X191529032Y-81777283D01*
X191570904Y-81721350D01*
X191613119Y-81700843D01*
X191676743Y-81683795D01*
X191713653Y-81673906D01*
X191713654Y-81673905D01*
X191713663Y-81673903D01*
X191927830Y-81574035D01*
X192121401Y-81438495D01*
X192288495Y-81271401D01*
X192424035Y-81077830D01*
X192523903Y-80863663D01*
X192585063Y-80635408D01*
X192605659Y-80400000D01*
X192585063Y-80164592D01*
X192523903Y-79936337D01*
X192424035Y-79722171D01*
X192288495Y-79528599D01*
X192288494Y-79528597D01*
X192121402Y-79361506D01*
X192121395Y-79361501D01*
X191927834Y-79225967D01*
X191927830Y-79225965D01*
X191927828Y-79225964D01*
X191713663Y-79126097D01*
X191713659Y-79126096D01*
X191713655Y-79126094D01*
X191485413Y-79064938D01*
X191485403Y-79064936D01*
X191250001Y-79044341D01*
X191249999Y-79044341D01*
X191014596Y-79064936D01*
X191014586Y-79064938D01*
X190786344Y-79126094D01*
X190786335Y-79126098D01*
X190572171Y-79225964D01*
X190572169Y-79225965D01*
X190378597Y-79361505D01*
X190211508Y-79528594D01*
X190103533Y-79682799D01*
X190048956Y-79726423D01*
X189979457Y-79733616D01*
X189917103Y-79702094D01*
X189914277Y-79699356D01*
X187614920Y-77399999D01*
X189894341Y-77399999D01*
X189894341Y-77400000D01*
X189914936Y-77635403D01*
X189914938Y-77635413D01*
X189976094Y-77863655D01*
X189976096Y-77863659D01*
X189976097Y-77863663D01*
X189995797Y-77905909D01*
X190075965Y-78077830D01*
X190075967Y-78077834D01*
X190131865Y-78157664D01*
X190211505Y-78271401D01*
X190378599Y-78438495D01*
X190475384Y-78506265D01*
X190572165Y-78574032D01*
X190572167Y-78574033D01*
X190572170Y-78574035D01*
X190786337Y-78673903D01*
X191014592Y-78735063D01*
X191202918Y-78751539D01*
X191249999Y-78755659D01*
X191250000Y-78755659D01*
X191250001Y-78755659D01*
X191289234Y-78752226D01*
X191485408Y-78735063D01*
X191713663Y-78673903D01*
X191927830Y-78574035D01*
X192121401Y-78438495D01*
X192288495Y-78271401D01*
X192424035Y-78077830D01*
X192523903Y-77863663D01*
X192585063Y-77635408D01*
X192605659Y-77400000D01*
X192585063Y-77164592D01*
X192523903Y-76936337D01*
X192424035Y-76722171D01*
X192364271Y-76636818D01*
X192288494Y-76528597D01*
X192121402Y-76361506D01*
X192121395Y-76361501D01*
X191927834Y-76225967D01*
X191927830Y-76225965D01*
X191888193Y-76207482D01*
X191713663Y-76126097D01*
X191713659Y-76126096D01*
X191713655Y-76126094D01*
X191485413Y-76064938D01*
X191485403Y-76064936D01*
X191250001Y-76044341D01*
X191249999Y-76044341D01*
X191014596Y-76064936D01*
X191014586Y-76064938D01*
X190786344Y-76126094D01*
X190786335Y-76126098D01*
X190572171Y-76225964D01*
X190572169Y-76225965D01*
X190378597Y-76361505D01*
X190211505Y-76528597D01*
X190075965Y-76722169D01*
X190075964Y-76722171D01*
X189976098Y-76936335D01*
X189976094Y-76936344D01*
X189914938Y-77164586D01*
X189914936Y-77164596D01*
X189894341Y-77399999D01*
X187614920Y-77399999D01*
X186768505Y-76553584D01*
X186735020Y-76492261D01*
X186740004Y-76422569D01*
X186756919Y-76391592D01*
X186793796Y-76342331D01*
X186844091Y-76207483D01*
X186850500Y-76147873D01*
X186850499Y-74352128D01*
X186846227Y-74312387D01*
X188400500Y-74312387D01*
X188400500Y-74487612D01*
X188434681Y-74659450D01*
X188434684Y-74659462D01*
X188501731Y-74821329D01*
X188501738Y-74821342D01*
X188599079Y-74967022D01*
X188599082Y-74967026D01*
X188722973Y-75090917D01*
X188722977Y-75090920D01*
X188868657Y-75188261D01*
X188868670Y-75188268D01*
X189030537Y-75255315D01*
X189030542Y-75255317D01*
X189202387Y-75289499D01*
X189202391Y-75289500D01*
X189202392Y-75289500D01*
X189377609Y-75289500D01*
X189377610Y-75289499D01*
X189549458Y-75255317D01*
X189711336Y-75188265D01*
X189857023Y-75090920D01*
X189980920Y-74967023D01*
X190078265Y-74821336D01*
X190145317Y-74659458D01*
X190179500Y-74487608D01*
X190179500Y-74312392D01*
X190145317Y-74140542D01*
X190110705Y-74056980D01*
X190078268Y-73978670D01*
X190078261Y-73978657D01*
X189980920Y-73832977D01*
X189980917Y-73832973D01*
X189857026Y-73709082D01*
X189857022Y-73709079D01*
X189711342Y-73611738D01*
X189711329Y-73611731D01*
X189549462Y-73544684D01*
X189549450Y-73544681D01*
X189377612Y-73510500D01*
X189377608Y-73510500D01*
X189202392Y-73510500D01*
X189202387Y-73510500D01*
X189030549Y-73544681D01*
X189030537Y-73544684D01*
X188868670Y-73611731D01*
X188868657Y-73611738D01*
X188722977Y-73709079D01*
X188722973Y-73709082D01*
X188599082Y-73832973D01*
X188599079Y-73832977D01*
X188501738Y-73978657D01*
X188501731Y-73978670D01*
X188434684Y-74140537D01*
X188434681Y-74140549D01*
X188400500Y-74312387D01*
X186846227Y-74312387D01*
X186844091Y-74292517D01*
X186841312Y-74285067D01*
X186793797Y-74157671D01*
X186793793Y-74157664D01*
X186707547Y-74042455D01*
X186707544Y-74042452D01*
X186592335Y-73956206D01*
X186592328Y-73956202D01*
X186457482Y-73905908D01*
X186457483Y-73905908D01*
X186397883Y-73899501D01*
X186397881Y-73899500D01*
X186397873Y-73899500D01*
X186397864Y-73899500D01*
X184602129Y-73899500D01*
X184602123Y-73899501D01*
X184542516Y-73905908D01*
X184407671Y-73956202D01*
X184407664Y-73956206D01*
X184292455Y-74042452D01*
X184292452Y-74042455D01*
X184206206Y-74157664D01*
X184206202Y-74157671D01*
X184155908Y-74292517D01*
X184149501Y-74352116D01*
X184149501Y-74352123D01*
X184149500Y-74352135D01*
X181254500Y-74352135D01*
X181254500Y-74285004D01*
X181224480Y-74056980D01*
X181164954Y-73834824D01*
X181076940Y-73622339D01*
X181070815Y-73611731D01*
X180961944Y-73423160D01*
X180821935Y-73240696D01*
X180821929Y-73240689D01*
X180659310Y-73078070D01*
X180659303Y-73078064D01*
X180476839Y-72938055D01*
X180277664Y-72823061D01*
X180277654Y-72823057D01*
X180065185Y-72735049D01*
X180065178Y-72735047D01*
X180065176Y-72735046D01*
X179843020Y-72675520D01*
X179843014Y-72675519D01*
X179843009Y-72675518D01*
X179615005Y-72645501D01*
X179615002Y-72645500D01*
X179614996Y-72645500D01*
X179385004Y-72645500D01*
X179384998Y-72645500D01*
X179384994Y-72645501D01*
X179156990Y-72675518D01*
X179156983Y-72675519D01*
X179156980Y-72675520D01*
X179044734Y-72705596D01*
X178934824Y-72735046D01*
X178934814Y-72735049D01*
X178722345Y-72823057D01*
X178722335Y-72823061D01*
X178523160Y-72938055D01*
X178340696Y-73078064D01*
X178340689Y-73078070D01*
X178178070Y-73240689D01*
X178178064Y-73240696D01*
X178038055Y-73423160D01*
X177923061Y-73622335D01*
X177923057Y-73622345D01*
X177835049Y-73834814D01*
X177835046Y-73834824D01*
X177796507Y-73978657D01*
X177775521Y-74056977D01*
X177775518Y-74056990D01*
X177745501Y-74284994D01*
X177745500Y-74285010D01*
X147654500Y-74285010D01*
X147654500Y-74285004D01*
X147624480Y-74056980D01*
X147564954Y-73834824D01*
X147476940Y-73622339D01*
X147470815Y-73611731D01*
X147361944Y-73423160D01*
X147221935Y-73240696D01*
X147221929Y-73240689D01*
X147059310Y-73078070D01*
X147059303Y-73078064D01*
X146876839Y-72938055D01*
X146677664Y-72823061D01*
X146677654Y-72823057D01*
X146465185Y-72735049D01*
X146465178Y-72735047D01*
X146465176Y-72735046D01*
X146243020Y-72675520D01*
X146243014Y-72675519D01*
X146243009Y-72675518D01*
X146015005Y-72645501D01*
X146015002Y-72645500D01*
X146014996Y-72645500D01*
X145785004Y-72645500D01*
X145784998Y-72645500D01*
X145784994Y-72645501D01*
X145556990Y-72675518D01*
X145556983Y-72675519D01*
X145556980Y-72675520D01*
X145444734Y-72705596D01*
X145334824Y-72735046D01*
X145334814Y-72735049D01*
X145122345Y-72823057D01*
X145122335Y-72823061D01*
X144923160Y-72938055D01*
X144740696Y-73078064D01*
X144740689Y-73078070D01*
X144578070Y-73240689D01*
X144578064Y-73240696D01*
X144438055Y-73423160D01*
X144323061Y-73622335D01*
X144323057Y-73622345D01*
X144235049Y-73834814D01*
X144235046Y-73834824D01*
X144196507Y-73978657D01*
X144175521Y-74056977D01*
X144175518Y-74056990D01*
X144145501Y-74284994D01*
X144145500Y-74285010D01*
X139950500Y-74285010D01*
X139950500Y-74257131D01*
X139950717Y-74254298D01*
X139950675Y-74243759D01*
X139950512Y-74202370D01*
X139950685Y-74195308D01*
X139953592Y-74140542D01*
X139966055Y-73905759D01*
X139967606Y-73891724D01*
X139977200Y-73834814D01*
X140015210Y-73609319D01*
X140018347Y-73595552D01*
X140033028Y-73544684D01*
X140097759Y-73320387D01*
X140102441Y-73307067D01*
X140212631Y-73042712D01*
X140218788Y-73030029D01*
X140358328Y-72779914D01*
X140365883Y-72768019D01*
X140532971Y-72535381D01*
X140541841Y-72524410D01*
X140734283Y-72312299D01*
X140744341Y-72302409D01*
X140959665Y-72113551D01*
X140970779Y-72104872D01*
X141206174Y-71941731D01*
X141218212Y-71934367D01*
X141328469Y-71875262D01*
X141470630Y-71799054D01*
X141483416Y-71793110D01*
X141749606Y-71687370D01*
X141762977Y-71682923D01*
X142039459Y-71608142D01*
X142053254Y-71605242D01*
X142336444Y-71562387D01*
X142350473Y-71561075D01*
X142640038Y-71550580D01*
X142644529Y-71550500D01*
X142645620Y-71550500D01*
X142648193Y-71550526D01*
G37*
%TD.AperFunction*%
%TD*%
M02*
